<svg xmlns="http://www.w3.org/2000/svg" version="1.1" xmlns:xlink="http://www.w3.org/1999/xlink" xmlns:svgjs="http://svgjs.com/svgjs" width="40" height="40"><svg id="SvgjsSvg1002" style="overflow: hidden; top: -100%; left: -100%; position: absolute; opacity: 0;" width="2" height="0" focusable="false"><polyline id="SvgjsPolyline1003" points="0,0"></polyline><path id="SvgjsPath1004" d="M0 0 "></path></svg><defs id="SvgjsDefs3534"></defs><rect id="SvgjsRect3535" width="39" height="39" x="0.5" y="0.5" rx="8" ry="8" fill="#2d333b" stroke-opacity="1" stroke="#444c56" stroke-width="1"></rect><path id="SvgjsPath3536" d="M19.81 30.32C21.89 30.32 23.50 29.45 24.66 27.70C25.82 25.96 26.40 23.43 26.40 20.11C26.40 13.41 24.35 10.06 20.25 10.06C18.10 10.06 16.47 10.95 15.33 12.73C14.20 14.50 13.63 17.12 13.63 20.59C13.63 23.74 14.17 26.15 15.26 27.82C16.35 29.49 17.87 30.32 19.81 30.32ZM20.12 11.96C22.78 11.96 24.10 14.75 24.10 20.34C24.10 25.74 22.75 28.44 20.04 28.44C17.30 28.44 15.93 25.78 15.93 20.48C15.93 14.80 17.32 11.96 20.12 11.96Z" fill="#ffffff"></path></svg>