<svg xmlns="http://www.w3.org/2000/svg" version="1.1" xmlns:xlink="http://www.w3.org/1999/xlink" xmlns:svgjs="http://svgjs.com/svgjs" width="40" height="40"><svg id="SvgjsSvg1002" style="overflow: hidden; top: -100%; left: -100%; position: absolute; opacity: 0;" width="2" height="0" focusable="false"><polyline id="SvgjsPolyline1003" points="0,0"></polyline><path id="SvgjsPath1004" d="M0 0 "></path></svg><defs id="SvgjsDefs3543"></defs><rect id="SvgjsRect3544" width="39" height="39" x="0.5" y="0.5" rx="8" ry="8" fill="#2d333b" stroke-opacity="1" stroke="#444c56" stroke-width="1"></rect><path id="SvgjsPath3545" d="M14.24 29.27C15.35 29.97 16.83 30.32 18.69 30.32C20.76 30.32 22.42 29.78 23.68 28.70C24.95 27.62 25.58 26.20 25.58 24.44C25.58 23.17 25.16 22.10 24.33 21.25C23.49 20.40 22.37 19.90 20.96 19.77L20.96 19.71C23.58 18.97 24.89 17.32 24.89 14.74C24.89 13.37 24.40 12.25 23.41 11.37C22.42 10.50 21.10 10.06 19.45 10.06C17.74 10.06 16.25 10.43 15.00 11.18L15.00 13.37C16.22 12.43 17.52 11.96 18.89 11.96C21.36 11.96 22.60 13.07 22.60 15.30C22.60 17.70 20.98 18.91 17.74 18.91L16.20 18.91L16.20 20.81L17.83 20.81C21.46 20.81 23.28 22.09 23.28 24.65C23.28 25.81 22.87 26.73 22.06 27.41C21.24 28.09 20.15 28.44 18.78 28.44C17.10 28.44 15.58 27.91 14.24 26.85Z" fill="#ffffff"></path></svg>