<svg xmlns="http://www.w3.org/2000/svg" version="1.1" xmlns:xlink="http://www.w3.org/1999/xlink" xmlns:svgjs="http://svgjs.com/svgjs" width="40" height="40"><svg id="SvgjsSvg1002" style="overflow: hidden; top: -100%; left: -100%; position: absolute; opacity: 0;" width="2" height="0" focusable="false"><polyline id="SvgjsPolyline1003" points="0,0"></polyline><path id="SvgjsPath1004" d="M0 0 "></path></svg><defs id="SvgjsDefs3549"></defs><rect id="SvgjsRect3550" width="39" height="39" x="0.5" y="0.5" rx="8" ry="8" fill="#2d333b" stroke-opacity="1" stroke="#444c56" stroke-width="1"></rect><path id="SvgjsPath3551" d="M14.70 29.52C15.59 30.05 16.94 30.32 18.76 30.32C20.91 30.32 22.60 29.74 23.83 28.59C25.07 27.43 25.69 25.90 25.69 24.01C25.69 22.17 25.11 20.73 23.96 19.68C22.82 18.63 21.19 18.10 19.10 18.10C18.59 18.10 18.03 18.12 17.43 18.15L17.43 12.41L24.80 12.41L24.80 10.39L15.31 10.39L15.31 20.22C16.81 20.11 17.84 20.05 18.39 20.05C20 20.05 21.24 20.41 22.11 21.13C22.97 21.85 23.40 22.86 23.40 24.14C23.40 25.44 22.98 26.48 22.13 27.26C21.29 28.04 20.17 28.44 18.78 28.44C17.40 28.44 16.04 28.00 14.70 27.14Z" fill="#ffffff"></path></svg>