<svg xmlns="http://www.w3.org/2000/svg" version="1.1" xmlns:xlink="http://www.w3.org/1999/xlink" xmlns:svgjs="http://svgjs.com/svgjs" width="40" height="40"><svg id="SvgjsSvg1002" style="overflow: hidden; top: -100%; left: -100%; position: absolute; opacity: 0;" width="2" height="0" focusable="false"><polyline id="SvgjsPolyline1003" points="0,0"></polyline><path id="SvgjsPath1004" d="M0 0 "></path></svg><defs id="SvgjsDefs3561"></defs><rect id="SvgjsRect3562" width="39" height="39" x="0.5" y="0.5" rx="8" ry="8" fill="#2d333b" stroke-opacity="1" stroke="#444c56" stroke-width="1"></rect><path id="SvgjsPath3563" d="M14.80 29.67C15.77 30.10 16.91 30.32 18.22 30.32C20.72 30.32 22.67 29.34 24.07 27.38C25.48 25.42 26.18 22.63 26.18 19.02C26.18 16.10 25.64 13.88 24.56 12.35C23.48 10.82 21.97 10.06 20.04 10.06C18.20 10.06 16.69 10.67 15.51 11.90C14.33 13.12 13.74 14.69 13.74 16.61C13.74 18.40 14.28 19.87 15.35 21.01C16.43 22.15 17.80 22.72 19.48 22.72C21.56 22.72 23.02 21.88 23.86 20.19C23.87 20.20 23.89 20.20 23.91 20.19C23.91 22.83 23.42 24.86 22.43 26.29C21.44 27.72 20.05 28.44 18.28 28.44C17.06 28.44 15.90 28.13 14.80 27.51ZM19.84 11.96C21.00 11.96 21.95 12.43 22.68 13.37C23.41 14.31 23.77 15.52 23.77 17.01C23.77 18.04 23.41 18.92 22.67 19.64C21.94 20.36 21.04 20.72 19.99 20.72C18.77 20.72 17.81 20.33 17.10 19.54C16.39 18.75 16.04 17.67 16.04 16.29C16.04 15.04 16.40 14.00 17.12 13.18C17.85 12.37 18.75 11.96 19.84 11.96Z" fill="#ffffff"></path></svg>