<svg xmlns="http://www.w3.org/2000/svg" version="1.1" xmlns:xlink="http://www.w3.org/1999/xlink" xmlns:svgjs="http://svgjs.com/svgjs" width="40" height="40"><svg id="SvgjsSvg1002" style="overflow: hidden; top: -100%; left: -100%; position: absolute; opacity: 0;" width="2" height="0" focusable="false"><polyline id="SvgjsPolyline1003" points="0,0"></polyline><path id="SvgjsPath1004" d="M0 0 "></path></svg><defs id="SvgjsDefs3627"></defs><rect id="SvgjsRect3628" width="39" height="39" x="0.5" y="0.5" rx="8" ry="8" fill="#2d333b" stroke-opacity="1" stroke="#444c56" stroke-width="1"></rect><path id="SvgjsPath3629" d="M20.29 24.20L16.52 14.39L15.33 14.39L11.57 24.20L12.85 24.20L13.82 21.45L17.98 21.45L19.02 24.20ZM17.60 20.42L14.21 20.42L15.73 16.24C15.79 16.08 15.84 15.86 15.89 15.58L15.92 15.58C15.97 15.88 16.02 16.10 16.07 16.24ZM22.70 24.20L22.70 13.83L21.58 13.83L21.58 24.20ZM28.22 24.13L28.22 23.17C28.02 23.33 27.77 23.40 27.49 23.40C27.12 23.40 26.86 23.30 26.70 23.10C26.54 22.90 26.46 22.57 26.46 22.10L26.46 18.15L28.22 18.15L28.22 17.20L26.46 17.20L26.46 15.13L25.34 15.49L25.34 17.20L24.13 17.20L24.13 18.15L25.34 18.15L25.34 22.30C25.34 23.66 25.95 24.35 27.17 24.35C27.61 24.35 27.96 24.27 28.22 24.13Z" fill="#ffffff"></path></svg>