<svg xmlns="http://www.w3.org/2000/svg" version="1.1" xmlns:xlink="http://www.w3.org/1999/xlink" xmlns:svgjs="http://svgjs.com/svgjs" width="40" height="40"><svg id="SvgjsSvg1002" style="overflow: hidden; top: -100%; left: -100%; position: absolute; opacity: 0;" width="2" height="0" focusable="false"><polyline id="SvgjsPolyline1003" points="0,0"></polyline><path id="SvgjsPath1004" d="M0 0 "></path></svg><defs id="SvgjsDefs3609"></defs><rect id="SvgjsRect3610" width="39" height="39" x="0.5" y="0.5" rx="8" ry="8" fill="#2d333b" stroke-opacity="1" stroke="#444c56" stroke-width="1"></rect><path id="SvgjsPath3611" d="M11.02 24.20L13.62 24.20C15.23 24.20 16.51 23.74 17.47 22.82C18.43 21.90 18.91 20.69 18.91 19.17C18.91 15.99 17.18 14.39 13.73 14.39L11.02 14.39ZM12.17 15.43L13.70 15.43C16.37 15.43 17.71 16.69 17.71 19.20C17.71 20.46 17.35 21.44 16.63 22.13C15.92 22.81 14.92 23.16 13.63 23.16L12.17 23.16ZM26.31 20.98L26.31 20.39C26.31 19.34 26.06 18.51 25.56 17.92C25.06 17.33 24.35 17.03 23.44 17.03C22.52 17.03 21.75 17.38 21.13 18.06C20.52 18.75 20.21 19.64 20.21 20.72C20.21 21.88 20.49 22.77 21.06 23.41C21.62 24.04 22.40 24.36 23.39 24.36C24.40 24.36 25.21 24.14 25.83 23.69L25.83 22.64C25.17 23.16 24.44 23.42 23.65 23.42C22.95 23.42 22.40 23.21 22.00 22.78C21.60 22.36 21.39 21.76 21.37 20.98ZM25.16 20.03L21.38 20.03C21.47 19.42 21.70 18.92 22.07 18.54C22.44 18.17 22.89 17.98 23.41 17.98C23.96 17.98 24.39 18.16 24.70 18.52C25.00 18.88 25.16 19.38 25.16 20.03ZM29.13 24.20L29.13 13.83L28.01 13.83L28.01 24.20Z" fill="#ffffff"></path></svg>