<svg xmlns="http://www.w3.org/2000/svg" version="1.1" xmlns:xlink="http://www.w3.org/1999/xlink" xmlns:svgjs="http://svgjs.com/svgjs" width="40" height="40"><svg id="SvgjsSvg1002" style="overflow: hidden; top: -100%; left: -100%; position: absolute; opacity: 0;" width="2" height="0" focusable="false"><polyline id="SvgjsPolyline1003" points="0,0"></polyline><path id="SvgjsPath1004" d="M0 0 "></path></svg><defs id="SvgjsDefs3603"></defs><rect id="SvgjsRect3604" width="39" height="39" x="0.5" y="0.5" rx="8" ry="8" fill="#2d333b" stroke-opacity="1" stroke="#444c56" stroke-width="1"></rect><path id="SvgjsPath3605" d="M16.74 24.20L16.74 23.16L12.69 23.16L12.69 19.73L16.23 19.73L16.23 18.69L12.69 18.69L12.69 15.43L16.52 15.43L16.52 14.39L11.54 14.39L11.54 24.20ZM18.05 23.94C18.58 24.22 19.20 24.36 19.92 24.36C20.29 24.36 20.63 24.32 20.97 24.24C21.30 24.16 21.59 24.03 21.85 23.86C22.10 23.69 22.31 23.48 22.46 23.23C22.61 22.97 22.69 22.67 22.69 22.32C22.69 22.04 22.64 21.80 22.55 21.59C22.46 21.39 22.32 21.21 22.15 21.05C21.98 20.89 21.77 20.75 21.52 20.63C21.27 20.50 21.00 20.38 20.69 20.26L20.06 20.01C19.88 19.93 19.73 19.84 19.60 19.75C19.47 19.65 19.38 19.54 19.31 19.42C19.24 19.30 19.21 19.14 19.21 18.96C19.21 18.81 19.24 18.68 19.31 18.56C19.38 18.44 19.47 18.34 19.59 18.25C19.71 18.16 19.86 18.10 20.02 18.05C20.19 18.00 20.38 17.98 20.59 17.98C21.26 17.98 21.85 18.14 22.37 18.48L22.37 17.35C21.89 17.14 21.35 17.03 20.74 17.03C20.40 17.03 20.07 17.08 19.75 17.16C19.43 17.25 19.14 17.38 18.89 17.55C18.64 17.72 18.44 17.93 18.29 18.18C18.14 18.44 18.06 18.73 18.06 19.06C18.06 19.33 18.10 19.56 18.18 19.76C18.26 19.96 18.38 20.14 18.54 20.30C18.69 20.45 18.89 20.60 19.13 20.72C19.36 20.85 19.63 20.97 19.94 21.09L20.57 21.34C20.76 21.42 20.93 21.51 21.07 21.61C21.22 21.71 21.33 21.83 21.42 21.96C21.50 22.09 21.54 22.25 21.54 22.43C21.54 23.09 21.05 23.42 20.06 23.42C19.33 23.42 18.66 23.19 18.05 22.74ZM29.18 23.88L29.18 22.81C28.65 23.21 28.07 23.42 27.46 23.42C26.74 23.42 26.16 23.18 25.73 22.71C25.30 22.23 25.08 21.59 25.08 20.77C25.08 19.93 25.31 19.26 25.77 18.75C26.23 18.23 26.81 17.98 27.53 17.98C28.12 17.98 28.68 18.16 29.20 18.52L29.20 17.37C28.73 17.15 28.19 17.03 27.57 17.03C26.47 17.03 25.59 17.38 24.93 18.08C24.26 18.78 23.93 19.71 23.93 20.86C23.93 21.90 24.24 22.74 24.85 23.39C25.47 24.04 26.27 24.36 27.27 24.36C28.01 24.36 28.65 24.20 29.18 23.88Z" fill="#ffffff"></path></svg>