<svg xmlns="http://www.w3.org/2000/svg" version="1.1" xmlns:xlink="http://www.w3.org/1999/xlink" xmlns:svgjs="http://svgjs.com/svgjs" width="52" height="40"><svg id="SvgjsSvg1002" style="overflow: hidden; top: -100%; left: -100%; position: absolute; opacity: 0;" width="2" height="0" focusable="false"><polyline id="SvgjsPolyline1003" points="0,0"></polyline><path id="SvgjsPath1004" d="M0 0 "></path></svg><defs id="SvgjsDefs3591"></defs><rect id="SvgjsRect3592" width="51" height="39" x="0.5" y="0.5" rx="8" ry="8" fill="#2d333b" stroke-opacity="1" stroke="#444c56" stroke-width="1"></rect><path id="SvgjsPath3593" d="M20.36 14.84L20.36 13.59L14.38 13.59L14.38 25.36L15.76 25.36L15.76 20.15L20.01 20.15L20.01 18.91L15.76 18.91L15.76 14.84ZM29.14 25.36L29.14 24.17L26.49 24.17L26.49 13.33L22.42 14.57L22.42 15.85L25.15 15.04L25.15 24.17L22.49 24.17L22.49 25.36ZM34.51 25.55C35.76 25.55 36.73 25.03 37.43 23.98C38.12 22.93 38.47 21.42 38.47 19.43C38.47 15.41 37.24 13.40 34.78 13.40C33.49 13.40 32.51 13.93 31.83 15.00C31.15 16.06 30.81 17.63 30.81 19.71C30.81 21.60 31.13 23.05 31.79 24.05C32.44 25.05 33.35 25.55 34.51 25.55ZM34.70 14.54C36.29 14.54 37.09 16.21 37.09 19.56C37.09 22.80 36.28 24.42 34.65 24.42C33.01 24.42 32.19 22.83 32.19 19.65C32.19 16.24 33.02 14.54 34.70 14.54Z" fill="#ffffff"></path></svg>