<svg xmlns="http://www.w3.org/2000/svg" version="1.1" xmlns:xlink="http://www.w3.org/1999/xlink" xmlns:svgjs="http://svgjs.com/svgjs" width="52" height="40"><svg id="SvgjsSvg1002" style="overflow: hidden; top: -100%; left: -100%; position: absolute; opacity: 0;" width="2" height="0" focusable="false"><polyline id="SvgjsPolyline1003" points="0,0"></polyline><path id="SvgjsPath1004" d="M0 0 "></path></svg><defs id="SvgjsDefs3594"></defs><rect id="SvgjsRect3595" width="51" height="39" x="0.5" y="0.5" rx="8" ry="8" fill="#2d333b" stroke-opacity="1" stroke="#444c56" stroke-width="1"></rect><path id="SvgjsPath3596" d="M20.36 14.84L20.36 13.59L14.38 13.59L14.38 25.36L15.76 25.36L15.76 20.15L20.01 20.15L20.01 18.91L15.76 18.91L15.76 14.84ZM29.14 25.36L29.14 24.17L26.49 24.17L26.49 13.33L22.42 14.57L22.42 15.85L25.15 15.04L25.15 24.17L22.49 24.17L22.49 25.36ZM38.20 25.36L38.20 24.17L35.55 24.17L35.55 13.33L31.48 14.57L31.48 15.85L34.20 15.04L34.20 24.17L31.55 24.17L31.55 25.36Z" fill="#ffffff"></path></svg>