<svg xmlns="http://www.w3.org/2000/svg" version="1.1" xmlns:xlink="http://www.w3.org/1999/xlink" xmlns:svgjs="http://svgjs.com/svgjs" width="52" height="40"><svg id="SvgjsSvg1002" style="overflow: hidden; top: -100%; left: -100%; position: absolute; opacity: 0;" width="2" height="0" focusable="false"><polyline id="SvgjsPolyline1003" points="0,0"></polyline><path id="SvgjsPath1004" d="M0 0 "></path></svg><defs id="SvgjsDefs3570"></defs><rect id="SvgjsRect3571" width="51" height="39" x="0.5" y="0.5" rx="8" ry="8" fill="#2d333b" stroke-opacity="1" stroke="#444c56" stroke-width="1"></rect><path id="SvgjsPath3572" d="M24.88 14.84L24.88 13.59L18.91 13.59L18.91 25.36L20.29 25.36L20.29 20.15L24.54 20.15L24.54 18.91L20.29 18.91L20.29 14.84ZM26.65 24.92C27.31 25.34 28.20 25.55 29.31 25.55C30.56 25.55 31.55 25.23 32.31 24.58C33.07 23.93 33.45 23.08 33.45 22.03C33.45 21.26 33.20 20.62 32.70 20.11C32.20 19.60 31.52 19.30 30.68 19.22L30.68 19.19C32.25 18.74 33.04 17.75 33.04 16.20C33.04 15.38 32.74 14.71 32.15 14.18C31.55 13.66 30.76 13.40 29.77 13.40C28.75 13.40 27.85 13.62 27.10 14.07L27.10 15.38C27.83 14.82 28.61 14.54 29.44 14.54C30.92 14.54 31.66 15.20 31.66 16.54C31.66 17.98 30.69 18.70 28.75 18.70L27.82 18.70L27.82 19.84L28.80 19.84C30.98 19.84 32.07 20.61 32.07 22.15C32.07 22.84 31.83 23.40 31.34 23.81C30.85 24.22 30.19 24.42 29.37 24.42C28.36 24.42 27.45 24.10 26.65 23.47Z" fill="#ffffff"></path></svg>