<svg xmlns="http://www.w3.org/2000/svg" version="1.1" xmlns:xlink="http://www.w3.org/1999/xlink" xmlns:svgjs="http://svgjs.com/svgjs" width="52" height="40"><svg id="SvgjsSvg1002" style="overflow: hidden; top: -100%; left: -100%; position: absolute; opacity: 0;" width="2" height="0" focusable="false"><polyline id="SvgjsPolyline1003" points="0,0"></polyline><path id="SvgjsPath1004" d="M0 0 "></path></svg><defs id="SvgjsDefs3576"></defs><rect id="SvgjsRect3577" width="51" height="39" x="0.5" y="0.5" rx="8" ry="8" fill="#2d333b" stroke-opacity="1" stroke="#444c56" stroke-width="1"></rect><path id="SvgjsPath3578" d="M24.88 14.84L24.88 13.59L18.91 13.59L18.91 25.36L20.29 25.36L20.29 20.15L24.54 20.15L24.54 18.91L20.29 18.91L20.29 14.84ZM26.92 25.07C27.45 25.39 28.27 25.55 29.36 25.55C30.65 25.55 31.66 25.21 32.40 24.51C33.14 23.82 33.51 22.90 33.51 21.76C33.51 20.66 33.17 19.80 32.48 19.17C31.79 18.54 30.82 18.22 29.56 18.22C29.25 18.22 28.92 18.23 28.56 18.25L28.56 14.81L32.98 14.81L32.98 13.59L27.29 13.59L27.29 19.49C28.19 19.43 28.81 19.39 29.13 19.39C30.10 19.39 30.85 19.61 31.36 20.04C31.88 20.47 32.14 21.07 32.14 21.85C32.14 22.62 31.89 23.25 31.38 23.72C30.87 24.19 30.20 24.42 29.37 24.42C28.54 24.42 27.72 24.16 26.92 23.64Z" fill="#ffffff"></path></svg>