<svg xmlns="http://www.w3.org/2000/svg" version="1.1" xmlns:xlink="http://www.w3.org/1999/xlink" xmlns:svgjs="http://svgjs.com/svgjs" width="52" height="40"><svg id="SvgjsSvg1002" style="overflow: hidden; top: -100%; left: -100%; position: absolute; opacity: 0;" width="2" height="0" focusable="false"><polyline id="SvgjsPolyline1003" points="0,0"></polyline><path id="SvgjsPath1004" d="M0 0 "></path></svg><defs id="SvgjsDefs3585"></defs><rect id="SvgjsRect3586" width="51" height="39" x="0.5" y="0.5" rx="8" ry="8" fill="#2d333b" stroke-opacity="1" stroke="#444c56" stroke-width="1"></rect><path id="SvgjsPath3587" d="M24.88 14.84L24.88 13.59L18.91 13.59L18.91 25.36L20.29 25.36L20.29 20.15L24.54 20.15L24.54 18.91L20.29 18.91L20.29 14.84ZM28.94 19.19C27.24 19.88 26.39 20.98 26.39 22.49C26.39 23.39 26.72 24.13 27.37 24.70C28.02 25.27 28.85 25.55 29.86 25.55C31.10 25.55 32.08 25.27 32.78 24.69C33.48 24.12 33.83 23.34 33.83 22.37C33.83 20.86 32.97 19.80 31.25 19.19L31.25 19.15C32.70 18.43 33.43 17.42 33.43 16.12C33.43 15.32 33.14 14.67 32.55 14.16C31.96 13.65 31.20 13.40 30.28 13.40C29.26 13.40 28.43 13.67 27.79 14.21C27.14 14.76 26.82 15.45 26.82 16.30C26.82 17.55 27.53 18.50 28.94 19.15ZM32.05 16.28C32.05 17.28 31.41 18.04 30.11 18.58C28.84 18.06 28.20 17.29 28.20 16.27C28.20 15.76 28.39 15.35 28.77 15.02C29.15 14.70 29.61 14.54 30.16 14.54C30.74 14.54 31.21 14.69 31.55 15.00C31.88 15.32 32.05 15.74 32.05 16.28ZM30.02 19.83C31.64 20.41 32.45 21.29 32.45 22.47C32.45 23.03 32.23 23.50 31.80 23.87C31.37 24.24 30.82 24.42 30.14 24.42C29.43 24.42 28.86 24.23 28.42 23.86C27.99 23.48 27.77 23.00 27.77 22.42C27.77 21.29 28.52 20.42 30.02 19.83Z" fill="#ffffff"></path></svg>