<svg xmlns="http://www.w3.org/2000/svg" version="1.1" xmlns:xlink="http://www.w3.org/1999/xlink" xmlns:svgjs="http://svgjs.com/svgjs" width="52" height="40"><svg id="SvgjsSvg1002" style="overflow: hidden; top: -100%; left: -100%; position: absolute; opacity: 0;" width="2" height="0" focusable="false"><polyline id="SvgjsPolyline1003" points="0,0"></polyline><path id="SvgjsPath1004" d="M0 0 "></path></svg><defs id="SvgjsDefs3588"></defs><rect id="SvgjsRect3589" width="51" height="39" x="0.5" y="0.5" rx="8" ry="8" fill="#2d333b" stroke-opacity="1" stroke="#444c56" stroke-width="1"></rect><path id="SvgjsPath3590" d="M24.88 14.84L24.88 13.59L18.91 13.59L18.91 25.36L20.29 25.36L20.29 20.15L24.54 20.15L24.54 18.91L20.29 18.91L20.29 14.84ZM26.98 25.16C27.56 25.42 28.25 25.55 29.04 25.55C30.53 25.55 31.70 24.97 32.55 23.79C33.39 22.61 33.81 20.94 33.81 18.77C33.81 17.02 33.49 15.69 32.84 14.77C32.19 13.85 31.29 13.40 30.13 13.40C29.02 13.40 28.12 13.76 27.41 14.50C26.70 15.23 26.34 16.18 26.34 17.33C26.34 18.40 26.67 19.28 27.31 19.97C27.96 20.65 28.78 20.99 29.79 20.99C31.04 20.99 31.91 20.49 32.41 19.47C32.43 19.48 32.44 19.48 32.45 19.47C32.45 21.06 32.15 22.27 31.56 23.13C30.96 23.99 30.13 24.42 29.07 24.42C28.34 24.42 27.64 24.24 26.98 23.86ZM30.00 14.54C30.70 14.54 31.27 14.82 31.71 15.38C32.15 15.94 32.37 16.67 32.37 17.56C32.37 18.19 32.15 18.71 31.71 19.15C31.27 19.58 30.73 19.79 30.09 19.79C29.37 19.79 28.79 19.56 28.36 19.08C27.94 18.61 27.72 17.96 27.72 17.14C27.72 16.38 27.94 15.76 28.37 15.27C28.81 14.78 29.35 14.54 30.00 14.54Z" fill="#ffffff"></path></svg>