<svg xmlns="http://www.w3.org/2000/svg" version="1.1" xmlns:xlink="http://www.w3.org/1999/xlink" xmlns:svgjs="http://svgjs.com/svgjs" width="40" height="40"><svg id="SvgjsSvg1002" style="overflow: hidden; top: -100%; left: -100%; position: absolute; opacity: 0;" width="2" height="0" focusable="false"><polyline id="SvgjsPolyline1003" points="0,0"></polyline><path id="SvgjsPath1004" d="M0 0 "></path></svg><defs id="SvgjsDefs3630"></defs><rect id="SvgjsRect3631" width="39" height="39" x="0.5" y="0.5" rx="8" ry="8" fill="#2d333b" stroke-opacity="1" stroke="#444c56" stroke-width="1"></rect><path id="SvgjsPath3632" d="M18.88 15.43L18.88 14.39L13.91 14.39L13.91 24.20L15.05 24.20L15.05 19.86L18.60 19.86L18.60 18.82L15.05 18.82L15.05 15.43ZM26.40 24.20L26.40 19.92C26.40 18.98 26.20 18.27 25.79 17.77C25.39 17.28 24.80 17.03 24.04 17.03C23.03 17.03 22.27 17.47 21.74 18.36L21.71 18.36L21.71 17.20L20.59 17.20L20.59 24.20L21.71 24.20L21.71 20.20C21.71 19.56 21.90 19.03 22.26 18.61C22.63 18.19 23.09 17.98 23.65 17.98C24.74 17.98 25.28 18.72 25.28 20.20L25.28 24.20Z" fill="#ffffff"></path></svg>