<svg xmlns="http://www.w3.org/2000/svg" version="1.1" xmlns:xlink="http://www.w3.org/1999/xlink" xmlns:svgjs="http://svgjs.com/svgjs" width="40" height="40"><svg id="SvgjsSvg1002" style="overflow: hidden; top: -100%; left: -100%; position: absolute; opacity: 0;" width="2" height="0" focusable="false"><polyline id="SvgjsPolyline1003" points="0,0"></polyline><path id="SvgjsPath1004" d="M0 0 "></path></svg><defs id="SvgjsDefs3474"></defs><rect id="SvgjsRect3475" width="39" height="39" x="0.5" y="0.5" rx="8" ry="8" fill="#2d333b" stroke-opacity="1" stroke="#444c56" stroke-width="1"></rect><path id="SvgjsPath3476" d="M27.62 28.65L27.62 19.77L21.03 19.77L21.03 21.85L25.33 21.85L25.33 27.34C24.20 27.95 22.88 28.26 21.35 28.26C19.11 28.26 17.35 27.55 16.04 26.13C14.74 24.71 14.09 22.77 14.09 20.29C14.09 17.88 14.79 15.92 16.19 14.41C17.60 12.89 19.40 12.14 21.59 12.14C23.76 12.14 25.64 12.64 27.23 13.64L27.23 11.10C25.78 10.41 23.99 10.06 21.85 10.06C18.91 10.06 16.48 11.03 14.56 12.98C12.64 14.93 11.68 17.42 11.68 20.45C11.68 23.42 12.54 25.81 14.27 27.61C16.00 29.42 18.26 30.32 21.06 30.32C23.47 30.32 25.65 29.77 27.62 28.65Z" fill="#ffffff"></path></svg>