<svg xmlns="http://www.w3.org/2000/svg" version="1.1" xmlns:xlink="http://www.w3.org/1999/xlink" xmlns:svgjs="http://svgjs.com/svgjs" width="40" height="40"><svg id="SvgjsSvg1002" style="overflow: hidden; top: -100%; left: -100%; position: absolute; opacity: 0;" width="2" height="0" focusable="false"><polyline id="SvgjsPolyline1003" points="0,0"></polyline><path id="SvgjsPath1004" d="M0 0 "></path></svg><defs id="SvgjsDefs3495"></defs><rect id="SvgjsRect3496" width="39" height="39" x="0.5" y="0.5" rx="8" ry="8" fill="#2d333b" stroke-opacity="1" stroke="#444c56" stroke-width="1"></rect><path id="SvgjsPath3497" d="M27.90 29.99L27.90 10.39L25.61 10.39L25.61 24.20C25.61 25.55 25.65 26.52 25.74 27.08L25.69 27.08C25.57 26.84 25.30 26.41 24.89 25.77L15.08 10.39L12.10 10.39L12.10 29.99L14.39 29.99L14.39 15.83C14.39 14.45 14.36 13.56 14.29 13.14L14.37 13.14C14.53 13.56 14.74 13.97 15.00 14.37L25.09 29.99Z" fill="#ffffff"></path></svg>