<svg xmlns="http://www.w3.org/2000/svg" version="1.1" xmlns:xlink="http://www.w3.org/1999/xlink" xmlns:svgjs="http://svgjs.com/svgjs" width="40" height="40"><svg id="SvgjsSvg1002" style="overflow: hidden; top: -100%; left: -100%; position: absolute; opacity: 0;" width="2" height="0" focusable="false"><polyline id="SvgjsPolyline1003" points="0,0"></polyline><path id="SvgjsPath1004" d="M0 0 "></path></svg><defs id="SvgjsDefs3498"></defs><rect id="SvgjsRect3499" width="39" height="39" x="0.5" y="0.5" rx="8" ry="8" fill="#2d333b" stroke-opacity="1" stroke="#444c56" stroke-width="1"></rect><path id="SvgjsPath3500" d="M19.92 30.32C22.76 30.32 25.03 29.39 26.73 27.53C28.42 25.67 29.27 23.14 29.27 19.94C29.27 17.00 28.44 14.62 26.79 12.79C25.13 10.97 22.95 10.06 20.25 10.06C17.31 10.06 14.99 11.00 13.29 12.88C11.58 14.75 10.73 17.27 10.73 20.42C10.73 23.36 11.57 25.74 13.24 27.57C14.91 29.41 17.14 30.32 19.92 30.32ZM20.08 12.14C22.20 12.14 23.86 12.84 25.06 14.26C26.26 15.67 26.86 17.67 26.86 20.26C26.86 22.78 26.24 24.75 25.00 26.15C23.76 27.56 22.07 28.26 19.92 28.26C17.90 28.26 16.27 27.52 15.02 26.05C13.76 24.58 13.14 22.63 13.14 20.22C13.14 17.80 13.78 15.85 15.06 14.37C16.35 12.88 18.02 12.14 20.08 12.14Z" fill="#ffffff"></path></svg>