<svg xmlns="http://www.w3.org/2000/svg" version="1.1" xmlns:xlink="http://www.w3.org/1999/xlink" xmlns:svgjs="http://svgjs.com/svgjs" width="40" height="40"><svg id="SvgjsSvg1002" style="overflow: hidden; top: -100%; left: -100%; position: absolute; opacity: 0;" width="2" height="0" focusable="false"><polyline id="SvgjsPolyline1003" points="0,0"></polyline><path id="SvgjsPath1004" d="M0 0 "></path></svg><defs id="SvgjsDefs3510"></defs><rect id="SvgjsRect3511" width="39" height="39" x="0.5" y="0.5" rx="8" ry="8" fill="#2d333b" stroke-opacity="1" stroke="#444c56" stroke-width="1"></rect><path id="SvgjsPath3512" d="M14.22 29.20C14.47 29.37 14.81 29.53 15.24 29.67C15.66 29.81 16.11 29.93 16.58 30.03C17.06 30.12 17.52 30.20 17.98 30.25C18.43 30.30 18.82 30.32 19.13 30.32C20.05 30.32 20.94 30.23 21.78 30.04C22.62 29.85 23.36 29.55 24.00 29.13C24.64 28.71 25.15 28.17 25.53 27.50C25.91 26.83 26.10 26.01 26.10 25.04C26.10 24.32 25.96 23.67 25.68 23.10C25.40 22.54 25.03 22.02 24.55 21.56C24.08 21.09 23.53 20.67 22.90 20.29C22.27 19.90 21.60 19.54 20.90 19.19C20.22 18.86 19.61 18.55 19.09 18.26C18.57 17.98 18.12 17.69 17.76 17.39C17.39 17.09 17.12 16.75 16.93 16.39C16.74 16.03 16.65 15.59 16.65 15.09C16.65 14.55 16.77 14.10 17.02 13.72C17.27 13.35 17.58 13.05 17.98 12.81C18.37 12.57 18.82 12.40 19.32 12.30C19.82 12.19 20.32 12.14 20.82 12.14C22.63 12.14 24.12 12.54 25.28 13.34L25.28 10.76C24.39 10.29 22.99 10.06 21.05 10.06C20.21 10.06 19.37 10.16 18.56 10.37C17.74 10.58 17.01 10.90 16.38 11.33C15.74 11.76 15.22 12.30 14.83 12.97C14.44 13.63 14.24 14.40 14.24 15.30C14.24 16.03 14.37 16.66 14.62 17.20C14.87 17.75 15.21 18.23 15.65 18.66C16.09 19.09 16.60 19.48 17.20 19.84C17.79 20.19 18.43 20.54 19.11 20.89L20.92 21.82C21.48 22.12 21.97 22.43 22.38 22.75C22.79 23.08 23.11 23.44 23.34 23.83C23.58 24.22 23.69 24.68 23.69 25.21C23.69 26.19 23.34 26.95 22.65 27.47C21.95 28.00 20.89 28.26 19.48 28.26C19.07 28.26 18.62 28.22 18.14 28.13C17.66 28.05 17.18 27.94 16.70 27.79C16.22 27.64 15.76 27.45 15.33 27.23C14.90 27.01 14.53 26.77 14.22 26.49Z" fill="#ffffff"></path></svg>