<svg xmlns="http://www.w3.org/2000/svg" version="1.1" xmlns:xlink="http://www.w3.org/1999/xlink" xmlns:svgjs="http://svgjs.com/svgjs" width="56" height="40"><svg id="SvgjsSvg1002" style="overflow: hidden; top: -100%; left: -100%; position: absolute; opacity: 0;" width="2" height="0" focusable="false"><polyline id="SvgjsPolyline1003" points="0,0"></polyline><path id="SvgjsPath1004" d="M0 0 "></path></svg><defs id="SvgjsDefs3615"></defs><rect id="SvgjsRect3616" width="55" height="39" x="0.5" y="0.5" rx="8" ry="8" fill="#2d333b" stroke-opacity="1" stroke="#444c56" stroke-width="1"></rect><path id="SvgjsPath3617" d="M14.76 23.80C14.89 23.89 15.06 23.97 15.27 24.04C15.48 24.11 15.71 24.17 15.94 24.21C16.18 24.26 16.41 24.30 16.64 24.32C16.87 24.35 17.06 24.36 17.22 24.36C17.68 24.36 18.12 24.31 18.54 24.22C18.96 24.13 19.33 23.98 19.65 23.77C19.97 23.56 20.23 23.28 20.42 22.95C20.61 22.61 20.70 22.21 20.70 21.72C20.70 21.36 20.63 21.03 20.49 20.75C20.36 20.47 20.17 20.21 19.93 19.98C19.69 19.75 19.42 19.53 19.10 19.34C18.79 19.15 18.46 18.97 18.10 18.80C17.76 18.63 17.46 18.47 17.20 18.33C16.94 18.19 16.72 18.04 16.53 17.89C16.35 17.74 16.21 17.58 16.12 17.40C16.03 17.21 15.98 17.00 15.98 16.75C15.98 16.48 16.04 16.25 16.16 16.06C16.29 15.88 16.45 15.72 16.64 15.60C16.84 15.49 17.06 15.40 17.31 15.35C17.56 15.30 17.81 15.27 18.06 15.27C18.97 15.27 19.71 15.47 20.29 15.87L20.29 14.58C19.85 14.35 19.15 14.23 18.18 14.23C17.76 14.23 17.34 14.28 16.93 14.39C16.52 14.49 16.16 14.65 15.84 14.87C15.52 15.08 15.27 15.35 15.07 15.68C14.87 16.01 14.78 16.40 14.78 16.85C14.78 17.21 14.84 17.53 14.96 17.80C15.09 18.07 15.26 18.32 15.48 18.53C15.70 18.74 15.96 18.94 16.25 19.12C16.55 19.30 16.87 19.47 17.21 19.64L18.12 20.11C18.40 20.26 18.64 20.42 18.84 20.58C19.05 20.74 19.21 20.92 19.33 21.11C19.44 21.31 19.50 21.54 19.50 21.80C19.50 22.30 19.33 22.67 18.98 22.94C18.63 23.20 18.10 23.33 17.39 23.33C17.19 23.33 16.97 23.31 16.72 23.27C16.48 23.23 16.24 23.17 16.00 23.09C15.76 23.02 15.54 22.93 15.32 22.82C15.10 22.71 14.92 22.58 14.76 22.45ZM28.32 24.20L28.32 19.88C28.32 17.98 27.53 17.03 25.95 17.03C24.96 17.03 24.19 17.47 23.66 18.36L23.63 18.36L23.63 13.83L22.51 13.83L22.51 24.20L23.63 24.20L23.63 20.23C23.63 19.57 23.82 19.03 24.19 18.61C24.56 18.19 25.02 17.98 25.57 17.98C26.65 17.98 27.20 18.71 27.20 20.16L27.20 24.20ZM31.00 15.42C31.21 15.42 31.38 15.35 31.53 15.21C31.67 15.07 31.74 14.90 31.74 14.69C31.74 14.49 31.67 14.31 31.53 14.17C31.38 14.03 31.21 13.96 31.00 13.96C30.80 13.96 30.63 14.03 30.49 14.17C30.35 14.31 30.28 14.49 30.28 14.69C30.28 14.90 30.35 15.08 30.49 15.21C30.63 15.35 30.80 15.42 31.00 15.42ZM31.55 24.20L31.55 17.20L30.43 17.20L30.43 24.20ZM37.28 14.82L37.28 13.81C37.08 13.72 36.81 13.68 36.47 13.68C35.83 13.68 35.30 13.90 34.88 14.32C34.46 14.75 34.24 15.33 34.24 16.06L34.24 17.20L33.05 17.20L33.05 18.15L34.24 18.15L34.24 24.20L35.36 24.20L35.36 18.15L37.00 18.15L37.00 17.20L35.36 17.20L35.36 16.12C35.36 15.13 35.75 14.63 36.53 14.63C36.81 14.63 37.06 14.69 37.28 14.82ZM41.70 24.13L41.70 23.17C41.50 23.33 41.25 23.40 40.97 23.40C40.60 23.40 40.34 23.30 40.18 23.10C40.02 22.90 39.94 22.57 39.94 22.10L39.94 18.15L41.70 18.15L41.70 17.20L39.94 17.20L39.94 15.13L38.82 15.49L38.82 17.20L37.61 17.20L37.61 18.15L38.82 18.15L38.82 22.30C38.82 23.66 39.43 24.35 40.66 24.35C41.09 24.35 41.44 24.27 41.70 24.13Z" fill="#ffffff"></path></svg>