<svg xmlns="http://www.w3.org/2000/svg" version="1.1" xmlns:xlink="http://www.w3.org/1999/xlink" xmlns:svgjs="http://svgjs.com/svgjs" width="40" height="40"><svg id="SvgjsSvg1002" style="overflow: hidden; top: -100%; left: -100%; position: absolute; opacity: 0;" width="2" height="0" focusable="false"><polyline id="SvgjsPolyline1003" points="0,0"></polyline><path id="SvgjsPath1004" d="M0 0 "></path></svg><defs id="SvgjsDefs3606"></defs><rect id="SvgjsRect3607" width="39" height="39" x="0.5" y="0.5" rx="8" ry="8" fill="#2d333b" stroke-opacity="1" stroke="#444c56" stroke-width="1"></rect><path id="SvgjsPath3608" d="M16.48 15.43L16.48 14.39L9.68 14.39L9.68 15.43L12.50 15.43L12.50 24.20L13.65 24.20L13.65 15.43ZM21.39 24.20L21.39 19.64C21.39 17.90 20.57 17.03 18.93 17.03C18.03 17.03 17.24 17.25 16.55 17.69L16.55 18.84C17.23 18.26 17.99 17.98 18.83 17.98C19.79 17.98 20.27 18.57 20.27 19.76L18.17 20.05C16.63 20.27 15.86 21.03 15.86 22.34C15.86 22.95 16.06 23.44 16.46 23.81C16.85 24.18 17.40 24.36 18.09 24.36C19.04 24.36 19.76 23.94 20.25 23.10L20.27 23.10L20.27 24.20ZM20.27 20.66L20.27 21.35C20.27 21.95 20.09 22.44 19.73 22.83C19.37 23.22 18.91 23.42 18.35 23.42C17.95 23.42 17.62 23.31 17.38 23.09C17.13 22.88 17.01 22.60 17.01 22.26C17.01 21.79 17.14 21.46 17.41 21.27C17.67 21.09 18.07 20.96 18.58 20.89ZM24.66 23.19C25.13 23.97 25.83 24.36 26.75 24.36C27.74 24.36 28.52 24.01 29.09 23.30C29.66 22.60 29.95 21.66 29.95 20.49C29.95 19.44 29.69 18.60 29.18 17.97C28.68 17.35 27.97 17.03 27.08 17.03C26.01 17.03 25.21 17.50 24.66 18.43L24.63 18.43L24.63 13.83L23.51 13.83L23.51 24.20L24.63 24.20L24.63 23.19ZM24.63 20.36C24.63 19.68 24.83 19.11 25.22 18.66C25.62 18.20 26.14 17.98 26.79 17.98C27.41 17.98 27.90 18.20 28.26 18.64C28.62 19.08 28.80 19.69 28.80 20.47C28.80 21.40 28.61 22.12 28.22 22.64C27.84 23.16 27.30 23.42 26.62 23.42C26.05 23.42 25.57 23.22 25.19 22.81C24.82 22.41 24.63 21.92 24.63 21.34Z" fill="#ffffff"></path></svg>