<svg xmlns="http://www.w3.org/2000/svg" version="1.1" xmlns:xlink="http://www.w3.org/1999/xlink" xmlns:svgjs="http://svgjs.com/svgjs" width="40" height="40"><svg id="SvgjsSvg1002" style="overflow: hidden; top: -100%; left: -100%; position: absolute; opacity: 0;" width="2" height="0" focusable="false"><polyline id="SvgjsPolyline1003" points="0,0"></polyline><path id="SvgjsPath1004" d="M0 0 "></path></svg><defs id="SvgjsDefs3522"></defs><rect id="SvgjsRect3523" width="39" height="39" x="0.5" y="0.5" rx="8" ry="8" fill="#2d333b" stroke-opacity="1" stroke="#444c56" stroke-width="1"></rect><path id="SvgjsPath3524" d="M32.74 10.39L30.25 10.39L26.24 25.48C26.03 26.27 25.91 26.89 25.87 27.37L25.82 27.37C25.74 26.67 25.64 26.06 25.49 25.54L21.33 10.39L19.13 10.39L14.80 25.43C14.56 26.26 14.42 26.91 14.37 27.40L14.31 27.40C14.26 26.71 14.15 26.06 13.98 25.43L9.81 10.39L7.28 10.39L13.02 29.99L15.69 29.99L19.75 15.64C19.93 15.00 20.05 14.34 20.10 13.67L20.16 13.67C20.19 14.39 20.30 15.05 20.47 15.67L24.50 29.99L27.20 29.99Z" fill="#ffffff"></path></svg>