<svg xmlns="http://www.w3.org/2000/svg" version="1.1" xmlns:xlink="http://www.w3.org/1999/xlink" xmlns:svgjs="http://svgjs.com/svgjs" width="30" height="30"><svg id="SvgjsSvg1002" style="overflow: hidden; top: -100%; left: -100%; position: absolute; opacity: 0;" width="2" height="0" focusable="false"><polyline id="SvgjsPolyline1003" points="0,0"></polyline><path id="SvgjsPath1004" d="M0 0 "></path></svg><defs id="SvgjsDefs3363"></defs><rect id="SvgjsRect3364" width="29" height="29" x="0.5" y="0.5" rx="6" ry="6" fill="#2d333b" stroke-opacity="1" stroke="#444c56" stroke-width="1"></rect><path id="SvgjsPath3365" d="M19.18 22.50L19.18 20.98L12.34 20.98L12.34 20.94L15.74 17.58C17.08 16.25 18.02 15.13 18.54 14.24C19.06 13.34 19.32 12.42 19.32 11.47C19.32 10.28 18.94 9.32 18.19 8.61C17.44 7.90 16.40 7.55 15.09 7.55C13.57 7.55 12.23 7.99 11.08 8.89L11.08 10.65C12.29 9.53 13.54 8.97 14.86 8.97C15.75 8.97 16.44 9.20 16.93 9.67C17.41 10.13 17.66 10.79 17.66 11.64C17.66 12.46 17.42 13.24 16.95 13.97C16.49 14.70 15.70 15.61 14.61 16.70L10.32 21.00L10.32 22.50Z" fill="#ffffff"></path></svg>