<svg xmlns="http://www.w3.org/2000/svg" version="1.1" xmlns:xlink="http://www.w3.org/1999/xlink" xmlns:svgjs="http://svgjs.com/svgjs" width="30" height="30"><svg id="SvgjsSvg1002" style="overflow: hidden; top: -100%; left: -100%; position: absolute; opacity: 0;" width="2" height="0" focusable="false"><polyline id="SvgjsPolyline1003" points="0,0"></polyline><path id="SvgjsPath1004" d="M0 0 "></path></svg><defs id="SvgjsDefs3372"></defs><rect id="SvgjsRect3373" width="29" height="29" x="0.5" y="0.5" rx="6" ry="6" fill="#2d333b" stroke-opacity="1" stroke="#444c56" stroke-width="1"></rect><path id="SvgjsPath3374" d="M11.02 22.14C11.69 22.54 12.71 22.74 14.07 22.74C15.68 22.74 16.95 22.31 17.88 21.44C18.80 20.57 19.27 19.43 19.27 18.00C19.27 16.63 18.83 15.55 17.97 14.76C17.11 13.97 15.90 13.57 14.32 13.57C13.94 13.57 13.52 13.59 13.07 13.62L13.07 9.31L18.60 9.31L18.60 7.79L11.48 7.79L11.48 15.16C12.61 15.08 13.38 15.04 13.79 15.04C15 15.04 15.93 15.31 16.58 15.85C17.23 16.39 17.55 17.14 17.55 18.11C17.55 19.08 17.24 19.86 16.60 20.44C15.96 21.03 15.13 21.33 14.09 21.33C13.05 21.33 12.03 21.00 11.02 20.35Z" fill="#ffffff"></path></svg>