<svg xmlns="http://www.w3.org/2000/svg" version="1.1" xmlns:xlink="http://www.w3.org/1999/xlink" xmlns:svgjs="http://svgjs.com/svgjs" width="30" height="30"><svg id="SvgjsSvg1002" style="overflow: hidden; top: -100%; left: -100%; position: absolute; opacity: 0;" width="2" height="0" focusable="false"><polyline id="SvgjsPolyline1003" points="0,0"></polyline><path id="SvgjsPath1004" d="M0 0 "></path></svg><defs id="SvgjsDefs3450"></defs><rect id="SvgjsRect3451" width="29" height="29" x="0.5" y="0.5" rx="6" ry="6" fill="#2d333b" stroke-opacity="1" stroke="#444c56" stroke-width="1"></rect><path id="SvgjsPath3452" d="M15.22 18.15L12.39 10.80L11.50 10.80L8.68 18.15L9.63 18.15L10.37 16.09L13.48 16.09L14.26 18.15ZM13.20 15.31L10.65 15.31L11.80 12.18C11.84 12.06 11.88 11.90 11.92 11.69L11.94 11.69C11.97 11.91 12.01 12.08 12.05 12.18ZM17.03 18.15L17.03 10.38L16.19 10.38L16.19 18.15ZM21.17 18.10L21.17 17.38C21.01 17.49 20.83 17.55 20.62 17.55C20.34 17.55 20.14 17.48 20.02 17.33C19.90 17.18 19.84 16.93 19.84 16.57L19.84 13.62L21.17 13.62L21.17 12.90L19.84 12.90L19.84 11.34L19.00 11.62L19.00 12.90L18.10 12.90L18.10 13.62L19.00 13.62L19.00 16.72C19.00 17.75 19.46 18.26 20.38 18.26C20.71 18.26 20.97 18.21 21.17 18.10Z" fill="#ffffff"></path></svg>