<svg xmlns="http://www.w3.org/2000/svg" version="1.1" xmlns:xlink="http://www.w3.org/1999/xlink" xmlns:svgjs="http://svgjs.com/svgjs" width="30" height="30"><svg id="SvgjsSvg1002" style="overflow: hidden; top: -100%; left: -100%; position: absolute; opacity: 0;" width="2" height="0" focusable="false"><polyline id="SvgjsPolyline1003" points="0,0"></polyline><path id="SvgjsPath1004" d="M0 0 "></path></svg><defs id="SvgjsDefs3282"></defs><rect id="SvgjsRect3283" width="29" height="29" x="0.5" y="0.5" rx="6" ry="6" fill="#2d333b" stroke-opacity="1" stroke="#444c56" stroke-width="1"></rect><path id="SvgjsPath3284" d="M10.91 22.50L15.19 22.50C16.57 22.50 17.71 22.11 18.61 21.33C19.51 20.55 19.96 19.53 19.96 18.27C19.96 17.26 19.67 16.44 19.07 15.80C18.48 15.17 17.68 14.80 16.69 14.68L16.69 14.64C17.48 14.38 18.11 13.94 18.56 13.33C19.01 12.71 19.23 11.99 19.23 11.15C19.23 10.16 18.86 9.35 18.12 8.72C17.37 8.10 16.36 7.79 15.09 7.79L10.91 7.79ZM12.63 9.35L14.61 9.35C16.49 9.35 17.43 10.06 17.43 11.49C17.43 12.32 17.16 12.96 16.62 13.42C16.08 13.87 15.34 14.10 14.40 14.10L12.63 14.10ZM12.63 15.65L14.61 15.65C16.98 15.65 18.16 16.51 18.16 18.25C18.16 19.08 17.88 19.74 17.32 20.22C16.77 20.70 15.98 20.94 14.97 20.94L12.63 20.94Z" fill="#ffffff"></path></svg>