<svg xmlns="http://www.w3.org/2000/svg" version="1.1" xmlns:xlink="http://www.w3.org/1999/xlink" xmlns:svgjs="http://svgjs.com/svgjs" width="66" height="30"><svg id="SvgjsSvg1002" style="overflow: hidden; top: -100%; left: -100%; position: absolute; opacity: 0;" width="2" height="0" focusable="false"><polyline id="SvgjsPolyline1003" points="0,0"></polyline><path id="SvgjsPath1004" d="M0 0 "></path></svg><defs id="SvgjsDefs3444"></defs><rect id="SvgjsRect3445" width="65" height="29" x="0.5" y="0.5" rx="6" ry="6" fill="#2d333b" stroke-opacity="1" stroke="#444c56" stroke-width="1"></rect><path id="SvgjsPath3446" d="M10.16 18.15L12.31 18.15C12.99 18.15 13.56 17.95 14.01 17.56C14.46 17.17 14.69 16.66 14.69 16.04C14.69 15.53 14.54 15.12 14.24 14.80C13.95 14.49 13.55 14.30 13.05 14.24L13.05 14.22C13.45 14.09 13.76 13.87 13.99 13.56C14.21 13.26 14.33 12.89 14.33 12.48C14.33 11.98 14.14 11.57 13.77 11.26C13.39 10.95 12.89 10.80 12.25 10.80L10.16 10.80ZM11.02 11.57L12.01 11.57C12.95 11.57 13.42 11.93 13.42 12.65C13.42 13.06 13.29 13.38 13.02 13.61C12.75 13.84 12.38 13.95 11.91 13.95L11.02 13.95ZM11.02 14.72L12.01 14.72C13.20 14.72 13.79 15.16 13.79 16.03C13.79 16.44 13.65 16.77 13.37 17.01C13.09 17.25 12.70 17.37 12.19 17.37L11.02 17.37ZM19.83 18.15L19.83 14.73C19.83 13.43 19.21 12.77 17.98 12.77C17.30 12.77 16.71 12.94 16.19 13.27L16.19 14.13C16.70 13.70 17.27 13.48 17.90 13.48C18.62 13.48 18.99 13.93 18.99 14.82L17.41 15.04C16.26 15.20 15.68 15.77 15.68 16.75C15.68 17.21 15.83 17.58 16.12 17.86C16.42 18.13 16.83 18.27 17.35 18.27C18.06 18.27 18.60 17.96 18.96 17.33L18.99 17.33L18.99 18.15ZM18.99 15.49L18.99 16.01C18.99 16.46 18.85 16.83 18.58 17.12C18.31 17.42 17.96 17.56 17.54 17.56C17.24 17.56 17.00 17.48 16.81 17.32C16.63 17.16 16.54 16.95 16.54 16.69C16.54 16.34 16.64 16.09 16.84 15.96C17.04 15.82 17.33 15.72 17.72 15.67ZM24.99 17.91L24.99 17.11C24.59 17.41 24.16 17.56 23.70 17.56C23.15 17.56 22.72 17.39 22.40 17.03C22.07 16.67 21.91 16.19 21.91 15.57C21.91 14.95 22.08 14.44 22.43 14.06C22.77 13.67 23.21 13.48 23.75 13.48C24.19 13.48 24.61 13.62 25.00 13.89L25.00 13.03C24.65 12.86 24.24 12.77 23.78 12.77C22.95 12.77 22.29 13.04 21.80 13.56C21.30 14.09 21.05 14.78 21.05 15.65C21.05 16.42 21.28 17.05 21.74 17.54C22.20 18.03 22.81 18.27 23.55 18.27C24.11 18.27 24.59 18.15 24.99 17.91ZM30.62 18.15L27.99 15.43L30.43 12.90L29.33 12.90L27.12 15.30L27.10 15.30L27.10 10.38L26.26 10.38L26.26 18.15L27.10 18.15L27.10 15.63L27.12 15.63L29.44 18.15ZM31.16 17.96C31.56 18.17 32.03 18.27 32.57 18.27C32.84 18.27 33.10 18.24 33.35 18.18C33.60 18.12 33.82 18.02 34.01 17.90C34.20 17.77 34.36 17.61 34.47 17.42C34.59 17.23 34.64 17.00 34.64 16.74C34.64 16.53 34.61 16.35 34.54 16.19C34.47 16.04 34.37 15.90 34.24 15.79C34.11 15.67 33.95 15.56 33.77 15.47C33.58 15.37 33.37 15.28 33.14 15.19L32.67 15.00C32.54 14.95 32.42 14.88 32.33 14.81C32.23 14.74 32.16 14.66 32.11 14.56C32.06 14.47 32.03 14.36 32.03 14.22C32.03 14.11 32.06 14.01 32.11 13.92C32.16 13.83 32.23 13.75 32.32 13.69C32.41 13.62 32.52 13.57 32.64 13.54C32.77 13.50 32.91 13.48 33.07 13.48C33.57 13.48 34.02 13.61 34.40 13.86L34.40 13.01C34.04 12.85 33.64 12.77 33.18 12.77C32.93 12.77 32.68 12.81 32.44 12.87C32.20 12.94 31.98 13.03 31.79 13.16C31.60 13.29 31.45 13.45 31.34 13.64C31.23 13.83 31.17 14.05 31.17 14.29C31.17 14.49 31.20 14.67 31.26 14.82C31.32 14.97 31.41 15.10 31.53 15.22C31.65 15.34 31.79 15.45 31.97 15.54C32.15 15.63 32.35 15.73 32.58 15.82L33.05 16.01C33.20 16.07 33.32 16.13 33.43 16.21C33.54 16.28 33.62 16.37 33.69 16.47C33.75 16.57 33.78 16.68 33.78 16.82C33.78 17.32 33.41 17.56 32.67 17.56C32.12 17.56 31.62 17.39 31.16 17.06ZM36.80 17.39C37.17 17.98 37.69 18.27 38.37 18.27C39.11 18.27 39.70 18.01 40.12 17.48C40.55 16.95 40.76 16.25 40.76 15.37C40.76 14.58 40.58 13.95 40.20 13.48C39.82 13.01 39.29 12.77 38.61 12.77C37.82 12.77 37.21 13.12 36.80 13.82L36.78 13.82L36.78 12.90L35.94 12.90L35.94 20.56L36.78 20.56L36.78 17.39ZM36.78 15.27C36.78 14.76 36.92 14.33 37.22 13.99C37.52 13.65 37.91 13.48 38.40 13.48C38.86 13.48 39.23 13.65 39.50 13.98C39.77 14.31 39.90 14.77 39.90 15.35C39.90 16.05 39.76 16.59 39.47 16.98C39.18 17.37 38.78 17.56 38.27 17.56C37.84 17.56 37.48 17.41 37.20 17.11C36.92 16.81 36.78 16.44 36.78 16.00ZM45.73 18.15L45.73 14.73C45.73 13.43 45.11 12.77 43.88 12.77C43.20 12.77 42.61 12.94 42.09 13.27L42.09 14.13C42.60 13.70 43.17 13.48 43.81 13.48C44.53 13.48 44.89 13.93 44.89 14.82L43.31 15.04C42.16 15.20 41.58 15.77 41.58 16.75C41.58 17.21 41.73 17.58 42.02 17.86C42.32 18.13 42.73 18.27 43.25 18.27C43.96 18.27 44.50 17.96 44.87 17.33L44.89 17.33L44.89 18.15ZM44.89 15.49L44.89 16.01C44.89 16.46 44.75 16.83 44.48 17.12C44.21 17.42 43.86 17.56 43.45 17.56C43.14 17.56 42.90 17.48 42.72 17.32C42.53 17.16 42.44 16.95 42.44 16.69C42.44 16.34 42.54 16.09 42.74 15.96C42.94 15.82 43.23 15.72 43.62 15.67ZM50.89 17.91L50.89 17.11C50.49 17.41 50.06 17.56 49.60 17.56C49.06 17.56 48.62 17.39 48.30 17.03C47.98 16.67 47.81 16.19 47.81 15.57C47.81 14.95 47.99 14.44 48.33 14.06C48.67 13.67 49.11 13.48 49.65 13.48C50.09 13.48 50.51 13.62 50.90 13.89L50.90 13.03C50.55 12.86 50.14 12.77 49.68 12.77C48.85 12.77 48.19 13.04 47.70 13.56C47.20 14.09 46.95 14.78 46.95 15.65C46.95 16.42 47.18 17.05 47.64 17.54C48.10 18.03 48.71 18.27 49.45 18.27C50.01 18.27 50.49 18.15 50.89 17.91ZM56.38 15.73L56.38 15.29C56.38 14.50 56.19 13.89 55.82 13.44C55.44 13.00 54.91 12.77 54.22 12.77C53.54 12.77 52.96 13.03 52.50 13.55C52.03 14.06 51.80 14.73 51.80 15.54C51.80 16.41 52.02 17.08 52.44 17.56C52.86 18.03 53.45 18.27 54.19 18.27C54.95 18.27 55.56 18.10 56.02 17.77L56.02 16.98C55.52 17.37 54.98 17.56 54.39 17.56C53.86 17.56 53.45 17.40 53.15 17.09C52.85 16.77 52.69 16.32 52.67 15.73ZM55.52 15.02L52.68 15.02C52.75 14.56 52.92 14.19 53.20 13.91C53.47 13.62 53.81 13.48 54.21 13.48C54.62 13.48 54.94 13.62 55.17 13.89C55.40 14.16 55.52 14.53 55.52 15.02Z" fill="#ffffff"></path></svg>