<svg xmlns="http://www.w3.org/2000/svg" version="1.1" xmlns:xlink="http://www.w3.org/1999/xlink" xmlns:svgjs="http://svgjs.com/svgjs" width="30" height="30"><svg id="SvgjsSvg1002" style="overflow: hidden; top: -100%; left: -100%; position: absolute; opacity: 0;" width="2" height="0" focusable="false"><polyline id="SvgjsPolyline1003" points="0,0"></polyline><path id="SvgjsPath1004" d="M0 0 "></path></svg><defs id="SvgjsDefs3432"></defs><rect id="SvgjsRect3433" width="29" height="29" x="0.5" y="0.5" rx="6" ry="6" fill="#2d333b" stroke-opacity="1" stroke="#444c56" stroke-width="1"></rect><path id="SvgjsPath3434" d="M8.27 18.15L10.21 18.15C11.42 18.15 12.38 17.80 13.10 17.11C13.82 16.43 14.18 15.51 14.18 14.38C14.18 11.99 12.89 10.80 10.30 10.80L8.27 10.80ZM9.13 11.57L10.28 11.57C12.28 11.57 13.28 12.52 13.28 14.40C13.28 15.35 13.01 16.08 12.47 16.59C11.94 17.11 11.19 17.37 10.22 17.37L9.13 17.37ZM19.73 15.73L19.73 15.29C19.73 14.50 19.55 13.89 19.17 13.44C18.79 13.00 18.26 12.77 17.58 12.77C16.89 12.77 16.31 13.03 15.85 13.55C15.39 14.06 15.16 14.73 15.16 15.54C15.16 16.41 15.37 17.08 15.79 17.56C16.22 18.03 16.80 18.27 17.54 18.27C18.30 18.27 18.91 18.10 19.37 17.77L19.37 16.98C18.88 17.37 18.33 17.56 17.74 17.56C17.21 17.56 16.80 17.40 16.50 17.09C16.20 16.77 16.04 16.32 16.03 15.73ZM18.87 15.02L16.04 15.02C16.10 14.56 16.27 14.19 16.55 13.91C16.83 13.62 17.16 13.48 17.56 13.48C17.97 13.48 18.29 13.62 18.52 13.89C18.75 14.16 18.87 14.53 18.87 15.02ZM21.85 18.15L21.85 10.38L21.01 10.38L21.01 18.15Z" fill="#ffffff"></path></svg>