<svg xmlns="http://www.w3.org/2000/svg" version="1.1" xmlns:xlink="http://www.w3.org/1999/xlink" xmlns:svgjs="http://svgjs.com/svgjs" width="48" height="30"><svg id="SvgjsSvg1002" style="overflow: hidden; top: -100%; left: -100%; position: absolute; opacity: 0;" width="2" height="0" focusable="false"><polyline id="SvgjsPolyline1003" points="0,0"></polyline><path id="SvgjsPath1004" d="M0 0 "></path></svg><defs id="SvgjsDefs3441"></defs><rect id="SvgjsRect3442" width="47" height="29" x="0.5" y="0.5" rx="6" ry="6" fill="#2d333b" stroke-opacity="1" stroke="#444c56" stroke-width="1"></rect><path id="SvgjsPath3443" d="M16.92 18.15L16.92 17.37L13.89 17.37L13.89 14.79L16.55 14.79L16.55 14.02L13.89 14.02L13.89 11.57L16.76 11.57L16.76 10.80L13.03 10.80L13.03 18.15ZM22.58 18.15L22.58 14.94C22.58 14.24 22.43 13.70 22.13 13.33C21.82 12.96 21.39 12.77 20.81 12.77C20.06 12.77 19.48 13.11 19.09 13.77L19.07 13.77L19.07 12.90L18.23 12.90L18.23 18.15L19.07 18.15L19.07 15.15C19.07 14.67 19.21 14.27 19.48 13.96C19.76 13.64 20.10 13.48 20.52 13.48C21.34 13.48 21.74 14.04 21.74 15.15L21.74 18.15ZM26.60 18.10L26.60 17.38C26.45 17.49 26.27 17.55 26.06 17.55C25.78 17.55 25.58 17.48 25.46 17.33C25.34 17.18 25.28 16.93 25.28 16.57L25.28 13.62L26.60 13.62L26.60 12.90L25.28 12.90L25.28 11.34L24.44 11.62L24.44 12.90L23.54 12.90L23.54 13.62L24.44 13.62L24.44 16.72C24.44 17.75 24.90 18.26 25.82 18.26C26.14 18.26 26.41 18.21 26.60 18.10ZM31.86 15.73L31.86 15.29C31.86 14.50 31.68 13.89 31.30 13.44C30.92 13.00 30.39 12.77 29.71 12.77C29.02 12.77 28.44 13.03 27.98 13.55C27.52 14.06 27.29 14.73 27.29 15.54C27.29 16.41 27.50 17.08 27.92 17.56C28.35 18.03 28.93 18.27 29.67 18.27C30.43 18.27 31.04 18.10 31.50 17.77L31.50 16.98C31.01 17.37 30.46 17.56 29.87 17.56C29.34 17.56 28.93 17.40 28.63 17.09C28.33 16.77 28.17 16.32 28.16 15.73ZM31.00 15.02L28.17 15.02C28.23 14.56 28.40 14.19 28.68 13.91C28.96 13.62 29.29 13.48 29.69 13.48C30.10 13.48 30.42 13.62 30.65 13.89C30.88 14.16 31.00 14.53 31.00 15.02ZM35.87 13.75L35.87 12.88C35.76 12.83 35.59 12.81 35.37 12.81C35.07 12.81 34.79 12.91 34.55 13.12C34.30 13.32 34.12 13.61 34.00 13.98L33.98 13.98L33.98 12.90L33.14 12.90L33.14 18.15L33.98 18.15L33.98 15.47C33.98 14.89 34.10 14.43 34.34 14.09C34.58 13.75 34.88 13.58 35.24 13.58C35.52 13.58 35.73 13.64 35.87 13.75Z" fill="#ffffff"></path></svg>