<svg xmlns="http://www.w3.org/2000/svg" version="1.1" xmlns:xlink="http://www.w3.org/1999/xlink" xmlns:svgjs="http://svgjs.com/svgjs" width="39" height="30"><svg id="SvgjsSvg1002" style="overflow: hidden; top: -100%; left: -100%; position: absolute; opacity: 0;" width="2" height="0" focusable="false"><polyline id="SvgjsPolyline1003" points="0,0"></polyline><path id="SvgjsPath1004" d="M0 0 "></path></svg><defs id="SvgjsDefs3393"></defs><rect id="SvgjsRect3394" width="38" height="29" x="0.5" y="0.5" rx="6" ry="6" fill="#2d333b" stroke-opacity="1" stroke="#444c56" stroke-width="1"></rect><path id="SvgjsPath3395" d="M18.66 11.13L18.66 10.19L14.18 10.19L14.18 19.02L15.22 19.02L15.22 15.11L18.40 15.11L18.40 14.18L15.22 14.18L15.22 11.13ZM19.99 18.69C20.48 19.01 21.15 19.16 21.99 19.16C22.92 19.16 23.67 18.92 24.23 18.44C24.80 17.95 25.09 17.31 25.09 16.52C25.09 15.95 24.90 15.47 24.52 15.08C24.15 14.70 23.64 14.48 23.01 14.42L23.01 14.39C24.19 14.06 24.78 13.31 24.78 12.15C24.78 11.54 24.56 11.03 24.11 10.64C23.67 10.24 23.07 10.05 22.33 10.05C21.56 10.05 20.89 10.22 20.32 10.55L20.32 11.54C20.87 11.11 21.46 10.90 22.08 10.90C23.19 10.90 23.75 11.40 23.75 12.40C23.75 13.49 23.02 14.03 21.56 14.03L20.87 14.03L20.87 14.88L21.60 14.88C23.23 14.88 24.05 15.46 24.05 16.61C24.05 17.13 23.87 17.55 23.50 17.85C23.14 18.16 22.64 18.32 22.03 18.32C21.27 18.32 20.59 18.08 19.99 17.60Z" fill="#ffffff"></path></svg>