<svg xmlns="http://www.w3.org/2000/svg" version="1.1" xmlns:xlink="http://www.w3.org/1999/xlink" xmlns:svgjs="http://svgjs.com/svgjs" width="39" height="30"><svg id="SvgjsSvg1002" style="overflow: hidden; top: -100%; left: -100%; position: absolute; opacity: 0;" width="2" height="0" focusable="false"><polyline id="SvgjsPolyline1003" points="0,0"></polyline><path id="SvgjsPath1004" d="M0 0 "></path></svg><defs id="SvgjsDefs3396"></defs><rect id="SvgjsRect3397" width="38" height="29" x="0.5" y="0.5" rx="6" ry="6" fill="#2d333b" stroke-opacity="1" stroke="#444c56" stroke-width="1"></rect><path id="SvgjsPath3398" d="M18.66 11.13L18.66 10.19L14.18 10.19L14.18 19.02L15.22 19.02L15.22 15.11L18.40 15.11L18.40 14.18L15.22 14.18L15.22 11.13ZM25.54 16.67L25.54 15.85L24.41 15.85L24.41 10.19L23.19 10.19L19.27 16.01L19.27 16.67L23.41 16.67L23.41 19.02L24.41 19.02L24.41 16.67ZM23.41 15.85L20.36 15.85L23.07 11.81C23.24 11.50 23.36 11.28 23.41 11.13L23.44 11.13C23.42 11.47 23.41 11.77 23.41 12.04Z" fill="#ffffff"></path></svg>