<svg xmlns="http://www.w3.org/2000/svg" version="1.1" xmlns:xlink="http://www.w3.org/1999/xlink" xmlns:svgjs="http://svgjs.com/svgjs" width="39" height="30"><svg id="SvgjsSvg1002" style="overflow: hidden; top: -100%; left: -100%; position: absolute; opacity: 0;" width="2" height="0" focusable="false"><polyline id="SvgjsPolyline1003" points="0,0"></polyline><path id="SvgjsPath1004" d="M0 0 "></path></svg><defs id="SvgjsDefs3408"></defs><rect id="SvgjsRect3409" width="38" height="29" x="0.5" y="0.5" rx="6" ry="6" fill="#2d333b" stroke-opacity="1" stroke="#444c56" stroke-width="1"></rect><path id="SvgjsPath3410" d="M18.66 11.13L18.66 10.19L14.18 10.19L14.18 19.02L15.22 19.02L15.22 15.11L18.40 15.11L18.40 14.18L15.22 14.18L15.22 11.13ZM21.70 14.39C20.43 14.91 19.80 15.73 19.80 16.86C19.80 17.54 20.04 18.10 20.53 18.52C21.02 18.95 21.64 19.16 22.39 19.16C23.33 19.16 24.06 18.95 24.58 18.52C25.11 18.09 25.37 17.51 25.37 16.78C25.37 15.65 24.73 14.85 23.44 14.39L23.44 14.37C24.53 13.82 25.07 13.07 25.07 12.09C25.07 11.49 24.85 11.00 24.41 10.62C23.97 10.24 23.40 10.05 22.71 10.05C21.95 10.05 21.33 10.25 20.84 10.66C20.36 11.07 20.12 11.59 20.12 12.22C20.12 13.16 20.64 13.87 21.70 14.37ZM24.04 12.21C24.04 12.96 23.55 13.53 22.58 13.94C21.63 13.55 21.15 12.97 21.15 12.20C21.15 11.82 21.29 11.51 21.58 11.27C21.86 11.02 22.21 10.90 22.62 10.90C23.06 10.90 23.40 11.02 23.66 11.25C23.91 11.49 24.04 11.81 24.04 12.21ZM22.51 14.87C23.73 15.31 24.34 15.97 24.34 16.85C24.34 17.27 24.17 17.62 23.85 17.90C23.53 18.18 23.12 18.32 22.61 18.32C22.07 18.32 21.64 18.18 21.32 17.89C20.99 17.61 20.83 17.25 20.83 16.81C20.83 15.97 21.39 15.32 22.51 14.87Z" fill="#ffffff"></path></svg>