<svg xmlns="http://www.w3.org/2000/svg" version="1.1" xmlns:xlink="http://www.w3.org/1999/xlink" xmlns:svgjs="http://svgjs.com/svgjs" width="30" height="30"><svg id="SvgjsSvg1002" style="overflow: hidden; top: -100%; left: -100%; position: absolute; opacity: 0;" width="2" height="0" focusable="false"><polyline id="SvgjsPolyline1003" points="0,0"></polyline><path id="SvgjsPath1004" d="M0 0 "></path></svg><defs id="SvgjsDefs3453"></defs><rect id="SvgjsRect3454" width="29" height="29" x="0.5" y="0.5" rx="6" ry="6" fill="#2d333b" stroke-opacity="1" stroke="#444c56" stroke-width="1"></rect><path id="SvgjsPath3455" d="M14.16 11.57L14.16 10.80L10.43 10.80L10.43 18.15L11.29 18.15L11.29 14.89L13.95 14.89L13.95 14.12L11.29 14.12L11.29 11.57ZM19.80 18.15L19.80 14.94C19.80 14.24 19.65 13.70 19.35 13.33C19.04 12.96 18.60 12.77 18.03 12.77C17.28 12.77 16.70 13.11 16.30 13.77L16.28 13.77L16.28 12.90L15.44 12.90L15.44 18.15L16.28 18.15L16.28 15.15C16.28 14.67 16.42 14.27 16.70 13.96C16.97 13.64 17.32 13.48 17.74 13.48C18.55 13.48 18.96 14.04 18.96 15.15L18.96 18.15Z" fill="#ffffff"></path></svg>