<svg xmlns="http://www.w3.org/2000/svg" version="1.1" xmlns:xlink="http://www.w3.org/1999/xlink" xmlns:svgjs="http://svgjs.com/svgjs" width="30" height="30"><svg id="SvgjsSvg1002" style="overflow: hidden; top: -100%; left: -100%; position: absolute; opacity: 0;" width="2" height="0" focusable="false"><polyline id="SvgjsPolyline1003" points="0,0"></polyline><path id="SvgjsPath1004" d="M0 0 "></path></svg><defs id="SvgjsDefs3333"></defs><rect id="SvgjsRect3334" width="29" height="29" x="0.5" y="0.5" rx="6" ry="6" fill="#2d333b" stroke-opacity="1" stroke="#444c56" stroke-width="1"></rect><path id="SvgjsPath3335" d="M10.66 21.90C10.85 22.03 11.11 22.15 11.43 22.25C11.74 22.36 12.08 22.45 12.44 22.52C12.79 22.59 13.14 22.65 13.48 22.69C13.82 22.72 14.11 22.74 14.34 22.74C15.04 22.74 15.70 22.67 16.33 22.53C16.96 22.39 17.52 22.16 18.00 21.85C18.48 21.53 18.86 21.13 19.15 20.62C19.43 20.12 19.57 19.51 19.57 18.78C19.57 18.24 19.47 17.75 19.26 17.33C19.05 16.90 18.77 16.52 18.41 16.17C18.06 15.82 17.65 15.50 17.17 15.22C16.70 14.93 16.20 14.65 15.68 14.39C15.16 14.14 14.71 13.91 14.32 13.70C13.93 13.49 13.59 13.27 13.32 13.04C13.04 12.82 12.84 12.57 12.70 12.29C12.56 12.02 12.49 11.69 12.49 11.32C12.49 10.92 12.58 10.57 12.76 10.29C12.95 10.01 13.19 9.78 13.48 9.61C13.78 9.43 14.11 9.30 14.49 9.22C14.86 9.14 15.24 9.10 15.62 9.10C16.98 9.10 18.09 9.40 18.96 10.01L18.96 8.07C18.29 7.72 17.24 7.55 15.79 7.55C15.15 7.55 14.53 7.62 13.92 7.78C13.31 7.94 12.76 8.18 12.28 8.50C11.80 8.82 11.42 9.23 11.12 9.72C10.83 10.22 10.68 10.80 10.68 11.47C10.68 12.02 10.78 12.50 10.97 12.90C11.15 13.31 11.41 13.67 11.74 13.99C12.07 14.32 12.45 14.61 12.90 14.88C13.34 15.14 13.82 15.41 14.33 15.67L15.69 16.37C16.11 16.59 16.48 16.82 16.78 17.07C17.09 17.31 17.33 17.58 17.51 17.87C17.68 18.16 17.77 18.51 17.77 18.91C17.77 19.64 17.51 20.21 16.98 20.60C16.46 21.00 15.67 21.19 14.61 21.19C14.30 21.19 13.97 21.16 13.61 21.10C13.24 21.04 12.88 20.95 12.52 20.84C12.16 20.73 11.82 20.59 11.50 20.42C11.17 20.26 10.90 20.08 10.66 19.87Z" fill="#ffffff"></path></svg>