<svg xmlns="http://www.w3.org/2000/svg" version="1.1" xmlns:xlink="http://www.w3.org/1999/xlink" xmlns:svgjs="http://svgjs.com/svgjs" width="30" height="30"><svg id="SvgjsSvg1002" style="overflow: hidden; top: -100%; left: -100%; position: absolute; opacity: 0;" width="2" height="0" focusable="false"><polyline id="SvgjsPolyline1003" points="0,0"></polyline><path id="SvgjsPath1004" d="M0 0 "></path></svg><defs id="SvgjsDefs3345"></defs><rect id="SvgjsRect3346" width="29" height="29" x="0.5" y="0.5" rx="6" ry="6" fill="#2d333b" stroke-opacity="1" stroke="#444c56" stroke-width="1"></rect><path id="SvgjsPath3347" d="M24.55 7.79L22.69 7.79L19.68 19.11C19.52 19.70 19.43 20.17 19.40 20.53L19.36 20.53C19.31 20.00 19.23 19.54 19.12 19.15L16.00 7.79L14.35 7.79L11.10 19.07C10.92 19.69 10.81 20.18 10.78 20.55L10.73 20.55C10.70 20.03 10.61 19.54 10.48 19.07L7.36 7.79L5.46 7.79L9.77 22.50L11.76 22.50L14.81 11.73C14.95 11.25 15.04 10.76 15.08 10.25L15.12 10.25C15.15 10.79 15.22 11.29 15.35 11.75L18.38 22.50L20.40 22.50Z" fill="#ffffff"></path></svg>