<svg xmlns="http://www.w3.org/2000/svg" version="1.1" xmlns:xlink="http://www.w3.org/1999/xlink" xmlns:svgjs="http://svgjs.com/svgjs" width="30" height="30"><svg id="SvgjsSvg1002" style="overflow: hidden; top: -100%; left: -100%; position: absolute; opacity: 0;" width="2" height="0" focusable="false"><polyline id="SvgjsPolyline1003" points="0,0"></polyline><path id="SvgjsPath1004" d="M0 0 "></path></svg><defs id="SvgjsDefs3348"></defs><rect id="SvgjsRect3349" width="29" height="29" x="0.5" y="0.5" rx="6" ry="6" fill="#2d333b" stroke-opacity="1" stroke="#444c56" stroke-width="1"></rect><path id="SvgjsPath3350" d="M20.89 22.50L16.20 15.08L20.82 7.79L18.85 7.79L15.72 12.92C15.55 13.18 15.36 13.53 15.14 13.98L15.10 13.98C14.95 13.64 14.78 13.30 14.58 12.96L11.58 7.79L9.46 7.79L14.00 15.10L9.07 22.50L11.19 22.50L14.67 16.87C14.84 16.54 14.95 16.30 15.02 16.14L15.06 16.14C15.18 16.45 15.30 16.70 15.40 16.87L18.78 22.50Z" fill="#ffffff"></path></svg>