<svg xmlns="http://www.w3.org/2000/svg" version="1.1" xmlns:xlink="http://www.w3.org/1999/xlink" xmlns:svgjs="http://svgjs.com/svgjs" width="40" height="40"><svg id="SvgjsSvg1002" style="overflow: hidden; top: -100%; left: -100%; position: absolute; opacity: 0;" width="2" height="0" focusable="false"><polyline id="SvgjsPolyline1003" points="0,0"></polyline><path id="SvgjsPath1004" d="M0 0 "></path></svg><defs id="SvgjsDefs3009"></defs><rect id="SvgjsRect3010" width="39" height="39" x="0.5" y="0.5" rx="8" ry="8" fill="#ffffff" stroke-opacity="1" stroke="#444c56" stroke-width="1"></rect><path id="SvgjsPath3011" d="M25.58 29.99L25.58 27.97L16.46 27.97L16.46 27.92L20.98 23.44C22.78 21.67 24.02 20.18 24.72 18.98C25.41 17.78 25.76 16.55 25.76 15.30C25.76 13.70 25.25 12.43 24.25 11.48C23.25 10.53 21.87 10.06 20.12 10.06C18.09 10.06 16.31 10.66 14.78 11.85L14.78 14.20C16.38 12.71 18.06 11.96 19.81 11.96C21.00 11.96 21.92 12.27 22.57 12.89C23.22 13.51 23.54 14.39 23.54 15.52C23.54 16.62 23.23 17.65 22.60 18.63C21.98 19.60 20.94 20.81 19.48 22.27L13.77 28.00L13.77 29.99Z" fill="#000000"></path></svg>