<svg xmlns="http://www.w3.org/2000/svg" version="1.1" xmlns:xlink="http://www.w3.org/1999/xlink" xmlns:svgjs="http://svgjs.com/svgjs" width="40" height="40"><svg id="SvgjsSvg1002" style="overflow: hidden; top: -100%; left: -100%; position: absolute; opacity: 0;" width="2" height="0" focusable="false"><polyline id="SvgjsPolyline1003" points="0,0"></polyline><path id="SvgjsPath1004" d="M0 0 "></path></svg><defs id="SvgjsDefs3021"></defs><rect id="SvgjsRect3022" width="39" height="39" x="0.5" y="0.5" rx="8" ry="8" fill="#ffffff" stroke-opacity="1" stroke="#444c56" stroke-width="1"></rect><path id="SvgjsPath3023" d="M25.22 10.62C24.42 10.25 23.34 10.06 21.97 10.06C19.56 10.06 17.63 11.09 16.16 13.14C14.69 15.19 13.96 17.93 13.96 21.37C13.96 24.20 14.52 26.40 15.64 27.97C16.76 29.54 18.30 30.32 20.27 30.32C22.06 30.32 23.53 29.71 24.69 28.50C25.85 27.28 26.43 25.71 26.43 23.79C26.43 21.95 25.92 20.48 24.91 19.38C23.90 18.28 22.53 17.73 20.82 17.73C18.74 17.73 17.25 18.66 16.34 20.51L16.28 20.51C16.28 17.91 16.80 15.83 17.85 14.28C18.89 12.74 20.28 11.96 22.02 11.96C23.14 11.96 24.21 12.22 25.22 12.74ZM20.33 19.63C21.53 19.63 22.47 20.02 23.13 20.81C23.80 21.59 24.13 22.67 24.13 24.06C24.13 25.33 23.78 26.37 23.09 27.20C22.40 28.02 21.49 28.44 20.36 28.44C19.17 28.44 18.22 27.96 17.50 27.01C16.79 26.07 16.43 24.92 16.43 23.58C16.43 22.52 16.79 21.59 17.51 20.81C18.23 20.02 19.17 19.63 20.33 19.63Z" fill="#000000"></path></svg>