<svg xmlns="http://www.w3.org/2000/svg" version="1.1" xmlns:xlink="http://www.w3.org/1999/xlink" xmlns:svgjs="http://svgjs.com/svgjs" width="40" height="40"><svg id="SvgjsSvg1002" style="overflow: hidden; top: -100%; left: -100%; position: absolute; opacity: 0;" width="2" height="0" focusable="false"><polyline id="SvgjsPolyline1003" points="0,0"></polyline><path id="SvgjsPath1004" d="M0 0 "></path></svg><defs id="SvgjsDefs3027"></defs><rect id="SvgjsRect3028" width="39" height="39" x="0.5" y="0.5" rx="8" ry="8" fill="#ffffff" stroke-opacity="1" stroke="#444c56" stroke-width="1"></rect><path id="SvgjsPath3029" d="M18.06 19.71C15.23 20.86 13.82 22.69 13.82 25.21C13.82 26.72 14.36 27.95 15.45 28.90C16.53 29.85 17.91 30.32 19.59 30.32C21.67 30.32 23.29 29.84 24.46 28.89C25.62 27.93 26.21 26.64 26.21 25.02C26.21 22.50 24.78 20.73 21.91 19.71L21.91 19.66C24.34 18.45 25.55 16.77 25.55 14.60C25.55 13.27 25.06 12.18 24.07 11.33C23.09 10.48 21.83 10.06 20.30 10.06C18.61 10.06 17.22 10.51 16.14 11.42C15.07 12.33 14.53 13.49 14.53 14.90C14.53 16.98 15.71 18.56 18.06 19.66ZM23.25 14.87C23.25 16.53 22.17 17.81 20.01 18.70C17.89 17.83 16.83 16.55 16.83 14.85C16.83 14.01 17.14 13.32 17.78 12.77C18.41 12.23 19.18 11.96 20.10 11.96C21.07 11.96 21.84 12.22 22.41 12.74C22.97 13.26 23.25 13.97 23.25 14.87ZM19.86 20.78C22.56 21.75 23.91 23.21 23.91 25.18C23.91 26.12 23.55 26.90 22.84 27.51C22.12 28.13 21.20 28.44 20.07 28.44C18.88 28.44 17.93 28.12 17.20 27.50C16.48 26.87 16.12 26.07 16.12 25.10C16.12 23.21 17.37 21.77 19.86 20.78Z" fill="#000000"></path></svg>