<svg xmlns="http://www.w3.org/2000/svg" version="1.1" xmlns:xlink="http://www.w3.org/1999/xlink" xmlns:svgjs="http://svgjs.com/svgjs" width="40" height="40"><svg id="SvgjsSvg1002" style="overflow: hidden; top: -100%; left: -100%; position: absolute; opacity: 0;" width="2" height="0" focusable="false"><polyline id="SvgjsPolyline1003" points="0,0"></polyline><path id="SvgjsPath1004" d="M0 0 "></path></svg><defs id="SvgjsDefs2928"></defs><rect id="SvgjsRect2929" width="39" height="39" x="0.5" y="0.5" rx="8" ry="8" fill="#ffffff" stroke-opacity="1" stroke="#444c56" stroke-width="1"></rect><path id="SvgjsPath2930" d="M14.54 29.99L20.26 29.99C22.09 29.99 23.61 29.47 24.81 28.44C26.02 27.40 26.62 26.04 26.62 24.36C26.62 23.01 26.22 21.92 25.43 21.07C24.63 20.23 23.58 19.73 22.26 19.58L22.26 19.52C23.31 19.17 24.14 18.59 24.74 17.77C25.35 16.95 25.65 15.98 25.65 14.87C25.65 13.54 25.15 12.46 24.16 11.63C23.16 10.80 21.82 10.39 20.12 10.39L14.54 10.39ZM16.84 12.47L19.48 12.47C21.99 12.47 23.24 13.42 23.24 15.32C23.24 16.43 22.88 17.28 22.16 17.89C21.44 18.49 20.45 18.80 19.19 18.80L16.84 18.80ZM16.84 20.86L19.48 20.86C22.63 20.86 24.21 22.02 24.21 24.33C24.21 25.45 23.84 26.32 23.10 26.96C22.35 27.60 21.31 27.92 19.96 27.92L16.84 27.92Z" fill="#000000"></path></svg>