<svg xmlns="http://www.w3.org/2000/svg" version="1.1" xmlns:xlink="http://www.w3.org/1999/xlink" xmlns:svgjs="http://svgjs.com/svgjs" width="88" height="40"><svg id="SvgjsSvg1002" style="overflow: hidden; top: -100%; left: -100%; position: absolute; opacity: 0;" width="2" height="0" focusable="false"><polyline id="SvgjsPolyline1003" points="0,0"></polyline><path id="SvgjsPath1004" d="M0 0 "></path></svg><defs id="SvgjsDefs3090"></defs><rect id="SvgjsRect3091" width="87" height="39" x="0.5" y="0.5" rx="8" ry="8" fill="#ffffff" stroke-opacity="1" stroke="#444c56" stroke-width="1"></rect><path id="SvgjsPath3092" d="M13.55 24.20L16.41 24.20C17.32 24.20 18.08 23.94 18.68 23.42C19.28 22.90 19.59 22.22 19.59 21.38C19.59 20.71 19.39 20.16 18.99 19.74C18.59 19.31 18.07 19.07 17.40 18.99L17.40 18.96C17.93 18.79 18.35 18.50 18.65 18.09C18.95 17.68 19.10 17.19 19.10 16.64C19.10 15.97 18.85 15.43 18.35 15.02C17.86 14.60 17.19 14.39 16.34 14.39L13.55 14.39ZM14.70 15.43L16.02 15.43C17.27 15.43 17.90 15.91 17.90 16.86C17.90 17.41 17.72 17.84 17.36 18.14C17.00 18.45 16.50 18.60 15.87 18.60L14.70 18.60ZM14.70 19.63L16.02 19.63C17.59 19.63 18.38 20.21 18.38 21.37C18.38 21.92 18.20 22.36 17.83 22.68C17.45 23.00 16.93 23.16 16.26 23.16L14.70 23.16ZM26.44 24.20L26.44 19.64C26.44 17.90 25.61 17.03 23.97 17.03C23.07 17.03 22.28 17.25 21.59 17.69L21.59 18.84C22.27 18.26 23.03 17.98 23.87 17.98C24.83 17.98 25.31 18.57 25.31 19.76L23.22 20.05C21.67 20.27 20.90 21.03 20.90 22.34C20.90 22.95 21.10 23.44 21.50 23.81C21.89 24.18 22.44 24.36 23.13 24.36C24.08 24.36 24.80 23.94 25.29 23.10L25.31 23.10L25.31 24.20ZM25.31 20.66L25.31 21.35C25.31 21.95 25.13 22.44 24.77 22.83C24.41 23.22 23.95 23.42 23.39 23.42C22.99 23.42 22.66 23.31 22.42 23.09C22.18 22.88 22.05 22.60 22.05 22.26C22.05 21.79 22.19 21.46 22.45 21.27C22.71 21.09 23.11 20.96 23.63 20.89ZM33.32 23.88L33.32 22.81C32.78 23.21 32.21 23.42 31.60 23.42C30.87 23.42 30.29 23.18 29.86 22.71C29.43 22.23 29.22 21.59 29.22 20.77C29.22 19.93 29.45 19.26 29.90 18.75C30.36 18.23 30.95 17.98 31.66 17.98C32.26 17.98 32.81 18.16 33.33 18.52L33.33 17.37C32.86 17.15 32.32 17.03 31.71 17.03C30.60 17.03 29.72 17.38 29.06 18.08C28.40 18.78 28.07 19.71 28.07 20.86C28.07 21.90 28.38 22.74 28.99 23.39C29.60 24.04 30.41 24.36 31.40 24.36C32.14 24.36 32.78 24.20 33.32 23.88ZM40.82 24.20L37.32 20.57L40.57 17.20L39.10 17.20L36.16 20.40L36.14 20.40L36.14 13.83L35.01 13.83L35.01 24.20L36.14 24.20L36.14 20.83L36.16 20.83L39.25 24.20ZM41.55 23.94C42.08 24.22 42.70 24.36 43.42 24.36C43.79 24.36 44.14 24.32 44.47 24.24C44.80 24.16 45.09 24.03 45.35 23.86C45.61 23.69 45.81 23.48 45.96 23.23C46.11 22.97 46.19 22.67 46.19 22.32C46.19 22.04 46.14 21.80 46.05 21.59C45.96 21.39 45.82 21.21 45.65 21.05C45.48 20.89 45.27 20.75 45.02 20.63C44.78 20.50 44.50 20.38 44.19 20.26L43.57 20.01C43.38 19.93 43.23 19.84 43.10 19.75C42.97 19.65 42.88 19.54 42.81 19.42C42.74 19.30 42.71 19.14 42.71 18.96C42.71 18.81 42.74 18.68 42.81 18.56C42.88 18.44 42.97 18.34 43.09 18.25C43.21 18.16 43.36 18.10 43.52 18.05C43.69 18.00 43.88 17.98 44.09 17.98C44.76 17.98 45.35 18.14 45.87 18.48L45.87 17.35C45.39 17.14 44.85 17.03 44.24 17.03C43.90 17.03 43.57 17.08 43.25 17.16C42.93 17.25 42.64 17.38 42.39 17.55C42.14 17.72 41.94 17.93 41.79 18.18C41.64 18.44 41.56 18.73 41.56 19.06C41.56 19.33 41.60 19.56 41.68 19.76C41.76 19.96 41.88 20.14 42.04 20.30C42.20 20.45 42.39 20.60 42.63 20.72C42.86 20.85 43.13 20.97 43.44 21.09L44.07 21.34C44.26 21.42 44.43 21.51 44.57 21.61C44.72 21.71 44.83 21.83 44.92 21.96C45.00 22.09 45.04 22.25 45.04 22.43C45.04 23.09 44.55 23.42 43.57 23.42C42.83 23.42 42.16 23.19 41.55 22.74ZM49.06 23.19C49.55 23.97 50.25 24.36 51.16 24.36C52.15 24.36 52.93 24.01 53.50 23.30C54.07 22.60 54.35 21.66 54.35 20.49C54.35 19.44 54.10 18.60 53.59 17.97C53.09 17.35 52.38 17.03 51.48 17.03C50.42 17.03 49.61 17.50 49.06 18.43L49.03 18.43L49.03 17.20L47.91 17.20L47.91 27.42L49.03 27.42L49.03 23.19ZM49.03 20.36C49.03 19.68 49.23 19.11 49.63 18.66C50.03 18.20 50.55 17.98 51.20 17.98C51.82 17.98 52.30 18.20 52.66 18.64C53.02 19.08 53.20 19.69 53.20 20.47C53.20 21.40 53.01 22.12 52.63 22.64C52.24 23.16 51.71 23.42 51.03 23.42C50.45 23.42 49.97 23.22 49.60 22.81C49.22 22.41 49.03 21.92 49.03 21.34ZM60.97 24.20L60.97 19.64C60.97 17.90 60.15 17.03 58.50 17.03C57.60 17.03 56.81 17.25 56.12 17.69L56.12 18.84C56.80 18.26 57.56 17.98 58.41 17.98C59.37 17.98 59.85 18.57 59.85 19.76L57.75 20.05C56.21 20.27 55.44 21.03 55.44 22.34C55.44 22.95 55.64 23.44 56.03 23.81C56.43 24.18 56.97 24.36 57.67 24.36C58.62 24.36 59.33 23.94 59.82 23.10L59.85 23.10L59.85 24.20ZM59.85 20.66L59.85 21.35C59.85 21.95 59.67 22.44 59.31 22.83C58.94 23.22 58.48 23.42 57.93 23.42C57.52 23.42 57.20 23.31 56.95 23.09C56.71 22.88 56.59 22.60 56.59 22.26C56.59 21.79 56.72 21.46 56.98 21.27C57.25 21.09 57.64 20.96 58.16 20.89ZM67.85 23.88L67.85 22.81C67.32 23.21 66.74 23.42 66.13 23.42C65.41 23.42 64.83 23.18 64.40 22.71C63.97 22.23 63.75 21.59 63.75 20.77C63.75 19.93 63.98 19.26 64.44 18.75C64.90 18.23 65.48 17.98 66.20 17.98C66.79 17.98 67.35 18.16 67.87 18.52L67.87 17.37C67.40 17.15 66.86 17.03 66.24 17.03C65.14 17.03 64.26 17.38 63.60 18.08C62.93 18.78 62.60 19.71 62.60 20.86C62.60 21.90 62.91 22.74 63.52 23.39C64.14 24.04 64.94 24.36 65.94 24.36C66.68 24.36 67.32 24.20 67.85 23.88ZM75.18 20.98L75.18 20.39C75.18 19.34 74.92 18.51 74.42 17.92C73.92 17.33 73.21 17.03 72.30 17.03C71.38 17.03 70.61 17.38 70.00 18.06C69.38 18.75 69.07 19.64 69.07 20.72C69.07 21.88 69.35 22.77 69.92 23.41C70.48 24.04 71.26 24.36 72.25 24.36C73.26 24.36 74.07 24.14 74.69 23.69L74.69 22.64C74.03 23.16 73.30 23.42 72.52 23.42C71.81 23.42 71.26 23.21 70.86 22.78C70.46 22.36 70.25 21.76 70.23 20.98ZM74.03 20.03L70.25 20.03C70.33 19.42 70.56 18.92 70.93 18.54C71.30 18.17 71.75 17.98 72.28 17.98C72.82 17.98 73.25 18.16 73.56 18.52C73.87 18.88 74.02 19.38 74.03 20.03Z" fill="#000000"></path></svg>