<svg xmlns="http://www.w3.org/2000/svg" version="1.1" xmlns:xlink="http://www.w3.org/1999/xlink" xmlns:svgjs="http://svgjs.com/svgjs" width="40" height="40"><svg id="SvgjsSvg1002" style="overflow: hidden; top: -100%; left: -100%; position: absolute; opacity: 0;" width="2" height="0" focusable="false"><polyline id="SvgjsPolyline1003" points="0,0"></polyline><path id="SvgjsPath1004" d="M0 0 "></path></svg><defs id="SvgjsDefs2931"></defs><rect id="SvgjsRect2932" width="39" height="39" x="0.5" y="0.5" rx="8" ry="8" fill="#ffffff" stroke-opacity="1" stroke="#444c56" stroke-width="1"></rect><path id="SvgjsPath2933" d="M27.25 29.17L27.25 26.94C25.81 27.82 24.10 28.26 22.13 28.26C20.01 28.26 18.29 27.55 16.99 26.13C15.68 24.71 15.02 22.81 15.02 20.42C15.02 17.91 15.72 15.90 17.12 14.39C18.52 12.89 20.35 12.14 22.60 12.14C24.29 12.14 25.84 12.53 27.25 13.31L27.25 10.87C26.02 10.33 24.48 10.06 22.63 10.06C19.73 10.06 17.33 11.03 15.45 12.96C13.56 14.89 12.62 17.42 12.62 20.56C12.62 23.48 13.46 25.83 15.13 27.63C16.81 29.42 19.04 30.32 21.83 30.32C23.99 30.32 25.80 29.94 27.25 29.17Z" fill="#000000"></path></svg>