<svg xmlns="http://www.w3.org/2000/svg" version="1.1" xmlns:xlink="http://www.w3.org/1999/xlink" xmlns:svgjs="http://svgjs.com/svgjs" width="52" height="40"><svg id="SvgjsSvg1002" style="overflow: hidden; top: -100%; left: -100%; position: absolute; opacity: 0;" width="2" height="0" focusable="false"><polyline id="SvgjsPolyline1003" points="0,0"></polyline><path id="SvgjsPath1004" d="M0 0 "></path></svg><defs id="SvgjsDefs3081"></defs><rect id="SvgjsRect3082" width="51" height="39" x="0.5" y="0.5" rx="8" ry="8" fill="#ffffff" stroke-opacity="1" stroke="#444c56" stroke-width="1"></rect><path id="SvgjsPath3083" d="M18.98 23.79L18.98 22.67C18.26 23.11 17.40 23.33 16.42 23.33C15.36 23.33 14.50 22.97 13.85 22.27C13.19 21.56 12.86 20.61 12.86 19.41C12.86 18.15 13.21 17.15 13.91 16.40C14.61 15.65 15.53 15.27 16.65 15.27C17.50 15.27 18.27 15.47 18.98 15.86L18.98 14.63C18.37 14.36 17.60 14.23 16.67 14.23C15.22 14.23 14.02 14.71 13.08 15.68C12.13 16.65 11.66 17.91 11.66 19.48C11.66 20.94 12.08 22.12 12.92 23.01C13.76 23.91 14.87 24.36 16.27 24.36C17.35 24.36 18.25 24.17 18.98 23.79ZM25.83 24.20L25.83 19.64C25.83 17.90 25.01 17.03 23.36 17.03C22.47 17.03 21.67 17.25 20.99 17.69L20.99 18.84C21.66 18.26 22.43 17.98 23.27 17.98C24.23 17.98 24.71 18.57 24.71 19.76L22.61 20.05C21.07 20.27 20.30 21.03 20.30 22.34C20.30 22.95 20.50 23.44 20.89 23.81C21.29 24.18 21.83 24.36 22.53 24.36C23.48 24.36 24.20 23.94 24.68 23.10L24.71 23.10L24.71 24.20ZM24.71 20.66L24.71 21.35C24.71 21.95 24.53 22.44 24.17 22.83C23.81 23.22 23.35 23.42 22.79 23.42C22.38 23.42 22.06 23.31 21.82 23.09C21.57 22.88 21.45 22.60 21.45 22.26C21.45 21.79 21.58 21.46 21.85 21.27C22.11 21.09 22.50 20.96 23.02 20.89ZM29.09 23.19C29.59 23.97 30.28 24.36 31.19 24.36C32.18 24.36 32.96 24.01 33.53 23.30C34.10 22.60 34.38 21.66 34.38 20.49C34.38 19.44 34.13 18.60 33.63 17.97C33.12 17.35 32.42 17.03 31.51 17.03C30.45 17.03 29.64 17.50 29.09 18.43L29.07 18.43L29.07 17.20L27.94 17.20L27.94 27.42L29.07 27.42L29.07 23.19ZM29.07 20.36C29.07 19.68 29.26 19.11 29.66 18.66C30.06 18.20 30.58 17.98 31.23 17.98C31.85 17.98 32.34 18.20 32.70 18.64C33.06 19.08 33.24 19.69 33.24 20.47C33.24 21.40 33.04 22.12 32.66 22.64C32.27 23.16 31.74 23.42 31.06 23.42C30.48 23.42 30.01 23.22 29.63 22.81C29.25 22.41 29.07 21.92 29.07 21.34ZM35.75 23.94C36.28 24.22 36.90 24.36 37.62 24.36C37.99 24.36 38.34 24.32 38.67 24.24C39.00 24.16 39.30 24.03 39.55 23.86C39.81 23.69 40.01 23.48 40.16 23.23C40.32 22.97 40.39 22.67 40.39 22.32C40.39 22.04 40.35 21.80 40.25 21.59C40.16 21.39 40.03 21.21 39.85 21.05C39.68 20.89 39.47 20.75 39.22 20.63C38.98 20.50 38.70 20.38 38.39 20.26L37.77 20.01C37.59 19.93 37.43 19.84 37.30 19.75C37.18 19.65 37.08 19.54 37.01 19.42C36.95 19.30 36.91 19.14 36.91 18.96C36.91 18.81 36.95 18.68 37.01 18.56C37.08 18.44 37.17 18.34 37.29 18.25C37.41 18.16 37.56 18.10 37.73 18.05C37.90 18.00 38.08 17.98 38.29 17.98C38.96 17.98 39.56 18.14 40.07 18.48L40.07 17.35C39.59 17.14 39.05 17.03 38.44 17.03C38.10 17.03 37.77 17.08 37.45 17.16C37.13 17.25 36.84 17.38 36.59 17.55C36.34 17.72 36.14 17.93 35.99 18.18C35.84 18.44 35.77 18.73 35.77 19.06C35.77 19.33 35.81 19.56 35.88 19.76C35.96 19.96 36.08 20.14 36.24 20.30C36.40 20.45 36.59 20.60 36.83 20.72C37.06 20.85 37.34 20.97 37.65 21.09L38.27 21.34C38.46 21.42 38.63 21.51 38.78 21.61C38.92 21.71 39.03 21.83 39.12 21.96C39.20 22.09 39.24 22.25 39.24 22.43C39.24 23.09 38.75 23.42 37.77 23.42C37.03 23.42 36.36 23.19 35.75 22.74Z" fill="#000000"></path></svg>