<svg xmlns="http://www.w3.org/2000/svg" version="1.1" xmlns:xlink="http://www.w3.org/1999/xlink" xmlns:svgjs="http://svgjs.com/svgjs" width="40" height="40"><svg id="SvgjsSvg1002" style="overflow: hidden; top: -100%; left: -100%; position: absolute; opacity: 0;" width="2" height="0" focusable="false"><polyline id="SvgjsPolyline1003" points="0,0"></polyline><path id="SvgjsPath1004" d="M0 0 "></path></svg><defs id="SvgjsDefs3093"></defs><rect id="SvgjsRect3094" width="39" height="39" x="0.5" y="0.5" rx="8" ry="8" fill="#ffffff" stroke-opacity="1" stroke="#444c56" stroke-width="1"></rect><path id="SvgjsPath3095" d="M17.12 23.79L17.12 22.67C16.40 23.11 15.55 23.33 14.57 23.33C13.50 23.33 12.65 22.97 11.99 22.27C11.34 21.56 11.01 20.61 11.01 19.41C11.01 18.15 11.36 17.15 12.06 16.40C12.76 15.65 13.67 15.27 14.80 15.27C15.65 15.27 16.42 15.47 17.12 15.86L17.12 14.63C16.51 14.36 15.74 14.23 14.81 14.23C13.36 14.23 12.17 14.71 11.22 15.68C10.28 16.65 9.81 17.91 9.81 19.48C9.81 20.94 10.23 22.12 11.07 23.01C11.90 23.91 13.02 24.36 14.42 24.36C15.50 24.36 16.40 24.17 17.12 23.79ZM22.21 24.13L22.21 23.17C22.01 23.33 21.77 23.40 21.48 23.40C21.11 23.40 20.85 23.30 20.69 23.10C20.53 22.90 20.45 22.57 20.45 22.10L20.45 18.15L22.21 18.15L22.21 17.20L20.45 17.20L20.45 15.13L19.33 15.49L19.33 17.20L18.13 17.20L18.13 18.15L19.33 18.15L19.33 22.30C19.33 23.66 19.94 24.35 21.17 24.35C21.60 24.35 21.95 24.27 22.21 24.13ZM27.36 18.33L27.36 17.17C27.21 17.11 26.98 17.07 26.69 17.07C26.29 17.07 25.92 17.21 25.59 17.49C25.26 17.76 25.02 18.15 24.86 18.64L24.83 18.64L24.83 17.20L23.71 17.20L23.71 24.20L24.83 24.20L24.83 20.63C24.83 19.85 24.99 19.23 25.31 18.78C25.64 18.33 26.04 18.11 26.51 18.11C26.88 18.11 27.17 18.18 27.36 18.33ZM29.70 24.20L29.70 13.83L28.58 13.83L28.58 24.20Z" fill="#000000"></path></svg>