<svg xmlns="http://www.w3.org/2000/svg" version="1.1" xmlns:xlink="http://www.w3.org/1999/xlink" xmlns:svgjs="http://svgjs.com/svgjs" width="40" height="40"><svg id="SvgjsSvg1002" style="overflow: hidden; top: -100%; left: -100%; position: absolute; opacity: 0;" width="2" height="0" focusable="false"><polyline id="SvgjsPolyline1003" points="0,0"></polyline><path id="SvgjsPath1004" d="M0 0 "></path></svg><defs id="SvgjsDefs2934"></defs><rect id="SvgjsRect2935" width="39" height="39" x="0.5" y="0.5" rx="8" ry="8" fill="#ffffff" stroke-opacity="1" stroke="#444c56" stroke-width="1"></rect><path id="SvgjsPath2936" d="M12.75 29.99L17.95 29.99C21.17 29.99 23.73 29.08 25.65 27.24C27.57 25.40 28.53 22.97 28.53 19.94C28.53 13.57 25.08 10.39 18.17 10.39L12.75 10.39ZM15.05 12.47L18.11 12.47C23.45 12.47 26.13 14.98 26.13 20.00C26.13 22.52 25.41 24.47 23.98 25.85C22.55 27.23 20.55 27.92 17.98 27.92L15.05 27.92Z" fill="#000000"></path></svg>