<svg xmlns="http://www.w3.org/2000/svg" version="1.1" xmlns:xlink="http://www.w3.org/1999/xlink" xmlns:svgjs="http://svgjs.com/svgjs" width="64" height="40"><svg id="SvgjsSvg1002" style="overflow: hidden; top: -100%; left: -100%; position: absolute; opacity: 0;" width="2" height="0" focusable="false"><polyline id="SvgjsPolyline1003" points="0,0"></polyline><path id="SvgjsPath1004" d="M0 0 "></path></svg><defs id="SvgjsDefs3087"></defs><rect id="SvgjsRect3088" width="63" height="39" x="0.5" y="0.5" rx="8" ry="8" fill="#ffffff" stroke-opacity="1" stroke="#444c56" stroke-width="1"></rect><path id="SvgjsPath3089" d="M22.57 24.20L22.57 23.16L18.52 23.16L18.52 19.73L22.06 19.73L22.06 18.69L18.52 18.69L18.52 15.43L22.35 15.43L22.35 14.39L17.37 14.39L17.37 24.20ZM30.11 24.20L30.11 19.92C30.11 18.98 29.91 18.27 29.50 17.77C29.10 17.28 28.51 17.03 27.75 17.03C26.75 17.03 25.98 17.47 25.45 18.36L25.42 18.36L25.42 17.20L24.30 17.20L24.30 24.20L25.42 24.20L25.42 20.20C25.42 19.56 25.61 19.03 25.97 18.61C26.34 18.19 26.80 17.98 27.37 17.98C28.45 17.98 28.99 18.72 28.99 20.20L28.99 24.20ZM35.47 24.13L35.47 23.17C35.27 23.33 35.02 23.40 34.74 23.40C34.37 23.40 34.11 23.30 33.95 23.10C33.79 22.90 33.71 22.57 33.71 22.10L33.71 18.15L35.47 18.15L35.47 17.20L33.71 17.20L33.71 15.13L32.59 15.49L32.59 17.20L31.38 17.20L31.38 18.15L32.59 18.15L32.59 22.30C32.59 23.66 33.20 24.35 34.43 24.35C34.86 24.35 35.21 24.27 35.47 24.13ZM42.49 20.98L42.49 20.39C42.49 19.34 42.24 18.51 41.73 17.92C41.23 17.33 40.52 17.03 39.61 17.03C38.69 17.03 37.93 17.38 37.31 18.06C36.69 18.75 36.38 19.64 36.38 20.72C36.38 21.88 36.66 22.77 37.23 23.41C37.79 24.04 38.57 24.36 39.56 24.36C40.57 24.36 41.39 24.14 42.00 23.69L42.00 22.64C41.34 23.16 40.62 23.42 39.83 23.42C39.13 23.42 38.57 23.21 38.17 22.78C37.77 22.36 37.56 21.76 37.54 20.98ZM41.34 20.03L37.56 20.03C37.64 19.42 37.87 18.92 38.24 18.54C38.61 18.17 39.06 17.98 39.59 17.98C40.13 17.98 40.56 18.16 40.87 18.52C41.18 18.88 41.33 19.38 41.34 20.03ZM47.83 18.33L47.83 17.17C47.68 17.11 47.45 17.07 47.16 17.07C46.76 17.07 46.39 17.21 46.06 17.49C45.73 17.76 45.49 18.15 45.33 18.64L45.30 18.64L45.30 17.20L44.18 17.20L44.18 24.20L45.30 24.20L45.30 20.63C45.30 19.85 45.46 19.23 45.78 18.78C46.11 18.33 46.51 18.11 46.98 18.11C47.35 18.11 47.64 18.18 47.83 18.33Z" fill="#000000"></path></svg>