<svg xmlns="http://www.w3.org/2000/svg" version="1.1" xmlns:xlink="http://www.w3.org/1999/xlink" xmlns:svgjs="http://svgjs.com/svgjs" width="52" height="40"><svg id="SvgjsSvg1002" style="overflow: hidden; top: -100%; left: -100%; position: absolute; opacity: 0;" width="2" height="0" focusable="false"><polyline id="SvgjsPolyline1003" points="0,0"></polyline><path id="SvgjsPath1004" d="M0 0 "></path></svg><defs id="SvgjsDefs3066"></defs><rect id="SvgjsRect3067" width="51" height="39" x="0.5" y="0.5" rx="8" ry="8" fill="#ffffff" stroke-opacity="1" stroke="#444c56" stroke-width="1"></rect><path id="SvgjsPath3068" d="M20.36 14.84L20.36 13.59L14.38 13.59L14.38 25.36L15.76 25.36L15.76 20.15L20.01 20.15L20.01 18.91L15.76 18.91L15.76 14.84ZM29.14 25.36L29.14 24.17L26.49 24.17L26.49 13.33L22.42 14.57L22.42 15.85L25.15 15.04L25.15 24.17L22.49 24.17L22.49 25.36ZM37.98 25.36L37.98 24.14L32.51 24.14L32.51 24.11L35.22 21.43C36.30 20.36 37.04 19.47 37.46 18.75C37.88 18.03 38.08 17.29 38.08 16.54C38.08 15.58 37.78 14.82 37.18 14.25C36.58 13.68 35.75 13.40 34.70 13.40C33.48 13.40 32.41 13.75 31.50 14.47L31.50 15.88C32.46 14.98 33.46 14.54 34.51 14.54C35.23 14.54 35.78 14.72 36.17 15.09C36.56 15.47 36.75 15.99 36.75 16.67C36.75 17.33 36.57 17.95 36.19 18.54C35.82 19.12 35.19 19.85 34.32 20.72L30.89 24.16L30.89 25.36Z" fill="#000000"></path></svg>