<svg xmlns="http://www.w3.org/2000/svg" version="1.1" xmlns:xlink="http://www.w3.org/1999/xlink" xmlns:svgjs="http://svgjs.com/svgjs" width="52" height="40"><svg id="SvgjsSvg1002" style="overflow: hidden; top: -100%; left: -100%; position: absolute; opacity: 0;" width="2" height="0" focusable="false"><polyline id="SvgjsPolyline1003" points="0,0"></polyline><path id="SvgjsPath1004" d="M0 0 "></path></svg><defs id="SvgjsDefs3036"></defs><rect id="SvgjsRect3037" width="51" height="39" x="0.5" y="0.5" rx="8" ry="8" fill="#ffffff" stroke-opacity="1" stroke="#444c56" stroke-width="1"></rect><path id="SvgjsPath3038" d="M24.88 14.84L24.88 13.59L18.91 13.59L18.91 25.36L20.29 25.36L20.29 20.15L24.54 20.15L24.54 18.91L20.29 18.91L20.29 14.84ZM33.45 25.36L33.45 24.14L27.98 24.14L27.98 24.11L30.69 21.43C31.77 20.36 32.52 19.47 32.93 18.75C33.35 18.03 33.56 17.29 33.56 16.54C33.56 15.58 33.25 14.82 32.65 14.25C32.05 13.68 31.23 13.40 30.18 13.40C28.96 13.40 27.89 13.75 26.97 14.47L26.97 15.88C27.93 14.98 28.94 14.54 29.99 14.54C30.70 14.54 31.26 14.72 31.64 15.09C32.03 15.47 32.23 15.99 32.23 16.67C32.23 17.33 32.04 17.95 31.66 18.54C31.29 19.12 30.66 19.85 29.79 20.72L26.36 24.16L26.36 25.36Z" fill="#000000"></path></svg>