<svg xmlns="http://www.w3.org/2000/svg" version="1.1" xmlns:xlink="http://www.w3.org/1999/xlink" xmlns:svgjs="http://svgjs.com/svgjs" width="52" height="40"><svg id="SvgjsSvg1002" style="overflow: hidden; top: -100%; left: -100%; position: absolute; opacity: 0;" width="2" height="0" focusable="false"><polyline id="SvgjsPolyline1003" points="0,0"></polyline><path id="SvgjsPath1004" d="M0 0 "></path></svg><defs id="SvgjsDefs3042"></defs><rect id="SvgjsRect3043" width="51" height="39" x="0.5" y="0.5" rx="8" ry="8" fill="#ffffff" stroke-opacity="1" stroke="#444c56" stroke-width="1"></rect><path id="SvgjsPath3044" d="M24.88 14.84L24.88 13.59L18.91 13.59L18.91 25.36L20.29 25.36L20.29 20.15L24.54 20.15L24.54 18.91L20.29 18.91L20.29 14.84ZM34.06 22.23L34.06 21.14L32.55 21.14L32.55 13.59L30.92 13.59L25.69 21.35L25.69 22.23L31.22 22.23L31.22 25.36L32.55 25.36L32.55 22.23ZM31.22 21.14L27.15 21.14L30.77 15.74C30.99 15.34 31.14 15.04 31.22 14.84L31.25 14.84C31.23 15.29 31.22 15.69 31.22 16.05Z" fill="#000000"></path></svg>