<svg xmlns="http://www.w3.org/2000/svg" version="1.1" xmlns:xlink="http://www.w3.org/1999/xlink" xmlns:svgjs="http://svgjs.com/svgjs" width="52" height="40"><svg id="SvgjsSvg1002" style="overflow: hidden; top: -100%; left: -100%; position: absolute; opacity: 0;" width="2" height="0" focusable="false"><polyline id="SvgjsPolyline1003" points="0,0"></polyline><path id="SvgjsPath1004" d="M0 0 "></path></svg><defs id="SvgjsDefs3048"></defs><rect id="SvgjsRect3049" width="51" height="39" x="0.5" y="0.5" rx="8" ry="8" fill="#ffffff" stroke-opacity="1" stroke="#444c56" stroke-width="1"></rect><path id="SvgjsPath3050" d="M24.88 14.84L24.88 13.59L18.91 13.59L18.91 25.36L20.29 25.36L20.29 20.15L24.54 20.15L24.54 18.91L20.29 18.91L20.29 14.84ZM33.24 13.73C32.75 13.51 32.10 13.40 31.28 13.40C29.84 13.40 28.68 14.01 27.80 15.24C26.92 16.47 26.48 18.12 26.48 20.18C26.48 21.88 26.81 23.20 27.48 24.14C28.16 25.08 29.08 25.55 30.27 25.55C31.34 25.55 32.22 25.19 32.92 24.46C33.61 23.73 33.96 22.79 33.96 21.63C33.96 20.53 33.65 19.65 33.05 18.99C32.44 18.33 31.62 18.00 30.59 18.00C29.35 18.00 28.45 18.55 27.90 19.66L27.87 19.66C27.87 18.10 28.18 16.86 28.81 15.93C29.44 15.00 30.27 14.54 31.32 14.54C31.99 14.54 32.63 14.69 33.24 15.00ZM30.30 19.14C31.02 19.14 31.58 19.37 31.98 19.84C32.38 20.31 32.58 20.96 32.58 21.80C32.58 22.56 32.37 23.18 31.96 23.68C31.54 24.17 30.99 24.42 30.31 24.42C29.60 24.42 29.03 24.14 28.60 23.57C28.18 23.00 27.96 22.31 27.96 21.51C27.96 20.87 28.18 20.31 28.61 19.84C29.04 19.37 29.60 19.14 30.30 19.14Z" fill="#000000"></path></svg>