<svg xmlns="http://www.w3.org/2000/svg" version="1.1" xmlns:xlink="http://www.w3.org/1999/xlink" xmlns:svgjs="http://svgjs.com/svgjs" width="40" height="40"><svg id="SvgjsSvg1002" style="overflow: hidden; top: -100%; left: -100%; position: absolute; opacity: 0;" width="2" height="0" focusable="false"><polyline id="SvgjsPolyline1003" points="0,0"></polyline><path id="SvgjsPath1004" d="M0 0 "></path></svg><defs id="SvgjsDefs2961"></defs><rect id="SvgjsRect2962" width="39" height="39" x="0.5" y="0.5" rx="8" ry="8" fill="#ffffff" stroke-opacity="1" stroke="#444c56" stroke-width="1"></rect><path id="SvgjsPath2963" d="M29.99 29.99L29.99 10.39L27.12 10.39L20.98 24.01C20.74 24.53 20.43 25.34 20.03 26.41L19.95 26.41C19.82 25.89 19.51 25.11 19.05 24.06L13.03 10.39L10.00 10.39L10.00 29.99L12.21 29.99L12.21 16.87C12.21 15.09 12.18 13.81 12.10 13.03L12.16 13.03C12.36 13.93 12.56 14.60 12.75 15.04L19.43 29.99L20.55 29.99L27.25 14.93C27.43 14.54 27.62 13.91 27.84 13.03L27.90 13.03C27.77 14.53 27.70 15.80 27.70 16.84L27.70 29.99Z" fill="#000000"></path></svg>