<svg xmlns="http://www.w3.org/2000/svg" version="1.1" xmlns:xlink="http://www.w3.org/1999/xlink" xmlns:svgjs="http://svgjs.com/svgjs" width="40" height="40"><svg id="SvgjsSvg1002" style="overflow: hidden; top: -100%; left: -100%; position: absolute; opacity: 0;" width="2" height="0" focusable="false"><polyline id="SvgjsPolyline1003" points="0,0"></polyline><path id="SvgjsPath1004" d="M0 0 "></path></svg><defs id="SvgjsDefs2970"></defs><rect id="SvgjsRect2971" width="39" height="39" x="0.5" y="0.5" rx="8" ry="8" fill="#ffffff" stroke-opacity="1" stroke="#444c56" stroke-width="1"></rect><path id="SvgjsPath2972" d="M17.03 22.58L19.61 22.58C21.79 22.58 23.52 21.99 24.80 20.81C26.08 19.62 26.72 18.10 26.72 16.24C26.72 14.38 26.14 12.94 24.99 11.92C23.84 10.90 22.21 10.39 20.12 10.39L14.73 10.39L14.73 29.99L17.03 29.99ZM17.03 12.47L19.72 12.47C22.78 12.47 24.31 13.76 24.31 16.35C24.31 17.67 23.90 18.69 23.06 19.42C22.23 20.14 21.02 20.51 19.43 20.51L17.03 20.51Z" fill="#000000"></path></svg>