<svg xmlns="http://www.w3.org/2000/svg" version="1.1" xmlns:xlink="http://www.w3.org/1999/xlink" xmlns:svgjs="http://svgjs.com/svgjs" width="40" height="40"><svg id="SvgjsSvg1002" style="overflow: hidden; top: -100%; left: -100%; position: absolute; opacity: 0;" width="2" height="0" focusable="false"><polyline id="SvgjsPolyline1003" points="0,0"></polyline><path id="SvgjsPath1004" d="M0 0 "></path></svg><defs id="SvgjsDefs2973"></defs><rect id="SvgjsRect2974" width="39" height="39" x="0.5" y="0.5" rx="8" ry="8" fill="#ffffff" stroke-opacity="1" stroke="#444c56" stroke-width="1"></rect><path id="SvgjsPath2975" d="M19.78 30.32L21.56 32.26C22.12 32.86 22.71 33.39 23.32 33.84C23.92 34.29 24.57 34.65 25.27 34.91C25.97 35.17 26.75 35.30 27.63 35.30C27.78 35.30 27.95 35.29 28.13 35.28C28.32 35.26 28.50 35.25 28.69 35.22C28.88 35.20 29.06 35.17 29.24 35.14C29.42 35.11 29.59 35.07 29.73 35.02L29.73 32.81C29.60 32.86 29.45 32.91 29.28 32.95C29.12 32.99 28.95 33.03 28.77 33.06C28.59 33.09 28.42 33.12 28.24 33.13C28.07 33.15 27.91 33.15 27.77 33.15C27.23 33.15 26.74 33.08 26.29 32.95C25.84 32.81 25.41 32.61 25.00 32.34C24.58 32.07 24.17 31.74 23.75 31.35C23.34 30.96 22.89 30.50 22.42 29.99C23.59 29.73 24.60 29.29 25.46 28.67C26.31 28.06 27.02 27.31 27.59 26.43C28.15 25.54 28.57 24.55 28.85 23.45C29.13 22.35 29.27 21.18 29.27 19.94C29.27 17.00 28.44 14.62 26.78 12.79C25.12 10.97 22.96 10.06 20.30 10.06C17.33 10.06 14.99 11.00 13.27 12.88C11.58 14.75 10.73 17.26 10.73 20.42C10.73 23.37 11.56 25.75 13.23 27.57C13.65 28.03 14.12 28.43 14.63 28.77C15.15 29.11 15.69 29.40 16.25 29.63C16.82 29.86 17.40 30.04 18.00 30.15C18.61 30.26 19.20 30.32 19.78 30.32ZM20.08 12.14C22.20 12.14 23.86 12.84 25.06 14.26C26.26 15.66 26.86 17.66 26.86 20.26C26.86 22.78 26.24 24.75 25.00 26.15C23.76 27.56 22.07 28.26 19.92 28.26C17.90 28.26 16.27 27.52 15.01 26.06C13.76 24.57 13.14 22.62 13.14 20.22C13.14 17.80 13.78 15.85 15.06 14.37C16.35 12.88 18.02 12.14 20.08 12.14Z" fill="#000000"></path></svg>