<svg xmlns="http://www.w3.org/2000/svg" version="1.1" xmlns:xlink="http://www.w3.org/1999/xlink" xmlns:svgjs="http://svgjs.com/svgjs" width="40" height="40"><svg id="SvgjsSvg1002" style="overflow: hidden; top: -100%; left: -100%; position: absolute; opacity: 0;" width="2" height="0" focusable="false"><polyline id="SvgjsPolyline1003" points="0,0"></polyline><path id="SvgjsPath1004" d="M0 0 "></path></svg><defs id="SvgjsDefs2976"></defs><rect id="SvgjsRect2977" width="39" height="39" x="0.5" y="0.5" rx="8" ry="8" fill="#ffffff" stroke-opacity="1" stroke="#444c56" stroke-width="1"></rect><path id="SvgjsPath2978" d="M28.25 29.99L24.57 24.10L23.86 22.97C23.64 22.65 23.42 22.36 23.21 22.11C22.99 21.85 22.76 21.63 22.52 21.44C22.27 21.26 21.99 21.09 21.66 20.94L21.66 20.89C22.33 20.72 22.93 20.47 23.46 20.16C23.99 19.84 24.45 19.46 24.83 19.02C25.20 18.57 25.50 18.06 25.70 17.49C25.91 16.92 26.01 16.29 26.01 15.61C26.01 14.74 25.86 13.97 25.56 13.32C25.26 12.67 24.84 12.12 24.31 11.69C23.77 11.25 23.14 10.92 22.42 10.71C21.70 10.50 20.90 10.39 20.05 10.39L14.20 10.39L14.20 29.99L16.49 29.99L16.49 21.65L18.38 21.65C18.81 21.65 19.19 21.71 19.54 21.81C19.88 21.92 20.20 22.08 20.49 22.31C20.79 22.54 21.08 22.83 21.36 23.19C21.64 23.55 21.93 23.99 22.24 24.50L25.52 29.99ZM16.49 12.47L19.64 12.47C20.92 12.47 21.90 12.76 22.58 13.35C23.26 13.94 23.60 14.75 23.60 15.80C23.60 16.39 23.50 16.91 23.30 17.38C23.10 17.85 22.82 18.25 22.47 18.57C22.11 18.89 21.69 19.14 21.20 19.32C20.72 19.49 20.18 19.58 19.61 19.58L16.49 19.58Z" fill="#000000"></path></svg>