<svg xmlns="http://www.w3.org/2000/svg" version="1.1" xmlns:xlink="http://www.w3.org/1999/xlink" xmlns:svgjs="http://svgjs.com/svgjs" width="44" height="40"><svg id="SvgjsSvg1002" style="overflow: hidden; top: -100%; left: -100%; position: absolute; opacity: 0;" width="2" height="0" focusable="false"><polyline id="SvgjsPolyline1003" points="0,0"></polyline><path id="SvgjsPath1004" d="M0 0 "></path></svg><defs id="SvgjsDefs3069"></defs><rect id="SvgjsRect3070" width="43" height="39" x="0.5" y="0.5" rx="8" ry="8" fill="#ffffff" stroke-opacity="1" stroke="#444c56" stroke-width="1"></rect><path id="SvgjsPath3071" d="M21.27 10.45C21.27 10.45 32.33 8.80 32.33 8.80C32.33 8.80 32.33 18.79 32.33 18.79C32.33 18.79 21.27 18.79 21.27 18.79C21.27 18.79 21.27 10.45 21.27 10.45ZM11.92 18.88C11.92 18.88 11.92 11.79 11.92 11.79C11.92 11.79 20.57 10.50 20.57 10.50C20.57 10.50 20.57 18.88 20.57 18.88C20.57 18.88 11.92 18.88 11.92 18.88ZM21.27 27.67C21.27 27.67 21.27 19.58 21.27 19.58C21.27 19.58 32.33 19.58 32.33 19.58C32.33 19.58 32.33 29.32 32.33 29.32C32.33 29.32 21.27 27.67 21.27 27.67ZM11.92 26.30C11.92 26.30 11.92 19.58 11.92 19.58C11.92 19.58 20.57 19.58 20.57 19.58C20.57 19.58 20.57 27.58 20.57 27.58C20.57 27.58 11.92 26.30 11.92 26.30Z" fill="#000000"></path></svg>