<svg xmlns="http://www.w3.org/2000/svg" version="1.1" xmlns:xlink="http://www.w3.org/1999/xlink" xmlns:svgjs="http://svgjs.com/svgjs" width="40" height="40"><svg id="SvgjsSvg1002" style="overflow: hidden; top: -100%; left: -100%; position: absolute; opacity: 0;" width="2" height="0" focusable="false"><polyline id="SvgjsPolyline1003" points="0,0"></polyline><path id="SvgjsPath1004" d="M0 0 "></path></svg><defs id="SvgjsDefs2994"></defs><rect id="SvgjsRect2995" width="39" height="39" x="0.5" y="0.5" rx="8" ry="8" fill="#ffffff" stroke-opacity="1" stroke="#444c56" stroke-width="1"></rect><path id="SvgjsPath2996" d="M27.85 29.99L21.60 20.11L27.77 10.39L25.13 10.39L20.96 17.22C20.74 17.57 20.48 18.04 20.19 18.65L20.14 18.65C19.94 18.19 19.70 17.73 19.44 17.28L15.43 10.39L12.62 10.39L18.66 20.14L12.10 29.99L14.91 29.99L19.56 22.49C19.78 22.05 19.94 21.73 20.03 21.52L20.08 21.52C20.25 21.94 20.40 22.26 20.53 22.49L25.04 29.99Z" fill="#000000"></path></svg>