<svg xmlns="http://www.w3.org/2000/svg" version="1.1" xmlns:xlink="http://www.w3.org/1999/xlink" xmlns:svgjs="http://svgjs.com/svgjs" width="40" height="40"><svg id="SvgjsSvg1002" style="overflow: hidden; top: -100%; left: -100%; position: absolute; opacity: 0;" width="2" height="0" focusable="false"><polyline id="SvgjsPolyline1003" points="0,0"></polyline><path id="SvgjsPath1004" d="M0 0 "></path></svg><defs id="SvgjsDefs2388"></defs><rect id="SvgjsRect2389" width="39" height="39" x="0.5" y="0.5" rx="8" ry="8" fill="#2d333b" stroke-opacity="1" stroke="#444c56" stroke-width="1"></rect><path id="SvgjsPath2390" d="M13.43 21.37C13.43 26.85 15.75 30.35 20.01 30.35C24.29 30.35 26.57 26.82 26.57 21.37L26.57 19.92C26.57 14.41 24.27 10.89 20.02 10.89C15.77 10.89 13.43 14.42 13.43 19.92ZM15.80 19.93C15.80 15.52 17.40 12.99 20.01 12.99C22.60 12.99 24.20 15.52 24.20 19.93L24.20 21.34C24.20 25.76 22.60 28.26 20.01 28.26C17.40 28.26 15.80 25.76 15.80 21.34Z" fill="#ffffff"></path></svg>