<svg xmlns="http://www.w3.org/2000/svg" version="1.1" xmlns:xlink="http://www.w3.org/1999/xlink" xmlns:svgjs="http://svgjs.com/svgjs" width="40" height="40"><svg id="SvgjsSvg1002" style="overflow: hidden; top: -100%; left: -100%; position: absolute; opacity: 0;" width="2" height="0" focusable="false"><polyline id="SvgjsPolyline1003" points="0,0"></polyline><path id="SvgjsPath1004" d="M0 0 "></path></svg><defs id="SvgjsDefs2394"></defs><rect id="SvgjsRect2395" width="39" height="39" x="0.5" y="0.5" rx="8" ry="8" fill="#2d333b" stroke-opacity="1" stroke="#444c56" stroke-width="1"></rect><path id="SvgjsPath2396" d="M16.34 16.45L16.34 16.36C16.34 14.54 17.64 12.96 19.84 12.96C21.80 12.96 23.26 14.19 23.26 16.17C23.26 17.87 22.17 19.17 21.11 20.37L14.14 28.45L14.14 29.95L26.04 29.95L26.04 27.86L17.48 27.86L17.48 27.82L22.51 21.91C24.33 19.79 25.68 18.26 25.68 16.01C25.68 13.07 23.40 10.89 19.91 10.89C16.12 10.89 14.02 13.49 14.02 16.36L14.02 16.45Z" fill="#ffffff"></path></svg>