<svg xmlns="http://www.w3.org/2000/svg" version="1.1" xmlns:xlink="http://www.w3.org/1999/xlink" xmlns:svgjs="http://svgjs.com/svgjs" width="40" height="40"><svg id="SvgjsSvg1002" style="overflow: hidden; top: -100%; left: -100%; position: absolute; opacity: 0;" width="2" height="0" focusable="false"><polyline id="SvgjsPolyline1003" points="0,0"></polyline><path id="SvgjsPath1004" d="M0 0 "></path></svg><defs id="SvgjsDefs2565"></defs><rect id="SvgjsRect2566" width="39" height="39" x="0.5" y="0.5" rx="8" ry="8" fill="#2d333b" stroke-opacity="1" stroke="#444c56" stroke-width="1"></rect><path id="SvgjsPath2567" d="M23.13 12.26C23.79 11.47 24.25 10.38 24.25 9.28C24.25 9.13 24.24 8.98 24.21 8.86C23.14 8.90 21.86 9.57 21.09 10.47C20.48 11.17 19.92 12.26 19.92 13.36C19.92 13.52 19.95 13.68 19.96 13.74C20.03 13.75 20.14 13.77 20.25 13.77C21.22 13.77 22.42 13.12 23.13 12.26ZM23.88 14.00C22.28 14.00 20.97 14.97 20.14 14.97C19.25 14.97 18.09 14.05 16.69 14.05C14.04 14.05 11.36 16.25 11.36 20.37C11.36 22.95 12.34 25.66 13.57 27.42C14.63 28.90 15.56 30.12 16.88 30.12C18.20 30.12 18.77 29.24 20.40 29.24C22.06 29.24 22.43 30.09 23.88 30.09C25.32 30.09 26.29 28.78 27.19 27.48C28.20 25.97 28.63 24.53 28.64 24.46C28.56 24.43 25.80 23.31 25.80 20.15C25.80 17.43 27.97 16.21 28.09 16.12C26.67 14.05 24.48 14.00 23.88 14.00Z" fill="#ffffff"></path></svg>