<svg xmlns="http://www.w3.org/2000/svg" version="1.1" xmlns:xlink="http://www.w3.org/1999/xlink" xmlns:svgjs="http://svgjs.com/svgjs" width="40" height="40"><svg id="SvgjsSvg1002" style="overflow: hidden; top: -100%; left: -100%; position: absolute; opacity: 0;" width="2" height="0" focusable="false"><polyline id="SvgjsPolyline1003" points="0,0"></polyline><path id="SvgjsPath1004" d="M0 0 "></path></svg><defs id="SvgjsDefs2313"></defs><rect id="SvgjsRect2314" width="39" height="39" x="0.5" y="0.5" rx="8" ry="8" fill="#2d333b" stroke-opacity="1" stroke="#444c56" stroke-width="1"></rect><path id="SvgjsPath2315" d="M13.89 29.95L20.62 29.95C24.63 29.95 27.14 27.98 27.14 24.73C27.14 22.12 25.59 20.45 23.09 20.11L23.09 20.01C24.99 19.41 26.07 17.99 26.07 15.88C26.07 13.07 24.06 11.29 20.89 11.29L13.89 11.29ZM16.27 13.38L20.51 13.38C22.50 13.38 23.66 14.45 23.66 16.29C23.66 18.37 22.26 19.33 19.13 19.33L16.27 19.33ZM16.27 21.38L20.77 21.38C23.25 21.38 24.69 22.61 24.69 24.74C24.69 26.95 23.20 27.86 19.51 27.86L16.27 27.86Z" fill="#ffffff"></path></svg>