<svg xmlns="http://www.w3.org/2000/svg" version="1.1" xmlns:xlink="http://www.w3.org/1999/xlink" xmlns:svgjs="http://svgjs.com/svgjs" width="90" height="40"><svg id="SvgjsSvg1002" style="overflow: hidden; top: -100%; left: -100%; position: absolute; opacity: 0;" width="2" height="0" focusable="false"><polyline id="SvgjsPolyline1003" points="0,0"></polyline><path id="SvgjsPath1004" d="M0 0 "></path></svg><defs id="SvgjsDefs2514"></defs><rect id="SvgjsRect2515" width="89" height="39" x="0.5" y="0.5" rx="8" ry="8" fill="#2d333b" stroke-opacity="1" stroke="#444c56" stroke-width="1"></rect><path id="SvgjsPath2516" d="M16.67 29.09C18.40 29.09 19.53 27.81 19.53 25.73L19.53 25.03C19.53 22.87 18.36 21.68 16.68 21.68C15.77 21.68 14.94 22.15 14.57 22.78L14.54 22.78L14.54 19.15L13.36 19.15L13.36 28.98L14.49 28.98L14.49 27.90L14.52 27.90C14.95 28.63 15.64 29.09 16.67 29.09ZM16.52 28.07C15.27 28.07 14.52 27.21 14.52 25.65L14.52 25.10C14.52 23.54 15.27 22.71 16.52 22.71C17.60 22.71 18.35 23.55 18.35 25.10L18.35 25.67C18.35 27.21 17.60 28.07 16.52 28.07ZM25.35 28.08L25.38 28.08L25.38 28.98L26.51 28.98L26.51 24.02C26.51 22.51 25.40 21.68 23.87 21.68C22.13 21.68 21.28 22.59 21.20 23.85L22.31 23.85C22.38 23.13 22.90 22.66 23.83 22.66C24.80 22.66 25.34 23.18 25.34 24.12L25.34 24.85L23.45 24.85C21.80 24.86 20.93 25.65 20.93 26.91C20.93 28.23 21.88 29.09 23.27 29.09C24.33 29.09 24.99 28.66 25.35 28.08ZM23.59 28.12C22.83 28.12 22.13 27.72 22.13 26.87C22.13 26.22 22.55 25.76 23.54 25.76L25.34 25.76L25.34 26.59C25.34 27.49 24.59 28.12 23.59 28.12ZM28.26 25.71C28.26 27.62 29.33 29.09 31.24 29.09C32.88 29.09 33.79 28.23 34.02 27.00L32.87 27.00C32.74 27.58 32.21 28.05 31.32 28.05C30.17 28.05 29.43 27.12 29.43 25.72L29.43 25.05C29.43 23.60 30.12 22.71 31.31 22.71C32.09 22.71 32.66 23.27 32.81 23.88L33.97 23.88C33.91 22.78 32.90 21.68 31.24 21.68C29.36 21.68 28.26 23.06 28.26 25.00ZM36.86 26.39L37.52 25.66L39.97 28.98L41.41 28.98L38.39 24.92L41.23 21.79L39.77 21.79L36.91 24.97L36.86 24.97L36.86 19.15L35.69 19.15L35.69 28.98L36.86 28.98ZM42.02 23.85C42.02 25.15 43.12 25.56 44.46 25.83C45.46 26.03 46.26 26.19 46.26 27.00C46.26 27.61 45.76 28.13 44.66 28.13C43.70 28.13 43.14 27.70 43.04 27.04L41.89 27.04C41.89 28.33 42.99 29.09 44.57 29.09C46.26 29.09 47.42 28.29 47.42 26.86C47.42 25.46 46.28 25.09 44.94 24.85C44.11 24.70 43.16 24.53 43.16 23.73C43.16 23.02 43.78 22.64 44.63 22.64C45.76 22.64 46.10 23.28 46.14 23.83L47.23 23.83C47.23 22.64 46.36 21.68 44.68 21.68C43.29 21.68 42.02 22.33 42.02 23.85ZM52.35 29.09C54.03 29.09 55.21 27.81 55.21 25.72L55.21 25.05C55.21 22.93 54.01 21.68 52.39 21.68C51.43 21.68 50.69 22.15 50.27 22.82L50.24 22.82L50.24 21.79L49.11 21.79L49.11 31.36L50.29 31.36L50.29 28.02L50.32 28.02C50.73 28.66 51.43 29.09 52.35 29.09ZM52.23 28.07C51.01 28.07 50.27 27.10 50.27 25.63L50.27 25.09C50.27 23.66 51.00 22.69 52.19 22.69C53.36 22.69 54.03 23.58 54.03 25.09L54.03 25.63C54.03 27.21 53.30 28.07 52.23 28.07ZM61.03 28.08L61.06 28.08L61.06 28.98L62.19 28.98L62.19 24.02C62.19 22.51 61.07 21.68 59.54 21.68C57.81 21.68 56.95 22.59 56.88 23.85L57.98 23.85C58.05 23.13 58.58 22.66 59.50 22.66C60.47 22.66 61.02 23.18 61.02 24.12L61.02 24.85L59.13 24.85C57.48 24.86 56.60 25.65 56.60 26.91C56.60 28.23 57.56 29.09 58.95 29.09C60.01 29.09 60.66 28.66 61.03 28.08ZM59.26 28.12C58.51 28.12 57.81 27.72 57.81 26.87C57.81 26.22 58.23 25.76 59.22 25.76L61.02 25.76L61.02 26.59C61.02 27.49 60.27 28.12 59.26 28.12ZM63.93 25.71C63.93 27.62 65.01 29.09 66.91 29.09C68.56 29.09 69.46 28.23 69.70 27.00L68.55 27.00C68.42 27.58 67.89 28.05 66.99 28.05C65.85 28.05 65.11 27.12 65.11 25.72L65.11 25.05C65.11 23.60 65.80 22.71 66.99 22.71C67.77 22.71 68.33 23.27 68.49 23.88L69.65 23.88C69.59 22.78 68.57 21.68 66.91 21.68C65.04 21.68 63.93 23.06 63.93 25.00ZM74.07 29.09C75.66 29.09 76.61 28.21 76.88 27.02L75.71 27.02C75.48 27.69 74.93 28.11 74.10 28.11C72.93 28.11 72.23 27.17 72.23 25.80L72.23 25.67L76.98 25.67L76.98 25.00C76.98 23.03 75.90 21.68 74.02 21.68C72.13 21.68 71.06 23.03 71.06 24.92L71.06 25.73C71.06 27.77 72.20 29.09 74.07 29.09ZM72.23 24.72L72.23 24.70C72.23 23.57 72.93 22.66 74.02 22.66C75.10 22.66 75.80 23.56 75.80 24.70L75.80 24.72Z" fill="#ffffff"></path></svg>