<svg xmlns="http://www.w3.org/2000/svg" version="1.1" xmlns:xlink="http://www.w3.org/1999/xlink" xmlns:svgjs="http://svgjs.com/svgjs" width="40" height="40"><svg id="SvgjsSvg1002" style="overflow: hidden; top: -100%; left: -100%; position: absolute; opacity: 0;" width="2" height="0" focusable="false"><polyline id="SvgjsPolyline1003" points="0,0"></polyline><path id="SvgjsPath1004" d="M0 0 "></path></svg><defs id="SvgjsDefs2541"></defs><rect id="SvgjsRect2542" width="39" height="39" x="0.5" y="0.5" rx="8" ry="8" fill="#2d333b" stroke-opacity="1" stroke="#444c56" stroke-width="1"></rect><path id="SvgjsPath2543" d="M27.54 30.10C29.75 30.10 30.89 29.04 30.89 26.84L30.89 14.46C30.89 12.26 29.75 11.15 27.54 11.15L18.67 11.15C17.38 11.15 16.32 11.51 15.43 12.47L9.63 18.58C8.91 19.34 8.59 19.97 8.59 20.62C8.59 21.26 8.91 21.89 9.63 22.65L15.44 28.78C16.33 29.73 17.40 30.09 18.68 30.09ZM27.47 28.09L18.61 28.09C17.90 28.09 17.46 27.94 16.96 27.42L11.19 21.35C10.89 21.04 10.79 20.82 10.79 20.62C10.79 20.41 10.90 20.21 11.19 19.88L16.94 13.82C17.44 13.30 17.90 13.16 18.61 13.16L27.47 13.16C28.37 13.16 28.88 13.64 28.88 14.60L28.88 26.66C28.88 27.62 28.37 28.09 27.47 28.09ZM24.92 24.87C25.43 24.87 25.86 24.44 25.86 23.94C25.86 23.68 25.76 23.46 25.57 23.28L22.92 20.62L25.57 17.96C25.76 17.77 25.86 17.55 25.86 17.29C25.86 16.77 25.43 16.35 24.92 16.35C24.67 16.35 24.45 16.45 24.26 16.64L21.59 19.30L18.94 16.64C18.75 16.45 18.53 16.35 18.28 16.35C17.76 16.35 17.34 16.77 17.34 17.29C17.34 17.55 17.44 17.77 17.63 17.96L20.28 20.62L17.63 23.28C17.44 23.46 17.34 23.68 17.34 23.94C17.34 24.44 17.75 24.87 18.28 24.87C18.54 24.87 18.75 24.77 18.93 24.61L21.59 21.91L24.27 24.61C24.45 24.79 24.66 24.87 24.92 24.87Z" fill="#ffffff"></path></svg>