<svg xmlns="http://www.w3.org/2000/svg" version="1.1" xmlns:xlink="http://www.w3.org/1999/xlink" xmlns:svgjs="http://svgjs.com/svgjs" width="40" height="40"><svg id="SvgjsSvg1002" style="overflow: hidden; top: -100%; left: -100%; position: absolute; opacity: 0;" width="2" height="0" focusable="false"><polyline id="SvgjsPolyline1003" points="0,0"></polyline><path id="SvgjsPath1004" d="M0 0 "></path></svg><defs id="SvgjsDefs2526"></defs><rect id="SvgjsRect2527" width="39" height="39" x="0.5" y="0.5" rx="8" ry="8" fill="#2d333b" stroke-opacity="1" stroke="#444c56" stroke-width="1"></rect><path id="SvgjsPath2528" d="M16.82 24.91L23.18 24.91C24.68 24.91 25.48 24.09 25.48 22.67L25.48 20.98L29.06 20.98C29.96 20.98 30.70 20.45 30.70 19.59C30.70 19.07 30.47 18.66 30.00 18.25L21.35 10.59C20.92 10.24 20.50 9.96 20.01 9.96C19.50 9.96 19.08 10.24 18.67 10.59L10.00 18.25C9.53 18.66 9.30 19.07 9.30 19.59C9.30 20.45 10.04 20.98 10.96 20.98L14.54 20.98L14.54 22.67C14.54 24.09 15.32 24.91 16.82 24.91ZM17.11 23.10C16.79 23.10 16.56 22.87 16.56 22.54L16.56 19.19L12.16 19.19C12.12 19.19 12.08 19.15 12.08 19.13C12.08 19.08 12.10 19.06 12.13 19.03L19.88 12.17C19.91 12.13 19.95 12.11 20.01 12.11C20.05 12.11 20.09 12.13 20.13 12.17L27.87 19.03C27.91 19.06 27.92 19.08 27.92 19.13C27.92 19.15 27.90 19.19 27.84 19.19L23.44 19.19L23.44 22.54C23.44 22.86 23.21 23.10 22.91 23.10ZM16.82 31.73L23.18 31.73C24.68 31.73 25.54 30.98 25.54 29.49L25.54 28.39C25.54 26.92 24.68 26.15 23.18 26.15L16.82 26.15C15.32 26.15 14.47 26.93 14.47 28.39L14.47 29.49C14.47 30.96 15.32 31.73 16.82 31.73ZM16.97 29.99C16.56 29.99 16.36 29.76 16.36 29.37L16.36 28.52C16.36 28.12 16.56 27.89 16.97 27.89L23.03 27.89C23.44 27.89 23.64 28.12 23.64 28.52L23.64 29.37C23.64 29.76 23.44 29.99 23.03 29.99Z" fill="#ffffff"></path></svg>