<svg xmlns="http://www.w3.org/2000/svg" version="1.1" xmlns:xlink="http://www.w3.org/1999/xlink" xmlns:svgjs="http://svgjs.com/svgjs" width="44" height="40"><svg id="SvgjsSvg1002" style="overflow: hidden; top: -100%; left: -100%; position: absolute; opacity: 0;" width="2" height="0" focusable="false"><polyline id="SvgjsPolyline1003" points="0,0"></polyline><path id="SvgjsPath1004" d="M0 0 "></path></svg><defs id="SvgjsDefs2475"></defs><rect id="SvgjsRect2476" width="43" height="39" x="0.5" y="0.5" rx="8" ry="8" fill="#2d333b" stroke-opacity="1" stroke="#444c56" stroke-width="1"></rect><path id="SvgjsPath2477" d="M9.29 25.71C9.29 27.62 10.36 29.09 12.27 29.09C13.91 29.09 14.82 28.23 15.05 27.00L13.90 27.00C13.77 27.58 13.24 28.05 12.35 28.05C11.20 28.05 10.46 27.12 10.46 25.72L10.46 25.05C10.46 23.60 11.15 22.71 12.34 22.71C13.12 22.71 13.69 23.27 13.84 23.88L15 23.88C14.94 22.78 13.93 21.68 12.27 21.68C10.39 21.68 9.29 23.06 9.29 25.00ZM16.70 28.98L17.87 28.98L17.87 24.42C17.87 23.34 18.56 22.74 19.44 22.74C20.42 22.74 21.01 23.34 21.01 24.44L21.01 28.98L22.18 28.98L22.18 24.44C22.18 23.44 22.75 22.74 23.76 22.74C24.79 22.74 25.32 23.41 25.32 24.33L25.32 28.98L26.48 28.98L26.48 24.09C26.48 22.61 25.59 21.68 24.07 21.68C22.90 21.68 22.14 22.22 21.87 22.83L21.82 22.83C21.54 22.13 20.87 21.68 19.74 21.68C18.79 21.68 18.16 22.18 17.93 22.67L17.86 22.67L17.86 21.79L16.70 21.79ZM31.13 21.68C29.32 21.68 28.26 23.10 28.26 25.06L28.26 25.71C28.26 27.71 29.26 29.09 31.13 29.09C32.10 29.09 32.85 28.63 33.25 27.90L33.28 27.90L33.28 28.98L34.41 28.98L34.41 19.15L33.23 19.15L33.23 22.79L33.20 22.79C32.83 22.15 32.08 21.68 31.13 21.68ZM31.30 22.71C32.51 22.71 33.25 23.65 33.25 25.10L33.25 25.67C33.25 27.20 32.52 28.06 31.32 28.06C30.23 28.06 29.44 27.27 29.44 25.67L29.44 25.10C29.44 23.50 30.23 22.71 31.30 22.71Z" fill="#ffffff"></path></svg>