<svg xmlns="http://www.w3.org/2000/svg" version="1.1" xmlns:xlink="http://www.w3.org/1999/xlink" xmlns:svgjs="http://svgjs.com/svgjs" width="68" height="40"><svg id="SvgjsSvg1002" style="overflow: hidden; top: -100%; left: -100%; position: absolute; opacity: 0;" width="2" height="0" focusable="false"><polyline id="SvgjsPolyline1003" points="0,0"></polyline><path id="SvgjsPath1004" d="M0 0 "></path></svg><defs id="SvgjsDefs2505"></defs><rect id="SvgjsRect2506" width="67" height="39" x="0.5" y="0.5" rx="8" ry="8" fill="#2d333b" stroke-opacity="1" stroke="#444c56" stroke-width="1"></rect><path id="SvgjsPath2507" d="M13.17 25.71C13.17 27.62 14.24 29.09 16.15 29.09C17.80 29.09 18.70 28.23 18.94 27.00L17.79 27.00C17.66 27.58 17.13 28.05 16.23 28.05C15.08 28.05 14.35 27.12 14.35 25.72L14.35 25.05C14.35 23.60 15.04 22.71 16.23 22.71C17.01 22.71 17.57 23.27 17.73 23.88L18.89 23.88C18.82 22.78 17.81 21.68 16.15 21.68C14.28 21.68 13.17 23.06 13.17 25.00ZM23.38 21.68C21.37 21.68 20.29 23.13 20.29 25.05L20.29 25.70C20.29 27.64 21.37 29.09 23.38 29.09C25.40 29.09 26.46 27.64 26.46 25.70L26.46 25.05C26.46 23.13 25.39 21.68 23.38 21.68ZM23.38 22.68C24.61 22.68 25.28 23.62 25.28 25.09L25.28 25.65C25.28 27.12 24.61 28.07 23.38 28.07C22.15 28.07 21.47 27.12 21.47 25.65L21.47 25.09C21.47 23.62 22.15 22.68 23.38 22.68ZM28.27 28.98L29.45 28.98L29.45 24.60C29.45 23.62 29.98 22.74 31.22 22.74C32.26 22.74 32.97 23.36 32.97 24.57L32.97 28.98L34.15 28.98L34.15 24.37C34.15 22.62 33.05 21.68 31.57 21.68C30.40 21.68 29.74 22.28 29.47 22.74L29.44 22.74L29.44 21.79L28.27 21.79ZM36.58 21.79L35.61 21.79L35.61 22.78L36.58 22.78L36.58 26.97C36.58 28.38 36.93 29.04 38.63 29.04C38.87 29.04 39.12 29.01 39.22 28.99L39.22 28.05C39.13 28.06 39.04 28.06 38.92 28.06C38.04 28.06 37.75 27.84 37.75 26.98L37.75 22.78L39.17 22.78L39.17 21.79L37.75 21.79L37.75 20.00L36.58 20.00ZM40.85 28.98L42.03 28.98L42.03 24.53C42.03 23.56 42.43 22.76 43.70 22.76C43.92 22.76 44.15 22.77 44.27 22.79L44.27 21.72C44.13 21.70 43.98 21.68 43.83 21.68C42.81 21.68 42.27 22.24 42.06 22.67L42.03 22.67L42.03 21.79L40.85 21.79ZM48.39 21.68C46.38 21.68 45.30 23.13 45.30 25.05L45.30 25.70C45.30 27.64 46.37 29.09 48.39 29.09C50.41 29.09 51.47 27.64 51.47 25.70L51.47 25.05C51.47 23.13 50.40 21.68 48.39 21.68ZM48.39 22.68C49.62 22.68 50.29 23.62 50.29 25.09L50.29 25.65C50.29 27.12 49.62 28.07 48.39 28.07C47.15 28.07 46.48 27.12 46.48 25.65L46.48 25.09C46.48 23.62 47.15 22.68 48.39 22.68ZM53.33 28.98L54.49 28.98L54.49 19.15L53.33 19.15Z" fill="#ffffff"></path></svg>