<svg xmlns="http://www.w3.org/2000/svg" version="1.1" xmlns:xlink="http://www.w3.org/1999/xlink" xmlns:svgjs="http://svgjs.com/svgjs" width="40" height="40"><svg id="SvgjsSvg1002" style="overflow: hidden; top: -100%; left: -100%; position: absolute; opacity: 0;" width="2" height="0" focusable="false"><polyline id="SvgjsPolyline1003" points="0,0"></polyline><path id="SvgjsPath1004" d="M0 0 "></path></svg><defs id="SvgjsDefs2532"></defs><rect id="SvgjsRect2533" width="39" height="39" x="0.5" y="0.5" rx="8" ry="8" fill="#2d333b" stroke-opacity="1" stroke="#444c56" stroke-width="1"></rect><path id="SvgjsPath2534" d="M11.26 19.34C11.04 19.56 10.92 19.84 10.92 20.16C10.92 20.82 11.42 21.34 12.09 21.34C12.42 21.34 12.71 21.20 12.92 20.98L20.01 13.86L27.08 20.98C27.29 21.20 27.59 21.34 27.91 21.34C28.58 21.34 29.08 20.82 29.08 20.16C29.08 19.84 28.96 19.56 28.74 19.34L20.87 11.40C20.64 11.15 20.32 11.03 19.99 11.03C19.68 11.03 19.38 11.15 19.13 11.40Z" fill="#ffffff"></path></svg>