<svg xmlns="http://www.w3.org/2000/svg" version="1.1" xmlns:xlink="http://www.w3.org/1999/xlink" xmlns:svgjs="http://svgjs.com/svgjs" width="40" height="40"><svg id="SvgjsSvg1002" style="overflow: hidden; top: -100%; left: -100%; position: absolute; opacity: 0;" width="2" height="0" focusable="false"><polyline id="SvgjsPolyline1003" points="0,0"></polyline><path id="SvgjsPath1004" d="M0 0 "></path></svg><defs id="SvgjsDefs2550"></defs><rect id="SvgjsRect2551" width="39" height="39" x="0.5" y="0.5" rx="8" ry="8" fill="#2d333b" stroke-opacity="1" stroke="#444c56" stroke-width="1"></rect><path id="SvgjsPath2552" d="M12.10 22.54L27.93 22.54C28.97 22.54 29.53 22.00 29.56 21.08C29.56 20.64 29.34 20.19 28.98 19.82L21.64 12.00C21.15 11.50 20.64 11.17 20.01 11.17C19.36 11.17 18.88 11.48 18.37 12.00L11.04 19.82C10.69 20.19 10.47 20.64 10.47 21.08C10.47 22.00 11.04 22.54 12.10 22.54ZM13.49 20.68C13.34 20.68 13.26 20.60 13.26 20.48C13.26 20.41 13.29 20.37 13.31 20.33L19.71 13.63C19.81 13.53 19.88 13.45 20.01 13.45C20.14 13.45 20.21 13.53 20.30 13.63L26.69 20.33C26.73 20.37 26.75 20.41 26.75 20.48C26.75 20.60 26.67 20.68 26.52 20.68ZM12.59 30.17L27.40 30.17C28.91 30.17 29.76 29.41 29.76 27.93L29.76 26.62C29.76 25.14 28.91 24.36 27.40 24.36L12.59 24.36C11.09 24.36 10.24 25.13 10.24 26.62L10.24 27.93C10.24 29.42 11.09 30.17 12.59 30.17ZM12.88 28.35C12.47 28.35 12.26 28.12 12.26 27.72L12.26 26.81C12.26 26.41 12.47 26.18 12.88 26.18L27.12 26.18C27.53 26.18 27.74 26.41 27.74 26.81L27.74 27.72C27.74 28.12 27.53 28.35 27.12 28.35Z" fill="#ffffff"></path></svg>