<svg xmlns="http://www.w3.org/2000/svg" version="1.1" xmlns:xlink="http://www.w3.org/1999/xlink" xmlns:svgjs="http://svgjs.com/svgjs" width="60" height="40"><svg id="SvgjsSvg1002" style="overflow: hidden; top: -100%; left: -100%; position: absolute; opacity: 0;" width="2" height="0" focusable="false"><polyline id="SvgjsPolyline1003" points="0,0"></polyline><path id="SvgjsPath1004" d="M0 0 "></path></svg><defs id="SvgjsDefs2511"></defs><rect id="SvgjsRect2512" width="59" height="39" x="0.5" y="0.5" rx="8" ry="8" fill="#2d333b" stroke-opacity="1" stroke="#444c56" stroke-width="1"></rect><path id="SvgjsPath2513" d="M17.71 29.09C19.29 29.09 20.24 28.21 20.52 27.02L19.35 27.02C19.11 27.69 18.57 28.11 17.73 28.11C16.56 28.11 15.87 27.17 15.87 25.80L15.87 25.67L20.61 25.67L20.61 25.00C20.61 23.03 19.53 21.68 17.65 21.68C15.76 21.68 14.69 23.03 14.69 24.92L14.69 25.73C14.69 27.77 15.83 29.09 17.71 29.09ZM15.87 24.72L15.87 24.70C15.87 23.57 16.56 22.66 17.66 22.66C18.73 22.66 19.44 23.56 19.44 24.70L19.44 24.72ZM22.39 28.98L23.56 28.98L23.56 24.60C23.56 23.62 24.10 22.74 25.33 22.74C26.38 22.74 27.09 23.36 27.09 24.57L27.09 28.98L28.27 28.98L28.27 24.37C28.27 22.62 27.17 21.68 25.69 21.68C24.52 21.68 23.86 22.28 23.59 22.74L23.56 22.74L23.56 21.79L22.39 21.79ZM30.70 21.79L29.73 21.79L29.73 22.78L30.69 22.78L30.69 26.97C30.69 28.38 31.04 29.04 32.74 29.04C32.99 29.04 33.24 29.01 33.34 28.99L33.34 28.05C33.24 28.06 33.15 28.06 33.04 28.06C32.16 28.06 31.87 27.84 31.87 26.98L31.87 22.78L33.29 22.78L33.29 21.79L31.87 21.79L31.87 20.00L30.70 20.00ZM37.69 29.09C39.28 29.09 40.23 28.21 40.50 27.02L39.33 27.02C39.10 27.69 38.56 28.11 37.72 28.11C36.55 28.11 35.85 27.17 35.85 25.80L35.85 25.67L40.60 25.67L40.60 25.00C40.60 23.03 39.52 21.68 37.64 21.68C35.75 21.68 34.68 23.03 34.68 24.92L34.68 25.73C34.68 27.77 35.82 29.09 37.69 29.09ZM35.85 24.72L35.85 24.70C35.85 23.57 36.55 22.66 37.65 22.66C38.72 22.66 39.42 23.56 39.42 24.70L39.42 24.72ZM42.38 28.98L43.56 28.98L43.56 24.53C43.56 23.56 43.96 22.76 45.23 22.76C45.45 22.76 45.68 22.77 45.80 22.79L45.80 21.72C45.66 21.70 45.51 21.68 45.36 21.68C44.34 21.68 43.80 22.24 43.59 22.67L43.55 22.67L43.55 21.79L42.38 21.79Z" fill="#ffffff"></path></svg>