<svg xmlns="http://www.w3.org/2000/svg" version="1.1" xmlns:xlink="http://www.w3.org/1999/xlink" xmlns:svgjs="http://svgjs.com/svgjs" width="40" height="40"><svg id="SvgjsSvg1002" style="overflow: hidden; top: -100%; left: -100%; position: absolute; opacity: 0;" width="2" height="0" focusable="false"><polyline id="SvgjsPolyline1003" points="0,0"></polyline><path id="SvgjsPath1004" d="M0 0 "></path></svg><defs id="SvgjsDefs2547"></defs><rect id="SvgjsRect2548" width="39" height="39" x="0.5" y="0.5" rx="8" ry="8" fill="#2d333b" stroke-opacity="1" stroke="#444c56" stroke-width="1"></rect><path id="SvgjsPath2549" d="M12.47 30.10L21.32 30.09C22.62 30.09 23.67 29.73 24.56 28.78L30.38 22.65C31.09 21.89 31.41 21.26 31.41 20.62C31.41 19.97 31.09 19.34 30.38 18.58L24.57 12.47C23.68 11.51 22.62 11.15 21.33 11.15L12.47 11.15C10.25 11.15 9.11 12.26 9.11 14.46L9.11 26.84C9.11 29.04 10.25 30.10 12.47 30.10ZM12.54 28.09C11.63 28.09 11.12 27.62 11.12 26.66L11.12 14.60C11.12 13.64 11.63 13.16 12.54 13.16L21.40 13.16C22.10 13.16 22.56 13.30 23.06 13.82L28.81 19.88C29.11 20.21 29.21 20.41 29.21 20.62C29.21 20.82 29.13 21.04 28.81 21.35L23.04 27.42C22.55 27.94 22.10 28.09 21.39 28.09ZM15.08 24.87C15.34 24.87 15.56 24.79 15.73 24.61L18.41 21.91L21.09 24.61C21.25 24.77 21.47 24.87 21.73 24.87C22.25 24.87 22.67 24.44 22.67 23.94C22.67 23.68 22.56 23.46 22.39 23.28L19.73 20.62L22.39 17.96C22.56 17.77 22.67 17.55 22.67 17.29C22.67 16.77 22.24 16.35 21.73 16.35C21.47 16.35 21.25 16.45 21.07 16.64L18.41 19.30L15.74 16.64C15.56 16.45 15.34 16.35 15.08 16.35C14.58 16.35 14.14 16.77 14.14 17.29C14.14 17.55 14.25 17.77 14.43 17.96L17.08 20.62L14.43 23.28C14.25 23.46 14.14 23.68 14.14 23.94C14.14 24.44 14.57 24.87 15.08 24.87Z" fill="#ffffff"></path></svg>