<svg xmlns="http://www.w3.org/2000/svg" version="1.1" xmlns:xlink="http://www.w3.org/1999/xlink" xmlns:svgjs="http://svgjs.com/svgjs" width="64" height="40"><svg id="SvgjsSvg1002" style="overflow: hidden; top: -100%; left: -100%; position: absolute; opacity: 0;" width="2" height="0" focusable="false"><polyline id="SvgjsPolyline1003" points="0,0"></polyline><path id="SvgjsPath1004" d="M0 0 "></path></svg><defs id="SvgjsDefs2499"></defs><rect id="SvgjsRect2500" width="63" height="39" x="0.5" y="0.5" rx="8" ry="8" fill="#2d333b" stroke-opacity="1" stroke="#444c56" stroke-width="1"></rect><path id="SvgjsPath2501" d="M13.85 29.09C15.43 29.09 16.38 28.21 16.66 27.02L15.49 27.02C15.26 27.69 14.71 28.11 13.87 28.11C12.71 28.11 12.01 27.17 12.01 25.80L12.01 25.67L16.75 25.67L16.75 25.00C16.75 23.03 15.67 21.68 13.79 21.68C11.91 21.68 10.83 23.03 10.83 24.92L10.83 25.73C10.83 27.77 11.97 29.09 13.85 29.09ZM12.01 24.72L12.01 24.70C12.01 23.57 12.71 22.66 13.80 22.66C14.87 22.66 15.58 23.56 15.58 24.70L15.58 24.72ZM18.24 23.85C18.24 25.15 19.34 25.56 20.68 25.83C21.68 26.03 22.48 26.19 22.48 27.00C22.48 27.61 21.98 28.13 20.88 28.13C19.92 28.13 19.36 27.70 19.26 27.04L18.11 27.04C18.11 28.33 19.21 29.09 20.79 29.09C22.48 29.09 23.64 28.29 23.64 26.86C23.64 25.46 22.50 25.09 21.15 24.85C20.33 24.70 19.38 24.53 19.38 23.73C19.38 23.02 20.00 22.64 20.85 22.64C21.98 22.64 22.32 23.28 22.36 23.83L23.45 23.83C23.45 22.64 22.58 21.68 20.90 21.68C19.51 21.68 18.24 22.33 18.24 23.85ZM25.02 25.71C25.02 27.62 26.10 29.09 28.00 29.09C29.65 29.09 30.55 28.23 30.79 27.00L29.64 27.00C29.51 27.58 28.98 28.05 28.09 28.05C26.94 28.05 26.20 27.12 26.20 25.72L26.20 25.05C26.20 23.60 26.89 22.71 28.08 22.71C28.86 22.71 29.43 23.27 29.58 23.88L30.74 23.88C30.68 22.78 29.67 21.68 28.00 21.68C26.13 21.68 25.02 23.06 25.02 25.00ZM36.45 28.08L36.48 28.08L36.48 28.98L37.61 28.98L37.61 24.02C37.61 22.51 36.49 21.68 34.96 21.68C33.23 21.68 32.37 22.59 32.30 23.85L33.40 23.85C33.47 23.13 34.00 22.66 34.92 22.66C35.89 22.66 36.44 23.18 36.44 24.12L36.44 24.85L34.55 24.85C32.90 24.86 32.02 25.65 32.02 26.91C32.02 28.23 32.98 29.09 34.37 29.09C35.43 29.09 36.08 28.66 36.45 28.08ZM34.68 28.12C33.93 28.12 33.23 27.72 33.23 26.87C33.23 26.22 33.65 25.76 34.64 25.76L36.44 25.76L36.44 26.59C36.44 27.49 35.69 28.12 34.68 28.12ZM42.89 29.09C44.58 29.09 45.76 27.81 45.76 25.72L45.76 25.05C45.76 22.93 44.56 21.68 42.94 21.68C41.98 21.68 41.24 22.15 40.82 22.82L40.79 22.82L40.79 21.79L39.66 21.79L39.66 31.36L40.84 31.36L40.84 28.02L40.87 28.02C41.27 28.66 41.98 29.09 42.89 29.09ZM42.78 28.07C41.55 28.07 40.81 27.10 40.81 25.63L40.81 25.09C40.81 23.66 41.55 22.69 42.74 22.69C43.90 22.69 44.57 23.58 44.57 25.09L44.57 25.63C44.57 27.21 43.85 28.07 42.78 28.07ZM50.29 29.09C51.88 29.09 52.83 28.21 53.10 27.02L51.93 27.02C51.70 27.69 51.15 28.11 50.32 28.11C49.15 28.11 48.45 27.17 48.45 25.80L48.45 25.67L53.19 25.67L53.19 25.00C53.19 23.03 52.11 21.68 50.23 21.68C48.35 21.68 47.27 23.03 47.27 24.92L47.27 25.73C47.27 27.77 48.42 29.09 50.29 29.09ZM48.45 24.72L48.45 24.70C48.45 23.57 49.15 22.66 50.24 22.66C51.31 22.66 52.02 23.56 52.02 24.70L52.02 24.72Z" fill="#ffffff"></path></svg>