<svg xmlns="http://www.w3.org/2000/svg" version="1.1" xmlns:xlink="http://www.w3.org/1999/xlink" xmlns:svgjs="http://svgjs.com/svgjs" width="40" height="40"><svg id="SvgjsSvg1002" style="overflow: hidden; top: -100%; left: -100%; position: absolute; opacity: 0;" width="2" height="0" focusable="false"><polyline id="SvgjsPolyline1003" points="0,0"></polyline><path id="SvgjsPath1004" d="M0 0 "></path></svg><defs id="SvgjsDefs2538"></defs><rect id="SvgjsRect2539" width="39" height="39" x="0.5" y="0.5" rx="8" ry="8" fill="#2d333b" stroke-opacity="1" stroke="#444c56" stroke-width="1"></rect><path id="SvgjsPath2540" d="M20 30.86C25.63 30.86 30.21 26.26 30.21 20.63C30.21 15.27 25.97 10.88 20.86 10.43C20.14 10.36 19.60 10.80 19.60 11.44C19.60 12.00 20 12.45 20.70 12.51C24.94 12.88 28.12 16.45 28.12 20.63C28.12 25.20 24.55 28.75 20 28.75C15.80 28.75 12.25 25.56 11.88 21.33C11.81 20.63 11.37 20.23 10.81 20.23C10.17 20.23 9.72 20.78 9.79 21.50C10.24 26.60 14.64 30.86 20 30.86ZM19.17 21.12C19.79 21.13 20.25 20.67 20.25 20.05C20.25 19.77 20.12 19.48 19.89 19.26L14.94 14.30L12.93 12.55C13.96 12.71 15.24 12.70 15.58 12.70C16.12 12.70 16.55 12.26 16.55 11.71C16.55 11.17 16.13 10.73 15.58 10.73L11.11 10.73C10.31 10.73 9.87 11.17 9.87 11.97L9.87 16.43C9.87 16.96 10.31 17.42 10.85 17.42C11.37 17.42 11.82 16.96 11.82 16.43C11.82 16.12 11.82 14.72 11.70 13.78L13.44 15.80L18.39 20.78C18.62 21.01 18.89 21.12 19.17 21.12Z" fill="#ffffff"></path></svg>