<svg xmlns="http://www.w3.org/2000/svg" version="1.1" xmlns:xlink="http://www.w3.org/1999/xlink" xmlns:svgjs="http://svgjs.com/svgjs" width="52" height="40"><svg id="SvgjsSvg1002" style="overflow: hidden; top: -100%; left: -100%; position: absolute; opacity: 0;" width="2" height="0" focusable="false"><polyline id="SvgjsPolyline1003" points="0,0"></polyline><path id="SvgjsPath1004" d="M0 0 "></path></svg><defs id="SvgjsDefs2445"></defs><rect id="SvgjsRect2446" width="51" height="39" x="0.5" y="0.5" rx="8" ry="8" fill="#2d333b" stroke-opacity="1" stroke="#444c56" stroke-width="1"></rect><path id="SvgjsPath2447" d="M16.52 25.97L16.52 21.14L21.27 21.14L21.27 19.86L16.52 19.86L16.52 16.05L21.69 16.05L21.69 14.77L15.08 14.77L15.08 25.97ZM27.17 25.97L27.17 14.77L25.84 14.77C25.03 15.21 23.88 15.89 23.09 16.46L23.09 17.92C23.83 17.42 25.17 16.59 25.73 16.29L25.75 16.29L25.75 25.97ZM29.58 20.82C29.58 24.11 30.98 26.21 33.53 26.21C36.10 26.21 37.47 24.09 37.47 20.82L37.47 19.95C37.47 16.64 36.09 14.54 33.54 14.54C30.99 14.54 29.58 16.65 29.58 19.95ZM31.00 19.96C31.00 17.31 31.96 15.79 33.53 15.79C35.09 15.79 36.05 17.31 36.05 19.96L36.05 20.80C36.05 23.45 35.09 24.95 33.53 24.95C31.96 24.95 31.00 23.45 31.00 20.80Z" fill="#ffffff"></path></svg>