<svg xmlns="http://www.w3.org/2000/svg" version="1.1" xmlns:xlink="http://www.w3.org/1999/xlink" xmlns:svgjs="http://svgjs.com/svgjs" width="52" height="40"><svg id="SvgjsSvg1002" style="overflow: hidden; top: -100%; left: -100%; position: absolute; opacity: 0;" width="2" height="0" focusable="false"><polyline id="SvgjsPolyline1003" points="0,0"></polyline><path id="SvgjsPath1004" d="M0 0 "></path></svg><defs id="SvgjsDefs2448"></defs><rect id="SvgjsRect2449" width="51" height="39" x="0.5" y="0.5" rx="8" ry="8" fill="#2d333b" stroke-opacity="1" stroke="#444c56" stroke-width="1"></rect><path id="SvgjsPath2450" d="M17.95 25.97L17.95 21.14L22.70 21.14L22.70 19.86L17.95 19.86L17.95 16.05L23.12 16.05L23.12 14.77L16.51 14.77L16.51 25.97ZM28.60 25.97L28.60 14.77L27.28 14.77C26.46 15.21 25.32 15.89 24.52 16.46L24.52 17.92C25.26 17.42 26.60 16.59 27.16 16.29L27.19 16.29L27.19 25.97ZM35.22 25.97L35.22 14.77L33.89 14.77C33.08 15.21 31.93 15.89 31.13 16.46L31.13 17.92C31.87 17.42 33.21 16.59 33.77 16.29L33.80 16.29L33.80 25.97Z" fill="#ffffff"></path></svg>