<svg xmlns="http://www.w3.org/2000/svg" version="1.1" xmlns:xlink="http://www.w3.org/1999/xlink" xmlns:svgjs="http://svgjs.com/svgjs" width="52" height="40"><svg id="SvgjsSvg1002" style="overflow: hidden; top: -100%; left: -100%; position: absolute; opacity: 0;" width="2" height="0" focusable="false"><polyline id="SvgjsPolyline1003" points="0,0"></polyline><path id="SvgjsPath1004" d="M0 0 "></path></svg><defs id="SvgjsDefs2454"></defs><rect id="SvgjsRect2455" width="51" height="39" x="0.5" y="0.5" rx="8" ry="8" fill="#2d333b" stroke-opacity="1" stroke="#444c56" stroke-width="1"></rect><path id="SvgjsPath2456" d="M16.63 25.97L16.63 21.14L21.38 21.14L21.38 19.86L16.63 19.86L16.63 16.05L21.80 16.05L21.80 14.77L15.19 14.77L15.19 25.97ZM27.28 25.97L27.28 14.77L25.95 14.77C25.14 15.21 23.99 15.89 23.20 16.46L23.20 17.92C23.94 17.42 25.28 16.59 25.84 16.29L25.86 16.29L25.86 25.97ZM32.24 20.82L33.38 20.82C34.94 20.82 35.86 21.63 35.87 22.85C35.89 24.09 34.99 24.98 33.39 24.98C31.89 24.98 31.17 24.13 31.02 23.08L29.68 23.08C29.74 24.79 30.93 26.22 33.34 26.22C35.67 26.22 37.37 24.78 37.32 22.86C37.28 21.04 35.83 20.23 34.88 20.15L34.88 20.12C35.75 19.98 36.96 18.98 36.91 17.39C36.87 15.78 35.49 14.54 33.39 14.54C31.12 14.54 29.99 16.10 29.96 17.57L31.33 17.57C31.40 16.74 31.98 15.77 33.39 15.77C34.65 15.77 35.45 16.53 35.46 17.63C35.47 18.77 34.58 19.57 33.31 19.57L32.24 19.57Z" fill="#ffffff"></path></svg>