<svg xmlns="http://www.w3.org/2000/svg" version="1.1" xmlns:xlink="http://www.w3.org/1999/xlink" xmlns:svgjs="http://svgjs.com/svgjs" width="52" height="40"><svg id="SvgjsSvg1002" style="overflow: hidden; top: -100%; left: -100%; position: absolute; opacity: 0;" width="2" height="0" focusable="false"><polyline id="SvgjsPolyline1003" points="0,0"></polyline><path id="SvgjsPath1004" d="M0 0 "></path></svg><defs id="SvgjsDefs2460"></defs><rect id="SvgjsRect2461" width="51" height="39" x="0.5" y="0.5" rx="8" ry="8" fill="#2d333b" stroke-opacity="1" stroke="#444c56" stroke-width="1"></rect><path id="SvgjsPath2462" d="M16.39 25.97L16.39 21.14L21.14 21.14L21.14 19.86L16.39 19.86L16.39 16.05L21.56 16.05L21.56 14.77L14.95 14.77L14.95 25.97ZM27.04 25.97L27.04 14.77L25.71 14.77C24.90 15.21 23.75 15.89 22.96 16.46L22.96 17.92C23.69 17.42 25.04 16.59 25.60 16.29L25.62 16.29L25.62 25.97ZM29.78 23.16C29.90 24.78 31.16 26.21 33.47 26.21C35.75 26.21 37.50 24.63 37.50 22.32C37.50 20.07 35.81 18.56 33.80 18.56C32.60 18.56 31.67 19.14 31.39 19.52L31.36 19.52L31.73 16.01L36.66 16.01L36.66 14.76L30.53 14.76L29.91 21.27L31.13 21.27C31.46 20.54 32.20 19.78 33.59 19.78C34.94 19.78 36.06 20.76 36.06 22.36C36.06 24.07 34.71 24.97 33.56 24.97C32.28 24.97 31.34 24.34 31.16 23.16Z" fill="#ffffff"></path></svg>