<svg xmlns="http://www.w3.org/2000/svg" version="1.1" xmlns:xlink="http://www.w3.org/1999/xlink" xmlns:svgjs="http://svgjs.com/svgjs" width="52" height="40"><svg id="SvgjsSvg1002" style="overflow: hidden; top: -100%; left: -100%; position: absolute; opacity: 0;" width="2" height="0" focusable="false"><polyline id="SvgjsPolyline1003" points="0,0"></polyline><path id="SvgjsPath1004" d="M0 0 "></path></svg><defs id="SvgjsDefs2463"></defs><rect id="SvgjsRect2464" width="51" height="39" x="0.5" y="0.5" rx="8" ry="8" fill="#2d333b" stroke-opacity="1" stroke="#444c56" stroke-width="1"></rect><path id="SvgjsPath2465" d="M16.60 25.97L16.60 21.14L21.35 21.14L21.35 19.86L16.60 19.86L16.60 16.05L21.78 16.05L21.78 14.77L15.17 14.77L15.17 25.97ZM27.26 25.97L27.26 14.77L25.93 14.77C25.12 15.21 23.97 15.89 23.17 16.46L23.17 17.92C23.91 17.42 25.26 16.59 25.82 16.29L25.84 16.29L25.84 25.97ZM37.21 17.37C37.09 16.02 35.89 14.56 33.82 14.56C31.39 14.56 29.62 16.59 29.62 20.80C29.62 22.64 30.03 23.99 30.74 24.88C31.45 25.77 32.46 26.20 33.66 26.20C35.80 26.20 37.51 24.78 37.51 22.36C37.51 19.99 35.68 18.69 33.85 18.69C32.41 18.69 31.37 19.52 31.04 20.34L31.02 20.34C31.11 17.13 32.33 15.79 33.76 15.79C35.07 15.79 35.72 16.74 35.77 17.37ZM31.22 22.45C31.22 20.80 32.37 19.92 33.67 19.92C34.88 19.92 36.10 20.73 36.10 22.44C36.10 24.18 34.91 24.96 33.68 24.96C32.40 24.96 31.22 24.11 31.22 22.45Z" fill="#ffffff"></path></svg>