<svg xmlns="http://www.w3.org/2000/svg" version="1.1" xmlns:xlink="http://www.w3.org/1999/xlink" xmlns:svgjs="http://svgjs.com/svgjs" width="52" height="40"><svg id="SvgjsSvg1002" style="overflow: hidden; top: -100%; left: -100%; position: absolute; opacity: 0;" width="2" height="0" focusable="false"><polyline id="SvgjsPolyline1003" points="0,0"></polyline><path id="SvgjsPath1004" d="M0 0 "></path></svg><defs id="SvgjsDefs2466"></defs><rect id="SvgjsRect2467" width="51" height="39" x="0.5" y="0.5" rx="8" ry="8" fill="#2d333b" stroke-opacity="1" stroke="#444c56" stroke-width="1"></rect><path id="SvgjsPath2468" d="M16.83 25.97L16.83 21.14L21.58 21.14L21.58 19.86L16.83 19.86L16.83 16.05L22.01 16.05L22.01 14.77L15.40 14.77L15.40 25.97ZM27.49 25.97L27.49 14.77L26.16 14.77C25.35 15.21 24.20 15.89 23.40 16.46L23.40 17.92C24.14 17.42 25.49 16.59 26.05 16.29L26.07 16.29L26.07 25.97ZM29.89 14.77L29.89 16.03L35.63 16.03L35.63 16.05L30.91 25.97L32.41 25.97L37.00 16.09L37.00 14.77Z" fill="#ffffff"></path></svg>