<svg xmlns="http://www.w3.org/2000/svg" version="1.1" xmlns:xlink="http://www.w3.org/1999/xlink" xmlns:svgjs="http://svgjs.com/svgjs" width="52" height="40"><svg id="SvgjsSvg1002" style="overflow: hidden; top: -100%; left: -100%; position: absolute; opacity: 0;" width="2" height="0" focusable="false"><polyline id="SvgjsPolyline1003" points="0,0"></polyline><path id="SvgjsPath1004" d="M0 0 "></path></svg><defs id="SvgjsDefs2469"></defs><rect id="SvgjsRect2470" width="51" height="39" x="0.5" y="0.5" rx="8" ry="8" fill="#2d333b" stroke-opacity="1" stroke="#444c56" stroke-width="1"></rect><path id="SvgjsPath2471" d="M16.44 25.97L16.44 21.14L21.18 21.14L21.18 19.86L16.44 19.86L16.44 16.05L21.61 16.05L21.61 14.77L15.00 14.77L15.00 25.97ZM27.09 25.97L27.09 14.77L25.76 14.77C24.95 15.21 23.80 15.89 23.01 16.46L23.01 17.92C23.74 17.42 25.09 16.59 25.65 16.29L25.67 16.29L25.67 25.97ZM33.50 26.21C35.79 26.21 37.48 24.86 37.48 22.91C37.48 21.17 36.16 20.30 35.22 20.07L35.22 20.06C35.95 19.82 37.05 19.03 37.05 17.53C37.05 15.79 35.56 14.54 33.53 14.54C31.50 14.54 30.02 15.79 30.02 17.53C30.02 19.00 31.06 19.80 31.84 20.06L31.84 20.07C30.91 20.30 29.58 21.16 29.58 22.92C29.58 24.87 31.20 26.21 33.50 26.21ZM33.53 19.54C32.31 19.54 31.41 18.75 31.41 17.63C31.41 16.51 32.31 15.75 33.53 15.75C34.77 15.75 35.66 16.51 35.66 17.63C35.66 18.75 34.77 19.54 33.53 19.54ZM33.53 25.01C32.08 25.01 30.98 24.13 30.98 22.87C30.98 21.59 32.08 20.71 33.53 20.71C34.99 20.71 36.08 21.59 36.08 22.87C36.08 24.13 34.99 25.01 33.53 25.01Z" fill="#ffffff"></path></svg>