<svg xmlns="http://www.w3.org/2000/svg" version="1.1" xmlns:xlink="http://www.w3.org/1999/xlink" xmlns:svgjs="http://svgjs.com/svgjs" width="52" height="40"><svg id="SvgjsSvg1002" style="overflow: hidden; top: -100%; left: -100%; position: absolute; opacity: 0;" width="2" height="0" focusable="false"><polyline id="SvgjsPolyline1003" points="0,0"></polyline><path id="SvgjsPath1004" d="M0 0 "></path></svg><defs id="SvgjsDefs2421"></defs><rect id="SvgjsRect2422" width="51" height="39" x="0.5" y="0.5" rx="8" ry="8" fill="#2d333b" stroke-opacity="1" stroke="#444c56" stroke-width="1"></rect><path id="SvgjsPath2423" d="M20.02 25.97L20.02 21.14L24.77 21.14L24.77 19.86L20.02 19.86L20.02 16.05L25.20 16.05L25.20 14.77L18.58 14.77L18.58 25.97ZM28.03 17.87L28.03 17.82C28.03 16.73 28.81 15.78 30.13 15.78C31.30 15.78 32.18 16.51 32.18 17.70C32.18 18.72 31.52 19.50 30.89 20.22L26.71 25.07L26.71 25.97L33.84 25.97L33.84 24.72L28.71 24.72L28.71 24.69L31.73 21.15C32.82 19.88 33.63 18.96 33.63 17.60C33.63 15.84 32.26 14.54 30.17 14.54C27.89 14.54 26.63 16.10 26.63 17.82L26.63 17.87Z" fill="#ffffff"></path></svg>