<svg xmlns="http://www.w3.org/2000/svg" version="1.1" xmlns:xlink="http://www.w3.org/1999/xlink" xmlns:svgjs="http://svgjs.com/svgjs" width="52" height="40"><svg id="SvgjsSvg1002" style="overflow: hidden; top: -100%; left: -100%; position: absolute; opacity: 0;" width="2" height="0" focusable="false"><polyline id="SvgjsPolyline1003" points="0,0"></polyline><path id="SvgjsPath1004" d="M0 0 "></path></svg><defs id="SvgjsDefs2424"></defs><rect id="SvgjsRect2425" width="51" height="39" x="0.5" y="0.5" rx="8" ry="8" fill="#2d333b" stroke-opacity="1" stroke="#444c56" stroke-width="1"></rect><path id="SvgjsPath2426" d="M19.93 25.97L19.93 21.14L24.68 21.14L24.68 19.86L19.93 19.86L19.93 16.05L25.11 16.05L25.11 14.77L18.50 14.77L18.50 25.97ZM28.93 20.82L30.07 20.82C31.63 20.82 32.55 21.63 32.57 22.85C32.58 24.09 31.68 24.98 30.08 24.98C28.58 24.98 27.87 24.13 27.72 23.08L26.37 23.08C26.44 24.79 27.63 26.22 30.03 26.22C32.36 26.22 34.06 24.78 34.02 22.86C33.98 21.04 32.53 20.23 31.57 20.15L31.57 20.12C32.44 19.98 33.65 18.98 33.61 17.39C33.56 15.78 32.18 14.54 30.08 14.54C27.82 14.54 26.68 16.10 26.65 17.57L28.02 17.57C28.10 16.74 28.67 15.77 30.08 15.77C31.34 15.77 32.15 16.53 32.16 17.63C32.16 18.77 31.28 19.57 30.01 19.57L28.93 19.57Z" fill="#ffffff"></path></svg>