<svg xmlns="http://www.w3.org/2000/svg" version="1.1" xmlns:xlink="http://www.w3.org/1999/xlink" xmlns:svgjs="http://svgjs.com/svgjs" width="52" height="40"><svg id="SvgjsSvg1002" style="overflow: hidden; top: -100%; left: -100%; position: absolute; opacity: 0;" width="2" height="0" focusable="false"><polyline id="SvgjsPolyline1003" points="0,0"></polyline><path id="SvgjsPath1004" d="M0 0 "></path></svg><defs id="SvgjsDefs2430"></defs><rect id="SvgjsRect2431" width="51" height="39" x="0.5" y="0.5" rx="8" ry="8" fill="#2d333b" stroke-opacity="1" stroke="#444c56" stroke-width="1"></rect><path id="SvgjsPath2432" d="M19.69 25.97L19.69 21.14L24.44 21.14L24.44 19.86L19.69 19.86L19.69 16.05L24.87 16.05L24.87 14.77L18.26 14.77L18.26 25.97ZM26.48 23.16C26.59 24.78 27.85 26.21 30.17 26.21C32.45 26.21 34.19 24.63 34.19 22.32C34.19 20.07 32.51 18.56 30.50 18.56C29.30 18.56 28.36 19.14 28.08 19.52L28.06 19.52L28.43 16.01L33.36 16.01L33.36 14.76L27.22 14.76L26.61 21.27L27.82 21.27C28.15 20.54 28.90 19.78 30.28 19.78C31.64 19.78 32.75 20.76 32.75 22.36C32.75 24.07 31.41 24.97 30.26 24.97C28.97 24.97 28.03 24.34 27.85 23.16Z" fill="#ffffff"></path></svg>