<svg xmlns="http://www.w3.org/2000/svg" version="1.1" xmlns:xlink="http://www.w3.org/1999/xlink" xmlns:svgjs="http://svgjs.com/svgjs" width="52" height="40"><svg id="SvgjsSvg1002" style="overflow: hidden; top: -100%; left: -100%; position: absolute; opacity: 0;" width="2" height="0" focusable="false"><polyline id="SvgjsPolyline1003" points="0,0"></polyline><path id="SvgjsPath1004" d="M0 0 "></path></svg><defs id="SvgjsDefs2439"></defs><rect id="SvgjsRect2440" width="51" height="39" x="0.5" y="0.5" rx="8" ry="8" fill="#2d333b" stroke-opacity="1" stroke="#444c56" stroke-width="1"></rect><path id="SvgjsPath2441" d="M19.74 25.97L19.74 21.14L24.49 21.14L24.49 19.86L19.74 19.86L19.74 16.05L24.92 16.05L24.92 14.77L18.31 14.77L18.31 25.97ZM30.19 26.21C32.49 26.21 34.17 24.86 34.17 22.91C34.17 21.17 32.86 20.30 31.91 20.07L31.91 20.06C32.64 19.82 33.74 19.03 33.74 17.53C33.74 15.79 32.26 14.54 30.22 14.54C28.20 14.54 26.71 15.79 26.71 17.53C26.71 19.00 27.76 19.80 28.53 20.06L28.53 20.07C27.60 20.30 26.27 21.16 26.27 22.92C26.27 24.87 27.89 26.21 30.19 26.21ZM30.22 19.54C29.00 19.54 28.10 18.75 28.10 17.63C28.10 16.51 29.00 15.75 30.22 15.75C31.46 15.75 32.35 16.51 32.35 17.63C32.35 18.75 31.46 19.54 30.22 19.54ZM30.22 25.01C28.77 25.01 27.67 24.13 27.67 22.87C27.67 21.59 28.77 20.71 30.22 20.71C31.68 20.71 32.78 21.59 32.78 22.87C32.78 24.13 31.68 25.01 30.22 25.01Z" fill="#ffffff"></path></svg>