<svg xmlns="http://www.w3.org/2000/svg" version="1.1" xmlns:xlink="http://www.w3.org/1999/xlink" xmlns:svgjs="http://svgjs.com/svgjs" width="40" height="40"><svg id="SvgjsSvg1002" style="overflow: hidden; top: -100%; left: -100%; position: absolute; opacity: 0;" width="2" height="0" focusable="false"><polyline id="SvgjsPolyline1003" points="0,0"></polyline><path id="SvgjsPath1004" d="M0 0 "></path></svg><defs id="SvgjsDefs2352"></defs><rect id="SvgjsRect2353" width="39" height="39" x="0.5" y="0.5" rx="8" ry="8" fill="#2d333b" stroke-opacity="1" stroke="#444c56" stroke-width="1"></rect><path id="SvgjsPath2354" d="M12.52 22.09C12.52 27.37 15.45 30.35 19.97 30.35C24.51 30.35 27.48 27.37 27.48 22.09L27.48 19.34C27.48 14.04 24.55 10.89 20.03 10.89C15.50 10.89 12.52 14.04 12.52 19.34ZM14.91 19.33C14.91 15.16 17.13 13.04 20 13.04C22.88 13.04 25.09 15.16 25.09 19.33L25.09 22.09C25.09 26.28 22.88 28.20 20 28.20C17.13 28.20 14.91 26.28 14.91 22.09Z" fill="#ffffff"></path></svg>