<svg xmlns="http://www.w3.org/2000/svg" version="1.1" xmlns:xlink="http://www.w3.org/1999/xlink" xmlns:svgjs="http://svgjs.com/svgjs" width="40" height="40"><svg id="SvgjsSvg1002" style="overflow: hidden; top: -100%; left: -100%; position: absolute; opacity: 0;" width="2" height="0" focusable="false"><polyline id="SvgjsPolyline1003" points="0,0"></polyline><path id="SvgjsPath1004" d="M0 0 "></path></svg><defs id="SvgjsDefs2523"></defs><rect id="SvgjsRect2524" width="39" height="39" x="0.5" y="0.5" rx="8" ry="8" fill="#2d333b" stroke-opacity="1" stroke="#444c56" stroke-width="1"></rect><path id="SvgjsPath2525" d="M15.61 11.33L10.81 11.33C10.14 11.33 9.62 11.82 9.62 12.47C9.62 13.11 10.14 13.59 10.81 13.59L15.06 13.59C15.41 13.59 15.64 13.74 15.79 14.05L22.27 28.53C22.69 29.49 23.35 29.91 24.38 29.91L29.20 29.91C29.84 29.91 30.38 29.41 30.38 28.78C30.38 28.15 29.84 27.66 29.20 27.66L24.95 27.66C24.57 27.66 24.33 27.51 24.18 27.19L17.73 12.71C17.33 11.85 16.57 11.33 15.61 11.33ZM29.20 11.33L22.98 11.33C22.32 11.33 21.82 11.81 21.82 12.45C21.82 13.10 22.32 13.57 22.98 13.57L29.20 13.57C29.86 13.57 30.36 13.10 30.36 12.45C30.36 11.81 29.86 11.33 29.20 11.33Z" fill="#ffffff"></path></svg>