<svg xmlns="http://www.w3.org/2000/svg" version="1.1" xmlns:xlink="http://www.w3.org/1999/xlink" xmlns:svgjs="http://svgjs.com/svgjs" width="40" height="40"><svg id="SvgjsSvg1002" style="overflow: hidden; top: -100%; left: -100%; position: absolute; opacity: 0;" width="2" height="0" focusable="false"><polyline id="SvgjsPolyline1003" points="0,0"></polyline><path id="SvgjsPath1004" d="M0 0 "></path></svg><defs id="SvgjsDefs2358"></defs><rect id="SvgjsRect2359" width="39" height="39" x="0.5" y="0.5" rx="8" ry="8" fill="#2d333b" stroke-opacity="1" stroke="#444c56" stroke-width="1"></rect><path id="SvgjsPath2360" d="M12.52 22.00C12.52 27.29 15.46 30.35 19.97 30.35C21.18 30.35 22.28 30.10 23.23 29.69L24.95 32.06L27.63 32.06L25.06 28.49C26.58 27.08 27.46 24.87 27.46 22.00L27.46 19.26C27.46 13.97 24.50 10.89 19.97 10.89C15.46 10.89 12.52 13.97 12.52 19.26ZM14.89 19.28C14.89 15.09 17.10 13.04 19.97 13.04C22.87 13.04 25.09 15.09 25.09 19.28L25.09 21.98C25.09 24.03 24.55 25.55 23.68 26.58L22.05 24.40L19.37 24.40L21.90 27.86C21.31 28.11 20.68 28.24 19.97 28.24C17.10 28.23 14.89 26.19 14.89 21.98Z" fill="#ffffff"></path></svg>