<svg xmlns="http://www.w3.org/2000/svg" version="1.1" xmlns:xlink="http://www.w3.org/1999/xlink" xmlns:svgjs="http://svgjs.com/svgjs" width="40" height="40"><svg id="SvgjsSvg1002" style="overflow: hidden; top: -100%; left: -100%; position: absolute; opacity: 0;" width="2" height="0" focusable="false"><polyline id="SvgjsPolyline1003" points="0,0"></polyline><path id="SvgjsPath1004" d="M0 0 "></path></svg><defs id="SvgjsDefs2361"></defs><rect id="SvgjsRect2362" width="39" height="39" x="0.5" y="0.5" rx="8" ry="8" fill="#2d333b" stroke-opacity="1" stroke="#444c56" stroke-width="1"></rect><path id="SvgjsPath2363" d="M20.69 11.29L13.95 11.29L13.95 29.95L16.33 29.95L16.33 22.53L20.85 22.53L24.30 29.95L27.02 29.95L23.22 22.05C24.86 21.46 26.69 19.92 26.69 16.86C26.69 13.93 24.85 11.29 20.69 11.29ZM16.33 20.44L16.33 13.40L20.39 13.40C22.71 13.40 24.23 14.61 24.23 16.99C24.23 19.19 22.89 20.44 20.28 20.44Z" fill="#ffffff"></path></svg>