<svg xmlns="http://www.w3.org/2000/svg" version="1.1" xmlns:xlink="http://www.w3.org/1999/xlink" xmlns:svgjs="http://svgjs.com/svgjs" width="64" height="40"><svg id="SvgjsSvg1002" style="overflow: hidden; top: -100%; left: -100%; position: absolute; opacity: 0;" width="2" height="0" focusable="false"><polyline id="SvgjsPolyline1003" points="0,0"></polyline><path id="SvgjsPath1004" d="M0 0 "></path></svg><defs id="SvgjsDefs2502"></defs><rect id="SvgjsRect2503" width="63" height="39" x="0.5" y="0.5" rx="8" ry="8" fill="#2d333b" stroke-opacity="1" stroke="#444c56" stroke-width="1"></rect><path id="SvgjsPath2504" d="M14.40 28.98L15.59 28.98L15.59 24.53C15.59 23.56 15.98 22.76 17.25 22.76C17.47 22.76 17.71 22.77 17.83 22.79L17.83 21.72C17.69 21.70 17.54 21.68 17.38 21.68C16.37 21.68 15.83 22.24 15.61 22.67L15.58 22.67L15.58 21.79L14.40 21.79ZM21.87 29.09C23.46 29.09 24.41 28.21 24.68 27.02L23.51 27.02C23.28 27.69 22.73 28.11 21.90 28.11C20.73 28.11 20.03 27.17 20.03 25.80L20.03 25.67L24.77 25.67L24.77 25.00C24.77 23.03 23.69 21.68 21.81 21.68C19.93 21.68 18.85 23.03 18.85 24.92L18.85 25.73C18.85 27.77 20.00 29.09 21.87 29.09ZM20.03 24.72L20.03 24.70C20.03 23.57 20.73 22.66 21.82 22.66C22.89 22.66 23.60 23.56 23.60 24.70L23.60 24.72ZM27.00 21.79L26.03 21.79L26.03 22.78L27.00 22.78L27.00 26.97C27.00 28.38 27.34 29.04 29.05 29.04C29.29 29.04 29.54 29.01 29.64 28.99L29.64 28.05C29.55 28.06 29.46 28.06 29.34 28.06C28.46 28.06 28.17 27.84 28.17 26.98L28.17 22.78L29.59 22.78L29.59 21.79L28.17 21.79L28.17 20.00L27.00 20.00ZM37.00 21.79L35.81 21.79L35.81 26.24C35.81 27.38 35.09 28.03 34.06 28.03C33.11 28.03 32.34 27.60 32.34 26.26L32.34 21.79L31.16 21.79L31.16 26.60C31.16 28.25 32.22 29.09 33.70 29.09C34.85 29.09 35.53 28.60 35.78 28.03L35.83 28.03L35.83 28.98L37.00 28.98ZM39.09 28.98L40.27 28.98L40.27 24.53C40.27 23.56 40.67 22.76 41.94 22.76C42.16 22.76 42.39 22.77 42.51 22.79L42.51 21.72C42.37 21.70 42.22 21.68 42.07 21.68C41.05 21.68 40.51 22.24 40.30 22.67L40.26 22.67L40.26 21.79L39.09 21.79ZM43.83 28.98L45.00 28.98L45.00 24.60C45.00 23.62 45.54 22.74 46.77 22.74C47.82 22.74 48.53 23.36 48.53 24.57L48.53 28.98L49.71 28.98L49.71 24.37C49.71 22.62 48.60 21.68 47.13 21.68C45.96 21.68 45.30 22.28 45.03 22.74L45.00 22.74L45.00 21.79L43.83 21.79Z" fill="#ffffff"></path></svg>