<svg xmlns="http://www.w3.org/2000/svg" version="1.1" xmlns:xlink="http://www.w3.org/1999/xlink" xmlns:svgjs="http://svgjs.com/svgjs" width="40" height="40"><svg id="SvgjsSvg1002" style="overflow: hidden; top: -100%; left: -100%; position: absolute; opacity: 0;" width="2" height="0" focusable="false"><polyline id="SvgjsPolyline1003" points="0,0"></polyline><path id="SvgjsPath1004" d="M0 0 "></path></svg><defs id="SvgjsDefs2529"></defs><rect id="SvgjsRect2530" width="39" height="39" x="0.5" y="0.5" rx="8" ry="8" fill="#2d333b" stroke-opacity="1" stroke="#444c56" stroke-width="1"></rect><path id="SvgjsPath2531" d="M16.90 30.10L23.10 30.10C24.63 30.10 25.44 29.23 25.44 27.78L25.44 23.39L29.31 23.39C30.24 23.39 30.98 22.82 30.98 21.94C30.98 21.41 30.71 21.01 30.29 20.60L21.37 11.69C20.96 11.28 20.51 11.02 20 11.02C19.49 11.02 19.04 11.28 18.63 11.69L9.71 20.60C9.27 21.03 9.02 21.41 9.02 21.94C9.02 22.82 9.76 23.39 10.69 23.39L14.56 23.39L14.56 27.78C14.56 29.23 15.37 30.10 16.90 30.10ZM17.21 28.16C16.88 28.16 16.65 27.93 16.65 27.60L16.65 21.68C16.65 21.60 16.60 21.54 16.50 21.54L11.84 21.54C11.78 21.54 11.76 21.52 11.76 21.48C11.76 21.45 11.77 21.42 11.80 21.39L19.88 13.38C19.90 13.34 19.96 13.33 20 13.33C20.04 13.33 20.10 13.34 20.12 13.38L28.20 21.39C28.23 21.42 28.24 21.45 28.24 21.48C28.24 21.52 28.22 21.54 28.16 21.54L23.50 21.54C23.40 21.54 23.35 21.60 23.35 21.68L23.35 27.60C23.35 27.93 23.12 28.16 22.80 28.16Z" fill="#ffffff"></path></svg>