<svg xmlns="http://www.w3.org/2000/svg" version="1.1" xmlns:xlink="http://www.w3.org/1999/xlink" xmlns:svgjs="http://svgjs.com/svgjs" width="60" height="40"><svg id="SvgjsSvg1002" style="overflow: hidden; top: -100%; left: -100%; position: absolute; opacity: 0;" width="2" height="0" focusable="false"><polyline id="SvgjsPolyline1003" points="0,0"></polyline><path id="SvgjsPath1004" d="M0 0 "></path></svg><defs id="SvgjsDefs2508"></defs><rect id="SvgjsRect2509" width="59" height="39" x="0.5" y="0.5" rx="8" ry="8" fill="#2d333b" stroke-opacity="1" stroke="#444c56" stroke-width="1"></rect><path id="SvgjsPath2510" d="M17.04 23.85C17.04 25.15 18.14 25.56 19.48 25.83C20.48 26.03 21.28 26.19 21.28 27.00C21.28 27.61 20.79 28.13 19.68 28.13C18.73 28.13 18.17 27.70 18.06 27.04L16.92 27.04C16.92 28.33 18.02 29.09 19.60 29.09C21.28 29.09 22.44 28.29 22.44 26.86C22.44 25.46 21.30 25.09 19.96 24.85C19.14 24.70 18.19 24.53 18.19 23.73C18.19 23.02 18.80 22.64 19.66 22.64C20.78 22.64 21.12 23.28 21.16 23.83L22.25 23.83C22.25 22.64 21.39 21.68 19.70 21.68C18.32 21.68 17.04 22.33 17.04 23.85ZM24.13 28.98L25.31 28.98L25.31 24.60C25.31 23.62 25.84 22.74 27.08 22.74C28.13 22.74 28.84 23.36 28.84 24.57L28.84 28.98L30.01 28.98L30.01 24.37C30.01 22.62 28.92 21.68 27.44 21.68C26.27 21.68 25.61 22.28 25.34 22.74L25.31 22.74L25.31 19.15L24.13 19.15ZM31.90 20.06C31.90 20.48 32.24 20.81 32.65 20.81C33.07 20.81 33.41 20.48 33.41 20.06C33.41 19.64 33.07 19.31 32.65 19.31C32.24 19.31 31.90 19.64 31.90 20.06ZM32.06 28.98L33.24 28.98L33.24 21.79L32.06 21.79ZM35.86 28.98L37.03 28.98L37.03 22.78L38.44 22.78L38.44 21.79L37.03 21.79L37.03 21.17C37.03 20.29 37.40 20.04 38.18 20.04C38.36 20.04 38.45 20.06 38.55 20.07L38.55 19.11C38.43 19.08 38.26 19.06 38.03 19.06C36.55 19.06 35.86 19.70 35.86 21.07L35.86 21.79L34.89 21.79L34.89 22.78L35.86 22.78ZM40.49 21.79L39.52 21.79L39.52 22.78L40.49 22.78L40.49 26.97C40.49 28.38 40.83 29.04 42.54 29.04C42.78 29.04 43.03 29.01 43.13 28.99L43.13 28.05C43.04 28.06 42.95 28.06 42.83 28.06C41.95 28.06 41.66 27.84 41.66 26.98L41.66 22.78L43.08 22.78L43.08 21.79L41.66 21.79L41.66 20.00L40.49 20.00Z" fill="#ffffff"></path></svg>