<svg xmlns="http://www.w3.org/2000/svg" version="1.1" xmlns:xlink="http://www.w3.org/1999/xlink" xmlns:svgjs="http://svgjs.com/svgjs" width="20" height="20"><svg id="SvgjsSvg1002" style="overflow: hidden; top: -100%; left: -100%; position: absolute; opacity: 0;" width="2" height="0" focusable="false"><polyline id="SvgjsPolyline1003" points="0,0"></polyline><path id="SvgjsPath1004" d="M0 0 "></path></svg><defs id="SvgjsDefs3180"></defs><rect id="SvgjsRect3181" width="19" height="19" x="0.5" y="0.5" rx="4" ry="4" fill="#2d333b" stroke-opacity="1" stroke="#444c56" stroke-width="1"></rect><path id="SvgjsPath3182" d="M9.90 15.16C10.94 15.16 11.75 14.72 12.33 13.85C12.91 12.98 13.20 11.71 13.20 10.05C13.20 6.70 12.17 5.03 10.12 5.03C9.05 5.03 8.23 5.47 7.67 6.36C7.10 7.25 6.81 8.56 6.81 10.29C6.81 11.87 7.09 13.08 7.63 13.91C8.18 14.74 8.93 15.16 9.90 15.16ZM10.06 5.98C11.39 5.98 12.05 7.38 12.05 10.17C12.05 12.87 11.37 14.22 10.02 14.22C8.65 14.22 7.96 12.89 7.96 10.24C7.96 7.40 8.66 5.98 10.06 5.98Z" fill="#ffffff"></path></svg>