<svg xmlns="http://www.w3.org/2000/svg" version="1.1" xmlns:xlink="http://www.w3.org/1999/xlink" xmlns:svgjs="http://svgjs.com/svgjs" width="20" height="20"><svg id="SvgjsSvg1002" style="overflow: hidden; top: -100%; left: -100%; position: absolute; opacity: 0;" width="2" height="0" focusable="false"><polyline id="SvgjsPolyline1003" points="0,0"></polyline><path id="SvgjsPath1004" d="M0 0 "></path></svg><defs id="SvgjsDefs3189"></defs><rect id="SvgjsRect3190" width="19" height="19" x="0.5" y="0.5" rx="4" ry="4" fill="#2d333b" stroke-opacity="1" stroke="#444c56" stroke-width="1"></rect><path id="SvgjsPath3191" d="M7.12 14.63C7.67 14.99 8.41 15.16 9.34 15.16C10.38 15.16 11.21 14.89 11.84 14.35C12.47 13.81 12.79 13.10 12.79 12.22C12.79 11.58 12.58 11.05 12.16 10.63C11.75 10.20 11.18 9.95 10.48 9.88L10.48 9.86C11.79 9.49 12.45 8.66 12.45 7.37C12.45 6.68 12.20 6.12 11.71 5.69C11.21 5.25 10.55 5.03 9.73 5.03C8.87 5.03 8.13 5.22 7.50 5.59L7.50 6.68C8.11 6.21 8.76 5.98 9.45 5.98C10.68 5.98 11.30 6.54 11.30 7.65C11.30 8.85 10.49 9.45 8.87 9.45L8.10 9.45L8.10 10.40L8.91 10.40C10.73 10.40 11.64 11.04 11.64 12.32C11.64 12.90 11.44 13.36 11.03 13.70C10.62 14.05 10.08 14.22 9.39 14.22C8.55 14.22 7.79 13.95 7.12 13.42Z" fill="#ffffff"></path></svg>