<svg xmlns="http://www.w3.org/2000/svg" version="1.1" xmlns:xlink="http://www.w3.org/1999/xlink" xmlns:svgjs="http://svgjs.com/svgjs" width="20" height="20"><svg id="SvgjsSvg1002" style="overflow: hidden; top: -100%; left: -100%; position: absolute; opacity: 0;" width="2" height="0" focusable="false"><polyline id="SvgjsPolyline1003" points="0,0"></polyline><path id="SvgjsPath1004" d="M0 0 "></path></svg><defs id="SvgjsDefs3204"></defs><rect id="SvgjsRect3205" width="19" height="19" x="0.5" y="0.5" rx="4" ry="4" fill="#2d333b" stroke-opacity="1" stroke="#444c56" stroke-width="1"></rect><path id="SvgjsPath3206" d="M9.03 9.86C7.62 10.43 6.91 11.35 6.91 12.60C6.91 13.36 7.18 13.98 7.72 14.45C8.27 14.92 8.96 15.16 9.79 15.16C10.83 15.16 11.65 14.92 12.23 14.44C12.81 13.96 13.10 13.32 13.10 12.51C13.10 11.25 12.39 10.37 10.96 9.86L10.96 9.83C12.17 9.23 12.78 8.38 12.78 7.30C12.78 6.63 12.53 6.09 12.04 5.67C11.54 5.24 10.92 5.03 10.15 5.03C9.30 5.03 8.61 5.26 8.07 5.71C7.53 6.16 7.27 6.74 7.27 7.45C7.27 8.49 7.85 9.28 9.03 9.83ZM11.63 7.44C11.63 8.27 11.09 8.90 10.01 9.35C8.94 8.92 8.41 8.27 8.41 7.42C8.41 7.00 8.57 6.66 8.89 6.39C9.21 6.12 9.59 5.98 10.05 5.98C10.54 5.98 10.92 6.11 11.20 6.37C11.49 6.63 11.63 6.99 11.63 7.44ZM9.93 10.39C11.28 10.87 11.96 11.61 11.96 12.59C11.96 13.06 11.78 13.45 11.42 13.76C11.06 14.06 10.60 14.22 10.03 14.22C9.44 14.22 8.96 14.06 8.60 13.75C8.24 13.44 8.06 13.04 8.06 12.55C8.06 11.61 8.68 10.89 9.93 10.39Z" fill="#ffffff"></path></svg>