<svg xmlns="http://www.w3.org/2000/svg" version="1.1" xmlns:xlink="http://www.w3.org/1999/xlink" xmlns:svgjs="http://svgjs.com/svgjs" width="20" height="20"><svg id="SvgjsSvg1002" style="overflow: hidden; top: -100%; left: -100%; position: absolute; opacity: 0;" width="2" height="0" focusable="false"><polyline id="SvgjsPolyline1003" points="0,0"></polyline><path id="SvgjsPath1004" d="M0 0 "></path></svg><defs id="SvgjsDefs3207"></defs><rect id="SvgjsRect3208" width="19" height="19" x="0.5" y="0.5" rx="4" ry="4" fill="#2d333b" stroke-opacity="1" stroke="#444c56" stroke-width="1"></rect><path id="SvgjsPath3209" d="M7.40 14.83C7.89 15.05 8.46 15.16 9.11 15.16C10.36 15.16 11.34 14.67 12.04 13.69C12.74 12.71 13.09 11.32 13.09 9.51C13.09 8.05 12.82 6.94 12.28 6.18C11.74 5.41 10.99 5.03 10.02 5.03C9.10 5.03 8.34 5.34 7.75 5.95C7.16 6.56 6.87 7.35 6.87 8.30C6.87 9.20 7.14 9.94 7.68 10.51C8.21 11.08 8.90 11.36 9.74 11.36C10.78 11.36 11.51 10.94 11.93 10.10C11.94 10.10 11.95 10.10 11.96 10.10C11.96 11.41 11.71 12.43 11.21 13.14C10.72 13.86 10.03 14.22 9.14 14.22C8.53 14.22 7.95 14.06 7.40 13.75ZM9.92 5.98C10.50 5.98 10.98 6.21 11.34 6.68C11.70 7.15 11.89 7.76 11.89 8.50C11.89 9.02 11.70 9.46 11.34 9.82C10.97 10.18 10.52 10.36 9.99 10.36C9.39 10.36 8.91 10.17 8.55 9.77C8.20 9.38 8.02 8.84 8.02 8.15C8.02 7.52 8.20 7.00 8.56 6.59C8.92 6.18 9.38 5.98 9.92 5.98Z" fill="#ffffff"></path></svg>