<svg xmlns="http://www.w3.org/2000/svg" version="1.1" xmlns:xlink="http://www.w3.org/1999/xlink" xmlns:svgjs="http://svgjs.com/svgjs" width="20" height="20"><svg id="SvgjsSvg1002" style="overflow: hidden; top: -100%; left: -100%; position: absolute; opacity: 0;" width="2" height="0" focusable="false"><polyline id="SvgjsPolyline1003" points="0,0"></polyline><path id="SvgjsPath1004" d="M0 0 "></path></svg><defs id="SvgjsDefs3105"></defs><rect id="SvgjsRect3106" width="19" height="19" x="0.5" y="0.5" rx="4" ry="4" fill="#2d333b" stroke-opacity="1" stroke="#444c56" stroke-width="1"></rect><path id="SvgjsPath3107" d="M7.27 15.00L10.13 15.00C11.05 15.00 11.80 14.74 12.41 14.22C13.01 13.70 13.31 13.02 13.31 12.18C13.31 11.51 13.11 10.96 12.71 10.54C12.32 10.11 11.79 9.87 11.13 9.79L11.13 9.76C11.66 9.59 12.07 9.30 12.37 8.89C12.67 8.48 12.82 7.99 12.82 7.44C12.82 6.77 12.57 6.23 12.08 5.82C11.58 5.40 10.91 5.19 10.06 5.19L7.27 5.19ZM8.42 6.23L9.74 6.23C10.99 6.23 11.62 6.71 11.62 7.66C11.62 8.21 11.44 8.64 11.08 8.94C10.72 9.25 10.23 9.40 9.60 9.40L8.42 9.40ZM8.42 10.43L9.74 10.43C11.32 10.43 12.11 11.01 12.11 12.17C12.11 12.72 11.92 13.16 11.55 13.48C11.18 13.80 10.65 13.96 9.98 13.96L8.42 13.96Z" fill="#ffffff"></path></svg>