<svg xmlns="http://www.w3.org/2000/svg" version="1.1" xmlns:xlink="http://www.w3.org/1999/xlink" xmlns:svgjs="http://svgjs.com/svgjs" width="44" height="20"><svg id="SvgjsSvg1002" style="overflow: hidden; top: -100%; left: -100%; position: absolute; opacity: 0;" width="2" height="0" focusable="false"><polyline id="SvgjsPolyline1003" points="0,0"></polyline><path id="SvgjsPath1004" d="M0 0 "></path></svg><defs id="SvgjsDefs3267"></defs><rect id="SvgjsRect3268" width="43" height="19" x="0.5" y="0.5" rx="4" ry="4" fill="#2d333b" stroke-opacity="1" stroke="#444c56" stroke-width="1"></rect><path id="SvgjsPath3269" d="M6.77 12.10L8.20 12.10C8.66 12.10 9.04 11.97 9.34 11.71C9.64 11.45 9.79 11.11 9.79 10.69C9.79 10.35 9.69 10.08 9.50 9.87C9.30 9.66 9.03 9.53 8.70 9.49L8.70 9.48C8.97 9.39 9.17 9.25 9.32 9.04C9.47 8.84 9.55 8.60 9.55 8.32C9.55 7.99 9.43 7.72 9.18 7.51C8.93 7.30 8.59 7.20 8.17 7.20L6.77 7.20ZM7.35 7.72L8.01 7.72C8.64 7.72 8.95 7.95 8.95 8.43C8.95 8.71 8.86 8.92 8.68 9.07C8.50 9.22 8.25 9.30 7.94 9.30L7.35 9.30ZM7.35 9.82L8.01 9.82C8.80 9.82 9.19 10.10 9.19 10.68C9.19 10.96 9.10 11.18 8.91 11.34C8.73 11.50 8.47 11.58 8.13 11.58L7.35 11.58ZM13.22 12.10L13.22 9.82C13.22 8.95 12.81 8.52 11.98 8.52C11.53 8.52 11.14 8.63 10.79 8.84L10.79 9.42C11.13 9.13 11.51 8.99 11.94 8.99C12.42 8.99 12.66 9.29 12.66 9.88L11.61 10.03C10.84 10.13 10.45 10.51 10.45 11.17C10.45 11.47 10.55 11.72 10.75 11.90C10.95 12.09 11.22 12.18 11.57 12.18C12.04 12.18 12.40 11.97 12.64 11.55L12.66 11.55L12.66 12.10ZM12.66 10.33L12.66 10.68C12.66 10.98 12.57 11.22 12.39 11.42C12.20 11.61 11.97 11.71 11.70 11.71C11.49 11.71 11.33 11.65 11.21 11.55C11.09 11.44 11.03 11.30 11.03 11.13C11.03 10.89 11.09 10.73 11.22 10.64C11.36 10.54 11.55 10.48 11.81 10.44ZM16.66 11.94L16.66 11.40C16.39 11.61 16.10 11.71 15.80 11.71C15.44 11.71 15.15 11.59 14.93 11.35C14.72 11.12 14.61 10.79 14.61 10.38C14.61 9.97 14.72 9.63 14.95 9.37C15.18 9.12 15.47 8.99 15.83 8.99C16.13 8.99 16.41 9.08 16.67 9.26L16.67 8.69C16.43 8.57 16.16 8.52 15.85 8.52C15.30 8.52 14.86 8.69 14.53 9.04C14.20 9.39 14.03 9.85 14.03 10.43C14.03 10.95 14.19 11.37 14.49 11.69C14.80 12.02 15.20 12.18 15.70 12.18C16.07 12.18 16.39 12.10 16.66 11.94ZM20.41 12.10L18.66 10.29L20.29 8.60L19.55 8.60L18.08 10.20L18.07 10.20L18.07 6.92L17.51 6.92L17.51 12.10L18.07 12.10L18.07 10.42L18.08 10.42L19.63 12.10ZM20.77 11.97C21.04 12.11 21.35 12.18 21.71 12.18C21.89 12.18 22.07 12.16 22.23 12.12C22.40 12.08 22.55 12.02 22.68 11.93C22.80 11.85 22.90 11.74 22.98 11.61C23.06 11.49 23.10 11.34 23.10 11.16C23.10 11.02 23.07 10.90 23.03 10.80C22.98 10.69 22.91 10.60 22.83 10.52C22.74 10.45 22.63 10.38 22.51 10.31C22.39 10.25 22.25 10.19 22.09 10.13L21.78 10.00C21.69 9.96 21.61 9.92 21.55 9.87C21.49 9.83 21.44 9.77 21.41 9.71C21.37 9.65 21.36 9.57 21.36 9.48C21.36 9.41 21.37 9.34 21.41 9.28C21.44 9.22 21.49 9.17 21.55 9.12C21.61 9.08 21.68 9.05 21.76 9.02C21.85 9.00 21.94 8.99 22.05 8.99C22.38 8.99 22.68 9.07 22.93 9.24L22.93 8.67C22.70 8.57 22.42 8.52 22.12 8.52C21.95 8.52 21.78 8.54 21.62 8.58C21.46 8.62 21.32 8.69 21.20 8.77C21.07 8.86 20.97 8.97 20.89 9.09C20.82 9.22 20.78 9.36 20.78 9.53C20.78 9.66 20.80 9.78 20.84 9.88C20.88 9.98 20.94 10.07 21.02 10.15C21.10 10.23 21.20 10.30 21.31 10.36C21.43 10.42 21.57 10.49 21.72 10.55L22.03 10.67C22.13 10.71 22.22 10.76 22.29 10.81C22.36 10.86 22.42 10.91 22.46 10.98C22.50 11.04 22.52 11.12 22.52 11.22C22.52 11.54 22.28 11.71 21.78 11.71C21.42 11.71 21.08 11.60 20.77 11.37ZM24.53 11.59C24.78 11.98 25.13 12.18 25.58 12.18C26.07 12.18 26.46 12.00 26.75 11.65C27.03 11.30 27.18 10.83 27.18 10.25C27.18 9.72 27.05 9.30 26.80 8.99C26.54 8.67 26.19 8.52 25.74 8.52C25.21 8.52 24.81 8.75 24.53 9.21L24.52 9.21L24.52 8.60L23.96 8.60L23.96 13.71L24.52 13.71L24.52 11.59ZM24.52 10.18C24.52 9.84 24.62 9.55 24.81 9.33C25.01 9.10 25.27 8.99 25.60 8.99C25.91 8.99 26.15 9.10 26.33 9.32C26.51 9.54 26.60 9.85 26.60 10.24C26.60 10.70 26.51 11.06 26.31 11.32C26.12 11.58 25.85 11.71 25.52 11.71C25.23 11.71 24.99 11.61 24.80 11.41C24.61 11.20 24.52 10.96 24.52 10.67ZM30.49 12.10L30.49 9.82C30.49 8.95 30.07 8.52 29.25 8.52C28.80 8.52 28.41 8.63 28.06 8.84L28.06 9.42C28.40 9.13 28.78 8.99 29.20 8.99C29.68 8.99 29.92 9.29 29.92 9.88L28.88 10.03C28.11 10.13 27.72 10.51 27.72 11.17C27.72 11.47 27.82 11.72 28.02 11.90C28.21 12.09 28.49 12.18 28.83 12.18C29.31 12.18 29.67 11.97 29.91 11.55L29.92 11.55L29.92 12.10ZM29.92 10.33L29.92 10.68C29.92 10.98 29.83 11.22 29.65 11.42C29.47 11.61 29.24 11.71 28.96 11.71C28.76 11.71 28.60 11.65 28.48 11.55C28.36 11.44 28.29 11.30 28.29 11.13C28.29 10.89 28.36 10.73 28.49 10.64C28.62 10.54 28.82 10.48 29.08 10.44ZM33.93 11.94L33.93 11.40C33.66 11.61 33.37 11.71 33.07 11.71C32.70 11.71 32.41 11.59 32.20 11.35C31.98 11.12 31.88 10.79 31.88 10.38C31.88 9.97 31.99 9.63 32.22 9.37C32.45 9.12 32.74 8.99 33.10 8.99C33.40 8.99 33.67 9.08 33.93 9.26L33.93 8.69C33.70 8.57 33.43 8.52 33.12 8.52C32.57 8.52 32.13 8.69 31.80 9.04C31.47 9.39 31.30 9.85 31.30 10.43C31.30 10.95 31.46 11.37 31.76 11.69C32.07 12.02 32.47 12.18 32.97 12.18C33.34 12.18 33.66 12.10 33.93 11.94ZM37.59 10.49L37.59 10.19C37.59 9.67 37.46 9.26 37.21 8.96C36.96 8.66 36.61 8.52 36.15 8.52C35.69 8.52 35.31 8.69 35.00 9.03C34.69 9.37 34.54 9.82 34.54 10.36C34.54 10.94 34.68 11.39 34.96 11.70C35.24 12.02 35.63 12.18 36.12 12.18C36.63 12.18 37.04 12.07 37.34 11.85L37.34 11.32C37.01 11.58 36.65 11.71 36.26 11.71C35.91 11.71 35.63 11.60 35.43 11.39C35.23 11.18 35.13 10.88 35.12 10.49ZM37.01 10.01L35.12 10.01C35.17 9.71 35.28 9.46 35.47 9.27C35.65 9.08 35.87 8.99 36.14 8.99C36.41 8.99 36.63 9.08 36.78 9.26C36.93 9.44 37.01 9.69 37.01 10.01Z" fill="#ffffff"></path></svg>