<svg xmlns="http://www.w3.org/2000/svg" version="1.1" xmlns:xlink="http://www.w3.org/1999/xlink" xmlns:svgjs="http://svgjs.com/svgjs" width="20" height="20"><svg id="SvgjsSvg1002" style="overflow: hidden; top: -100%; left: -100%; position: absolute; opacity: 0;" width="2" height="0" focusable="false"><polyline id="SvgjsPolyline1003" points="0,0"></polyline><path id="SvgjsPath1004" d="M0 0 "></path></svg><defs id="SvgjsDefs3108"></defs><rect id="SvgjsRect3109" width="19" height="19" x="0.5" y="0.5" rx="4" ry="4" fill="#2d333b" stroke-opacity="1" stroke="#444c56" stroke-width="1"></rect><path id="SvgjsPath3110" d="M13.62 14.59L13.62 13.47C12.90 13.91 12.05 14.13 11.07 14.13C10.00 14.13 9.15 13.77 8.49 13.07C7.84 12.36 7.51 11.41 7.51 10.21C7.51 8.95 7.86 7.95 8.56 7.20C9.26 6.45 10.17 6.07 11.30 6.07C12.15 6.07 12.92 6.27 13.62 6.66L13.62 5.43C13.01 5.16 12.24 5.03 11.31 5.03C9.86 5.03 8.67 5.51 7.72 6.48C6.78 7.45 6.31 8.71 6.31 10.28C6.31 11.74 6.73 12.92 7.57 13.81C8.40 14.71 9.52 15.16 10.92 15.16C12.00 15.16 12.90 14.97 13.62 14.59Z" fill="#ffffff"></path></svg>