<svg xmlns="http://www.w3.org/2000/svg" version="1.1" xmlns:xlink="http://www.w3.org/1999/xlink" xmlns:svgjs="http://svgjs.com/svgjs" width="20" height="20"><svg id="SvgjsSvg1002" style="overflow: hidden; top: -100%; left: -100%; position: absolute; opacity: 0;" width="2" height="0" focusable="false"><polyline id="SvgjsPolyline1003" points="0,0"></polyline><path id="SvgjsPath1004" d="M0 0 "></path></svg><defs id="SvgjsDefs3270"></defs><rect id="SvgjsRect3271" width="19" height="19" x="0.5" y="0.5" rx="4" ry="4" fill="#2d333b" stroke-opacity="1" stroke="#444c56" stroke-width="1"></rect><path id="SvgjsPath3272" d="M8.56 11.89L8.56 11.34C8.20 11.55 7.77 11.66 7.28 11.66C6.75 11.66 6.32 11.49 6.00 11.13C5.67 10.78 5.51 10.30 5.51 9.71C5.51 9.08 5.68 8.57 6.03 8.20C6.38 7.82 6.84 7.63 7.40 7.63C7.82 7.63 8.21 7.73 8.56 7.93L8.56 7.32C8.26 7.18 7.87 7.12 7.41 7.12C6.68 7.12 6.08 7.36 5.61 7.84C5.14 8.32 4.90 8.96 4.90 9.74C4.90 10.47 5.11 11.06 5.53 11.51C5.95 11.96 6.51 12.18 7.21 12.18C7.75 12.18 8.20 12.08 8.56 11.89ZM11.11 12.06L11.11 11.59C11.00 11.66 10.88 11.70 10.74 11.70C10.56 11.70 10.42 11.65 10.35 11.55C10.27 11.45 10.23 11.28 10.23 11.05L10.23 9.08L11.11 9.08L11.11 8.60L10.23 8.60L10.23 7.56L9.67 7.74L9.67 8.60L9.06 8.60L9.06 9.08L9.67 9.08L9.67 11.15C9.67 11.83 9.97 12.17 10.58 12.17C10.80 12.17 10.98 12.14 11.11 12.06ZM13.68 9.17L13.68 8.58C13.60 8.55 13.49 8.54 13.35 8.54C13.14 8.54 12.96 8.61 12.80 8.74C12.63 8.88 12.51 9.07 12.43 9.32L12.42 9.32L12.42 8.60L11.86 8.60L11.86 12.10L12.42 12.10L12.42 10.31C12.42 9.92 12.50 9.62 12.66 9.39C12.82 9.17 13.02 9.05 13.26 9.05C13.44 9.05 13.58 9.09 13.68 9.17ZM14.85 12.10L14.85 6.92L14.29 6.92L14.29 12.10Z" fill="#ffffff"></path></svg>