<svg xmlns="http://www.w3.org/2000/svg" version="1.1" xmlns:xlink="http://www.w3.org/1999/xlink" xmlns:svgjs="http://svgjs.com/svgjs" width="20" height="20"><svg id="SvgjsSvg1002" style="overflow: hidden; top: -100%; left: -100%; position: absolute; opacity: 0;" width="2" height="0" focusable="false"><polyline id="SvgjsPolyline1003" points="0,0"></polyline><path id="SvgjsPath1004" d="M0 0 "></path></svg><defs id="SvgjsDefs3255"></defs><rect id="SvgjsRect3256" width="19" height="19" x="0.5" y="0.5" rx="4" ry="4" fill="#2d333b" stroke-opacity="1" stroke="#444c56" stroke-width="1"></rect><path id="SvgjsPath3257" d="M5.51 12.10L6.81 12.10C7.61 12.10 8.26 11.87 8.74 11.41C9.22 10.95 9.45 10.34 9.45 9.59C9.45 7.99 8.59 7.20 6.86 7.20L5.51 7.20ZM6.08 7.72L6.85 7.72C8.19 7.72 8.85 8.34 8.85 9.60C8.85 10.23 8.67 10.72 8.32 11.06C7.96 11.41 7.46 11.58 6.82 11.58L6.08 11.58ZM13.16 10.49L13.16 10.19C13.16 9.67 13.03 9.26 12.78 8.96C12.53 8.66 12.18 8.52 11.72 8.52C11.26 8.52 10.88 8.69 10.57 9.03C10.26 9.37 10.10 9.82 10.10 10.36C10.10 10.94 10.25 11.39 10.53 11.70C10.81 12.02 11.20 12.18 11.69 12.18C12.20 12.18 12.61 12.07 12.91 11.85L12.91 11.32C12.58 11.58 12.22 11.71 11.83 11.71C11.48 11.71 11.20 11.60 11.00 11.39C10.80 11.18 10.69 10.88 10.69 10.49ZM12.58 10.01L10.69 10.01C10.74 9.71 10.85 9.46 11.03 9.27C11.22 9.08 11.44 8.99 11.71 8.99C11.98 8.99 12.19 9.08 12.35 9.26C12.50 9.44 12.58 9.69 12.58 10.01ZM14.56 12.10L14.56 6.92L14.00 6.92L14.00 12.10Z" fill="#ffffff"></path></svg>