<svg xmlns="http://www.w3.org/2000/svg" version="1.1" xmlns:xlink="http://www.w3.org/1999/xlink" xmlns:svgjs="http://svgjs.com/svgjs" width="32" height="20"><svg id="SvgjsSvg1002" style="overflow: hidden; top: -100%; left: -100%; position: absolute; opacity: 0;" width="2" height="0" focusable="false"><polyline id="SvgjsPolyline1003" points="0,0"></polyline><path id="SvgjsPath1004" d="M0 0 "></path></svg><defs id="SvgjsDefs3264"></defs><rect id="SvgjsRect3265" width="31" height="19" x="0.5" y="0.5" rx="4" ry="4" fill="#2d333b" stroke-opacity="1" stroke="#444c56" stroke-width="1"></rect><path id="SvgjsPath3266" d="M11.28 12.10L11.28 11.58L9.26 11.58L9.26 9.86L11.03 9.86L11.03 9.35L9.26 9.35L9.26 7.72L11.17 7.72L11.17 7.20L8.69 7.20L8.69 12.10ZM15.06 12.10L15.06 9.96C15.06 9.49 14.96 9.13 14.75 8.89C14.55 8.64 14.26 8.52 13.87 8.52C13.37 8.52 12.99 8.74 12.73 9.18L12.71 9.18L12.71 8.60L12.15 8.60L12.15 12.10L12.71 12.10L12.71 10.10C12.71 9.78 12.80 9.52 12.99 9.30C13.17 9.09 13.40 8.99 13.68 8.99C14.22 8.99 14.50 9.36 14.50 10.10L14.50 12.10ZM17.74 12.06L17.74 11.59C17.63 11.66 17.51 11.70 17.37 11.70C17.19 11.70 17.05 11.65 16.97 11.55C16.89 11.45 16.85 11.28 16.85 11.05L16.85 9.08L17.74 9.08L17.74 8.60L16.85 8.60L16.85 7.56L16.29 7.74L16.29 8.60L15.69 8.60L15.69 9.08L16.29 9.08L16.29 11.15C16.29 11.83 16.60 12.17 17.21 12.17C17.43 12.17 17.60 12.14 17.74 12.06ZM21.24 10.49L21.24 10.19C21.24 9.67 21.12 9.26 20.87 8.96C20.62 8.66 20.26 8.52 19.80 8.52C19.35 8.52 18.96 8.69 18.65 9.03C18.35 9.37 18.19 9.82 18.19 10.36C18.19 10.94 18.33 11.39 18.61 11.70C18.90 12.02 19.29 12.18 19.78 12.18C20.29 12.18 20.69 12.07 21.00 11.85L21.00 11.32C20.67 11.58 20.31 11.71 19.91 11.71C19.56 11.71 19.29 11.60 19.09 11.39C18.89 11.18 18.78 10.88 18.77 10.49ZM20.67 10.01L18.78 10.01C18.82 9.71 18.94 9.46 19.12 9.27C19.31 9.08 19.53 8.99 19.79 8.99C20.07 8.99 20.28 9.08 20.43 9.26C20.59 9.44 20.67 9.69 20.67 10.01ZM23.92 9.17L23.92 8.58C23.84 8.55 23.73 8.54 23.58 8.54C23.38 8.54 23.19 8.61 23.03 8.74C22.87 8.88 22.74 9.07 22.67 9.32L22.65 9.32L22.65 8.60L22.09 8.60L22.09 12.10L22.65 12.10L22.65 10.31C22.65 9.92 22.73 9.62 22.89 9.39C23.05 9.17 23.25 9.05 23.49 9.05C23.68 9.05 23.82 9.09 23.92 9.17Z" fill="#ffffff"></path></svg>