<svg xmlns="http://www.w3.org/2000/svg" version="1.1" xmlns:xlink="http://www.w3.org/1999/xlink" xmlns:svgjs="http://svgjs.com/svgjs" width="26" height="20"><svg id="SvgjsSvg1002" style="overflow: hidden; top: -100%; left: -100%; position: absolute; opacity: 0;" width="2" height="0" focusable="false"><polyline id="SvgjsPolyline1003" points="0,0"></polyline><path id="SvgjsPath1004" d="M0 0 "></path></svg><defs id="SvgjsDefs3240"></defs><rect id="SvgjsRect3241" width="25" height="19" x="0.5" y="0.5" rx="4" ry="4" fill="#2d333b" stroke-opacity="1" stroke="#444c56" stroke-width="1"></rect><path id="SvgjsPath3242" d="M10.18 7.42L10.18 6.80L7.19 6.80L7.19 12.68L7.88 12.68L7.88 10.07L10.01 10.07L10.01 9.45L7.88 9.45L7.88 7.42ZM14.57 12.68L14.57 12.09L13.25 12.09L13.25 6.67L11.21 7.28L11.21 7.92L12.57 7.52L12.57 12.09L11.24 12.09L11.24 12.68ZM19.10 12.68L19.10 12.09L17.77 12.09L17.77 6.67L15.74 7.28L15.74 7.92L17.10 7.52L17.10 12.09L15.77 12.09L15.77 12.68Z" fill="#ffffff"></path></svg>