<svg xmlns="http://www.w3.org/2000/svg" version="1.1" xmlns:xlink="http://www.w3.org/1999/xlink" xmlns:svgjs="http://svgjs.com/svgjs" width="26" height="20"><svg id="SvgjsSvg1002" style="overflow: hidden; top: -100%; left: -100%; position: absolute; opacity: 0;" width="2" height="0" focusable="false"><polyline id="SvgjsPolyline1003" points="0,0"></polyline><path id="SvgjsPath1004" d="M0 0 "></path></svg><defs id="SvgjsDefs3219"></defs><rect id="SvgjsRect3220" width="25" height="19" x="0.5" y="0.5" rx="4" ry="4" fill="#2d333b" stroke-opacity="1" stroke="#444c56" stroke-width="1"></rect><path id="SvgjsPath3221" d="M12.44 7.42L12.44 6.80L9.46 6.80L9.46 12.68L10.15 12.68L10.15 10.07L12.27 10.07L12.27 9.45L10.15 9.45L10.15 7.42ZM17.03 11.12L17.03 10.57L16.27 10.57L16.27 6.80L15.46 6.80L12.84 10.68L12.84 11.12L15.61 11.12L15.61 12.68L16.27 12.68L16.27 11.12ZM15.61 10.57L13.57 10.57L15.38 7.87C15.50 7.67 15.57 7.52 15.61 7.42L15.63 7.42C15.61 7.64 15.61 7.85 15.61 8.03Z" fill="#ffffff"></path></svg>