<svg xmlns="http://www.w3.org/2000/svg" version="1.1" xmlns:xlink="http://www.w3.org/1999/xlink" xmlns:svgjs="http://svgjs.com/svgjs" width="26" height="20"><svg id="SvgjsSvg1002" style="overflow: hidden; top: -100%; left: -100%; position: absolute; opacity: 0;" width="2" height="0" focusable="false"><polyline id="SvgjsPolyline1003" points="0,0"></polyline><path id="SvgjsPath1004" d="M0 0 "></path></svg><defs id="SvgjsDefs3222"></defs><rect id="SvgjsRect3223" width="25" height="19" x="0.5" y="0.5" rx="4" ry="4" fill="#2d333b" stroke-opacity="1" stroke="#444c56" stroke-width="1"></rect><path id="SvgjsPath3224" d="M12.44 7.42L12.44 6.80L9.46 6.80L9.46 12.68L10.15 12.68L10.15 10.07L12.27 10.07L12.27 9.45L10.15 9.45L10.15 7.42ZM13.46 12.53C13.73 12.70 14.13 12.78 14.68 12.78C15.32 12.78 15.83 12.60 16.20 12.26C16.57 11.91 16.76 11.45 16.76 10.88C16.76 10.33 16.58 9.90 16.24 9.58C15.90 9.27 15.41 9.11 14.78 9.11C14.63 9.11 14.46 9.12 14.28 9.13L14.28 7.40L16.49 7.40L16.49 6.80L13.64 6.80L13.64 9.75C14.10 9.71 14.40 9.70 14.57 9.70C15.05 9.70 15.42 9.80 15.68 10.02C15.94 10.24 16.07 10.54 16.07 10.92C16.07 11.31 15.94 11.62 15.69 11.86C15.44 12.09 15.10 12.21 14.69 12.21C14.27 12.21 13.86 12.08 13.46 11.82Z" fill="#ffffff"></path></svg>