<svg xmlns="http://www.w3.org/2000/svg" version="1.1" xmlns:xlink="http://www.w3.org/1999/xlink" xmlns:svgjs="http://svgjs.com/svgjs" width="20" height="20"><svg id="SvgjsSvg1002" style="overflow: hidden; top: -100%; left: -100%; position: absolute; opacity: 0;" width="2" height="0" focusable="false"><polyline id="SvgjsPolyline1003" points="0,0"></polyline><path id="SvgjsPath1004" d="M0 0 "></path></svg><defs id="SvgjsDefs3276"></defs><rect id="SvgjsRect3277" width="19" height="19" x="0.5" y="0.5" rx="4" ry="4" fill="#2d333b" stroke-opacity="1" stroke="#444c56" stroke-width="1"></rect><path id="SvgjsPath3278" d="M9.44 7.72L9.44 7.20L6.95 7.20L6.95 12.10L7.53 12.10L7.53 9.93L9.30 9.93L9.30 9.41L7.53 9.41L7.53 7.72ZM13.20 12.10L13.20 9.96C13.20 9.49 13.10 9.13 12.90 8.89C12.69 8.64 12.40 8.52 12.02 8.52C11.52 8.52 11.13 8.74 10.87 9.18L10.86 9.18L10.86 8.60L10.30 8.60L10.30 12.10L10.86 12.10L10.86 10.10C10.86 9.78 10.95 9.52 11.13 9.30C11.31 9.09 11.55 8.99 11.83 8.99C12.37 8.99 12.64 9.36 12.64 10.10L12.64 12.10Z" fill="#ffffff"></path></svg>