<svg xmlns="http://www.w3.org/2000/svg" version="1.1" xmlns:xlink="http://www.w3.org/1999/xlink" xmlns:svgjs="http://svgjs.com/svgjs" width="20" height="20"><svg id="SvgjsSvg1002" style="overflow: hidden; top: -100%; left: -100%; position: absolute; opacity: 0;" width="2" height="0" focusable="false"><polyline id="SvgjsPolyline1003" points="0,0"></polyline><path id="SvgjsPath1004" d="M0 0 "></path></svg><defs id="SvgjsDefs3138"></defs><rect id="SvgjsRect3139" width="19" height="19" x="0.5" y="0.5" rx="4" ry="4" fill="#2d333b" stroke-opacity="1" stroke="#444c56" stroke-width="1"></rect><path id="SvgjsPath3140" d="M14.99 15.00L14.99 5.19L13.56 5.19L10.49 12.00C10.37 12.27 10.21 12.67 10.02 13.21L9.98 13.21C9.91 12.95 9.76 12.55 9.52 12.03L6.52 5.19L5.00 5.19L5.00 15.00L6.11 15.00L6.11 8.43C6.11 7.55 6.09 6.91 6.05 6.51L6.08 6.51C6.18 6.96 6.28 7.30 6.37 7.52L9.72 15.00L10.28 15.00L13.63 7.46C13.71 7.27 13.81 6.96 13.92 6.51L13.95 6.51C13.88 7.27 13.85 7.90 13.85 8.42L13.85 15.00Z" fill="#ffffff"></path></svg>