<svg xmlns="http://www.w3.org/2000/svg" version="1.1" xmlns:xlink="http://www.w3.org/1999/xlink" xmlns:svgjs="http://svgjs.com/svgjs" width="20" height="20"><svg id="SvgjsSvg1002" style="overflow: hidden; top: -100%; left: -100%; position: absolute; opacity: 0;" width="2" height="0" focusable="false"><polyline id="SvgjsPolyline1003" points="0,0"></polyline><path id="SvgjsPath1004" d="M0 0 "></path></svg><defs id="SvgjsDefs3141"></defs><rect id="SvgjsRect3142" width="19" height="19" x="0.5" y="0.5" rx="4" ry="4" fill="#2d333b" stroke-opacity="1" stroke="#444c56" stroke-width="1"></rect><path id="SvgjsPath3143" d="M13.95 15.00L13.95 5.19L12.80 5.19L12.80 12.10C12.80 12.78 12.83 13.26 12.87 13.54L12.84 13.54C12.78 13.42 12.65 13.20 12.45 12.88L7.54 5.19L6.05 5.19L6.05 15.00L7.20 15.00L7.20 7.91C7.20 7.23 7.18 6.78 7.14 6.57L7.18 6.57C7.27 6.78 7.37 6.99 7.50 7.18L12.54 15.00Z" fill="#ffffff"></path></svg>