<svg xmlns="http://www.w3.org/2000/svg" version="1.1" xmlns:xlink="http://www.w3.org/1999/xlink" xmlns:svgjs="http://svgjs.com/svgjs" width="20" height="20"><svg id="SvgjsSvg1002" style="overflow: hidden; top: -100%; left: -100%; position: absolute; opacity: 0;" width="2" height="0" focusable="false"><polyline id="SvgjsPolyline1003" points="0,0"></polyline><path id="SvgjsPath1004" d="M0 0 "></path></svg><defs id="SvgjsDefs3144"></defs><rect id="SvgjsRect3145" width="19" height="19" x="0.5" y="0.5" rx="4" ry="4" fill="#2d333b" stroke-opacity="1" stroke="#444c56" stroke-width="1"></rect><path id="SvgjsPath3146" d="M9.96 15.16C11.38 15.16 12.52 14.70 13.36 13.77C14.21 12.84 14.63 11.57 14.63 9.97C14.63 8.50 14.22 7.31 13.39 6.40C12.57 5.49 11.48 5.03 10.12 5.03C8.66 5.03 7.50 5.50 6.64 6.44C5.79 7.38 5.37 8.63 5.37 10.21C5.37 11.68 5.78 12.87 6.62 13.79C7.46 14.70 8.57 15.16 9.96 15.16ZM10.04 6.07C11.10 6.07 11.93 6.42 12.53 7.13C13.13 7.84 13.43 8.84 13.43 10.13C13.43 11.39 13.12 12.37 12.50 13.08C11.88 13.78 11.03 14.13 9.96 14.13C8.95 14.13 8.13 13.76 7.51 13.02C6.88 12.29 6.57 11.32 6.57 10.11C6.57 8.90 6.89 7.93 7.53 7.18C8.17 6.44 9.01 6.07 10.04 6.07Z" fill="#ffffff"></path></svg>