<svg xmlns="http://www.w3.org/2000/svg" version="1.1" xmlns:xlink="http://www.w3.org/1999/xlink" xmlns:svgjs="http://svgjs.com/svgjs" width="20" height="20"><svg id="SvgjsSvg1002" style="overflow: hidden; top: -100%; left: -100%; position: absolute; opacity: 0;" width="2" height="0" focusable="false"><polyline id="SvgjsPolyline1003" points="0,0"></polyline><path id="SvgjsPath1004" d="M0 0 "></path></svg><defs id="SvgjsDefs3147"></defs><rect id="SvgjsRect3148" width="19" height="19" x="0.5" y="0.5" rx="4" ry="4" fill="#2d333b" stroke-opacity="1" stroke="#444c56" stroke-width="1"></rect><path id="SvgjsPath3149" d="M8.51 11.29L9.81 11.29C10.89 11.29 11.76 11.00 12.40 10.40C13.04 9.81 13.36 9.05 13.36 8.12C13.36 7.19 13.07 6.47 12.50 5.96C11.92 5.45 11.11 5.19 10.06 5.19L7.36 5.19L7.36 15.00L8.51 15.00ZM8.51 6.23L9.86 6.23C11.39 6.23 12.16 6.88 12.16 8.17C12.16 8.84 11.95 9.35 11.53 9.71C11.11 10.07 10.51 10.25 9.72 10.25L8.51 10.25Z" fill="#ffffff"></path></svg>