<svg xmlns="http://www.w3.org/2000/svg" version="1.1" xmlns:xlink="http://www.w3.org/1999/xlink" xmlns:svgjs="http://svgjs.com/svgjs" width="20" height="20"><svg id="SvgjsSvg1002" style="overflow: hidden; top: -100%; left: -100%; position: absolute; opacity: 0;" width="2" height="0" focusable="false"><polyline id="SvgjsPolyline1003" points="0,0"></polyline><path id="SvgjsPath1004" d="M0 0 "></path></svg><defs id="SvgjsDefs3150"></defs><rect id="SvgjsRect3151" width="19" height="19" x="0.5" y="0.5" rx="4" ry="4" fill="#2d333b" stroke-opacity="1" stroke="#444c56" stroke-width="1"></rect><path id="SvgjsPath3152" d="M9.89 15.16L10.78 16.13C11.06 16.43 11.35 16.70 11.66 16.92C11.96 17.15 12.29 17.32 12.64 17.45C12.98 17.58 13.38 17.65 13.81 17.65C13.89 17.65 13.98 17.65 14.07 17.64C14.16 17.63 14.25 17.62 14.34 17.61C14.44 17.60 14.53 17.59 14.62 17.57C14.71 17.55 14.79 17.54 14.87 17.51L14.87 16.41C14.80 16.43 14.72 16.46 14.64 16.48C14.56 16.50 14.47 16.52 14.39 16.53C14.30 16.55 14.21 16.56 14.12 16.57C14.04 16.57 13.96 16.58 13.88 16.58C13.61 16.58 13.37 16.54 13.14 16.47C12.92 16.41 12.71 16.30 12.50 16.17C12.29 16.03 12.08 15.87 11.88 15.67C11.67 15.48 11.45 15.25 11.21 15.00C11.79 14.86 12.30 14.64 12.73 14.34C13.16 14.03 13.51 13.65 13.79 13.21C14.08 12.77 14.29 12.28 14.43 11.73C14.57 11.18 14.63 10.59 14.63 9.97C14.63 8.50 14.22 7.31 13.39 6.40C12.56 5.49 11.48 5.03 10.15 5.03C8.66 5.03 7.49 5.50 6.64 6.44C5.79 7.37 5.37 8.63 5.37 10.21C5.37 11.68 5.78 12.88 6.62 13.79C6.83 14.01 7.06 14.21 7.32 14.39C7.57 14.56 7.84 14.70 8.13 14.82C8.41 14.93 8.70 15.02 9.00 15.08C9.30 15.13 9.60 15.16 9.89 15.16ZM10.04 6.07C11.10 6.07 11.93 6.42 12.53 7.13C13.13 7.83 13.43 8.83 13.43 10.13C13.43 11.39 13.12 12.37 12.50 13.08C11.88 13.78 11.03 14.13 9.96 14.13C8.95 14.13 8.13 13.76 7.50 13.03C6.88 12.29 6.57 11.31 6.57 10.11C6.57 8.90 6.89 7.93 7.53 7.18C8.17 6.44 9.01 6.07 10.04 6.07Z" fill="#ffffff"></path></svg>