<svg xmlns="http://www.w3.org/2000/svg" version="1.1" xmlns:xlink="http://www.w3.org/1999/xlink" xmlns:svgjs="http://svgjs.com/svgjs" width="20" height="20"><svg id="SvgjsSvg1002" style="overflow: hidden; top: -100%; left: -100%; position: absolute; opacity: 0;" width="2" height="0" focusable="false"><polyline id="SvgjsPolyline1003" points="0,0"></polyline><path id="SvgjsPath1004" d="M0 0 "></path></svg><defs id="SvgjsDefs3156"></defs><rect id="SvgjsRect3157" width="19" height="19" x="0.5" y="0.5" rx="4" ry="4" fill="#2d333b" stroke-opacity="1" stroke="#444c56" stroke-width="1"></rect><path id="SvgjsPath3158" d="M7.11 14.60C7.24 14.69 7.41 14.77 7.62 14.84C7.83 14.91 8.05 14.97 8.29 15.01C8.53 15.06 8.76 15.10 8.99 15.12C9.22 15.15 9.41 15.16 9.56 15.16C10.03 15.16 10.47 15.11 10.89 15.02C11.31 14.93 11.68 14.78 12.00 14.57C12.32 14.36 12.58 14.08 12.77 13.75C12.95 13.41 13.05 13.01 13.05 12.52C13.05 12.16 12.98 11.83 12.84 11.55C12.70 11.27 12.51 11.01 12.28 10.78C12.04 10.55 11.76 10.33 11.45 10.14C11.13 9.95 10.80 9.77 10.45 9.60C10.11 9.43 9.81 9.27 9.55 9.13C9.28 8.99 9.06 8.84 8.88 8.69C8.70 8.54 8.56 8.38 8.47 8.20C8.37 8.01 8.33 7.80 8.33 7.55C8.33 7.28 8.39 7.05 8.51 6.86C8.63 6.68 8.79 6.52 8.99 6.40C9.18 6.29 9.41 6.20 9.66 6.15C9.91 6.10 10.16 6.07 10.41 6.07C11.32 6.07 12.06 6.27 12.64 6.67L12.64 5.38C12.20 5.15 11.49 5.03 10.53 5.03C10.10 5.03 9.69 5.08 9.28 5.19C8.87 5.29 8.51 5.45 8.19 5.67C7.87 5.88 7.61 6.15 7.42 6.48C7.22 6.81 7.12 7.20 7.12 7.65C7.12 8.01 7.18 8.33 7.31 8.60C7.44 8.87 7.61 9.12 7.83 9.33C8.04 9.54 8.30 9.74 8.60 9.92C8.89 10.10 9.21 10.27 9.56 10.44L10.46 10.91C10.74 11.06 10.98 11.22 11.19 11.38C11.39 11.54 11.56 11.72 11.67 11.91C11.79 12.11 11.85 12.34 11.85 12.60C11.85 13.10 11.67 13.47 11.32 13.74C10.97 14.00 10.45 14.13 9.74 14.13C9.54 14.13 9.31 14.11 9.07 14.07C8.83 14.03 8.59 13.97 8.35 13.89C8.11 13.82 7.88 13.73 7.67 13.62C7.45 13.51 7.26 13.38 7.11 13.25Z" fill="#ffffff"></path></svg>