<svg xmlns="http://www.w3.org/2000/svg" version="1.1" xmlns:xlink="http://www.w3.org/1999/xlink" xmlns:svgjs="http://svgjs.com/svgjs" width="22" height="20"><svg id="SvgjsSvg1002" style="overflow: hidden; top: -100%; left: -100%; position: absolute; opacity: 0;" width="2" height="0" focusable="false"><polyline id="SvgjsPolyline1003" points="0,0"></polyline><path id="SvgjsPath1004" d="M0 0 "></path></svg><defs id="SvgjsDefs3246"></defs><rect id="SvgjsRect3247" width="21" height="19" x="0.5" y="0.5" rx="4" ry="4" fill="#2d333b" stroke-opacity="1" stroke="#444c56" stroke-width="1"></rect><path id="SvgjsPath3248" d="M10.64 5.22C10.64 5.22 16.17 4.40 16.17 4.40C16.17 4.40 16.17 9.40 16.17 9.40C16.17 9.40 10.64 9.40 10.64 9.40C10.64 9.40 10.64 5.22 10.64 5.22ZM5.96 9.44C5.96 9.44 5.96 5.90 5.96 5.90C5.96 5.90 10.29 5.25 10.29 5.25C10.29 5.25 10.29 9.44 10.29 9.44C10.29 9.44 5.96 9.44 5.96 9.44ZM10.64 13.83C10.64 13.83 10.64 9.79 10.64 9.79C10.64 9.79 16.17 9.79 16.17 9.79C16.17 9.79 16.17 14.66 16.17 14.66C16.17 14.66 10.64 13.83 10.64 13.83ZM5.96 13.15C5.96 13.15 5.96 9.79 5.96 9.79C5.96 9.79 10.29 9.79 10.29 9.79C10.29 9.79 10.29 13.79 10.29 13.79C10.29 13.79 5.96 13.15 5.96 13.15Z" fill="#ffffff"></path></svg>