<svg xmlns="http://www.w3.org/2000/svg" version="1.1" xmlns:xlink="http://www.w3.org/1999/xlink" xmlns:svgjs="http://svgjs.com/svgjs" width="20" height="20"><svg id="SvgjsSvg1002" style="overflow: hidden; top: -100%; left: -100%; position: absolute; opacity: 0;" width="2" height="0" focusable="false"><polyline id="SvgjsPolyline1003" points="0,0"></polyline><path id="SvgjsPath1004" d="M0 0 "></path></svg><defs id="SvgjsDefs2655"></defs><rect id="SvgjsRect2656" width="19" height="19" x="0.5" y="0.5" rx="4" ry="4" fill="#ffffff" stroke-opacity="1" stroke="#444c56" stroke-width="1"></rect><path id="SvgjsPath2657" d="M12.79 15.00L12.79 13.99L8.23 13.99L8.23 13.96L10.49 11.72C11.39 10.83 12.01 10.09 12.36 9.49C12.70 8.89 12.88 8.28 12.88 7.65C12.88 6.85 12.63 6.21 12.13 5.74C11.62 5.27 10.94 5.03 10.06 5.03C9.05 5.03 8.15 5.33 7.39 5.93L7.39 7.10C8.19 6.35 9.03 5.98 9.90 5.98C10.50 5.98 10.96 6.14 11.29 6.45C11.61 6.76 11.77 7.19 11.77 7.76C11.77 8.31 11.61 8.83 11.30 9.31C10.99 9.80 10.47 10.41 9.74 11.13L6.88 14.00L6.88 15.00Z" fill="#000000"></path></svg>