<svg xmlns="http://www.w3.org/2000/svg" version="1.1" xmlns:xlink="http://www.w3.org/1999/xlink" xmlns:svgjs="http://svgjs.com/svgjs" width="20" height="20"><svg id="SvgjsSvg1002" style="overflow: hidden; top: -100%; left: -100%; position: absolute; opacity: 0;" width="2" height="0" focusable="false"><polyline id="SvgjsPolyline1003" points="0,0"></polyline><path id="SvgjsPath1004" d="M0 0 "></path></svg><defs id="SvgjsDefs2664"></defs><rect id="SvgjsRect2665" width="19" height="19" x="0.5" y="0.5" rx="4" ry="4" fill="#ffffff" stroke-opacity="1" stroke="#444c56" stroke-width="1"></rect><path id="SvgjsPath2666" d="M7.35 14.76C7.79 15.03 8.47 15.16 9.38 15.16C10.45 15.16 11.30 14.87 11.92 14.29C12.53 13.71 12.84 12.95 12.84 12.00C12.84 11.09 12.56 10.37 11.98 9.84C11.41 9.31 10.60 9.05 9.55 9.05C9.29 9.05 9.02 9.06 8.71 9.08L8.71 6.21L12.40 6.21L12.40 5.19L7.66 5.19L7.66 10.11C8.41 10.05 8.92 10.03 9.19 10.03C10 10.03 10.62 10.21 11.05 10.57C11.49 10.93 11.70 11.43 11.70 12.07C11.70 12.72 11.49 13.24 11.07 13.63C10.64 14.02 10.08 14.22 9.39 14.22C8.70 14.22 8.02 14.00 7.35 13.57Z" fill="#000000"></path></svg>