<svg xmlns="http://www.w3.org/2000/svg" version="1.1" xmlns:xlink="http://www.w3.org/1999/xlink" xmlns:svgjs="http://svgjs.com/svgjs" width="20" height="20"><svg id="SvgjsSvg1002" style="overflow: hidden; top: -100%; left: -100%; position: absolute; opacity: 0;" width="2" height="0" focusable="false"><polyline id="SvgjsPolyline1003" points="0,0"></polyline><path id="SvgjsPath1004" d="M0 0 "></path></svg><defs id="SvgjsDefs2667"></defs><rect id="SvgjsRect2668" width="19" height="19" x="0.5" y="0.5" rx="4" ry="4" fill="#ffffff" stroke-opacity="1" stroke="#444c56" stroke-width="1"></rect><path id="SvgjsPath2669" d="M12.61 5.31C12.21 5.12 11.67 5.03 10.98 5.03C9.78 5.03 8.81 5.54 8.08 6.57C7.35 7.59 6.98 8.97 6.98 10.68C6.98 12.10 7.26 13.20 7.82 13.99C8.38 14.77 9.15 15.16 10.14 15.16C11.03 15.16 11.77 14.86 12.34 14.25C12.92 13.64 13.21 12.85 13.21 11.89C13.21 10.97 12.96 10.24 12.45 9.69C11.95 9.14 11.27 8.87 10.41 8.87C9.37 8.87 8.62 9.33 8.17 10.25L8.14 10.25C8.14 8.95 8.40 7.92 8.92 7.14C9.45 6.37 10.14 5.98 11.01 5.98C11.57 5.98 12.11 6.11 12.61 6.37ZM10.16 9.82C10.77 9.82 11.23 10.01 11.57 10.40C11.90 10.80 12.06 11.34 12.06 12.03C12.06 12.66 11.89 13.19 11.54 13.60C11.20 14.01 10.74 14.22 10.18 14.22C9.59 14.22 9.11 13.98 8.75 13.51C8.39 13.03 8.22 12.46 8.22 11.79C8.22 11.26 8.40 10.80 8.76 10.40C9.12 10.01 9.59 9.82 10.16 9.82Z" fill="#000000"></path></svg>