<svg xmlns="http://www.w3.org/2000/svg" version="1.1" xmlns:xlink="http://www.w3.org/1999/xlink" xmlns:svgjs="http://svgjs.com/svgjs" width="20" height="20"><svg id="SvgjsSvg1002" style="overflow: hidden; top: -100%; left: -100%; position: absolute; opacity: 0;" width="2" height="0" focusable="false"><polyline id="SvgjsPolyline1003" points="0,0"></polyline><path id="SvgjsPath1004" d="M0 0 "></path></svg><defs id="SvgjsDefs2742"></defs><rect id="SvgjsRect2743" width="19" height="19" x="0.5" y="0.5" rx="4" ry="4" fill="#ffffff" stroke-opacity="1" stroke="#444c56" stroke-width="1"></rect><path id="SvgjsPath2744" d="M10.15 12.10L8.26 7.20L7.66 7.20L5.78 12.10L6.42 12.10L6.91 10.72L8.99 10.72L9.51 12.10ZM8.80 10.21L7.10 10.21L7.87 8.12C7.90 8.04 7.92 7.93 7.94 7.79L7.96 7.79C7.98 7.94 8.01 8.05 8.03 8.12ZM11.35 12.10L11.35 6.92L10.79 6.92L10.79 12.10ZM14.11 12.06L14.11 11.59C14.01 11.66 13.89 11.70 13.74 11.70C13.56 11.70 13.43 11.65 13.35 11.55C13.27 11.45 13.23 11.28 13.23 11.05L13.23 9.08L14.11 9.08L14.11 8.60L13.23 8.60L13.23 7.56L12.67 7.74L12.67 8.60L12.07 8.60L12.07 9.08L12.67 9.08L12.67 11.15C12.67 11.83 12.97 12.17 13.59 12.17C13.80 12.17 13.98 12.14 14.11 12.06Z" fill="#000000"></path></svg>