<svg xmlns="http://www.w3.org/2000/svg" version="1.1" xmlns:xlink="http://www.w3.org/1999/xlink" xmlns:svgjs="http://svgjs.com/svgjs" width="26" height="20"><svg id="SvgjsSvg1002" style="overflow: hidden; top: -100%; left: -100%; position: absolute; opacity: 0;" width="2" height="0" focusable="false"><polyline id="SvgjsPolyline1003" points="0,0"></polyline><path id="SvgjsPath1004" d="M0 0 "></path></svg><defs id="SvgjsDefs2727"></defs><rect id="SvgjsRect2728" width="25" height="19" x="0.5" y="0.5" rx="4" ry="4" fill="#ffffff" stroke-opacity="1" stroke="#444c56" stroke-width="1"></rect><path id="SvgjsPath2729" d="M9.49 11.89L9.49 11.34C9.13 11.55 8.70 11.66 8.21 11.66C7.68 11.66 7.25 11.49 6.92 11.13C6.60 10.78 6.43 10.30 6.43 9.71C6.43 9.08 6.61 8.57 6.96 8.20C7.31 7.82 7.76 7.63 8.33 7.63C8.75 7.63 9.14 7.73 9.49 7.93L9.49 7.32C9.18 7.18 8.80 7.12 8.33 7.12C7.61 7.12 7.01 7.36 6.54 7.84C6.07 8.32 5.83 8.96 5.83 9.74C5.83 10.47 6.04 11.06 6.46 11.51C6.88 11.96 7.44 12.18 8.13 12.18C8.67 12.18 9.13 12.08 9.49 11.89ZM12.92 12.10L12.92 9.82C12.92 8.95 12.50 8.52 11.68 8.52C11.23 8.52 10.84 8.63 10.49 8.84L10.49 9.42C10.83 9.13 11.21 8.99 11.63 8.99C12.12 8.99 12.36 9.29 12.36 9.88L11.31 10.03C10.54 10.13 10.15 10.51 10.15 11.17C10.15 11.47 10.25 11.72 10.45 11.90C10.64 12.09 10.92 12.18 11.27 12.18C11.74 12.18 12.10 11.97 12.34 11.55L12.36 11.55L12.36 12.10ZM12.36 10.33L12.36 10.68C12.36 10.98 12.27 11.22 12.08 11.42C11.90 11.61 11.67 11.71 11.40 11.71C11.19 11.71 11.03 11.65 10.91 11.55C10.79 11.44 10.73 11.30 10.73 11.13C10.73 10.89 10.79 10.73 10.92 10.64C11.06 10.54 11.25 10.48 11.51 10.44ZM14.55 11.59C14.79 11.98 15.14 12.18 15.60 12.18C16.09 12.18 16.48 12.00 16.76 11.65C17.05 11.30 17.19 10.83 17.19 10.25C17.19 9.72 17.07 9.30 16.81 8.99C16.56 8.67 16.21 8.52 15.76 8.52C15.23 8.52 14.82 8.75 14.55 9.21L14.53 9.21L14.53 8.60L13.97 8.60L13.97 13.71L14.53 13.71L14.53 11.59ZM14.53 10.18C14.53 9.84 14.63 9.55 14.83 9.33C15.03 9.10 15.29 8.99 15.62 8.99C15.92 8.99 16.17 9.10 16.35 9.32C16.53 9.54 16.62 9.85 16.62 10.24C16.62 10.70 16.52 11.06 16.33 11.32C16.14 11.58 15.87 11.71 15.53 11.71C15.24 11.71 15.00 11.61 14.81 11.41C14.63 11.20 14.53 10.96 14.53 10.67ZM17.88 11.97C18.14 12.11 18.45 12.18 18.81 12.18C18.99 12.18 19.17 12.16 19.34 12.12C19.50 12.08 19.65 12.02 19.78 11.93C19.90 11.85 20.01 11.74 20.08 11.61C20.16 11.49 20.20 11.34 20.20 11.16C20.20 11.02 20.17 10.90 20.13 10.80C20.08 10.69 20.01 10.60 19.93 10.52C19.84 10.45 19.74 10.38 19.61 10.31C19.49 10.25 19.35 10.19 19.20 10.13L18.88 10.00C18.79 9.96 18.72 9.92 18.65 9.87C18.59 9.83 18.54 9.77 18.51 9.71C18.47 9.65 18.46 9.57 18.46 9.48C18.46 9.41 18.47 9.34 18.51 9.28C18.54 9.22 18.59 9.17 18.65 9.12C18.71 9.08 18.78 9.05 18.86 9.02C18.95 9.00 19.04 8.99 19.15 8.99C19.48 8.99 19.78 9.07 20.04 9.24L20.04 8.67C19.80 8.57 19.53 8.52 19.22 8.52C19.05 8.52 18.89 8.54 18.73 8.58C18.56 8.62 18.42 8.69 18.30 8.77C18.17 8.86 18.07 8.97 18.00 9.09C17.92 9.22 17.88 9.36 17.88 9.53C17.88 9.66 17.90 9.78 17.94 9.88C17.98 9.98 18.04 10.07 18.12 10.15C18.20 10.23 18.30 10.30 18.41 10.36C18.53 10.42 18.67 10.49 18.82 10.55L19.14 10.67C19.23 10.71 19.32 10.76 19.39 10.81C19.46 10.86 19.52 10.91 19.56 10.98C19.60 11.04 19.62 11.12 19.62 11.22C19.62 11.54 19.38 11.71 18.88 11.71C18.52 11.71 18.18 11.60 17.88 11.37Z" fill="#000000"></path></svg>