<svg xmlns="http://www.w3.org/2000/svg" version="1.1" xmlns:xlink="http://www.w3.org/1999/xlink" xmlns:svgjs="http://svgjs.com/svgjs" width="20" height="20"><svg id="SvgjsSvg1002" style="overflow: hidden; top: -100%; left: -100%; position: absolute; opacity: 0;" width="2" height="0" focusable="false"><polyline id="SvgjsPolyline1003" points="0,0"></polyline><path id="SvgjsPath1004" d="M0 0 "></path></svg><defs id="SvgjsDefs2580"></defs><rect id="SvgjsRect2581" width="19" height="19" x="0.5" y="0.5" rx="4" ry="4" fill="#ffffff" stroke-opacity="1" stroke="#444c56" stroke-width="1"></rect><path id="SvgjsPath2582" d="M6.38 15.00L8.97 15.00C10.58 15.00 11.87 14.54 12.83 13.62C13.79 12.70 14.27 11.49 14.27 9.97C14.27 6.79 12.54 5.19 9.08 5.19L6.38 5.19ZM7.53 6.23L9.06 6.23C11.73 6.23 13.06 7.49 13.06 10.00C13.06 11.26 12.70 12.24 11.99 12.93C11.27 13.61 10.27 13.96 8.99 13.96L7.53 13.96Z" fill="#000000"></path></svg>