<svg xmlns="http://www.w3.org/2000/svg" version="1.1" xmlns:xlink="http://www.w3.org/1999/xlink" xmlns:svgjs="http://svgjs.com/svgjs" width="20" height="20"><svg id="SvgjsSvg1002" style="overflow: hidden; top: -100%; left: -100%; position: absolute; opacity: 0;" width="2" height="0" focusable="false"><polyline id="SvgjsPolyline1003" points="0,0"></polyline><path id="SvgjsPath1004" d="M0 0 "></path></svg><defs id="SvgjsDefs2718"></defs><rect id="SvgjsRect2719" width="19" height="19" x="0.5" y="0.5" rx="4" ry="4" fill="#ffffff" stroke-opacity="1" stroke="#444c56" stroke-width="1"></rect><path id="SvgjsPath2720" d="M8.37 12.10L8.37 11.58L6.34 11.58L6.34 9.86L8.11 9.86L8.11 9.35L6.34 9.35L6.34 7.72L8.26 7.72L8.26 7.20L5.77 7.20L5.77 12.10ZM9.02 11.97C9.29 12.11 9.60 12.18 9.96 12.18C10.14 12.18 10.32 12.16 10.48 12.12C10.65 12.08 10.80 12.02 10.92 11.93C11.05 11.85 11.15 11.74 11.23 11.61C11.31 11.49 11.34 11.34 11.34 11.16C11.34 11.02 11.32 10.90 11.27 10.80C11.23 10.69 11.16 10.60 11.07 10.52C10.99 10.45 10.88 10.38 10.76 10.31C10.64 10.25 10.50 10.19 10.34 10.13L10.03 10.00C9.94 9.96 9.86 9.92 9.80 9.87C9.74 9.83 9.69 9.77 9.65 9.71C9.62 9.65 9.61 9.57 9.61 9.48C9.61 9.41 9.62 9.34 9.65 9.28C9.69 9.22 9.73 9.17 9.79 9.12C9.86 9.08 9.93 9.05 10.01 9.02C10.10 9.00 10.19 8.99 10.30 8.99C10.63 8.99 10.93 9.07 11.18 9.24L11.18 8.67C10.95 8.57 10.67 8.52 10.37 8.52C10.20 8.52 10.03 8.54 9.87 8.58C9.71 8.62 9.57 8.69 9.44 8.77C9.32 8.86 9.22 8.97 9.14 9.09C9.07 9.22 9.03 9.36 9.03 9.53C9.03 9.66 9.05 9.78 9.09 9.88C9.13 9.98 9.19 10.07 9.27 10.15C9.35 10.23 9.45 10.30 9.56 10.36C9.68 10.42 9.82 10.49 9.97 10.55L10.28 10.67C10.38 10.71 10.46 10.76 10.54 10.81C10.61 10.86 10.67 10.91 10.71 10.98C10.75 11.04 10.77 11.12 10.77 11.22C10.77 11.54 10.52 11.71 10.03 11.71C9.67 11.71 9.33 11.60 9.02 11.37ZM14.59 11.94L14.59 11.40C14.32 11.61 14.04 11.71 13.73 11.71C13.37 11.71 13.08 11.59 12.86 11.35C12.65 11.12 12.54 10.79 12.54 10.38C12.54 9.97 12.66 9.63 12.88 9.37C13.11 9.12 13.41 8.99 13.76 8.99C14.06 8.99 14.34 9.08 14.60 9.26L14.60 8.69C14.36 8.57 14.09 8.52 13.79 8.52C13.23 8.52 12.79 8.69 12.46 9.04C12.13 9.39 11.97 9.85 11.97 10.43C11.97 10.95 12.12 11.37 12.43 11.69C12.73 12.02 13.14 12.18 13.64 12.18C14.00 12.18 14.32 12.10 14.59 11.94Z" fill="#000000"></path></svg>