<svg xmlns="http://www.w3.org/2000/svg" version="1.1" xmlns:xlink="http://www.w3.org/1999/xlink" xmlns:svgjs="http://svgjs.com/svgjs" width="26" height="20"><svg id="SvgjsSvg1002" style="overflow: hidden; top: -100%; left: -100%; position: absolute; opacity: 0;" width="2" height="0" focusable="false"><polyline id="SvgjsPolyline1003" points="0,0"></polyline><path id="SvgjsPath1004" d="M0 0 "></path></svg><defs id="SvgjsDefs2706"></defs><rect id="SvgjsRect2707" width="25" height="19" x="0.5" y="0.5" rx="4" ry="4" fill="#ffffff" stroke-opacity="1" stroke="#444c56" stroke-width="1"></rect><path id="SvgjsPath2708" d="M10.18 7.42L10.18 6.80L7.19 6.80L7.19 12.68L7.88 12.68L7.88 10.07L10.01 10.07L10.01 9.45L7.88 9.45L7.88 7.42ZM14.57 12.68L14.57 12.09L13.25 12.09L13.25 6.67L11.21 7.28L11.21 7.92L12.57 7.52L12.57 12.09L11.24 12.09L11.24 12.68ZM17.26 12.78C17.88 12.78 18.37 12.51 18.71 11.99C19.06 11.47 19.23 10.71 19.23 9.71C19.23 7.70 18.62 6.70 17.39 6.70C16.75 6.70 16.25 6.96 15.91 7.50C15.57 8.03 15.40 8.82 15.40 9.86C15.40 10.80 15.57 11.53 15.89 12.03C16.22 12.53 16.68 12.78 17.26 12.78ZM17.35 7.27C18.15 7.27 18.55 8.11 18.55 9.78C18.55 11.40 18.14 12.21 17.33 12.21C16.50 12.21 16.09 11.41 16.09 9.82C16.09 8.12 16.51 7.27 17.35 7.27Z" fill="#000000"></path></svg>