<svg xmlns="http://www.w3.org/2000/svg" version="1.1" xmlns:xlink="http://www.w3.org/1999/xlink" xmlns:svgjs="http://svgjs.com/svgjs" width="26" height="20"><svg id="SvgjsSvg1002" style="overflow: hidden; top: -100%; left: -100%; position: absolute; opacity: 0;" width="2" height="0" focusable="false"><polyline id="SvgjsPolyline1003" points="0,0"></polyline><path id="SvgjsPath1004" d="M0 0 "></path></svg><defs id="SvgjsDefs2712"></defs><rect id="SvgjsRect2713" width="25" height="19" x="0.5" y="0.5" rx="4" ry="4" fill="#ffffff" stroke-opacity="1" stroke="#444c56" stroke-width="1"></rect><path id="SvgjsPath2714" d="M10.18 7.42L10.18 6.80L7.19 6.80L7.19 12.68L7.88 12.68L7.88 10.07L10.01 10.07L10.01 9.45L7.88 9.45L7.88 7.42ZM14.57 12.68L14.57 12.09L13.25 12.09L13.25 6.67L11.21 7.28L11.21 7.92L12.57 7.52L12.57 12.09L11.24 12.09L11.24 12.68ZM18.99 12.68L18.99 12.07L16.25 12.07L16.25 12.05L17.61 10.71C18.15 10.18 18.52 9.73 18.73 9.37C18.94 9.01 19.04 8.65 19.04 8.27C19.04 7.79 18.89 7.41 18.59 7.12C18.29 6.84 17.88 6.70 17.35 6.70C16.74 6.70 16.21 6.88 15.75 7.24L15.75 7.94C16.23 7.49 16.73 7.27 17.26 7.27C17.62 7.27 17.89 7.36 18.09 7.55C18.28 7.73 18.38 8.00 18.38 8.33C18.38 8.67 18.28 8.98 18.10 9.27C17.91 9.56 17.60 9.92 17.16 10.36L15.44 12.08L15.44 12.68Z" fill="#000000"></path></svg>