<svg xmlns="http://www.w3.org/2000/svg" version="1.1" xmlns:xlink="http://www.w3.org/1999/xlink" xmlns:svgjs="http://svgjs.com/svgjs" width="26" height="20"><svg id="SvgjsSvg1002" style="overflow: hidden; top: -100%; left: -100%; position: absolute; opacity: 0;" width="2" height="0" focusable="false"><polyline id="SvgjsPolyline1003" points="0,0"></polyline><path id="SvgjsPath1004" d="M0 0 "></path></svg><defs id="SvgjsDefs2682"></defs><rect id="SvgjsRect2683" width="25" height="19" x="0.5" y="0.5" rx="4" ry="4" fill="#ffffff" stroke-opacity="1" stroke="#444c56" stroke-width="1"></rect><path id="SvgjsPath2684" d="M12.44 7.42L12.44 6.80L9.46 6.80L9.46 12.68L10.15 12.68L10.15 10.07L12.27 10.07L12.27 9.45L10.15 9.45L10.15 7.42ZM16.72 12.68L16.72 12.07L13.99 12.07L13.99 12.05L15.35 10.71C15.88 10.18 16.26 9.73 16.47 9.37C16.67 9.01 16.78 8.65 16.78 8.27C16.78 7.79 16.63 7.41 16.33 7.12C16.03 6.84 15.61 6.70 15.09 6.70C14.48 6.70 13.94 6.88 13.48 7.24L13.48 7.94C13.97 7.49 14.47 7.27 14.99 7.27C15.35 7.27 15.63 7.36 15.82 7.55C16.02 7.73 16.11 8.00 16.11 8.33C16.11 8.67 16.02 8.98 15.83 9.27C15.64 9.56 15.33 9.92 14.89 10.36L13.18 12.08L13.18 12.68Z" fill="#000000"></path></svg>