<svg xmlns="http://www.w3.org/2000/svg" version="1.1" xmlns:xlink="http://www.w3.org/1999/xlink" xmlns:svgjs="http://svgjs.com/svgjs" width="26" height="20"><svg id="SvgjsSvg1002" style="overflow: hidden; top: -100%; left: -100%; position: absolute; opacity: 0;" width="2" height="0" focusable="false"><polyline id="SvgjsPolyline1003" points="0,0"></polyline><path id="SvgjsPath1004" d="M0 0 "></path></svg><defs id="SvgjsDefs2685"></defs><rect id="SvgjsRect2686" width="25" height="19" x="0.5" y="0.5" rx="4" ry="4" fill="#ffffff" stroke-opacity="1" stroke="#444c56" stroke-width="1"></rect><path id="SvgjsPath2687" d="M12.44 7.42L12.44 6.80L9.46 6.80L9.46 12.68L10.15 12.68L10.15 10.07L12.27 10.07L12.27 9.45L10.15 9.45L10.15 7.42ZM13.32 12.46C13.65 12.67 14.10 12.78 14.66 12.78C15.28 12.78 15.78 12.61 16.16 12.29C16.53 11.97 16.72 11.54 16.72 11.01C16.72 10.63 16.60 10.31 16.35 10.06C16.10 9.80 15.76 9.65 15.34 9.61L15.34 9.59C16.13 9.37 16.52 8.87 16.52 8.10C16.52 7.69 16.37 7.35 16.07 7.09C15.78 6.83 15.38 6.70 14.89 6.70C14.37 6.70 13.93 6.81 13.55 7.03L13.55 7.69C13.92 7.41 14.31 7.27 14.72 7.27C15.46 7.27 15.83 7.60 15.83 8.27C15.83 8.99 15.34 9.35 14.37 9.35L13.91 9.35L13.91 9.92L14.40 9.92C15.49 9.92 16.04 10.31 16.04 11.07C16.04 11.42 15.91 11.70 15.67 11.90C15.42 12.11 15.10 12.21 14.69 12.21C14.18 12.21 13.73 12.05 13.32 11.73Z" fill="#000000"></path></svg>