<svg xmlns="http://www.w3.org/2000/svg" version="1.1" xmlns:xlink="http://www.w3.org/1999/xlink" xmlns:svgjs="http://svgjs.com/svgjs" width="26" height="20"><svg id="SvgjsSvg1002" style="overflow: hidden; top: -100%; left: -100%; position: absolute; opacity: 0;" width="2" height="0" focusable="false"><polyline id="SvgjsPolyline1003" points="0,0"></polyline><path id="SvgjsPath1004" d="M0 0 "></path></svg><defs id="SvgjsDefs2694"></defs><rect id="SvgjsRect2695" width="25" height="19" x="0.5" y="0.5" rx="4" ry="4" fill="#ffffff" stroke-opacity="1" stroke="#444c56" stroke-width="1"></rect><path id="SvgjsPath2696" d="M12.44 7.42L12.44 6.80L9.46 6.80L9.46 12.68L10.15 12.68L10.15 10.07L12.27 10.07L12.27 9.45L10.15 9.45L10.15 7.42ZM16.62 6.87C16.38 6.75 16.05 6.70 15.64 6.70C14.92 6.70 14.34 7.01 13.90 7.62C13.46 8.24 13.24 9.06 13.24 10.09C13.24 10.94 13.41 11.60 13.74 12.07C14.08 12.54 14.54 12.78 15.13 12.78C15.67 12.78 16.11 12.59 16.46 12.23C16.80 11.86 16.98 11.39 16.98 10.82C16.98 10.26 16.83 9.82 16.52 9.49C16.22 9.16 15.81 9.00 15.30 9.00C14.67 9.00 14.22 9.28 13.95 9.83L13.94 9.83C13.94 9.05 14.09 8.43 14.40 7.97C14.72 7.50 15.14 7.27 15.66 7.27C15.99 7.27 16.31 7.35 16.62 7.50ZM15.15 9.57C15.51 9.57 15.79 9.69 15.99 9.92C16.19 10.16 16.29 10.48 16.29 10.90C16.29 11.28 16.19 11.59 15.98 11.84C15.77 12.09 15.50 12.21 15.16 12.21C14.80 12.21 14.52 12.07 14.30 11.78C14.09 11.50 13.98 11.16 13.98 10.75C13.98 10.43 14.09 10.16 14.30 9.92C14.52 9.69 14.80 9.57 15.15 9.57Z" fill="#000000"></path></svg>