<svg xmlns="http://www.w3.org/2000/svg" version="1.1" xmlns:xlink="http://www.w3.org/1999/xlink" xmlns:svgjs="http://svgjs.com/svgjs" width="26" height="20"><svg id="SvgjsSvg1002" style="overflow: hidden; top: -100%; left: -100%; position: absolute; opacity: 0;" width="2" height="0" focusable="false"><polyline id="SvgjsPolyline1003" points="0,0"></polyline><path id="SvgjsPath1004" d="M0 0 "></path></svg><defs id="SvgjsDefs2700"></defs><rect id="SvgjsRect2701" width="25" height="19" x="0.5" y="0.5" rx="4" ry="4" fill="#ffffff" stroke-opacity="1" stroke="#444c56" stroke-width="1"></rect><path id="SvgjsPath2702" d="M12.44 7.42L12.44 6.80L9.46 6.80L9.46 12.68L10.15 12.68L10.15 10.07L12.27 10.07L12.27 9.45L10.15 9.45L10.15 7.42ZM14.47 9.59C13.62 9.94 13.20 10.49 13.20 11.24C13.20 11.70 13.36 12.07 13.68 12.35C14.01 12.63 14.42 12.78 14.93 12.78C15.55 12.78 16.04 12.63 16.39 12.35C16.74 12.06 16.91 11.67 16.91 11.19C16.91 10.43 16.48 9.90 15.63 9.59L15.63 9.58C16.35 9.22 16.72 8.71 16.72 8.06C16.72 7.66 16.57 7.33 16.27 7.08C15.98 6.83 15.60 6.70 15.14 6.70C14.63 6.70 14.22 6.83 13.89 7.11C13.57 7.38 13.41 7.73 13.41 8.15C13.41 8.77 13.76 9.25 14.47 9.58ZM16.03 8.14C16.03 8.64 15.70 9.02 15.05 9.29C14.42 9.03 14.10 8.64 14.10 8.13C14.10 7.88 14.19 7.67 14.38 7.51C14.57 7.35 14.81 7.27 15.08 7.27C15.37 7.27 15.60 7.35 15.77 7.50C15.94 7.66 16.03 7.87 16.03 8.14ZM15.01 9.91C15.82 10.20 16.22 10.64 16.22 11.23C16.22 11.52 16.12 11.75 15.90 11.93C15.69 12.12 15.41 12.21 15.07 12.21C14.72 12.21 14.43 12.12 14.21 11.93C13.99 11.74 13.89 11.50 13.89 11.21C13.89 10.64 14.26 10.21 15.01 9.91Z" fill="#000000"></path></svg>