<svg xmlns="http://www.w3.org/2000/svg" version="1.1" xmlns:xlink="http://www.w3.org/1999/xlink" xmlns:svgjs="http://svgjs.com/svgjs" width="26" height="20"><svg id="SvgjsSvg1002" style="overflow: hidden; top: -100%; left: -100%; position: absolute; opacity: 0;" width="2" height="0" focusable="false"><polyline id="SvgjsPolyline1003" points="0,0"></polyline><path id="SvgjsPath1004" d="M0 0 "></path></svg><defs id="SvgjsDefs2703"></defs><rect id="SvgjsRect2704" width="25" height="19" x="0.5" y="0.5" rx="4" ry="4" fill="#ffffff" stroke-opacity="1" stroke="#444c56" stroke-width="1"></rect><path id="SvgjsPath2705" d="M12.44 7.42L12.44 6.80L9.46 6.80L9.46 12.68L10.15 12.68L10.15 10.07L12.27 10.07L12.27 9.45L10.15 9.45L10.15 7.42ZM13.49 12.58C13.78 12.71 14.12 12.78 14.52 12.78C15.27 12.78 15.85 12.48 16.27 11.89C16.69 11.31 16.90 10.47 16.90 9.38C16.90 8.51 16.74 7.84 16.42 7.39C16.09 6.93 15.64 6.70 15.06 6.70C14.51 6.70 14.06 6.88 13.70 7.25C13.35 7.62 13.17 8.09 13.17 8.66C13.17 9.20 13.33 9.64 13.66 9.98C13.98 10.33 14.39 10.50 14.89 10.50C15.52 10.50 15.96 10.24 16.21 9.74C16.21 9.74 16.22 9.74 16.22 9.74C16.22 10.53 16.08 11.14 15.78 11.57C15.48 12.00 15.07 12.21 14.53 12.21C14.17 12.21 13.82 12.12 13.49 11.93ZM15.00 7.27C15.35 7.27 15.64 7.41 15.85 7.69C16.07 7.97 16.18 8.34 16.18 8.78C16.18 9.09 16.07 9.36 15.85 9.57C15.63 9.79 15.36 9.90 15.05 9.90C14.68 9.90 14.39 9.78 14.18 9.54C13.97 9.31 13.86 8.98 13.86 8.57C13.86 8.19 13.97 7.88 14.19 7.64C14.40 7.39 14.68 7.27 15.00 7.27Z" fill="#000000"></path></svg>