<svg xmlns="http://www.w3.org/2000/svg" version="1.1" xmlns:xlink="http://www.w3.org/1999/xlink" xmlns:svgjs="http://svgjs.com/svgjs" width="20" height="20"><svg id="SvgjsSvg1002" style="overflow: hidden; top: -100%; left: -100%; position: absolute; opacity: 0;" width="2" height="0" focusable="false"><polyline id="SvgjsPolyline1003" points="0,0"></polyline><path id="SvgjsPath1004" d="M0 0 "></path></svg><defs id="SvgjsDefs2589"></defs><rect id="SvgjsRect2590" width="19" height="19" x="0.5" y="0.5" rx="4" ry="4" fill="#ffffff" stroke-opacity="1" stroke="#444c56" stroke-width="1"></rect><path id="SvgjsPath2591" d="M13.81 14.33L13.81 9.88L10.52 9.88L10.52 10.92L12.66 10.92L12.66 13.67C12.10 13.98 11.44 14.13 10.67 14.13C9.56 14.13 8.67 13.77 8.02 13.07C7.37 12.36 7.04 11.38 7.04 10.14C7.04 8.94 7.39 7.96 8.10 7.20C8.80 6.45 9.70 6.07 10.80 6.07C11.88 6.07 12.82 6.32 13.61 6.82L13.61 5.55C12.89 5.20 11.99 5.03 10.93 5.03C9.45 5.03 8.24 5.52 7.28 6.49C6.32 7.46 5.84 8.71 5.84 10.23C5.84 11.71 6.27 12.91 7.14 13.81C8.00 14.71 9.13 15.16 10.53 15.16C11.73 15.16 12.83 14.88 13.81 14.33Z" fill="#000000"></path></svg>