<svg xmlns="http://www.w3.org/2000/svg" version="1.1" xmlns:xlink="http://www.w3.org/1999/xlink" xmlns:svgjs="http://svgjs.com/svgjs" width="20" height="20"><svg id="SvgjsSvg1002" style="overflow: hidden; top: -100%; left: -100%; position: absolute; opacity: 0;" width="2" height="0" focusable="false"><polyline id="SvgjsPolyline1003" points="0,0"></polyline><path id="SvgjsPath1004" d="M0 0 "></path></svg><defs id="SvgjsDefs2622"></defs><rect id="SvgjsRect2623" width="19" height="19" x="0.5" y="0.5" rx="4" ry="4" fill="#ffffff" stroke-opacity="1" stroke="#444c56" stroke-width="1"></rect><path id="SvgjsPath2624" d="M14.13 15.00L12.29 12.05L11.93 11.49C11.82 11.32 11.71 11.18 11.60 11.05C11.49 10.92 11.38 10.81 11.26 10.72C11.14 10.63 10.99 10.54 10.83 10.47L10.83 10.44C11.16 10.36 11.46 10.24 11.73 10.08C12.00 9.92 12.22 9.73 12.41 9.51C12.60 9.28 12.75 9.03 12.85 8.75C12.95 8.46 13.00 8.15 13.00 7.81C13.00 7.37 12.93 6.99 12.78 6.66C12.63 6.33 12.42 6.06 12.15 5.84C11.89 5.62 11.57 5.46 11.21 5.35C10.85 5.25 10.45 5.19 10.02 5.19L7.10 5.19L7.10 15.00L8.25 15.00L8.25 10.83L9.19 10.83C9.40 10.83 9.60 10.85 9.77 10.91C9.94 10.96 10.10 11.04 10.25 11.16C10.39 11.27 10.54 11.42 10.68 11.60C10.82 11.78 10.97 11.99 11.12 12.25L12.76 15.00ZM8.25 6.23L9.82 6.23C10.46 6.23 10.95 6.38 11.29 6.67C11.63 6.97 11.80 7.38 11.80 7.90C11.80 8.19 11.75 8.46 11.65 8.69C11.55 8.93 11.41 9.12 11.23 9.29C11.06 9.45 10.85 9.57 10.60 9.66C10.36 9.74 10.09 9.79 9.81 9.79L8.25 9.79Z" fill="#000000"></path></svg>