<svg xmlns="http://www.w3.org/2000/svg" version="1.1" xmlns:xlink="http://www.w3.org/1999/xlink" xmlns:svgjs="http://svgjs.com/svgjs" width="28" height="20"><svg id="SvgjsSvg1002" style="overflow: hidden; top: -100%; left: -100%; position: absolute; opacity: 0;" width="2" height="0" focusable="false"><polyline id="SvgjsPolyline1003" points="0,0"></polyline><path id="SvgjsPath1004" d="M0 0 "></path></svg><defs id="SvgjsDefs2730"></defs><rect id="SvgjsRect2731" width="27" height="19" x="0.5" y="0.5" rx="4" ry="4" fill="#ffffff" stroke-opacity="1" stroke="#444c56" stroke-width="1"></rect><path id="SvgjsPath2732" d="M7.38 11.90C7.44 11.94 7.53 11.98 7.64 12.02C7.74 12.05 7.85 12.08 7.97 12.11C8.09 12.13 8.21 12.15 8.32 12.16C8.43 12.17 8.53 12.18 8.61 12.18C8.84 12.18 9.06 12.16 9.27 12.11C9.48 12.06 9.67 11.99 9.83 11.88C9.99 11.78 10.11 11.64 10.21 11.47C10.30 11.31 10.35 11.10 10.35 10.86C10.35 10.68 10.32 10.52 10.25 10.38C10.18 10.23 10.08 10.11 9.97 9.99C9.85 9.87 9.71 9.77 9.55 9.67C9.39 9.58 9.23 9.48 9.05 9.40C8.88 9.31 8.73 9.24 8.60 9.17C8.47 9.10 8.36 9.02 8.27 8.95C8.18 8.87 8.11 8.79 8.06 8.70C8.01 8.61 7.99 8.50 7.99 8.37C7.99 8.24 8.02 8.12 8.08 8.03C8.14 7.94 8.22 7.86 8.32 7.80C8.42 7.74 8.53 7.70 8.66 7.67C8.78 7.65 8.91 7.63 9.03 7.63C9.49 7.63 9.86 7.73 10.15 7.94L10.15 7.29C9.93 7.17 9.57 7.12 9.09 7.12C8.88 7.12 8.67 7.14 8.47 7.19C8.26 7.25 8.08 7.33 7.92 7.43C7.76 7.54 7.63 7.68 7.53 7.84C7.44 8.01 7.39 8.20 7.39 8.42C7.39 8.61 7.42 8.77 7.48 8.90C7.54 9.04 7.63 9.16 7.74 9.26C7.85 9.37 7.98 9.47 8.13 9.56C8.27 9.65 8.43 9.74 8.60 9.82L9.06 10.06C9.20 10.13 9.32 10.21 9.42 10.29C9.52 10.37 9.60 10.46 9.66 10.56C9.72 10.65 9.75 10.77 9.75 10.90C9.75 11.15 9.66 11.34 9.49 11.47C9.31 11.60 9.05 11.66 8.70 11.66C8.59 11.66 8.48 11.65 8.36 11.63C8.24 11.61 8.12 11.58 8.00 11.55C7.88 11.51 7.77 11.46 7.66 11.41C7.55 11.35 7.46 11.29 7.38 11.22ZM14.16 12.10L14.16 9.94C14.16 8.99 13.76 8.52 12.98 8.52C12.48 8.52 12.10 8.74 11.83 9.18L11.81 9.18L11.81 6.92L11.25 6.92L11.25 12.10L11.81 12.10L11.81 10.12C11.81 9.79 11.91 9.52 12.09 9.30C12.28 9.09 12.51 8.99 12.78 8.99C13.33 8.99 13.60 9.35 13.60 10.08L13.60 12.10ZM15.50 7.71C15.60 7.71 15.69 7.67 15.76 7.60C15.84 7.53 15.87 7.45 15.87 7.35C15.87 7.24 15.84 7.16 15.76 7.09C15.69 7.02 15.60 6.98 15.50 6.98C15.40 6.98 15.32 7.02 15.25 7.09C15.18 7.16 15.14 7.24 15.14 7.35C15.14 7.45 15.18 7.54 15.25 7.61C15.32 7.68 15.40 7.71 15.50 7.71ZM15.78 12.10L15.78 8.60L15.22 8.60L15.22 12.10ZM18.64 7.41L18.64 6.90C18.54 6.86 18.40 6.84 18.23 6.84C17.92 6.84 17.65 6.95 17.44 7.16C17.23 7.37 17.12 7.66 17.12 8.03L17.12 8.60L16.52 8.60L16.52 9.08L17.12 9.08L17.12 12.10L17.68 12.10L17.68 9.08L18.50 9.08L18.50 8.60L17.68 8.60L17.68 8.06C17.68 7.56 17.88 7.32 18.27 7.32C18.41 7.32 18.53 7.35 18.64 7.41ZM20.85 12.06L20.85 11.59C20.75 11.66 20.63 11.70 20.49 11.70C20.30 11.70 20.17 11.65 20.09 11.55C20.01 11.45 19.97 11.28 19.97 11.05L19.97 9.08L20.85 9.08L20.85 8.60L19.97 8.60L19.97 7.56L19.41 7.74L19.41 8.60L18.81 8.60L18.81 9.08L19.41 9.08L19.41 11.15C19.41 11.83 19.72 12.17 20.33 12.17C20.54 12.17 20.72 12.14 20.85 12.06Z" fill="#000000"></path></svg>