<svg xmlns="http://www.w3.org/2000/svg" version="1.1" xmlns:xlink="http://www.w3.org/1999/xlink" xmlns:svgjs="http://svgjs.com/svgjs" width="20" height="20"><svg id="SvgjsSvg1002" style="overflow: hidden; top: -100%; left: -100%; position: absolute; opacity: 0;" width="2" height="0" focusable="false"><polyline id="SvgjsPolyline1003" points="0,0"></polyline><path id="SvgjsPath1004" d="M0 0 "></path></svg><defs id="SvgjsDefs2721"></defs><rect id="SvgjsRect2722" width="19" height="19" x="0.5" y="0.5" rx="4" ry="4" fill="#ffffff" stroke-opacity="1" stroke="#444c56" stroke-width="1"></rect><path id="SvgjsPath2723" d="M8.24 7.72L8.24 7.20L4.84 7.20L4.84 7.72L6.25 7.72L6.25 12.10L6.82 12.10L6.82 7.72ZM10.70 12.10L10.70 9.82C10.70 8.95 10.29 8.52 9.46 8.52C9.01 8.52 8.62 8.63 8.27 8.84L8.27 9.42C8.61 9.13 8.99 8.99 9.42 8.99C9.90 8.99 10.14 9.29 10.14 9.88L9.09 10.03C8.32 10.13 7.93 10.51 7.93 11.17C7.93 11.47 8.03 11.72 8.23 11.90C8.42 12.09 8.70 12.18 9.05 12.18C9.52 12.18 9.88 11.97 10.12 11.55L10.14 11.55L10.14 12.10ZM10.14 10.33L10.14 10.68C10.14 10.98 10.05 11.22 9.86 11.42C9.68 11.61 9.45 11.71 9.18 11.71C8.97 11.71 8.81 11.65 8.69 11.55C8.57 11.44 8.51 11.30 8.51 11.13C8.51 10.89 8.57 10.73 8.70 10.64C8.84 10.54 9.03 10.48 9.29 10.44ZM12.33 11.59C12.56 11.98 12.91 12.18 13.38 12.18C13.87 12.18 14.26 12.00 14.55 11.65C14.83 11.30 14.97 10.83 14.97 10.25C14.97 9.72 14.85 9.30 14.59 8.99C14.34 8.67 13.99 8.52 13.54 8.52C13.01 8.52 12.60 8.75 12.33 9.21L12.31 9.21L12.31 6.92L11.75 6.92L11.75 12.10L12.31 12.10L12.31 11.59ZM12.31 10.18C12.31 9.84 12.41 9.55 12.61 9.33C12.81 9.10 13.07 8.99 13.40 8.99C13.71 8.99 13.95 9.10 14.13 9.32C14.31 9.54 14.40 9.85 14.40 10.24C14.40 10.70 14.30 11.06 14.11 11.32C13.92 11.58 13.65 11.71 13.31 11.71C13.02 11.71 12.78 11.61 12.60 11.41C12.41 11.20 12.31 10.96 12.31 10.67Z" fill="#000000"></path></svg>