<svg xmlns="http://www.w3.org/2000/svg" version="1.1" xmlns:xlink="http://www.w3.org/1999/xlink" xmlns:svgjs="http://svgjs.com/svgjs" width="20" height="20"><svg id="SvgjsSvg1002" style="overflow: hidden; top: -100%; left: -100%; position: absolute; opacity: 0;" width="2" height="0" focusable="false"><polyline id="SvgjsPolyline1003" points="0,0"></polyline><path id="SvgjsPath1004" d="M0 0 "></path></svg><defs id="SvgjsDefs2637"></defs><rect id="SvgjsRect2638" width="19" height="19" x="0.5" y="0.5" rx="4" ry="4" fill="#ffffff" stroke-opacity="1" stroke="#444c56" stroke-width="1"></rect><path id="SvgjsPath2639" d="M16.37 5.19L15.12 5.19L13.12 12.74C13.02 13.13 12.95 13.45 12.94 13.68L12.91 13.68C12.87 13.33 12.82 13.03 12.74 12.77L10.67 5.19L9.57 5.19L7.40 12.71C7.28 13.13 7.21 13.46 7.19 13.70L7.15 13.70C7.13 13.36 7.08 13.03 6.99 12.71L4.90 5.19L3.64 5.19L6.51 15.00L7.84 15.00L9.87 7.82C9.96 7.50 10.02 7.17 10.05 6.83L10.08 6.83C10.10 7.19 10.15 7.53 10.24 7.83L12.25 15.00L13.60 15.00Z" fill="#000000"></path></svg>