<svg xmlns="http://www.w3.org/2000/svg" version="1.1" xmlns:xlink="http://www.w3.org/1999/xlink" xmlns:svgjs="http://svgjs.com/svgjs" width="22" height="20"><svg id="SvgjsSvg1002" style="overflow: hidden; top: -100%; left: -100%; position: absolute; opacity: 0;" width="2" height="0" focusable="false"><polyline id="SvgjsPolyline1003" points="0,0"></polyline><path id="SvgjsPath1004" d="M0 0 "></path></svg><defs id="SvgjsDefs2715"></defs><rect id="SvgjsRect2716" width="21" height="19" x="0.5" y="0.5" rx="4" ry="4" fill="#ffffff" stroke-opacity="1" stroke="#444c56" stroke-width="1"></rect><path id="SvgjsPath2717" d="M7.91 5.22C7.91 5.22 13.44 4.40 13.44 4.40C13.44 4.40 13.44 9.40 13.44 9.40C13.44 9.40 7.91 9.40 7.91 9.40C7.91 9.40 7.91 5.22 7.91 5.22ZM3.24 9.44C3.24 9.44 3.24 5.90 3.24 5.90C3.24 5.90 7.56 5.25 7.56 5.25C7.56 5.25 7.56 9.44 7.56 9.44C7.56 9.44 3.24 9.44 3.24 9.44ZM7.91 13.83C7.91 13.83 7.91 9.79 7.91 9.79C7.91 9.79 13.44 9.79 13.44 9.79C13.44 9.79 13.44 14.66 13.44 14.66C13.44 14.66 7.91 13.83 7.91 13.83ZM3.24 13.15C3.24 13.15 3.24 9.79 3.24 9.79C3.24 9.79 7.56 9.79 7.56 9.79C7.56 9.79 7.56 13.79 7.56 13.79C7.56 13.79 3.24 13.15 3.24 13.15Z" fill="#000000"></path></svg>