<svg xmlns="http://www.w3.org/2000/svg" version="1.1" xmlns:xlink="http://www.w3.org/1999/xlink" xmlns:svgjs="http://svgjs.com/svgjs" width="20" height="20"><svg id="SvgjsSvg1002" style="overflow: hidden; top: -100%; left: -100%; position: absolute; opacity: 0;" width="2" height="0" focusable="false"><polyline id="SvgjsPolyline1003" points="0,0"></polyline><path id="SvgjsPath1004" d="M0 0 "></path></svg><defs id="SvgjsDefs2640"></defs><rect id="SvgjsRect2641" width="19" height="19" x="0.5" y="0.5" rx="4" ry="4" fill="#ffffff" stroke-opacity="1" stroke="#444c56" stroke-width="1"></rect><path id="SvgjsPath2642" d="M13.92 15.00L10.80 10.05L13.88 5.19L12.56 5.19L10.48 8.61C10.37 8.79 10.24 9.02 10.10 9.32L10.07 9.32C9.97 9.10 9.85 8.87 9.72 8.64L7.72 5.19L6.31 5.19L9.33 10.07L6.05 15.00L7.46 15.00L9.78 11.24C9.89 11.03 9.97 10.86 10.01 10.76L10.04 10.76C10.12 10.97 10.20 11.13 10.27 11.24L12.52 15.00Z" fill="#000000"></path></svg>