<svg xmlns="http://www.w3.org/2000/svg" version="1.1" xmlns:xlink="http://www.w3.org/1999/xlink" xmlns:svgjs="http://svgjs.com/svgjs" width="30" height="30"><svg id="SvgjsSvg1002" style="overflow: hidden; top: -100%; left: -100%; position: absolute; opacity: 0;" width="2" height="0" focusable="false"><polyline id="SvgjsPolyline1003" points="0,0"></polyline><path id="SvgjsPath1004" d="M0 0 "></path></svg><defs id="SvgjsDefs2826"></defs><rect id="SvgjsRect2827" width="29" height="29" x="0.5" y="0.5" rx="6" ry="6" fill="#ffffff" stroke-opacity="1" stroke="#444c56" stroke-width="1"></rect><path id="SvgjsPath2828" d="M14.86 22.74C16.42 22.74 17.63 22.09 18.50 20.78C19.36 19.47 19.80 17.57 19.80 15.08C19.80 10.06 18.26 7.55 15.18 7.55C13.58 7.55 12.35 8.21 11.50 9.54C10.65 10.88 10.22 12.84 10.22 15.44C10.22 17.81 10.63 19.61 11.45 20.86C12.26 22.12 13.40 22.74 14.86 22.74ZM15.09 8.97C17.08 8.97 18.08 11.07 18.08 15.26C18.08 19.30 17.06 21.33 15.03 21.33C12.97 21.33 11.94 19.34 11.94 15.36C11.94 11.10 12.99 8.97 15.09 8.97Z" fill="#000000"></path></svg>