<svg xmlns="http://www.w3.org/2000/svg" version="1.1" xmlns:xlink="http://www.w3.org/1999/xlink" xmlns:svgjs="http://svgjs.com/svgjs" width="30" height="30"><svg id="SvgjsSvg1002" style="overflow: hidden; top: -100%; left: -100%; position: absolute; opacity: 0;" width="2" height="0" focusable="false"><polyline id="SvgjsPolyline1003" points="0,0"></polyline><path id="SvgjsPath1004" d="M0 0 "></path></svg><defs id="SvgjsDefs2835"></defs><rect id="SvgjsRect2836" width="29" height="29" x="0.5" y="0.5" rx="6" ry="6" fill="#ffffff" stroke-opacity="1" stroke="#444c56" stroke-width="1"></rect><path id="SvgjsPath2837" d="M10.68 21.95C11.51 22.48 12.62 22.74 14.02 22.74C15.57 22.74 16.82 22.34 17.76 21.53C18.71 20.72 19.18 19.65 19.18 18.33C19.18 17.38 18.87 16.58 18.25 15.94C17.62 15.30 16.78 14.93 15.72 14.83L15.72 14.78C17.69 14.23 18.67 12.99 18.67 11.05C18.67 10.03 18.30 9.19 17.56 8.53C16.82 7.87 15.83 7.55 14.59 7.55C13.30 7.55 12.19 7.83 11.25 8.39L11.25 10.03C12.16 9.32 13.14 8.97 14.17 8.97C16.02 8.97 16.95 9.80 16.95 11.47C16.95 13.28 15.73 14.18 13.31 14.18L12.15 14.18L12.15 15.60L13.37 15.60C16.10 15.60 17.46 16.57 17.46 18.49C17.46 19.35 17.16 20.04 16.54 20.56C15.93 21.07 15.11 21.33 14.09 21.33C12.82 21.33 11.69 20.93 10.68 20.14Z" fill="#000000"></path></svg>