<svg xmlns="http://www.w3.org/2000/svg" version="1.1" xmlns:xlink="http://www.w3.org/1999/xlink" xmlns:svgjs="http://svgjs.com/svgjs" width="30" height="30"><svg id="SvgjsSvg1002" style="overflow: hidden; top: -100%; left: -100%; position: absolute; opacity: 0;" width="2" height="0" focusable="false"><polyline id="SvgjsPolyline1003" points="0,0"></polyline><path id="SvgjsPath1004" d="M0 0 "></path></svg><defs id="SvgjsDefs2844"></defs><rect id="SvgjsRect2845" width="29" height="29" x="0.5" y="0.5" rx="6" ry="6" fill="#ffffff" stroke-opacity="1" stroke="#444c56" stroke-width="1"></rect><path id="SvgjsPath2846" d="M18.92 7.97C18.32 7.69 17.50 7.55 16.48 7.55C14.67 7.55 13.22 8.31 12.12 9.85C11.02 11.39 10.47 13.45 10.47 16.03C10.47 18.15 10.89 19.80 11.73 20.98C12.57 22.15 13.73 22.74 15.21 22.74C16.54 22.74 17.65 22.29 18.52 21.37C19.39 20.46 19.82 19.28 19.82 17.84C19.82 16.46 19.44 15.36 18.68 14.53C17.92 13.71 16.90 13.30 15.62 13.30C14.06 13.30 12.94 13.99 12.25 15.38L12.21 15.38C12.21 13.43 12.60 11.88 13.39 10.71C14.17 9.55 15.21 8.97 16.52 8.97C17.36 8.97 18.16 9.17 18.92 9.55ZM15.25 14.72C16.15 14.72 16.85 15.02 17.35 15.60C17.85 16.19 18.10 17.01 18.10 18.05C18.10 19.00 17.84 19.78 17.32 20.40C16.80 21.02 16.11 21.33 15.27 21.33C14.38 21.33 13.67 20.97 13.13 20.26C12.59 19.55 12.32 18.69 12.32 17.69C12.32 16.89 12.59 16.19 13.13 15.60C13.67 15.02 14.38 14.72 15.25 14.72Z" fill="#000000"></path></svg>