<svg xmlns="http://www.w3.org/2000/svg" version="1.1" xmlns:xlink="http://www.w3.org/1999/xlink" xmlns:svgjs="http://svgjs.com/svgjs" width="30" height="30"><svg id="SvgjsSvg1002" style="overflow: hidden; top: -100%; left: -100%; position: absolute; opacity: 0;" width="2" height="0" focusable="false"><polyline id="SvgjsPolyline1003" points="0,0"></polyline><path id="SvgjsPath1004" d="M0 0 "></path></svg><defs id="SvgjsDefs2850"></defs><rect id="SvgjsRect2851" width="29" height="29" x="0.5" y="0.5" rx="6" ry="6" fill="#ffffff" stroke-opacity="1" stroke="#444c56" stroke-width="1"></rect><path id="SvgjsPath2852" d="M13.54 14.78C11.42 15.65 10.37 17.02 10.37 18.91C10.37 20.04 10.77 20.96 11.59 21.68C12.40 22.39 13.43 22.74 14.69 22.74C16.25 22.74 17.47 22.38 18.34 21.66C19.22 20.95 19.66 19.98 19.66 18.76C19.66 16.88 18.58 15.55 16.44 14.78L16.44 14.74C18.25 13.84 19.16 12.58 19.16 10.95C19.16 9.95 18.79 9.13 18.06 8.50C17.32 7.86 16.37 7.55 15.23 7.55C13.95 7.55 12.92 7.89 12.11 8.57C11.30 9.25 10.90 10.12 10.90 11.18C10.90 12.73 11.78 13.92 13.54 14.74ZM17.44 11.15C17.44 12.40 16.63 13.36 15.01 14.03C13.42 13.38 12.62 12.41 12.62 11.13C12.62 10.51 12.86 9.99 13.33 9.58C13.81 9.17 14.39 8.97 15.07 8.97C15.80 8.97 16.38 9.17 16.80 9.55C17.23 9.94 17.44 10.48 17.44 11.15ZM14.90 15.58C16.92 16.31 17.93 17.41 17.93 18.89C17.93 19.59 17.66 20.17 17.13 20.63C16.59 21.10 15.90 21.33 15.05 21.33C14.16 21.33 13.45 21.09 12.90 20.62C12.36 20.16 12.09 19.56 12.09 18.82C12.09 17.41 13.02 16.33 14.90 15.58Z" fill="#000000"></path></svg>