<svg xmlns="http://www.w3.org/2000/svg" version="1.1" xmlns:xlink="http://www.w3.org/1999/xlink" xmlns:svgjs="http://svgjs.com/svgjs" width="30" height="30"><svg id="SvgjsSvg1002" style="overflow: hidden; top: -100%; left: -100%; position: absolute; opacity: 0;" width="2" height="0" focusable="false"><polyline id="SvgjsPolyline1003" points="0,0"></polyline><path id="SvgjsPath1004" d="M0 0 "></path></svg><defs id="SvgjsDefs2853"></defs><rect id="SvgjsRect2854" width="29" height="29" x="0.5" y="0.5" rx="6" ry="6" fill="#ffffff" stroke-opacity="1" stroke="#444c56" stroke-width="1"></rect><path id="SvgjsPath2855" d="M11.10 22.25C11.83 22.58 12.68 22.74 13.67 22.74C15.54 22.74 17.00 22.01 18.06 20.54C19.11 19.07 19.63 16.98 19.63 14.26C19.63 12.07 19.23 10.41 18.42 9.26C17.61 8.12 16.48 7.55 15.03 7.55C13.65 7.55 12.52 8.00 11.63 8.92C10.75 9.84 10.30 11.02 10.30 12.46C10.30 13.80 10.71 14.90 11.51 15.76C12.32 16.61 13.35 17.04 14.61 17.04C16.17 17.04 17.26 16.41 17.89 15.14C17.91 15.15 17.92 15.15 17.93 15.14C17.93 17.12 17.56 18.64 16.82 19.72C16.08 20.79 15.04 21.33 13.71 21.33C12.79 21.33 11.92 21.09 11.10 20.63ZM14.88 8.97C15.75 8.97 16.46 9.32 17.01 10.03C17.56 10.73 17.83 11.64 17.83 12.75C17.83 13.53 17.55 14.19 17.00 14.73C16.45 15.27 15.78 15.54 14.99 15.54C14.08 15.54 13.36 15.25 12.83 14.66C12.29 14.06 12.03 13.25 12.03 12.22C12.03 11.28 12.30 10.50 12.84 9.89C13.39 9.28 14.06 8.97 14.88 8.97Z" fill="#000000"></path></svg>