<svg xmlns="http://www.w3.org/2000/svg" version="1.1" xmlns:xlink="http://www.w3.org/1999/xlink" xmlns:svgjs="http://svgjs.com/svgjs" width="30" height="30"><svg id="SvgjsSvg1002" style="overflow: hidden; top: -100%; left: -100%; position: absolute; opacity: 0;" width="2" height="0" focusable="false"><polyline id="SvgjsPolyline1003" points="0,0"></polyline><path id="SvgjsPath1004" d="M0 0 "></path></svg><defs id="SvgjsDefs2754"></defs><rect id="SvgjsRect2755" width="29" height="29" x="0.5" y="0.5" rx="6" ry="6" fill="#ffffff" stroke-opacity="1" stroke="#444c56" stroke-width="1"></rect><path id="SvgjsPath2756" d="M20.43 21.88L20.43 20.21C19.35 20.86 18.08 21.19 16.60 21.19C15.01 21.19 13.72 20.66 12.74 19.60C11.76 18.54 11.27 17.11 11.27 15.32C11.27 13.43 11.79 11.92 12.84 10.80C13.89 9.67 15.26 9.10 16.95 9.10C18.22 9.10 19.38 9.40 20.43 9.99L20.43 8.15C19.52 7.75 18.36 7.55 16.97 7.55C14.79 7.55 13.00 8.27 11.59 9.72C10.17 11.17 9.46 13.07 9.46 15.42C9.46 17.61 10.09 19.37 11.35 20.72C12.61 22.07 14.28 22.74 16.37 22.74C17.99 22.74 19.35 22.45 20.43 21.88Z" fill="#000000"></path></svg>