<svg xmlns="http://www.w3.org/2000/svg" version="1.1" xmlns:xlink="http://www.w3.org/1999/xlink" xmlns:svgjs="http://svgjs.com/svgjs" width="39" height="30"><svg id="SvgjsSvg1002" style="overflow: hidden; top: -100%; left: -100%; position: absolute; opacity: 0;" width="2" height="0" focusable="false"><polyline id="SvgjsPolyline1003" points="0,0"></polyline><path id="SvgjsPath1004" d="M0 0 "></path></svg><defs id="SvgjsDefs2904"></defs><rect id="SvgjsRect2905" width="38" height="29" x="0.5" y="0.5" rx="6" ry="6" fill="#ffffff" stroke-opacity="1" stroke="#444c56" stroke-width="1"></rect><path id="SvgjsPath2906" d="M14.23 17.84L14.23 17.00C13.69 17.33 13.05 17.50 12.31 17.50C11.52 17.50 10.87 17.23 10.38 16.70C9.89 16.17 9.65 15.45 9.65 14.56C9.65 13.62 9.91 12.86 10.44 12.30C10.96 11.73 11.64 11.45 12.49 11.45C13.12 11.45 13.71 11.60 14.23 11.89L14.23 10.98C13.77 10.77 13.20 10.67 12.50 10.67C11.41 10.67 10.52 11.03 9.81 11.76C9.10 12.48 8.75 13.43 8.75 14.61C8.75 15.70 9.06 16.59 9.69 17.26C10.32 17.93 11.16 18.27 12.20 18.27C13.01 18.27 13.69 18.13 14.23 17.84ZM19.37 18.15L19.37 14.73C19.37 13.43 18.76 12.77 17.52 12.77C16.85 12.77 16.26 12.94 15.74 13.27L15.74 14.13C16.25 13.70 16.82 13.48 17.45 13.48C18.17 13.48 18.53 13.93 18.53 14.82L16.96 15.04C15.80 15.20 15.23 15.77 15.23 16.75C15.23 17.21 15.37 17.58 15.67 17.86C15.97 18.13 16.38 18.27 16.90 18.27C17.61 18.27 18.15 17.96 18.51 17.33L18.53 17.33L18.53 18.15ZM18.53 15.49L18.53 16.01C18.53 16.46 18.40 16.83 18.13 17.12C17.85 17.42 17.51 17.56 17.09 17.56C16.79 17.56 16.55 17.48 16.36 17.32C16.18 17.16 16.09 16.95 16.09 16.69C16.09 16.34 16.19 16.09 16.39 15.96C16.58 15.82 16.88 15.72 17.27 15.67ZM21.82 17.39C22.19 17.98 22.71 18.27 23.39 18.27C24.14 18.27 24.72 18.01 25.15 17.48C25.57 16.95 25.79 16.25 25.79 15.37C25.79 14.58 25.60 13.95 25.22 13.48C24.84 13.01 24.31 12.77 23.63 12.77C22.84 12.77 22.23 13.12 21.82 13.82L21.80 13.82L21.80 12.90L20.96 12.90L20.96 20.56L21.80 20.56L21.80 17.39ZM21.80 15.27C21.80 14.76 21.95 14.33 22.25 13.99C22.54 13.65 22.94 13.48 23.42 13.48C23.89 13.48 24.25 13.65 24.52 13.98C24.79 14.31 24.93 14.77 24.93 15.35C24.93 16.05 24.78 16.59 24.49 16.98C24.20 17.37 23.81 17.56 23.30 17.56C22.86 17.56 22.50 17.41 22.22 17.11C21.94 16.81 21.80 16.44 21.80 16.00ZM26.81 17.96C27.21 18.17 27.68 18.27 28.22 18.27C28.49 18.27 28.75 18.24 29.00 18.18C29.25 18.12 29.47 18.02 29.66 17.90C29.86 17.77 30.01 17.61 30.12 17.42C30.24 17.23 30.29 17.00 30.29 16.74C30.29 16.53 30.26 16.35 30.19 16.19C30.12 16.04 30.02 15.90 29.89 15.79C29.76 15.67 29.60 15.56 29.42 15.47C29.23 15.37 29.03 15.28 28.79 15.19L28.33 15.00C28.19 14.95 28.07 14.88 27.98 14.81C27.88 14.74 27.81 14.66 27.76 14.56C27.71 14.47 27.69 14.36 27.69 14.22C27.69 14.11 27.71 14.01 27.76 13.92C27.81 13.83 27.88 13.75 27.97 13.69C28.06 13.62 28.17 13.57 28.30 13.54C28.42 13.50 28.56 13.48 28.72 13.48C29.22 13.48 29.67 13.61 30.05 13.86L30.05 13.01C29.69 12.85 29.29 12.77 28.83 12.77C28.58 12.77 28.33 12.81 28.09 12.87C27.85 12.94 27.63 13.03 27.44 13.16C27.26 13.29 27.11 13.45 26.99 13.64C26.88 13.83 26.82 14.05 26.82 14.29C26.82 14.49 26.85 14.67 26.91 14.82C26.97 14.97 27.06 15.10 27.18 15.22C27.30 15.34 27.45 15.45 27.62 15.54C27.80 15.63 28.00 15.73 28.23 15.82L28.70 16.01C28.85 16.07 28.97 16.13 29.08 16.21C29.19 16.28 29.28 16.37 29.34 16.47C29.40 16.57 29.43 16.68 29.43 16.82C29.43 17.32 29.06 17.56 28.33 17.56C27.78 17.56 27.27 17.39 26.81 17.06Z" fill="#000000"></path></svg>