<svg xmlns="http://www.w3.org/2000/svg" version="1.1" xmlns:xlink="http://www.w3.org/1999/xlink" xmlns:svgjs="http://svgjs.com/svgjs" width="30" height="30"><svg id="SvgjsSvg1002" style="overflow: hidden; top: -100%; left: -100%; position: absolute; opacity: 0;" width="2" height="0" focusable="false"><polyline id="SvgjsPolyline1003" points="0,0"></polyline><path id="SvgjsPath1004" d="M0 0 "></path></svg><defs id="SvgjsDefs2916"></defs><rect id="SvgjsRect2917" width="29" height="29" x="0.5" y="0.5" rx="6" ry="6" fill="#ffffff" stroke-opacity="1" stroke="#444c56" stroke-width="1"></rect><path id="SvgjsPath2918" d="M12.84 17.84L12.84 17.00C12.30 17.33 11.66 17.50 10.92 17.50C10.13 17.50 9.48 17.23 8.99 16.70C8.50 16.17 8.26 15.45 8.26 14.56C8.26 13.62 8.52 12.86 9.05 12.30C9.57 11.73 10.25 11.45 11.10 11.45C11.73 11.45 12.32 11.60 12.84 11.89L12.84 10.98C12.38 10.77 11.81 10.67 11.11 10.67C10.02 10.67 9.12 11.03 8.42 11.76C7.71 12.48 7.36 13.43 7.36 14.61C7.36 15.70 7.67 16.59 8.30 17.26C8.93 17.93 9.77 18.27 10.81 18.27C11.62 18.27 12.30 18.13 12.84 17.84ZM16.66 18.10L16.66 17.38C16.51 17.49 16.32 17.55 16.11 17.55C15.84 17.55 15.64 17.48 15.52 17.33C15.40 17.18 15.34 16.93 15.34 16.57L15.34 13.62L16.66 13.62L16.66 12.90L15.34 12.90L15.34 11.34L14.50 11.62L14.50 12.90L13.60 12.90L13.60 13.62L14.50 13.62L14.50 16.72C14.50 17.75 14.96 18.26 15.88 18.26C16.20 18.26 16.46 18.21 16.66 18.10ZM20.52 13.75L20.52 12.88C20.41 12.83 20.24 12.81 20.02 12.81C19.72 12.81 19.44 12.91 19.19 13.12C18.95 13.32 18.76 13.61 18.65 13.98L18.62 13.98L18.62 12.90L17.78 12.90L17.78 18.15L18.62 18.15L18.62 15.47C18.62 14.89 18.75 14.43 18.99 14.09C19.23 13.75 19.53 13.58 19.89 13.58C20.16 13.58 20.37 13.64 20.52 13.75ZM22.28 18.15L22.28 10.38L21.43 10.38L21.43 18.15Z" fill="#000000"></path></svg>