<svg xmlns="http://www.w3.org/2000/svg" version="1.1" xmlns:xlink="http://www.w3.org/1999/xlink" xmlns:svgjs="http://svgjs.com/svgjs" width="30" height="30"><svg id="SvgjsSvg1002" style="overflow: hidden; top: -100%; left: -100%; position: absolute; opacity: 0;" width="2" height="0" focusable="false"><polyline id="SvgjsPolyline1003" points="0,0"></polyline><path id="SvgjsPath1004" d="M0 0 "></path></svg><defs id="SvgjsDefs2757"></defs><rect id="SvgjsRect2758" width="29" height="29" x="0.5" y="0.5" rx="6" ry="6" fill="#ffffff" stroke-opacity="1" stroke="#444c56" stroke-width="1"></rect><path id="SvgjsPath2759" d="M9.57 22.50L13.46 22.50C15.88 22.50 17.80 21.81 19.24 20.43C20.68 19.05 21.40 17.23 21.40 14.96C21.40 10.18 18.81 7.79 13.63 7.79L9.57 7.79ZM11.29 9.35L13.58 9.35C17.59 9.35 19.59 11.23 19.59 15.00C19.59 16.89 19.06 18.36 17.98 19.39C16.91 20.42 15.41 20.94 13.48 20.94L11.29 20.94Z" fill="#000000"></path></svg>