<svg xmlns="http://www.w3.org/2000/svg" version="1.1" xmlns:xlink="http://www.w3.org/1999/xlink" xmlns:svgjs="http://svgjs.com/svgjs" width="30" height="30"><svg id="SvgjsSvg1002" style="overflow: hidden; top: -100%; left: -100%; position: absolute; opacity: 0;" width="2" height="0" focusable="false"><polyline id="SvgjsPolyline1003" points="0,0"></polyline><path id="SvgjsPath1004" d="M0 0 "></path></svg><defs id="SvgjsDefs2895"></defs><rect id="SvgjsRect2896" width="29" height="29" x="0.5" y="0.5" rx="6" ry="6" fill="#ffffff" stroke-opacity="1" stroke="#444c56" stroke-width="1"></rect><path id="SvgjsPath2897" d="M12.55 18.15L12.55 17.37L9.52 17.37L9.52 14.79L12.17 14.79L12.17 14.02L9.52 14.02L9.52 11.57L12.39 11.57L12.39 10.80L8.66 10.80L8.66 18.15ZM13.54 17.96C13.93 18.17 14.40 18.27 14.94 18.27C15.21 18.27 15.48 18.24 15.73 18.18C15.97 18.12 16.20 18.02 16.39 17.90C16.58 17.77 16.73 17.61 16.85 17.42C16.96 17.23 17.02 17.00 17.02 16.74C17.02 16.53 16.98 16.35 16.91 16.19C16.84 16.04 16.74 15.90 16.61 15.79C16.48 15.67 16.33 15.56 16.14 15.47C15.96 15.37 15.75 15.28 15.52 15.19L15.05 15.00C14.91 14.95 14.80 14.88 14.70 14.81C14.60 14.74 14.53 14.66 14.48 14.56C14.43 14.47 14.41 14.36 14.41 14.22C14.41 14.11 14.43 14.01 14.48 13.92C14.53 13.83 14.60 13.75 14.69 13.69C14.78 13.62 14.89 13.57 15.02 13.54C15.14 13.50 15.29 13.48 15.44 13.48C15.95 13.48 16.39 13.61 16.78 13.86L16.78 13.01C16.42 12.85 16.01 12.77 15.56 12.77C15.30 12.77 15.05 12.81 14.81 12.87C14.57 12.94 14.35 13.03 14.17 13.16C13.98 13.29 13.83 13.45 13.72 13.64C13.60 13.83 13.55 14.05 13.55 14.29C13.55 14.49 13.58 14.67 13.64 14.82C13.70 14.97 13.78 15.10 13.90 15.22C14.02 15.34 14.17 15.45 14.34 15.54C14.52 15.63 14.72 15.73 14.96 15.82L15.43 16.01C15.57 16.07 15.70 16.13 15.80 16.21C15.91 16.28 16.00 16.37 16.06 16.47C16.12 16.57 16.16 16.68 16.16 16.82C16.16 17.32 15.79 17.56 15.05 17.56C14.50 17.56 13.99 17.39 13.54 17.06ZM21.89 17.91L21.89 17.11C21.48 17.41 21.05 17.56 20.60 17.56C20.05 17.56 19.62 17.39 19.30 17.03C18.97 16.67 18.81 16.19 18.81 15.57C18.81 14.95 18.98 14.44 19.33 14.06C19.67 13.67 20.11 13.48 20.65 13.48C21.09 13.48 21.51 13.62 21.90 13.89L21.90 13.03C21.55 12.86 21.14 12.77 20.68 12.77C19.85 12.77 19.19 13.04 18.69 13.56C18.20 14.09 17.95 14.78 17.95 15.65C17.95 16.42 18.18 17.05 18.64 17.54C19.10 18.03 19.70 18.27 20.45 18.27C21.01 18.27 21.48 18.15 21.89 17.91Z" fill="#000000"></path></svg>