<svg xmlns="http://www.w3.org/2000/svg" version="1.1" xmlns:xlink="http://www.w3.org/1999/xlink" xmlns:svgjs="http://svgjs.com/svgjs" width="39" height="30"><svg id="SvgjsSvg1002" style="overflow: hidden; top: -100%; left: -100%; position: absolute; opacity: 0;" width="2" height="0" focusable="false"><polyline id="SvgjsPolyline1003" points="0,0"></polyline><path id="SvgjsPath1004" d="M0 0 "></path></svg><defs id="SvgjsDefs2883"></defs><rect id="SvgjsRect2884" width="38" height="29" x="0.5" y="0.5" rx="6" ry="6" fill="#ffffff" stroke-opacity="1" stroke="#444c56" stroke-width="1"></rect><path id="SvgjsPath2885" d="M15.27 11.13L15.27 10.19L10.79 10.19L10.79 19.02L11.82 19.02L11.82 15.11L15.01 15.11L15.01 14.18L11.82 14.18L11.82 11.13ZM21.86 19.02L21.86 18.13L19.87 18.13L19.87 10.00L16.82 10.93L16.82 11.89L18.86 11.28L18.86 18.13L16.87 18.13L16.87 19.02ZM25.89 19.16C26.82 19.16 27.55 18.77 28.07 17.99C28.59 17.20 28.85 16.06 28.85 14.57C28.85 11.55 27.93 10.05 26.08 10.05C25.12 10.05 24.38 10.45 23.87 11.25C23.36 12.05 23.11 13.23 23.11 14.78C23.11 16.20 23.35 17.29 23.84 18.04C24.33 18.79 25.01 19.16 25.89 19.16ZM26.03 10.90C27.22 10.90 27.82 12.16 27.82 14.67C27.82 17.10 27.21 18.32 25.99 18.32C24.76 18.32 24.14 17.12 24.14 14.74C24.14 12.18 24.77 10.90 26.03 10.90Z" fill="#000000"></path></svg>