<svg xmlns="http://www.w3.org/2000/svg" version="1.1" xmlns:xlink="http://www.w3.org/1999/xlink" xmlns:svgjs="http://svgjs.com/svgjs" width="39" height="30"><svg id="SvgjsSvg1002" style="overflow: hidden; top: -100%; left: -100%; position: absolute; opacity: 0;" width="2" height="0" focusable="false"><polyline id="SvgjsPolyline1003" points="0,0"></polyline><path id="SvgjsPath1004" d="M0 0 "></path></svg><defs id="SvgjsDefs2886"></defs><rect id="SvgjsRect2887" width="38" height="29" x="0.5" y="0.5" rx="6" ry="6" fill="#ffffff" stroke-opacity="1" stroke="#444c56" stroke-width="1"></rect><path id="SvgjsPath2888" d="M15.27 11.13L15.27 10.19L10.79 10.19L10.79 19.02L11.82 19.02L11.82 15.11L15.01 15.11L15.01 14.18L11.82 14.18L11.82 11.13ZM21.86 19.02L21.86 18.13L19.87 18.13L19.87 10.00L16.82 10.93L16.82 11.89L18.86 11.28L18.86 18.13L16.87 18.13L16.87 19.02ZM28.65 19.02L28.65 18.13L26.66 18.13L26.66 10.00L23.61 10.93L23.61 11.89L25.65 11.28L25.65 18.13L23.66 18.13L23.66 19.02Z" fill="#000000"></path></svg>