<svg xmlns="http://www.w3.org/2000/svg" version="1.1" xmlns:xlink="http://www.w3.org/1999/xlink" xmlns:svgjs="http://svgjs.com/svgjs" width="39" height="30"><svg id="SvgjsSvg1002" style="overflow: hidden; top: -100%; left: -100%; position: absolute; opacity: 0;" width="2" height="0" focusable="false"><polyline id="SvgjsPolyline1003" points="0,0"></polyline><path id="SvgjsPath1004" d="M0 0 "></path></svg><defs id="SvgjsDefs2889"></defs><rect id="SvgjsRect2890" width="38" height="29" x="0.5" y="0.5" rx="6" ry="6" fill="#ffffff" stroke-opacity="1" stroke="#444c56" stroke-width="1"></rect><path id="SvgjsPath2891" d="M15.27 11.13L15.27 10.19L10.79 10.19L10.79 19.02L11.82 19.02L11.82 15.11L15.01 15.11L15.01 14.18L11.82 14.18L11.82 11.13ZM21.86 19.02L21.86 18.13L19.87 18.13L19.87 10.00L16.82 10.93L16.82 11.89L18.86 11.28L18.86 18.13L16.87 18.13L16.87 19.02ZM28.48 19.02L28.48 18.11L24.38 18.11L24.38 18.08L26.42 16.07C27.22 15.27 27.78 14.60 28.09 14.06C28.41 13.52 28.56 12.97 28.56 12.40C28.56 11.69 28.34 11.11 27.89 10.69C27.43 10.26 26.82 10.05 26.03 10.05C25.11 10.05 24.31 10.32 23.62 10.85L23.62 11.91C24.34 11.24 25.10 10.90 25.89 10.90C26.42 10.90 26.84 11.04 27.13 11.32C27.42 11.60 27.57 11.99 27.57 12.50C27.57 13.00 27.43 13.46 27.14 13.90C26.86 14.34 26.39 14.88 25.74 15.54L23.17 18.12L23.17 19.02Z" fill="#000000"></path></svg>