<svg xmlns="http://www.w3.org/2000/svg" version="1.1" xmlns:xlink="http://www.w3.org/1999/xlink" xmlns:svgjs="http://svgjs.com/svgjs" width="39" height="30"><svg id="SvgjsSvg1002" style="overflow: hidden; top: -100%; left: -100%; position: absolute; opacity: 0;" width="2" height="0" focusable="false"><polyline id="SvgjsPolyline1003" points="0,0"></polyline><path id="SvgjsPath1004" d="M0 0 "></path></svg><defs id="SvgjsDefs2859"></defs><rect id="SvgjsRect2860" width="38" height="29" x="0.5" y="0.5" rx="6" ry="6" fill="#ffffff" stroke-opacity="1" stroke="#444c56" stroke-width="1"></rect><path id="SvgjsPath2861" d="M18.66 11.13L18.66 10.19L14.18 10.19L14.18 19.02L15.22 19.02L15.22 15.11L18.40 15.11L18.40 14.18L15.22 14.18L15.22 11.13ZM25.09 19.02L25.09 18.11L20.98 18.11L20.98 18.08L23.02 16.07C23.83 15.27 24.39 14.60 24.70 14.06C25.01 13.52 25.17 12.97 25.17 12.40C25.17 11.69 24.94 11.11 24.49 10.69C24.04 10.26 23.42 10.05 22.63 10.05C21.72 10.05 20.92 10.32 20.23 10.85L20.23 11.91C20.95 11.24 21.70 10.90 22.49 10.90C23.03 10.90 23.44 11.04 23.73 11.32C24.02 11.60 24.17 11.99 24.17 12.50C24.17 13.00 24.03 13.46 23.75 13.90C23.47 14.34 23.00 14.88 22.34 15.54L19.77 18.12L19.77 19.02Z" fill="#000000"></path></svg>