<svg xmlns="http://www.w3.org/2000/svg" version="1.1" xmlns:xlink="http://www.w3.org/1999/xlink" xmlns:svgjs="http://svgjs.com/svgjs" width="39" height="30"><svg id="SvgjsSvg1002" style="overflow: hidden; top: -100%; left: -100%; position: absolute; opacity: 0;" width="2" height="0" focusable="false"><polyline id="SvgjsPolyline1003" points="0,0"></polyline><path id="SvgjsPath1004" d="M0 0 "></path></svg><defs id="SvgjsDefs2868"></defs><rect id="SvgjsRect2869" width="38" height="29" x="0.5" y="0.5" rx="6" ry="6" fill="#ffffff" stroke-opacity="1" stroke="#444c56" stroke-width="1"></rect><path id="SvgjsPath2870" d="M18.66 11.13L18.66 10.19L14.18 10.19L14.18 19.02L15.22 19.02L15.22 15.11L18.40 15.11L18.40 14.18L15.22 14.18L15.22 11.13ZM20.19 18.80C20.59 19.04 21.20 19.16 22.02 19.16C22.98 19.16 23.75 18.90 24.30 18.38C24.86 17.86 25.14 17.18 25.14 16.32C25.14 15.50 24.88 14.85 24.36 14.38C23.84 13.90 23.11 13.66 22.17 13.66C21.94 13.66 21.69 13.67 21.42 13.69L21.42 11.11L24.74 11.11L24.74 10.19L20.47 10.19L20.47 14.62C21.14 14.57 21.60 14.54 21.85 14.54C22.58 14.54 23.13 14.71 23.52 15.03C23.91 15.35 24.11 15.81 24.11 16.38C24.11 16.97 23.92 17.43 23.54 17.79C23.15 18.14 22.65 18.32 22.03 18.32C21.41 18.32 20.79 18.12 20.19 17.73Z" fill="#000000"></path></svg>