<svg xmlns="http://www.w3.org/2000/svg" version="1.1" xmlns:xlink="http://www.w3.org/1999/xlink" xmlns:svgjs="http://svgjs.com/svgjs" width="39" height="30"><svg id="SvgjsSvg1002" style="overflow: hidden; top: -100%; left: -100%; position: absolute; opacity: 0;" width="2" height="0" focusable="false"><polyline id="SvgjsPolyline1003" points="0,0"></polyline><path id="SvgjsPath1004" d="M0 0 "></path></svg><defs id="SvgjsDefs2871"></defs><rect id="SvgjsRect2872" width="38" height="29" x="0.5" y="0.5" rx="6" ry="6" fill="#ffffff" stroke-opacity="1" stroke="#444c56" stroke-width="1"></rect><path id="SvgjsPath2873" d="M18.66 11.13L18.66 10.19L14.18 10.19L14.18 19.02L15.22 19.02L15.22 15.11L18.40 15.11L18.40 14.18L15.22 14.18L15.22 11.13ZM24.93 10.30C24.57 10.13 24.08 10.05 23.46 10.05C22.38 10.05 21.51 10.51 20.85 11.43C20.19 12.35 19.86 13.59 19.86 15.14C19.86 16.41 20.11 17.40 20.61 18.11C21.12 18.81 21.81 19.16 22.70 19.16C23.50 19.16 24.17 18.89 24.69 18.34C25.21 17.80 25.47 17.09 25.47 16.22C25.47 15.40 25.24 14.73 24.78 14.24C24.33 13.75 23.72 13.50 22.95 13.50C22.01 13.50 21.34 13.91 20.93 14.75L20.90 14.75C20.90 13.58 21.14 12.65 21.61 11.95C22.08 11.25 22.70 10.90 23.49 10.90C23.99 10.90 24.47 11.02 24.93 11.25ZM22.72 14.35C23.27 14.35 23.69 14.53 23.99 14.88C24.28 15.24 24.43 15.72 24.43 16.35C24.43 16.92 24.28 17.39 23.97 17.76C23.65 18.13 23.24 18.32 22.74 18.32C22.20 18.32 21.78 18.10 21.45 17.68C21.13 17.25 20.97 16.73 20.97 16.13C20.97 15.65 21.13 15.24 21.46 14.88C21.78 14.53 22.20 14.35 22.72 14.35Z" fill="#000000"></path></svg>