<svg xmlns="http://www.w3.org/2000/svg" version="1.1" xmlns:xlink="http://www.w3.org/1999/xlink" xmlns:svgjs="http://svgjs.com/svgjs" width="39" height="30"><svg id="SvgjsSvg1002" style="overflow: hidden; top: -100%; left: -100%; position: absolute; opacity: 0;" width="2" height="0" focusable="false"><polyline id="SvgjsPolyline1003" points="0,0"></polyline><path id="SvgjsPath1004" d="M0 0 "></path></svg><defs id="SvgjsDefs2880"></defs><rect id="SvgjsRect2881" width="38" height="29" x="0.5" y="0.5" rx="6" ry="6" fill="#ffffff" stroke-opacity="1" stroke="#444c56" stroke-width="1"></rect><path id="SvgjsPath2882" d="M18.66 11.13L18.66 10.19L14.18 10.19L14.18 19.02L15.22 19.02L15.22 15.11L18.40 15.11L18.40 14.18L15.22 14.18L15.22 11.13ZM20.24 18.87C20.67 19.07 21.19 19.16 21.78 19.16C22.90 19.16 23.78 18.72 24.41 17.84C25.04 16.96 25.36 15.71 25.36 14.08C25.36 12.76 25.11 11.76 24.63 11.08C24.14 10.39 23.46 10.05 22.59 10.05C21.77 10.05 21.09 10.32 20.56 10.87C20.02 11.43 19.76 12.13 19.76 12.99C19.76 13.80 20.00 14.46 20.48 14.98C20.97 15.49 21.59 15.74 22.34 15.74C23.28 15.74 23.93 15.36 24.31 14.61C24.32 14.61 24.33 14.61 24.34 14.61C24.34 15.79 24.11 16.71 23.67 17.35C23.22 17.99 22.60 18.32 21.80 18.32C21.25 18.32 20.73 18.18 20.24 17.90ZM22.50 10.90C23.03 10.90 23.45 11.11 23.78 11.54C24.11 11.96 24.27 12.50 24.27 13.17C24.27 13.64 24.11 14.04 23.78 14.36C23.45 14.68 23.05 14.85 22.57 14.85C22.02 14.85 21.59 14.67 21.27 14.31C20.95 13.96 20.79 13.47 20.79 12.85C20.79 12.29 20.96 11.82 21.28 11.45C21.61 11.09 22.01 10.90 22.50 10.90Z" fill="#000000"></path></svg>