<svg xmlns="http://www.w3.org/2000/svg" version="1.1" xmlns:xlink="http://www.w3.org/1999/xlink" xmlns:svgjs="http://svgjs.com/svgjs" width="30" height="30"><svg id="SvgjsSvg1002" style="overflow: hidden; top: -100%; left: -100%; position: absolute; opacity: 0;" width="2" height="0" focusable="false"><polyline id="SvgjsPolyline1003" points="0,0"></polyline><path id="SvgjsPath1004" d="M0 0 "></path></svg><defs id="SvgjsDefs2766"></defs><rect id="SvgjsRect2767" width="29" height="29" x="0.5" y="0.5" rx="6" ry="6" fill="#ffffff" stroke-opacity="1" stroke="#444c56" stroke-width="1"></rect><path id="SvgjsPath2768" d="M20.72 21.49L20.72 14.83L15.77 14.83L15.77 16.38L18.99 16.38L18.99 20.51C18.15 20.96 17.16 21.19 16.01 21.19C14.34 21.19 13.01 20.66 12.03 19.60C11.05 18.54 10.57 17.07 10.57 15.22C10.57 13.41 11.09 11.94 12.14 10.81C13.20 9.67 14.55 9.10 16.19 9.10C17.82 9.10 19.23 9.48 20.42 10.23L20.42 8.32C19.33 7.80 17.99 7.55 16.39 7.55C14.18 7.55 12.36 8.27 10.92 9.73C9.48 11.19 8.76 13.06 8.76 15.34C8.76 17.57 9.41 19.36 10.70 20.71C12.00 22.06 13.70 22.74 15.79 22.74C17.60 22.74 19.24 22.32 20.72 21.49Z" fill="#000000"></path></svg>