<svg xmlns="http://www.w3.org/2000/svg" version="1.1" xmlns:xlink="http://www.w3.org/1999/xlink" xmlns:svgjs="http://svgjs.com/svgjs" width="30" height="30"><svg id="SvgjsSvg1002" style="overflow: hidden; top: -100%; left: -100%; position: absolute; opacity: 0;" width="2" height="0" focusable="false"><polyline id="SvgjsPolyline1003" points="0,0"></polyline><path id="SvgjsPath1004" d="M0 0 "></path></svg><defs id="SvgjsDefs2784"></defs><rect id="SvgjsRect2785" width="29" height="29" x="0.5" y="0.5" rx="6" ry="6" fill="#ffffff" stroke-opacity="1" stroke="#444c56" stroke-width="1"></rect><path id="SvgjsPath2786" d="M22.49 22.50L22.49 7.79L20.34 7.79L15.73 18.00C15.56 18.40 15.32 19.00 15.03 19.81L14.96 19.81C14.86 19.42 14.64 18.83 14.29 18.05L9.78 7.79L7.50 7.79L7.50 22.50L9.16 22.50L9.16 12.65C9.16 11.32 9.13 10.36 9.08 9.77L9.12 9.77C9.27 10.45 9.42 10.95 9.56 11.28L14.57 22.50L15.42 22.50L20.44 11.20C20.57 10.91 20.72 10.43 20.88 9.77L20.92 9.77C20.83 10.90 20.78 11.85 20.78 12.63L20.78 22.50Z" fill="#000000"></path></svg>