<svg xmlns="http://www.w3.org/2000/svg" version="1.1" xmlns:xlink="http://www.w3.org/1999/xlink" xmlns:svgjs="http://svgjs.com/svgjs" width="30" height="30"><svg id="SvgjsSvg1002" style="overflow: hidden; top: -100%; left: -100%; position: absolute; opacity: 0;" width="2" height="0" focusable="false"><polyline id="SvgjsPolyline1003" points="0,0"></polyline><path id="SvgjsPath1004" d="M0 0 "></path></svg><defs id="SvgjsDefs2787"></defs><rect id="SvgjsRect2788" width="29" height="29" x="0.5" y="0.5" rx="6" ry="6" fill="#ffffff" stroke-opacity="1" stroke="#444c56" stroke-width="1"></rect><path id="SvgjsPath2789" d="M20.93 22.50L20.93 7.79L19.20 7.79L19.20 18.15C19.20 19.17 19.24 19.89 19.31 20.31L19.27 20.31C19.18 20.13 18.98 19.81 18.67 19.33L11.31 7.79L9.07 7.79L9.07 22.50L10.80 22.50L10.80 11.87C10.80 10.84 10.77 10.17 10.71 9.85L10.78 9.85C10.90 10.17 11.06 10.48 11.25 10.78L18.81 22.50Z" fill="#000000"></path></svg>