<svg xmlns="http://www.w3.org/2000/svg" version="1.1" xmlns:xlink="http://www.w3.org/1999/xlink" xmlns:svgjs="http://svgjs.com/svgjs" width="30" height="30"><svg id="SvgjsSvg1002" style="overflow: hidden; top: -100%; left: -100%; position: absolute; opacity: 0;" width="2" height="0" focusable="false"><polyline id="SvgjsPolyline1003" points="0,0"></polyline><path id="SvgjsPath1004" d="M0 0 "></path></svg><defs id="SvgjsDefs2790"></defs><rect id="SvgjsRect2791" width="29" height="29" x="0.5" y="0.5" rx="6" ry="6" fill="#ffffff" stroke-opacity="1" stroke="#444c56" stroke-width="1"></rect><path id="SvgjsPath2792" d="M14.94 22.74C17.07 22.74 18.77 22.04 20.04 20.65C21.32 19.26 21.95 17.36 21.95 14.96C21.95 12.75 21.33 10.96 20.09 9.60C18.85 8.23 17.21 7.55 15.18 7.55C12.98 7.55 11.24 8.25 9.97 9.66C8.69 11.07 8.05 12.95 8.05 15.32C8.05 17.52 8.68 19.31 9.93 20.68C11.18 22.05 12.85 22.74 14.94 22.74ZM15.06 9.10C16.65 9.10 17.89 9.63 18.79 10.69C19.70 11.75 20.15 13.25 20.15 15.19C20.15 17.09 19.68 18.56 18.75 19.61C17.82 20.67 16.55 21.19 14.94 21.19C13.43 21.19 12.20 20.64 11.26 19.54C10.32 18.43 9.85 16.98 9.85 15.16C9.85 13.35 10.33 11.89 11.30 10.78C12.26 9.66 13.52 9.10 15.06 9.10Z" fill="#000000"></path></svg>