<svg xmlns="http://www.w3.org/2000/svg" version="1.1" xmlns:xlink="http://www.w3.org/1999/xlink" xmlns:svgjs="http://svgjs.com/svgjs" width="30" height="30"><svg id="SvgjsSvg1002" style="overflow: hidden; top: -100%; left: -100%; position: absolute; opacity: 0;" width="2" height="0" focusable="false"><polyline id="SvgjsPolyline1003" points="0,0"></polyline><path id="SvgjsPath1004" d="M0 0 "></path></svg><defs id="SvgjsDefs2793"></defs><rect id="SvgjsRect2794" width="29" height="29" x="0.5" y="0.5" rx="6" ry="6" fill="#ffffff" stroke-opacity="1" stroke="#444c56" stroke-width="1"></rect><path id="SvgjsPath2795" d="M12.77 16.94L14.71 16.94C16.34 16.94 17.64 16.49 18.60 15.60C19.56 14.72 20.04 13.57 20.04 12.18C20.04 10.79 19.61 9.71 18.74 8.94C17.88 8.17 16.66 7.79 15.09 7.79L11.05 7.79L11.05 22.50L12.77 22.50ZM12.77 9.35L14.79 9.35C17.09 9.35 18.24 10.32 18.24 12.26C18.24 13.25 17.92 14.02 17.30 14.56C16.67 15.11 15.76 15.38 14.57 15.38L12.77 15.38Z" fill="#000000"></path></svg>