<svg xmlns="http://www.w3.org/2000/svg" version="1.1" xmlns:xlink="http://www.w3.org/1999/xlink" xmlns:svgjs="http://svgjs.com/svgjs" width="30" height="30"><svg id="SvgjsSvg1002" style="overflow: hidden; top: -100%; left: -100%; position: absolute; opacity: 0;" width="2" height="0" focusable="false"><polyline id="SvgjsPolyline1003" points="0,0"></polyline><path id="SvgjsPath1004" d="M0 0 "></path></svg><defs id="SvgjsDefs2796"></defs><rect id="SvgjsRect2797" width="29" height="29" x="0.5" y="0.5" rx="6" ry="6" fill="#ffffff" stroke-opacity="1" stroke="#444c56" stroke-width="1"></rect><path id="SvgjsPath2798" d="M14.84 22.74L16.17 24.20C16.59 24.65 17.03 25.04 17.49 25.38C17.94 25.72 18.43 25.99 18.95 26.18C19.48 26.38 20.07 26.47 20.72 26.47C20.84 26.47 20.96 26.47 21.10 26.46C21.24 26.45 21.38 26.43 21.52 26.42C21.66 26.40 21.79 26.38 21.93 26.36C22.07 26.33 22.19 26.30 22.30 26.27L22.30 24.61C22.20 24.65 22.09 24.68 21.96 24.72C21.84 24.75 21.71 24.77 21.58 24.80C21.44 24.82 21.31 24.84 21.18 24.85C21.05 24.86 20.93 24.86 20.82 24.86C20.42 24.86 20.05 24.81 19.72 24.71C19.38 24.61 19.06 24.46 18.75 24.25C18.44 24.05 18.13 23.80 17.81 23.51C17.50 23.22 17.17 22.88 16.81 22.50C17.69 22.30 18.45 21.97 19.09 21.51C19.73 21.04 20.27 20.48 20.69 19.82C21.11 19.16 21.43 18.41 21.64 17.59C21.85 16.77 21.95 15.89 21.95 14.96C21.95 12.75 21.33 10.96 20.09 9.60C18.84 8.23 17.22 7.55 15.23 7.55C13.00 7.55 11.24 8.25 9.96 9.66C8.68 11.06 8.05 12.95 8.05 15.32C8.05 17.53 8.67 19.31 9.92 20.68C10.24 21.02 10.59 21.32 10.98 21.58C11.36 21.83 11.77 22.05 12.19 22.22C12.61 22.40 13.05 22.53 13.50 22.61C13.95 22.70 14.40 22.74 14.84 22.74ZM15.06 9.10C16.65 9.10 17.89 9.63 18.79 10.69C19.70 11.75 20.15 13.25 20.15 15.19C20.15 17.09 19.68 18.56 18.75 19.61C17.82 20.67 16.55 21.19 14.94 21.19C13.43 21.19 12.20 20.64 11.26 19.54C10.32 18.43 9.85 16.97 9.85 15.16C9.85 13.35 10.33 11.89 11.30 10.78C12.26 9.66 13.52 9.10 15.06 9.10Z" fill="#000000"></path></svg>