<svg xmlns="http://www.w3.org/2000/svg" version="1.1" xmlns:xlink="http://www.w3.org/1999/xlink" xmlns:svgjs="http://svgjs.com/svgjs" width="30" height="30"><svg id="SvgjsSvg1002" style="overflow: hidden; top: -100%; left: -100%; position: absolute; opacity: 0;" width="2" height="0" focusable="false"><polyline id="SvgjsPolyline1003" points="0,0"></polyline><path id="SvgjsPath1004" d="M0 0 "></path></svg><defs id="SvgjsDefs2799"></defs><rect id="SvgjsRect2800" width="29" height="29" x="0.5" y="0.5" rx="6" ry="6" fill="#ffffff" stroke-opacity="1" stroke="#444c56" stroke-width="1"></rect><path id="SvgjsPath2801" d="M21.19 22.50L18.43 18.08L17.89 17.23C17.73 16.99 17.57 16.77 17.40 16.58C17.24 16.39 17.07 16.22 16.89 16.08C16.71 15.94 16.49 15.82 16.25 15.71L16.25 15.67C16.74 15.54 17.19 15.35 17.59 15.12C17.99 14.88 18.34 14.60 18.62 14.26C18.90 13.93 19.12 13.55 19.28 13.12C19.43 12.69 19.51 12.22 19.51 11.71C19.51 11.05 19.39 10.48 19.17 9.99C18.94 9.50 18.63 9.09 18.23 8.77C17.83 8.44 17.36 8.19 16.81 8.03C16.27 7.87 15.68 7.79 15.04 7.79L10.65 7.79L10.65 22.50L12.37 22.50L12.37 16.24L13.78 16.24C14.11 16.24 14.40 16.28 14.65 16.36C14.91 16.44 15.15 16.56 15.37 16.73C15.59 16.90 15.81 17.12 16.02 17.39C16.23 17.66 16.45 17.99 16.68 18.37L19.14 22.50ZM12.37 9.35L14.73 9.35C15.69 9.35 16.43 9.57 16.94 10.01C17.45 10.45 17.70 11.07 17.70 11.85C17.70 12.29 17.63 12.68 17.48 13.04C17.33 13.39 17.12 13.69 16.85 13.93C16.58 14.17 16.27 14.36 15.90 14.49C15.54 14.62 15.14 14.68 14.71 14.68L12.37 14.68Z" fill="#000000"></path></svg>