<svg xmlns="http://www.w3.org/2000/svg" version="1.1" xmlns:xlink="http://www.w3.org/1999/xlink" xmlns:svgjs="http://svgjs.com/svgjs" width="42" height="30"><svg id="SvgjsSvg1002" style="overflow: hidden; top: -100%; left: -100%; position: absolute; opacity: 0;" width="2" height="0" focusable="false"><polyline id="SvgjsPolyline1003" points="0,0"></polyline><path id="SvgjsPath1004" d="M0 0 "></path></svg><defs id="SvgjsDefs2907"></defs><rect id="SvgjsRect2908" width="41" height="29" x="0.5" y="0.5" rx="6" ry="6" fill="#ffffff" stroke-opacity="1" stroke="#444c56" stroke-width="1"></rect><path id="SvgjsPath2909" d="M11.07 17.85C11.17 17.92 11.29 17.97 11.45 18.03C11.61 18.08 11.78 18.12 11.96 18.16C12.14 18.20 12.31 18.22 12.48 18.24C12.65 18.26 12.80 18.27 12.91 18.27C13.26 18.27 13.59 18.24 13.91 18.17C14.22 18.10 14.50 17.98 14.74 17.82C14.98 17.67 15.17 17.46 15.31 17.21C15.46 16.96 15.53 16.65 15.53 16.29C15.53 16.02 15.47 15.78 15.37 15.56C15.27 15.35 15.13 15.16 14.95 14.98C14.77 14.81 14.56 14.65 14.33 14.51C14.09 14.36 13.84 14.23 13.58 14.10C13.32 13.97 13.10 13.85 12.90 13.75C12.70 13.64 12.54 13.53 12.40 13.42C12.26 13.31 12.16 13.18 12.09 13.05C12.02 12.91 11.98 12.75 11.98 12.56C11.98 12.36 12.03 12.19 12.12 12.05C12.21 11.91 12.33 11.79 12.48 11.70C12.63 11.61 12.80 11.55 12.98 11.51C13.17 11.47 13.36 11.45 13.55 11.45C14.23 11.45 14.79 11.60 15.22 11.90L15.22 10.93C14.89 10.76 14.36 10.67 13.64 10.67C13.32 10.67 13.01 10.71 12.70 10.79C12.39 10.87 12.12 10.99 11.88 11.15C11.64 11.31 11.45 11.51 11.30 11.76C11.16 12.01 11.08 12.30 11.08 12.64C11.08 12.91 11.13 13.15 11.22 13.35C11.32 13.55 11.45 13.74 11.61 13.90C11.77 14.06 11.97 14.21 12.19 14.34C12.41 14.47 12.65 14.60 12.91 14.73L13.59 15.08C13.80 15.20 13.98 15.31 14.13 15.43C14.29 15.55 14.41 15.69 14.49 15.84C14.58 15.98 14.62 16.15 14.62 16.35C14.62 16.72 14.49 17.01 14.23 17.20C13.97 17.40 13.58 17.50 13.05 17.50C12.89 17.50 12.72 17.48 12.54 17.45C12.36 17.42 12.18 17.38 12.00 17.32C11.82 17.26 11.65 17.19 11.49 17.11C11.33 17.03 11.19 16.94 11.07 16.84ZM21.24 18.15L21.24 14.91C21.24 13.49 20.65 12.77 19.46 12.77C18.72 12.77 18.15 13.11 17.74 13.77L17.72 13.77L17.72 10.38L16.88 10.38L16.88 18.15L17.72 18.15L17.72 15.17C17.72 14.68 17.86 14.27 18.14 13.96C18.42 13.64 18.77 13.48 19.18 13.48C19.99 13.48 20.40 14.03 20.40 15.12L20.40 18.15ZM23.25 11.56C23.41 11.56 23.54 11.51 23.65 11.41C23.75 11.30 23.81 11.17 23.81 11.02C23.81 10.86 23.75 10.73 23.65 10.63C23.54 10.52 23.41 10.47 23.25 10.47C23.10 10.47 22.97 10.52 22.87 10.63C22.76 10.73 22.71 10.86 22.71 11.02C22.71 11.18 22.76 11.31 22.87 11.41C22.97 11.51 23.10 11.56 23.25 11.56ZM23.66 18.15L23.66 12.90L22.82 12.90L22.82 18.15ZM27.96 11.11L27.96 10.35C27.81 10.29 27.61 10.26 27.35 10.26C26.87 10.26 26.48 10.42 26.16 10.74C25.84 11.06 25.68 11.50 25.68 12.05L25.68 12.90L24.79 12.90L24.79 13.62L25.68 13.62L25.68 18.15L26.52 18.15L26.52 13.62L27.75 13.62L27.75 12.90L26.52 12.90L26.52 12.09C26.52 11.35 26.81 10.98 27.40 10.98C27.61 10.98 27.80 11.02 27.96 11.11ZM31.28 18.10L31.28 17.38C31.12 17.49 30.94 17.55 30.73 17.55C30.45 17.55 30.25 17.48 30.13 17.33C30.01 17.18 29.95 16.93 29.95 16.57L29.95 13.62L31.28 13.62L31.28 12.90L29.95 12.90L29.95 11.34L29.11 11.62L29.11 12.90L28.21 12.90L28.21 13.62L29.11 13.62L29.11 16.72C29.11 17.75 29.57 18.26 30.49 18.26C30.82 18.26 31.08 18.21 31.28 18.10Z" fill="#000000"></path></svg>