<svg xmlns="http://www.w3.org/2000/svg" version="1.1" xmlns:xlink="http://www.w3.org/1999/xlink" xmlns:svgjs="http://svgjs.com/svgjs" width="30" height="30"><svg id="SvgjsSvg1002" style="overflow: hidden; top: -100%; left: -100%; position: absolute; opacity: 0;" width="2" height="0" focusable="false"><polyline id="SvgjsPolyline1003" points="0,0"></polyline><path id="SvgjsPath1004" d="M0 0 "></path></svg><defs id="SvgjsDefs2898"></defs><rect id="SvgjsRect2899" width="29" height="29" x="0.5" y="0.5" rx="6" ry="6" fill="#ffffff" stroke-opacity="1" stroke="#444c56" stroke-width="1"></rect><path id="SvgjsPath2900" d="M12.36 11.57L12.36 10.80L7.26 10.80L7.26 11.57L9.38 11.57L9.38 18.15L10.24 18.15L10.24 11.57ZM16.05 18.15L16.05 14.73C16.05 13.43 15.43 12.77 14.20 12.77C13.52 12.77 12.93 12.94 12.41 13.27L12.41 14.13C12.92 13.70 13.49 13.48 14.12 13.48C14.84 13.48 15.21 13.93 15.21 14.82L13.63 15.04C12.48 15.20 11.90 15.77 11.90 16.75C11.90 17.21 12.05 17.58 12.34 17.86C12.64 18.13 13.05 18.27 13.57 18.27C14.28 18.27 14.82 17.96 15.18 17.33L15.21 17.33L15.21 18.15ZM15.21 15.49L15.21 16.01C15.21 16.46 15.07 16.83 14.80 17.12C14.53 17.42 14.18 17.56 13.76 17.56C13.46 17.56 13.22 17.48 13.03 17.32C12.85 17.16 12.76 16.95 12.76 16.69C12.76 16.34 12.86 16.09 13.06 15.96C13.26 15.82 13.55 15.72 13.94 15.67ZM18.49 17.39C18.85 17.98 19.37 18.27 20.07 18.27C20.81 18.27 21.39 18.01 21.82 17.48C22.25 16.95 22.46 16.25 22.46 15.37C22.46 14.58 22.27 13.95 21.89 13.48C21.51 13.01 20.98 12.77 20.31 12.77C19.51 12.77 18.91 13.12 18.49 13.82L18.47 13.82L18.47 10.38L17.63 10.38L17.63 18.15L18.47 18.15L18.47 17.39ZM18.47 15.27C18.47 14.76 18.62 14.33 18.92 13.99C19.21 13.65 19.61 13.48 20.10 13.48C20.56 13.48 20.92 13.65 21.19 13.98C21.46 14.31 21.60 14.77 21.60 15.35C21.60 16.05 21.45 16.59 21.17 16.98C20.88 17.37 20.48 17.56 19.97 17.56C19.53 17.56 19.18 17.41 18.89 17.11C18.61 16.81 18.47 16.44 18.47 16.00Z" fill="#000000"></path></svg>