<svg xmlns="http://www.w3.org/2000/svg" version="1.1" xmlns:xlink="http://www.w3.org/1999/xlink" xmlns:svgjs="http://svgjs.com/svgjs" width="33" height="30"><svg id="SvgjsSvg1002" style="overflow: hidden; top: -100%; left: -100%; position: absolute; opacity: 0;" width="2" height="0" focusable="false"><polyline id="SvgjsPolyline1003" points="0,0"></polyline><path id="SvgjsPath1004" d="M0 0 "></path></svg><defs id="SvgjsDefs2892"></defs><rect id="SvgjsRect2893" width="32" height="29" x="0.5" y="0.5" rx="6" ry="6" fill="#ffffff" stroke-opacity="1" stroke="#444c56" stroke-width="1"></rect><path id="SvgjsPath2894" d="M15.95 7.84C15.95 7.84 24.25 6.60 24.25 6.60C24.25 6.60 24.25 14.09 24.25 14.09C24.25 14.09 15.95 14.09 15.95 14.09C15.95 14.09 15.95 7.84 15.95 7.84ZM8.94 14.16C8.94 14.16 8.94 8.84 8.94 8.84C8.94 8.84 15.43 7.88 15.43 7.88C15.43 7.88 15.43 14.16 15.43 14.16C15.43 14.16 8.94 14.16 8.94 14.16ZM15.95 20.75C15.95 20.75 15.95 14.68 15.95 14.68C15.95 14.68 24.25 14.68 24.25 14.68C24.25 14.68 24.25 21.99 24.25 21.99C24.25 21.99 15.95 20.75 15.95 20.75ZM8.94 19.72C8.94 19.72 8.94 14.68 8.94 14.68C8.94 14.68 15.43 14.68 15.43 14.68C15.43 14.68 15.43 20.69 15.43 20.69C15.43 20.69 8.94 19.72 8.94 19.72Z" fill="#000000"></path></svg>