<svg xmlns="http://www.w3.org/2000/svg" version="1.1" xmlns:xlink="http://www.w3.org/1999/xlink" xmlns:svgjs="http://svgjs.com/svgjs" width="20" height="20"><svg id="SvgjsSvg1002" style="overflow: hidden; top: -100%; left: -100%; position: absolute; opacity: 0;" width="2" height="0" focusable="false"><polyline id="SvgjsPolyline1003" points="0,0"></polyline><path id="SvgjsPath1004" d="M0 0 "></path></svg><defs id="SvgjsDefs1083"></defs><rect id="SvgjsRect1084" width="19" height="19" x="0.5" y="0.5" rx="4" ry="4" fill="#ffffff" stroke-opacity="1" stroke="#444c56" stroke-width="1"></rect><path id="SvgjsPath1085" d="M6.72 10.68C6.72 13.42 7.88 15.17 10.00 15.17C12.14 15.17 13.28 13.41 13.28 10.68L13.28 9.96C13.28 7.20 12.14 5.45 10.01 5.45C7.88 5.45 6.72 7.21 6.72 9.96ZM7.90 9.97C7.90 7.76 8.70 6.49 10.00 6.49C11.30 6.49 12.10 7.76 12.10 9.97L12.10 10.67C12.10 12.88 11.30 14.13 10.00 14.13C8.70 14.13 7.90 12.88 7.90 10.67Z" fill="#000000"></path></svg>