<svg xmlns="http://www.w3.org/2000/svg" version="1.1" xmlns:xlink="http://www.w3.org/1999/xlink" xmlns:svgjs="http://svgjs.com/svgjs" width="20" height="20"><svg id="SvgjsSvg1002" style="overflow: hidden; top: -100%; left: -100%; position: absolute; opacity: 0;" width="2" height="0" focusable="false"><polyline id="SvgjsPolyline1003" points="0,0"></polyline><path id="SvgjsPath1004" d="M0 0 "></path></svg><defs id="SvgjsDefs1092"></defs><rect id="SvgjsRect1093" width="19" height="19" x="0.5" y="0.5" rx="4" ry="4" fill="#ffffff" stroke-opacity="1" stroke="#444c56" stroke-width="1"></rect><path id="SvgjsPath1094" d="M8.93 10.68L9.88 10.68C11.18 10.68 11.94 11.36 11.96 12.38C11.97 13.40 11.22 14.15 9.88 14.15C8.63 14.15 8.04 13.44 7.92 12.56L6.79 12.56C6.85 13.99 7.84 15.18 9.84 15.18C11.78 15.18 13.20 13.99 13.17 12.39C13.13 10.87 11.92 10.19 11.13 10.12L11.13 10.10C11.85 9.99 12.86 9.15 12.82 7.83C12.78 6.49 11.63 5.45 9.88 5.45C8.00 5.45 7.05 6.75 7.03 7.98L8.17 7.98C8.23 7.28 8.71 6.47 9.88 6.47C10.94 6.47 11.61 7.11 11.61 8.02C11.62 8.97 10.88 9.64 9.82 9.64L8.93 9.64Z" fill="#000000"></path></svg>