<svg xmlns="http://www.w3.org/2000/svg" version="1.1" xmlns:xlink="http://www.w3.org/1999/xlink" xmlns:svgjs="http://svgjs.com/svgjs" width="20" height="20"><svg id="SvgjsSvg1002" style="overflow: hidden; top: -100%; left: -100%; position: absolute; opacity: 0;" width="2" height="0" focusable="false"><polyline id="SvgjsPolyline1003" points="0,0"></polyline><path id="SvgjsPath1004" d="M0 0 "></path></svg><defs id="SvgjsDefs1098"></defs><rect id="SvgjsRect1099" width="19" height="19" x="0.5" y="0.5" rx="4" ry="4" fill="#ffffff" stroke-opacity="1" stroke="#444c56" stroke-width="1"></rect><path id="SvgjsPath1100" d="M6.88 12.63C6.98 13.99 8.03 15.17 9.96 15.17C11.86 15.17 13.31 13.86 13.31 11.93C13.31 10.06 11.90 8.80 10.23 8.80C9.23 8.80 8.45 9.28 8.22 9.60L8.20 9.60L8.51 6.68L12.61 6.68L12.61 5.63L7.50 5.63L6.99 11.06L8.00 11.06C8.27 10.45 8.90 9.82 10.05 9.82C11.18 9.82 12.11 10.64 12.11 11.97C12.11 13.39 10.99 14.14 10.03 14.14C8.96 14.14 8.18 13.62 8.03 12.63Z" fill="#000000"></path></svg>