<svg xmlns="http://www.w3.org/2000/svg" version="1.1" xmlns:xlink="http://www.w3.org/1999/xlink" xmlns:svgjs="http://svgjs.com/svgjs" width="20" height="20"><svg id="SvgjsSvg1002" style="overflow: hidden; top: -100%; left: -100%; position: absolute; opacity: 0;" width="2" height="0" focusable="false"><polyline id="SvgjsPolyline1003" points="0,0"></polyline><path id="SvgjsPath1004" d="M0 0 "></path></svg><defs id="SvgjsDefs1101"></defs><rect id="SvgjsRect1102" width="19" height="19" x="0.5" y="0.5" rx="4" ry="4" fill="#ffffff" stroke-opacity="1" stroke="#444c56" stroke-width="1"></rect><path id="SvgjsPath1103" d="M13.07 7.81C12.97 6.68 11.97 5.47 10.25 5.47C8.22 5.47 6.75 7.16 6.75 10.67C6.75 12.20 7.09 13.33 7.68 14.07C8.27 14.81 9.11 15.17 10.11 15.17C11.89 15.17 13.32 13.99 13.32 11.97C13.32 9.99 11.79 8.91 10.27 8.91C9.07 8.91 8.20 9.60 7.93 10.29L7.91 10.29C7.98 7.61 9.00 6.49 10.20 6.49C11.29 6.49 11.83 7.28 11.87 7.81ZM8.08 12.04C8.08 10.67 9.04 9.93 10.12 9.93C11.13 9.93 12.15 10.61 12.15 12.04C12.15 13.48 11.16 14.14 10.13 14.14C9.06 14.14 8.08 13.42 8.08 12.04Z" fill="#000000"></path></svg>