<svg xmlns="http://www.w3.org/2000/svg" version="1.1" xmlns:xlink="http://www.w3.org/1999/xlink" xmlns:svgjs="http://svgjs.com/svgjs" width="20" height="20"><svg id="SvgjsSvg1002" style="overflow: hidden; top: -100%; left: -100%; position: absolute; opacity: 0;" width="2" height="0" focusable="false"><polyline id="SvgjsPolyline1003" points="0,0"></polyline><path id="SvgjsPath1004" d="M0 0 "></path></svg><defs id="SvgjsDefs1110"></defs><rect id="SvgjsRect1111" width="19" height="19" x="0.5" y="0.5" rx="4" ry="4" fill="#ffffff" stroke-opacity="1" stroke="#444c56" stroke-width="1"></rect><path id="SvgjsPath1112" d="M6.86 12.69C6.94 13.81 7.89 15.15 9.84 15.15C12.04 15.15 13.34 13.29 13.34 10.13C13.34 6.75 11.97 5.46 9.92 5.46C8.30 5.46 6.77 6.64 6.77 8.63C6.77 10.66 8.22 11.72 9.71 11.72C11.01 11.72 11.86 11.07 12.13 10.34L12.17 10.34C12.17 12.65 11.37 14.13 9.89 14.13C8.73 14.13 8.13 13.34 8.05 12.69ZM12.02 8.64C12.02 9.86 11.05 10.70 9.95 10.70C8.90 10.70 7.95 10.03 7.95 8.61C7.95 7.16 8.97 6.49 9.99 6.49C11.10 6.49 12.02 7.18 12.02 8.64Z" fill="#000000"></path></svg>