<svg xmlns="http://www.w3.org/2000/svg" version="1.1" xmlns:xlink="http://www.w3.org/1999/xlink" xmlns:svgjs="http://svgjs.com/svgjs" width="45" height="20"><svg id="SvgjsSvg1002" style="overflow: hidden; top: -100%; left: -100%; position: absolute; opacity: 0;" width="2" height="0" focusable="false"><polyline id="SvgjsPolyline1003" points="0,0"></polyline><path id="SvgjsPath1004" d="M0 0 "></path></svg><defs id="SvgjsDefs1209"></defs><rect id="SvgjsRect1210" width="44" height="19" x="0.5" y="0.5" rx="4" ry="4" fill="#ffffff" stroke-opacity="1" stroke="#444c56" stroke-width="1"></rect><path id="SvgjsPath1211" d="M8.33 14.55C9.20 14.55 9.77 13.90 9.77 12.86L9.77 12.52C9.77 11.44 9.18 10.84 8.34 10.84C7.89 10.84 7.47 11.08 7.28 11.39L7.27 11.39L7.27 9.58L6.68 9.58L6.68 14.49L7.24 14.49L7.24 13.95L7.26 13.95C7.47 14.32 7.82 14.55 8.33 14.55ZM8.26 14.03C7.63 14.03 7.26 13.61 7.26 12.83L7.26 12.55C7.26 11.77 7.64 11.35 8.26 11.35C8.80 11.35 9.18 11.77 9.18 12.55L9.18 12.83C9.18 13.60 8.80 14.03 8.26 14.03ZM12.68 14.04L12.69 14.04L12.69 14.49L13.26 14.49L13.26 12.01C13.26 11.25 12.70 10.84 11.93 10.84C11.07 10.84 10.64 11.30 10.60 11.92L11.15 11.92C11.19 11.57 11.45 11.33 11.91 11.33C12.40 11.33 12.67 11.59 12.67 12.06L12.67 12.43L11.72 12.43C10.90 12.43 10.46 12.83 10.46 13.46C10.46 14.12 10.94 14.55 11.64 14.55C12.17 14.55 12.49 14.33 12.68 14.04ZM11.79 14.06C11.42 14.06 11.07 13.86 11.07 13.44C11.07 13.11 11.28 12.88 11.77 12.88L12.67 12.88L12.67 13.30C12.67 13.74 12.30 14.06 11.79 14.06ZM14.13 12.85C14.13 13.81 14.66 14.55 15.62 14.55C16.44 14.55 16.89 14.12 17.01 13.50L16.43 13.50C16.37 13.79 16.11 14.03 15.66 14.03C15.08 14.03 14.72 13.56 14.72 12.86L14.72 12.52C14.72 11.80 15.06 11.36 15.66 11.36C16.05 11.36 16.33 11.63 16.41 11.94L16.99 11.94C16.95 11.39 16.45 10.84 15.62 10.84C14.68 10.84 14.13 11.53 14.13 12.50ZM18.43 13.19L18.76 12.83L19.98 14.49L20.70 14.49L19.20 12.46L20.61 10.90L19.89 10.90L18.45 12.49L18.43 12.49L18.43 9.58L17.84 9.58L17.84 14.49L18.43 14.49ZM21.01 11.92C21.01 12.57 21.56 12.78 22.23 12.92C22.73 13.02 23.13 13.09 23.13 13.50C23.13 13.80 22.88 14.06 22.33 14.06C21.85 14.06 21.57 13.85 21.52 13.52L20.95 13.52C20.95 14.17 21.50 14.55 22.29 14.55C23.13 14.55 23.71 14.14 23.71 13.43C23.71 12.73 23.14 12.55 22.47 12.43C22.06 12.35 21.58 12.27 21.58 11.86C21.58 11.51 21.89 11.32 22.32 11.32C22.88 11.32 23.05 11.64 23.07 11.91L23.62 11.91C23.62 11.32 23.18 10.84 22.34 10.84C21.65 10.84 21.01 11.17 21.01 11.92ZM26.17 14.55C27.02 14.55 27.60 13.91 27.60 12.86L27.60 12.53C27.60 11.46 27.01 10.84 26.20 10.84C25.71 10.84 25.35 11.07 25.14 11.41L25.12 11.41L25.12 10.90L24.56 10.90L24.56 15.68L25.14 15.68L25.14 14.01L25.16 14.01C25.36 14.33 25.71 14.55 26.17 14.55ZM26.11 14.03C25.50 14.03 25.13 13.55 25.13 12.81L25.13 12.54C25.13 11.83 25.50 11.35 26.10 11.35C26.68 11.35 27.01 11.79 27.01 12.55L27.01 12.81C27.01 13.60 26.65 14.03 26.11 14.03ZM30.51 14.04L30.53 14.04L30.53 14.49L31.09 14.49L31.09 12.01C31.09 11.25 30.54 10.84 29.77 10.84C28.90 10.84 28.48 11.30 28.44 11.92L28.99 11.92C29.03 11.57 29.29 11.33 29.75 11.33C30.24 11.33 30.51 11.59 30.51 12.06L30.51 12.43L29.56 12.43C28.74 12.43 28.30 12.83 28.30 13.46C28.30 14.12 28.78 14.55 29.47 14.55C30.00 14.55 30.33 14.33 30.51 14.04ZM29.63 14.06C29.26 14.06 28.90 13.86 28.90 13.44C28.90 13.11 29.12 12.88 29.61 12.88L30.51 12.88L30.51 13.30C30.51 13.74 30.13 14.06 29.63 14.06ZM31.97 12.85C31.97 13.81 32.50 14.55 33.46 14.55C34.28 14.55 34.73 14.12 34.85 13.50L34.27 13.50C34.21 13.79 33.95 14.03 33.50 14.03C32.92 14.03 32.55 13.56 32.55 12.86L32.55 12.52C32.55 11.80 32.90 11.36 33.49 11.36C33.88 11.36 34.17 11.63 34.25 11.94L34.82 11.94C34.79 11.39 34.29 10.84 33.46 10.84C32.52 10.84 31.97 11.53 31.97 12.50ZM37.03 14.55C37.83 14.55 38.30 14.11 38.44 13.51L37.86 13.51C37.74 13.85 37.47 14.05 37.05 14.05C36.46 14.05 36.12 13.59 36.12 12.90L36.12 12.84L38.49 12.84L38.49 12.50C38.49 11.51 37.95 10.84 37.01 10.84C36.06 10.84 35.53 11.51 35.53 12.46L35.53 12.86C35.53 13.89 36.10 14.55 37.03 14.55ZM36.12 12.36L36.12 12.35C36.12 11.78 36.46 11.33 37.01 11.33C37.55 11.33 37.90 11.78 37.90 12.35L37.90 12.36Z" fill="#000000"></path></svg>