<svg xmlns="http://www.w3.org/2000/svg" version="1.1" xmlns:xlink="http://www.w3.org/1999/xlink" xmlns:svgjs="http://svgjs.com/svgjs" width="20" height="20"><svg id="SvgjsSvg1002" style="overflow: hidden; top: -100%; left: -100%; position: absolute; opacity: 0;" width="2" height="0" focusable="false"><polyline id="SvgjsPolyline1003" points="0,0"></polyline><path id="SvgjsPath1004" d="M0 0 "></path></svg><defs id="SvgjsDefs1011"></defs><rect id="SvgjsRect1012" width="19" height="19" x="0.5" y="0.5" rx="4" ry="4" fill="#ffffff" stroke-opacity="1" stroke="#444c56" stroke-width="1"></rect><path id="SvgjsPath1013" d="M7.68 9.73C7.68 7.68 8.56 6.52 10.16 6.52C11.47 6.52 12.37 7.38 12.41 8.62L13.58 8.62L13.58 8.60C13.58 6.77 12.14 5.45 10.15 5.45C7.84 5.45 6.49 7.05 6.49 9.73L6.49 10.95C6.49 13.60 7.84 15.17 10.15 15.17C12.13 15.17 13.58 13.91 13.58 12.19L13.58 12.16L12.41 12.16C12.37 13.32 11.47 14.10 10.16 14.10C8.56 14.10 7.68 12.97 7.68 10.95Z" fill="#000000"></path></svg>