<svg xmlns="http://www.w3.org/2000/svg" version="1.1" xmlns:xlink="http://www.w3.org/1999/xlink" xmlns:svgjs="http://svgjs.com/svgjs" width="20" height="20"><svg id="SvgjsSvg1002" style="overflow: hidden; top: -100%; left: -100%; position: absolute; opacity: 0;" width="2" height="0" focusable="false"><polyline id="SvgjsPolyline1003" points="0,0"></polyline><path id="SvgjsPath1004" d="M0 0 "></path></svg><defs id="SvgjsDefs1221"></defs><rect id="SvgjsRect1222" width="19" height="19" x="0.5" y="0.5" rx="4" ry="4" fill="#ffffff" stroke-opacity="1" stroke="#444c56" stroke-width="1"></rect><path id="SvgjsPath1223" d="M8.41 12.45L11.59 12.45C12.34 12.45 12.74 12.04 12.74 11.33L12.74 10.49L14.53 10.49C14.98 10.49 15.35 10.23 15.35 9.79C15.35 9.54 15.23 9.33 15.00 9.13L10.67 5.30C10.46 5.12 10.25 4.98 10.00 4.98C9.75 4.98 9.54 5.12 9.33 5.30L5.00 9.13C4.77 9.33 4.65 9.54 4.65 9.79C4.65 10.23 5.02 10.49 5.48 10.49L7.27 10.49L7.27 11.33C7.27 12.04 7.66 12.45 8.41 12.45ZM8.55 11.55C8.40 11.55 8.28 11.44 8.28 11.27L8.28 9.60L6.08 9.60C6.06 9.60 6.04 9.58 6.04 9.56C6.04 9.54 6.05 9.53 6.07 9.51L9.94 6.08C9.96 6.06 9.98 6.06 10.00 6.06C10.02 6.06 10.04 6.06 10.06 6.08L13.93 9.51C13.95 9.53 13.96 9.54 13.96 9.56C13.96 9.58 13.95 9.60 13.92 9.60L11.72 9.60L11.72 11.27C11.72 11.43 11.60 11.55 11.45 11.55ZM8.41 15.87L11.59 15.87C12.34 15.87 12.77 15.49 12.77 14.74L12.77 14.20C12.77 13.46 12.34 13.08 11.59 13.08L8.41 13.08C7.66 13.08 7.23 13.47 7.23 14.20L7.23 14.74C7.23 15.48 7.66 15.87 8.41 15.87ZM8.49 15.00C8.28 15.00 8.18 14.88 8.18 14.68L8.18 14.26C8.18 14.06 8.28 13.94 8.49 13.94L11.51 13.94C11.72 13.94 11.82 14.06 11.82 14.26L11.82 14.68C11.82 14.88 11.72 15.00 11.51 15.00Z" fill="#000000"></path></svg>