<svg xmlns="http://www.w3.org/2000/svg" version="1.1" xmlns:xlink="http://www.w3.org/1999/xlink" xmlns:svgjs="http://svgjs.com/svgjs" width="22" height="20"><svg id="SvgjsSvg1002" style="overflow: hidden; top: -100%; left: -100%; position: absolute; opacity: 0;" width="2" height="0" focusable="false"><polyline id="SvgjsPolyline1003" points="0,0"></polyline><path id="SvgjsPath1004" d="M0 0 "></path></svg><defs id="SvgjsDefs1170"></defs><rect id="SvgjsRect1171" width="21" height="19" x="0.5" y="0.5" rx="4" ry="4" fill="#ffffff" stroke-opacity="1" stroke="#444c56" stroke-width="1"></rect><path id="SvgjsPath1172" d="M4.64 12.85C4.64 13.81 5.18 14.55 6.13 14.55C6.96 14.55 7.41 14.12 7.53 13.50L6.95 13.50C6.88 13.79 6.62 14.03 6.17 14.03C5.60 14.03 5.23 13.56 5.23 12.86L5.23 12.52C5.23 11.80 5.58 11.36 6.17 11.36C6.56 11.36 6.84 11.63 6.92 11.94L7.50 11.94C7.47 11.39 6.96 10.84 6.13 10.84C5.20 10.84 4.64 11.53 4.64 12.50ZM8.35 14.49L8.94 14.49L8.94 12.21C8.94 11.67 9.28 11.37 9.72 11.37C10.21 11.37 10.50 11.67 10.50 12.22L10.50 14.49L11.09 14.49L11.09 12.22C11.09 11.72 11.37 11.37 11.88 11.37C12.39 11.37 12.66 11.71 12.66 12.16L12.66 14.49L13.24 14.49L13.24 12.04C13.24 11.31 12.79 10.84 12.04 10.84C11.45 10.84 11.07 11.11 10.94 11.42L10.91 11.42C10.77 11.06 10.43 10.84 9.87 10.84C9.40 10.84 9.08 11.09 8.96 11.34L8.93 11.34L8.93 10.90L8.35 10.90ZM15.57 10.84C14.66 10.84 14.13 11.55 14.13 12.53L14.13 12.85C14.13 13.86 14.63 14.54 15.57 14.54C16.05 14.54 16.42 14.32 16.63 13.95L16.64 13.95L16.64 14.49L17.20 14.49L17.20 9.58L16.62 9.58L16.62 11.40L16.60 11.40C16.42 11.08 16.04 10.84 15.57 10.84ZM15.65 11.35C16.25 11.35 16.63 11.83 16.63 12.55L16.63 12.84C16.63 13.60 16.26 14.03 15.66 14.03C15.12 14.03 14.72 13.63 14.72 12.83L14.72 12.55C14.72 11.75 15.12 11.35 15.65 11.35Z" fill="#000000"></path></svg>