<svg xmlns="http://www.w3.org/2000/svg" version="1.1" xmlns:xlink="http://www.w3.org/1999/xlink" xmlns:svgjs="http://svgjs.com/svgjs" width="38" height="20"><svg id="SvgjsSvg1002" style="overflow: hidden; top: -100%; left: -100%; position: absolute; opacity: 0;" width="2" height="0" focusable="false"><polyline id="SvgjsPolyline1003" points="0,0"></polyline><path id="SvgjsPath1004" d="M0 0 "></path></svg><defs id="SvgjsDefs1191"></defs><rect id="SvgjsRect1192" width="37" height="19" x="0.5" y="0.5" rx="4" ry="4" fill="#ffffff" stroke-opacity="1" stroke="#444c56" stroke-width="1"></rect><path id="SvgjsPath1193" d="M6.29 8.84C5.39 8.84 4.86 9.55 4.86 10.53L4.86 10.85C4.86 11.86 5.36 12.54 6.29 12.54C6.77 12.54 7.15 12.32 7.35 11.95L7.37 11.95L7.37 12.49L7.93 12.49L7.93 7.58L7.34 7.58L7.34 9.40L7.32 9.40C7.14 9.08 6.77 8.84 6.29 8.84ZM6.37 9.35C6.98 9.35 7.35 9.83 7.35 10.55L7.35 10.84C7.35 11.60 6.99 12.03 6.38 12.03C5.84 12.03 5.45 11.63 5.45 10.83L5.45 10.55C5.45 9.75 5.84 9.35 6.37 9.35ZM10.35 12.55C11.14 12.55 11.62 12.11 11.75 11.51L11.17 11.51C11.05 11.85 10.78 12.05 10.36 12.05C9.78 12.05 9.43 11.59 9.43 10.90L9.43 10.84L11.80 10.84L11.80 10.50C11.80 9.51 11.26 8.84 10.32 8.84C9.38 8.84 8.84 9.51 8.84 10.46L8.84 10.86C8.84 11.89 9.41 12.55 10.35 12.55ZM9.43 10.36L9.43 10.35C9.43 9.78 9.78 9.33 10.33 9.33C10.86 9.33 11.21 9.78 11.21 10.35L11.21 10.36ZM12.71 12.49L13.30 12.49L13.30 7.58L12.71 7.58ZM15.73 12.55C16.53 12.55 17.00 12.11 17.14 11.51L16.55 11.51C16.44 11.85 16.16 12.05 15.75 12.05C15.16 12.05 14.81 11.59 14.81 10.90L14.81 10.84L17.19 10.84L17.19 10.50C17.19 9.51 16.65 8.84 15.71 8.84C14.76 8.84 14.23 9.51 14.23 10.46L14.23 10.86C14.23 11.89 14.80 12.55 15.73 12.55ZM14.81 10.36L14.81 10.35C14.81 9.78 15.16 9.33 15.71 9.33C16.25 9.33 16.60 9.78 16.60 10.35L16.60 10.36ZM18.30 8.90L17.81 8.90L17.81 9.39L18.30 9.39L18.30 11.48C18.30 12.19 18.47 12.52 19.32 12.52C19.44 12.52 19.57 12.51 19.62 12.50L19.62 12.02C19.57 12.03 19.53 12.03 19.47 12.03C19.03 12.03 18.88 11.92 18.88 11.49L18.88 9.39L19.59 9.39L19.59 8.90L18.88 8.90L18.88 8.00L18.30 8.00ZM21.80 12.55C22.59 12.55 23.06 12.11 23.20 11.51L22.62 11.51C22.50 11.85 22.23 12.05 21.81 12.05C21.23 12.05 20.88 11.59 20.88 10.90L20.88 10.84L23.25 10.84L23.25 10.50C23.25 9.51 22.71 8.84 21.77 8.84C20.83 8.84 20.29 9.51 20.29 10.46L20.29 10.86C20.29 11.89 20.86 12.55 21.80 12.55ZM20.88 10.36L20.88 10.35C20.88 9.78 21.23 9.33 21.77 9.33C22.31 9.33 22.66 9.78 22.66 10.35L22.66 10.36ZM26.87 13.15L29.67 13.15C30.07 13.15 30.40 13.03 30.67 12.73L32.55 10.78C32.77 10.55 32.86 10.36 32.86 10.15C32.86 9.95 32.77 9.76 32.55 9.53L30.67 7.56C30.40 7.27 30.08 7.17 29.68 7.17L26.87 7.17C26.19 7.17 25.84 7.51 25.84 8.19L25.84 12.14C25.84 12.82 26.19 13.15 26.87 13.15ZM27.62 11.60C27.46 11.60 27.32 11.46 27.32 11.30C27.32 11.22 27.35 11.15 27.41 11.08L28.34 10.15L27.41 9.22C27.35 9.17 27.32 9.09 27.32 9.01C27.32 8.85 27.46 8.71 27.62 8.71C27.70 8.71 27.78 8.74 27.84 8.80L28.77 9.73L29.69 8.80C29.75 8.74 29.83 8.71 29.91 8.71C30.07 8.71 30.21 8.85 30.21 9.01C30.21 9.09 30.18 9.17 30.12 9.22L29.19 10.15L30.12 11.08C30.18 11.15 30.21 11.22 30.21 11.30C30.21 11.46 30.07 11.60 29.91 11.60C29.82 11.60 29.75 11.57 29.70 11.51L28.77 10.57L27.83 11.51C27.78 11.57 27.71 11.60 27.62 11.60Z" fill="#000000"></path></svg>