<svg xmlns="http://www.w3.org/2000/svg" version="1.1" xmlns:xlink="http://www.w3.org/1999/xlink" xmlns:svgjs="http://svgjs.com/svgjs" width="32" height="20"><svg id="SvgjsSvg1002" style="overflow: hidden; top: -100%; left: -100%; position: absolute; opacity: 0;" width="2" height="0" focusable="false"><polyline id="SvgjsPolyline1003" points="0,0"></polyline><path id="SvgjsPath1004" d="M0 0 "></path></svg><defs id="SvgjsDefs1188"></defs><rect id="SvgjsRect1189" width="31" height="19" x="0.5" y="0.5" rx="4" ry="4" fill="#ffffff" stroke-opacity="1" stroke="#444c56" stroke-width="1"></rect><path id="SvgjsPath1190" d="M8.25 10.84C7.34 10.84 6.81 11.55 6.81 12.53L6.81 12.85C6.81 13.86 7.31 14.54 8.25 14.54C8.73 14.54 9.10 14.32 9.31 13.95L9.32 13.95L9.32 14.49L9.88 14.49L9.88 9.58L9.30 9.58L9.30 11.40L9.28 11.40C9.10 11.08 8.72 10.84 8.25 10.84ZM8.33 11.35C8.93 11.35 9.31 11.83 9.31 12.55L9.31 12.84C9.31 13.60 8.94 14.03 8.34 14.03C7.80 14.03 7.40 13.63 7.40 12.83L7.40 12.55C7.40 11.75 7.80 11.35 8.33 11.35ZM12.30 14.55C13.10 14.55 13.57 14.11 13.71 13.51L13.12 13.51C13.01 13.85 12.73 14.05 12.32 14.05C11.73 14.05 11.38 13.59 11.38 12.90L11.38 12.84L13.76 12.84L13.76 12.50C13.76 11.51 13.22 10.84 12.28 10.84C11.33 10.84 10.80 11.51 10.80 12.46L10.80 12.86C10.80 13.89 11.37 14.55 12.30 14.55ZM11.38 12.36L11.38 12.35C11.38 11.78 11.73 11.33 12.28 11.33C12.82 11.33 13.17 11.78 13.17 12.35L13.17 12.36ZM14.67 14.49L15.25 14.49L15.25 9.58L14.67 9.58ZM17.69 14.55C18.48 14.55 18.95 14.11 19.09 13.51L18.51 13.51C18.39 13.85 18.12 14.05 17.70 14.05C17.12 14.05 16.77 13.59 16.77 12.90L16.77 12.84L19.14 12.84L19.14 12.50C19.14 11.51 18.60 10.84 17.66 10.84C16.72 10.84 16.18 11.51 16.18 12.46L16.18 12.86C16.18 13.89 16.75 14.55 17.69 14.55ZM16.77 12.36L16.77 12.35C16.77 11.78 17.12 11.33 17.66 11.33C18.20 11.33 18.55 11.78 18.55 12.35L18.55 12.36ZM20.25 10.90L19.77 10.90L19.77 11.39L20.25 11.39L20.25 13.48C20.25 14.19 20.42 14.52 21.28 14.52C21.40 14.52 21.52 14.51 21.57 14.50L21.57 14.02C21.53 14.03 21.48 14.03 21.42 14.03C20.98 14.03 20.84 13.92 20.84 13.49L20.84 11.39L21.55 11.39L21.55 10.90L20.84 10.90L20.84 10.00L20.25 10.00ZM23.75 14.55C24.54 14.55 25.02 14.11 25.16 13.51L24.57 13.51C24.45 13.85 24.18 14.05 23.76 14.05C23.18 14.05 22.83 13.59 22.83 12.90L22.83 12.84L25.20 12.84L25.20 12.50C25.20 11.51 24.66 10.84 23.72 10.84C22.78 10.84 22.24 11.51 22.24 12.46L22.24 12.86C22.24 13.89 22.81 14.55 23.75 14.55ZM22.83 12.36L22.83 12.35C22.83 11.78 23.18 11.33 23.73 11.33C24.26 11.33 24.61 11.78 24.61 12.35L24.61 12.36Z" fill="#000000"></path></svg>