<svg xmlns="http://www.w3.org/2000/svg" version="1.1" xmlns:xlink="http://www.w3.org/1999/xlink" xmlns:svgjs="http://svgjs.com/svgjs" width="20" height="20"><svg id="SvgjsSvg1002" style="overflow: hidden; top: -100%; left: -100%; position: absolute; opacity: 0;" width="2" height="0" focusable="false"><polyline id="SvgjsPolyline1003" points="0,0"></polyline><path id="SvgjsPath1004" d="M0 0 "></path></svg><defs id="SvgjsDefs1245"></defs><rect id="SvgjsRect1246" width="19" height="19" x="0.5" y="0.5" rx="4" ry="4" fill="#ffffff" stroke-opacity="1" stroke="#444c56" stroke-width="1"></rect><path id="SvgjsPath1247" d="M6.05 11.27L13.96 11.27C14.48 11.27 14.76 11.00 14.78 10.54C14.78 10.32 14.67 10.10 14.49 9.91L10.82 6.00C10.57 5.75 10.32 5.58 10.01 5.58C9.68 5.58 9.44 5.74 9.19 6.00L5.52 9.91C5.34 10.10 5.24 10.32 5.24 10.54C5.24 11.00 5.52 11.27 6.05 11.27ZM6.75 10.34C6.67 10.34 6.63 10.30 6.63 10.24C6.63 10.21 6.64 10.18 6.66 10.16L9.86 6.81C9.90 6.77 9.94 6.73 10.01 6.73C10.07 6.73 10.10 6.77 10.15 6.81L13.34 10.16C13.36 10.18 13.38 10.21 13.38 10.24C13.38 10.30 13.34 10.34 13.26 10.34ZM6.29 15.09L13.70 15.09C14.46 15.09 14.88 14.70 14.88 13.96L14.88 13.31C14.88 12.57 14.46 12.18 13.70 12.18L6.29 12.18C5.54 12.18 5.12 12.56 5.12 13.31L5.12 13.96C5.12 14.71 5.54 15.09 6.29 15.09ZM6.44 14.18C6.23 14.18 6.13 14.06 6.13 13.86L6.13 13.40C6.13 13.21 6.23 13.09 6.44 13.09L13.56 13.09C13.77 13.09 13.87 13.21 13.87 13.40L13.87 13.86C13.87 14.06 13.77 14.18 13.56 14.18Z" fill="#000000"></path></svg>