<svg xmlns="http://www.w3.org/2000/svg" version="1.1" xmlns:xlink="http://www.w3.org/1999/xlink" xmlns:svgjs="http://svgjs.com/svgjs" width="30" height="20"><svg id="SvgjsSvg1002" style="overflow: hidden; top: -100%; left: -100%; position: absolute; opacity: 0;" width="2" height="0" focusable="false"><polyline id="SvgjsPolyline1003" points="0,0"></polyline><path id="SvgjsPath1004" d="M0 0 "></path></svg><defs id="SvgjsDefs1206"></defs><rect id="SvgjsRect1207" width="29" height="19" x="0.5" y="0.5" rx="4" ry="4" fill="#ffffff" stroke-opacity="1" stroke="#444c56" stroke-width="1"></rect><path id="SvgjsPath1208" d="M8.85 14.55C9.65 14.55 10.12 14.11 10.26 13.51L9.67 13.51C9.56 13.85 9.28 14.05 8.87 14.05C8.28 14.05 7.93 13.59 7.93 12.90L7.93 12.84L10.31 12.84L10.31 12.50C10.31 11.51 9.77 10.84 8.83 10.84C7.88 10.84 7.35 11.51 7.35 12.46L7.35 12.86C7.35 13.89 7.92 14.55 8.85 14.55ZM7.93 12.36L7.93 12.35C7.93 11.78 8.28 11.33 8.83 11.33C9.37 11.33 9.72 11.78 9.72 12.35L9.72 12.36ZM11.19 14.49L11.78 14.49L11.78 12.30C11.78 11.81 12.05 11.37 12.67 11.37C13.19 11.37 13.55 11.68 13.55 12.28L13.55 14.49L14.13 14.49L14.13 12.18C14.13 11.31 13.58 10.84 12.84 10.84C12.26 10.84 11.93 11.14 11.80 11.37L11.78 11.37L11.78 10.90L11.19 10.90ZM15.35 10.90L14.86 10.90L14.86 11.39L15.35 11.39L15.35 13.48C15.35 14.19 15.52 14.52 16.37 14.52C16.50 14.52 16.62 14.51 16.67 14.50L16.67 14.02C16.62 14.03 16.58 14.03 16.52 14.03C16.08 14.03 15.93 13.92 15.93 13.49L15.93 11.39L16.65 11.39L16.65 10.90L15.93 10.90L15.93 10.00L15.35 10.00ZM18.85 14.55C19.64 14.55 20.11 14.11 20.25 13.51L19.67 13.51C19.55 13.85 19.28 14.05 18.86 14.05C18.28 14.05 17.93 13.59 17.93 12.90L17.93 12.84L20.30 12.84L20.30 12.50C20.30 11.51 19.76 10.84 18.82 10.84C17.88 10.84 17.34 11.51 17.34 12.46L17.34 12.86C17.34 13.89 17.91 14.55 18.85 14.55ZM17.93 12.36L17.93 12.35C17.93 11.78 18.28 11.33 18.82 11.33C19.36 11.33 19.71 11.78 19.71 12.35L19.71 12.36ZM21.19 14.49L21.78 14.49L21.78 12.26C21.78 11.78 21.98 11.38 22.61 11.38C22.72 11.38 22.84 11.38 22.90 11.40L22.90 10.86C22.83 10.85 22.75 10.84 22.68 10.84C22.17 10.84 21.90 11.12 21.79 11.34L21.78 11.34L21.78 10.90L21.19 10.90Z" fill="#000000"></path></svg>