<svg xmlns="http://www.w3.org/2000/svg" version="1.1" xmlns:xlink="http://www.w3.org/1999/xlink" xmlns:svgjs="http://svgjs.com/svgjs" width="20" height="20"><svg id="SvgjsSvg1002" style="overflow: hidden; top: -100%; left: -100%; position: absolute; opacity: 0;" width="2" height="0" focusable="false"><polyline id="SvgjsPolyline1003" points="0,0"></polyline><path id="SvgjsPath1004" d="M0 0 "></path></svg><defs id="SvgjsDefs1242"></defs><rect id="SvgjsRect1243" width="19" height="19" x="0.5" y="0.5" rx="4" ry="4" fill="#ffffff" stroke-opacity="1" stroke="#444c56" stroke-width="1"></rect><path id="SvgjsPath1244" d="M6.24 15.05L10.66 15.04C11.31 15.04 11.84 14.87 12.28 14.39L15.19 11.33C15.55 10.94 15.70 10.63 15.70 10.31C15.70 9.99 15.55 9.67 15.19 9.29L12.29 6.23C11.84 5.75 11.31 5.58 10.67 5.58L6.24 5.58C5.12 5.58 4.56 6.13 4.56 7.23L4.56 13.42C4.56 14.52 5.12 15.05 6.24 15.05ZM6.27 14.05C5.81 14.05 5.56 13.81 5.56 13.33L5.56 7.30C5.56 6.82 5.81 6.58 6.27 6.58L10.70 6.58C11.05 6.58 11.28 6.65 11.53 6.91L14.41 9.94C14.56 10.10 14.60 10.21 14.60 10.31C14.60 10.41 14.56 10.52 14.41 10.68L11.52 13.71C11.27 13.97 11.05 14.05 10.69 14.05ZM7.54 12.43C7.67 12.43 7.78 12.39 7.86 12.30L9.20 10.96L10.54 12.30C10.63 12.39 10.73 12.43 10.86 12.43C11.12 12.43 11.34 12.22 11.34 11.97C11.34 11.84 11.28 11.73 11.19 11.64L9.87 10.31L11.19 8.98C11.28 8.89 11.34 8.78 11.34 8.65C11.34 8.39 11.12 8.17 10.86 8.17C10.73 8.17 10.63 8.22 10.54 8.32L9.20 9.65L7.87 8.32C7.78 8.22 7.67 8.17 7.54 8.17C7.29 8.17 7.07 8.39 7.07 8.65C7.07 8.78 7.13 8.89 7.21 8.98L8.54 10.31L7.21 11.64C7.13 11.73 7.07 11.84 7.07 11.97C7.07 12.22 7.28 12.43 7.54 12.43Z" fill="#000000"></path></svg>