<svg xmlns="http://www.w3.org/2000/svg" version="1.1" xmlns:xlink="http://www.w3.org/1999/xlink" xmlns:svgjs="http://svgjs.com/svgjs" width="20" height="20"><svg id="SvgjsSvg1002" style="overflow: hidden; top: -100%; left: -100%; position: absolute; opacity: 0;" width="2" height="0" focusable="false"><polyline id="SvgjsPolyline1003" points="0,0"></polyline><path id="SvgjsPath1004" d="M0 0 "></path></svg><defs id="SvgjsDefs1233"></defs><rect id="SvgjsRect1234" width="19" height="19" x="0.5" y="0.5" rx="4" ry="4" fill="#ffffff" stroke-opacity="1" stroke="#444c56" stroke-width="1"></rect><path id="SvgjsPath1235" d="M10 15.43C12.82 15.43 15.11 13.13 15.11 10.31C15.11 7.63 12.99 5.44 10.43 5.21C10.07 5.18 9.80 5.40 9.80 5.72C9.80 6.00 10 6.23 10.35 6.25C12.47 6.44 14.06 8.22 14.06 10.31C14.06 12.60 12.28 14.38 10 14.38C7.90 14.38 6.12 12.78 5.94 10.66C5.91 10.31 5.69 10.12 5.41 10.12C5.08 10.12 4.86 10.39 4.89 10.75C5.12 13.30 7.32 15.43 10 15.43ZM9.58 10.56C9.90 10.57 10.12 10.33 10.12 10.03C10.12 9.88 10.06 9.74 9.95 9.63L7.47 7.15L6.47 6.27C6.98 6.36 7.62 6.35 7.79 6.35C8.06 6.35 8.28 6.13 8.28 5.86C8.28 5.58 8.07 5.37 7.79 5.37L5.56 5.37C5.15 5.37 4.93 5.58 4.93 5.99L4.93 8.22C4.93 8.48 5.15 8.71 5.43 8.71C5.69 8.71 5.91 8.48 5.91 8.22C5.91 8.06 5.91 7.36 5.85 6.89L6.72 7.90L9.19 10.39C9.31 10.51 9.45 10.56 9.58 10.56Z" fill="#000000"></path></svg>