<svg xmlns="http://www.w3.org/2000/svg" version="1.1" xmlns:xlink="http://www.w3.org/1999/xlink" xmlns:svgjs="http://svgjs.com/svgjs" width="32" height="20"><svg id="SvgjsSvg1002" style="overflow: hidden; top: -100%; left: -100%; position: absolute; opacity: 0;" width="2" height="0" focusable="false"><polyline id="SvgjsPolyline1003" points="0,0"></polyline><path id="SvgjsPath1004" d="M0 0 "></path></svg><defs id="SvgjsDefs1194"></defs><rect id="SvgjsRect1195" width="31" height="19" x="0.5" y="0.5" rx="4" ry="4" fill="#ffffff" stroke-opacity="1" stroke="#444c56" stroke-width="1"></rect><path id="SvgjsPath1196" d="M6.92 14.55C7.72 14.55 8.19 14.11 8.33 13.51L7.74 13.51C7.63 13.85 7.35 14.05 6.94 14.05C6.35 14.05 6.00 13.59 6.00 12.90L6.00 12.84L8.38 12.84L8.38 12.50C8.38 11.51 7.84 10.84 6.90 10.84C5.95 10.84 5.42 11.51 5.42 12.46L5.42 12.86C5.42 13.89 5.99 14.55 6.92 14.55ZM6.00 12.36L6.00 12.35C6.00 11.78 6.35 11.33 6.90 11.33C7.44 11.33 7.79 11.78 7.79 12.35L7.79 12.36ZM9.12 11.92C9.12 12.57 9.67 12.78 10.34 12.92C10.84 13.02 11.24 13.09 11.24 13.50C11.24 13.80 10.99 14.06 10.44 14.06C9.96 14.06 9.68 13.85 9.63 13.52L9.06 13.52C9.06 14.17 9.61 14.55 10.40 14.55C11.24 14.55 11.82 14.14 11.82 13.43C11.82 12.73 11.25 12.55 10.58 12.43C10.17 12.35 9.69 12.27 9.69 11.86C9.69 11.51 10.00 11.32 10.43 11.32C10.99 11.32 11.16 11.64 11.18 11.91L11.73 11.91C11.73 11.32 11.29 10.84 10.45 10.84C9.76 10.84 9.12 11.17 9.12 11.92ZM12.51 12.85C12.51 13.81 13.05 14.55 14.00 14.55C14.83 14.55 15.28 14.12 15.40 13.50L14.82 13.50C14.75 13.79 14.49 14.03 14.04 14.03C13.47 14.03 13.10 13.56 13.10 12.86L13.10 12.52C13.10 11.80 13.45 11.36 14.04 11.36C14.43 11.36 14.71 11.63 14.79 11.94L15.37 11.94C15.34 11.39 14.83 10.84 14.00 10.84C13.07 10.84 12.51 11.53 12.51 12.50ZM18.22 14.04L18.24 14.04L18.24 14.49L18.80 14.49L18.80 12.01C18.80 11.25 18.25 10.84 17.48 10.84C16.61 10.84 16.19 11.30 16.15 11.92L16.70 11.92C16.74 11.57 17.00 11.33 17.46 11.33C17.95 11.33 18.22 11.59 18.22 12.06L18.22 12.43L17.27 12.43C16.45 12.43 16.01 12.83 16.01 13.46C16.01 14.12 16.49 14.55 17.18 14.55C17.71 14.55 18.04 14.33 18.22 14.04ZM17.34 14.06C16.97 14.06 16.61 13.86 16.61 13.44C16.61 13.11 16.83 12.88 17.32 12.88L18.22 12.88L18.22 13.30C18.22 13.74 17.84 14.06 17.34 14.06ZM21.45 14.55C22.29 14.55 22.88 13.91 22.88 12.86L22.88 12.53C22.88 11.46 22.28 10.84 21.47 10.84C20.99 10.84 20.62 11.07 20.41 11.41L20.39 11.41L20.39 10.90L19.83 10.90L19.83 15.68L20.42 15.68L20.42 14.01L20.43 14.01C20.64 14.33 20.99 14.55 21.45 14.55ZM21.39 14.03C20.78 14.03 20.41 13.55 20.41 12.81L20.41 12.54C20.41 11.83 20.77 11.35 21.37 11.35C21.95 11.35 22.29 11.79 22.29 12.55L22.29 12.81C22.29 13.60 21.93 14.03 21.39 14.03ZM25.14 14.55C25.94 14.55 26.41 14.11 26.55 13.51L25.97 13.51C25.85 13.85 25.58 14.05 25.16 14.05C24.57 14.05 24.23 13.59 24.23 12.90L24.23 12.84L26.60 12.84L26.60 12.50C26.60 11.51 26.06 10.84 25.12 10.84C24.17 10.84 23.64 11.51 23.64 12.46L23.64 12.86C23.64 13.89 24.21 14.55 25.14 14.55ZM24.23 12.36L24.23 12.35C24.23 11.78 24.57 11.33 25.12 11.33C25.66 11.33 26.01 11.78 26.01 12.35L26.01 12.36Z" fill="#000000"></path></svg>