<svg xmlns="http://www.w3.org/2000/svg" version="1.1" xmlns:xlink="http://www.w3.org/1999/xlink" xmlns:svgjs="http://svgjs.com/svgjs" width="26" height="20"><svg id="SvgjsSvg1002" style="overflow: hidden; top: -100%; left: -100%; position: absolute; opacity: 0;" width="2" height="0" focusable="false"><polyline id="SvgjsPolyline1003" points="0,0"></polyline><path id="SvgjsPath1004" d="M0 0 "></path></svg><defs id="SvgjsDefs1140"></defs><rect id="SvgjsRect1141" width="25" height="19" x="0.5" y="0.5" rx="4" ry="4" fill="#ffffff" stroke-opacity="1" stroke="#444c56" stroke-width="1"></rect><path id="SvgjsPath1142" d="M8.26 12.99L8.26 10.57L10.63 10.57L10.63 9.93L8.26 9.93L8.26 8.03L10.85 8.03L10.85 7.39L7.54 7.39L7.54 12.99ZM13.59 12.99L13.59 7.39L12.92 7.39C12.52 7.60 11.94 7.95 11.54 8.23L11.54 8.96C11.91 8.71 12.59 8.29 12.86 8.15L12.88 8.15L12.88 12.99ZM14.79 10.41C14.79 12.05 15.49 13.10 16.77 13.10C18.05 13.10 18.73 12.05 18.73 10.41L18.73 9.98C18.73 8.32 18.04 7.27 16.77 7.27C15.49 7.27 14.79 8.33 14.79 9.98ZM15.50 9.98C15.50 8.65 15.98 7.90 16.77 7.90C17.54 7.90 18.02 8.65 18.02 9.98L18.02 10.40C18.02 11.73 17.54 12.48 16.77 12.48C15.98 12.48 15.50 11.73 15.50 10.40Z" fill="#000000"></path></svg>