<svg xmlns="http://www.w3.org/2000/svg" version="1.1" xmlns:xlink="http://www.w3.org/1999/xlink" xmlns:svgjs="http://svgjs.com/svgjs" width="26" height="20"><svg id="SvgjsSvg1002" style="overflow: hidden; top: -100%; left: -100%; position: absolute; opacity: 0;" width="2" height="0" focusable="false"><polyline id="SvgjsPolyline1003" points="0,0"></polyline><path id="SvgjsPath1004" d="M0 0 "></path></svg><defs id="SvgjsDefs1146"></defs><rect id="SvgjsRect1147" width="25" height="19" x="0.5" y="0.5" rx="4" ry="4" fill="#ffffff" stroke-opacity="1" stroke="#444c56" stroke-width="1"></rect><path id="SvgjsPath1148" d="M8.36 12.99L8.36 10.57L10.73 10.57L10.73 9.93L8.36 9.93L8.36 8.03L10.95 8.03L10.95 7.39L7.64 7.39L7.64 12.99ZM13.68 12.99L13.68 7.39L13.02 7.39C12.61 7.60 12.04 7.95 11.64 8.23L11.64 8.96C12.01 8.71 12.68 8.29 12.96 8.15L12.98 8.15L12.98 12.99ZM15.67 8.93L15.67 8.91C15.67 8.36 16.06 7.89 16.72 7.89C17.30 7.89 17.74 8.26 17.74 8.85C17.74 9.36 17.41 9.75 17.10 10.11L15.01 12.53L15.01 12.99L18.57 12.99L18.57 12.36L16.01 12.36L16.01 12.35L17.52 10.57C18.06 9.94 18.47 9.48 18.47 8.80C18.47 7.92 17.78 7.27 16.74 7.27C15.60 7.27 14.97 8.05 14.97 8.91L14.97 8.93Z" fill="#000000"></path></svg>