<svg xmlns="http://www.w3.org/2000/svg" version="1.1" xmlns:xlink="http://www.w3.org/1999/xlink" xmlns:svgjs="http://svgjs.com/svgjs" width="26" height="20"><svg id="SvgjsSvg1002" style="overflow: hidden; top: -100%; left: -100%; position: absolute; opacity: 0;" width="2" height="0" focusable="false"><polyline id="SvgjsPolyline1003" points="0,0"></polyline><path id="SvgjsPath1004" d="M0 0 "></path></svg><defs id="SvgjsDefs1149"></defs><rect id="SvgjsRect1150" width="25" height="19" x="0.5" y="0.5" rx="4" ry="4" fill="#ffffff" stroke-opacity="1" stroke="#444c56" stroke-width="1"></rect><path id="SvgjsPath1151" d="M8.31 12.99L8.31 10.57L10.69 10.57L10.69 9.93L8.31 9.93L8.31 8.03L10.90 8.03L10.90 7.39L7.60 7.39L7.60 12.99ZM13.64 12.99L13.64 7.39L12.98 7.39C12.57 7.60 12.00 7.95 11.60 8.23L11.60 8.96C11.97 8.71 12.64 8.29 12.92 8.15L12.93 8.15L12.93 12.99ZM16.12 10.41L16.69 10.41C17.47 10.41 17.93 10.82 17.94 11.43C17.94 12.04 17.49 12.49 16.69 12.49C15.94 12.49 15.59 12.06 15.51 11.54L14.84 11.54C14.87 12.40 15.47 13.11 16.67 13.11C17.83 13.11 18.68 12.39 18.66 11.43C18.64 10.52 17.92 10.11 17.44 10.07L17.44 10.06C17.87 9.99 18.48 9.49 18.46 8.70C18.43 7.89 17.74 7.27 16.69 7.27C15.56 7.27 15.00 8.05 14.98 8.79L15.66 8.79C15.70 8.37 15.99 7.88 16.69 7.88C17.33 7.88 17.73 8.27 17.73 8.81C17.74 9.38 17.29 9.79 16.66 9.79L16.12 9.79Z" fill="#000000"></path></svg>