<svg xmlns="http://www.w3.org/2000/svg" version="1.1" xmlns:xlink="http://www.w3.org/1999/xlink" xmlns:svgjs="http://svgjs.com/svgjs" width="26" height="20"><svg id="SvgjsSvg1002" style="overflow: hidden; top: -100%; left: -100%; position: absolute; opacity: 0;" width="2" height="0" focusable="false"><polyline id="SvgjsPolyline1003" points="0,0"></polyline><path id="SvgjsPath1004" d="M0 0 "></path></svg><defs id="SvgjsDefs1152"></defs><rect id="SvgjsRect1153" width="25" height="19" x="0.5" y="0.5" rx="4" ry="4" fill="#ffffff" stroke-opacity="1" stroke="#444c56" stroke-width="1"></rect><path id="SvgjsPath1154" d="M8.24 12.99L8.24 10.57L10.61 10.57L10.61 9.93L8.24 9.93L8.24 8.03L10.83 8.03L10.83 7.39L7.52 7.39L7.52 12.99ZM13.57 12.99L13.57 7.39L12.90 7.39C12.50 7.60 11.92 7.95 11.53 8.23L11.53 8.96C11.89 8.71 12.57 8.29 12.85 8.15L12.86 8.15L12.86 12.99ZM17.12 7.39C16.29 8.63 15.45 9.94 14.75 11.21L14.75 11.83L17.47 11.83L17.47 12.99L18.16 12.99L18.16 11.83L18.89 11.83L18.89 11.19L18.16 11.19L18.16 7.39ZM15.47 11.19L15.47 11.19C16.06 10.15 16.78 9.00 17.46 8.01L17.47 8.01L17.47 11.19Z" fill="#000000"></path></svg>