<svg xmlns="http://www.w3.org/2000/svg" version="1.1" xmlns:xlink="http://www.w3.org/1999/xlink" xmlns:svgjs="http://svgjs.com/svgjs" width="26" height="20"><svg id="SvgjsSvg1002" style="overflow: hidden; top: -100%; left: -100%; position: absolute; opacity: 0;" width="2" height="0" focusable="false"><polyline id="SvgjsPolyline1003" points="0,0"></polyline><path id="SvgjsPath1004" d="M0 0 "></path></svg><defs id="SvgjsDefs1164"></defs><rect id="SvgjsRect1165" width="25" height="19" x="0.5" y="0.5" rx="4" ry="4" fill="#ffffff" stroke-opacity="1" stroke="#444c56" stroke-width="1"></rect><path id="SvgjsPath1166" d="M8.22 12.99L8.22 10.57L10.59 10.57L10.59 9.93L8.22 9.93L8.22 8.03L10.81 8.03L10.81 7.39L7.50 7.39L7.50 12.99ZM13.55 12.99L13.55 7.39L12.88 7.39C12.47 7.60 11.90 7.95 11.50 8.23L11.50 8.96C11.87 8.71 12.54 8.29 12.82 8.15L12.84 8.15L12.84 12.99ZM16.75 13.10C17.90 13.10 18.74 12.43 18.74 11.46C18.74 10.59 18.08 10.15 17.61 10.04L17.61 10.03C17.98 9.91 18.52 9.52 18.52 8.77C18.52 7.90 17.78 7.27 16.77 7.27C15.75 7.27 15.01 7.90 15.01 8.77C15.01 9.50 15.53 9.90 15.92 10.03L15.92 10.04C15.45 10.15 14.79 10.58 14.79 11.46C14.79 12.44 15.60 13.10 16.75 13.10ZM16.77 9.77C16.15 9.77 15.70 9.38 15.70 8.81C15.70 8.25 16.15 7.88 16.77 7.88C17.38 7.88 17.83 8.25 17.83 8.81C17.83 9.38 17.38 9.77 16.77 9.77ZM16.77 12.51C16.04 12.51 15.49 12.07 15.49 11.44C15.49 10.80 16.04 10.36 16.77 10.36C17.50 10.36 18.04 10.80 18.04 11.44C18.04 12.07 17.50 12.51 16.77 12.51Z" fill="#000000"></path></svg>