<svg xmlns="http://www.w3.org/2000/svg" version="1.1" xmlns:xlink="http://www.w3.org/1999/xlink" xmlns:svgjs="http://svgjs.com/svgjs" width="26" height="20"><svg id="SvgjsSvg1002" style="overflow: hidden; top: -100%; left: -100%; position: absolute; opacity: 0;" width="2" height="0" focusable="false"><polyline id="SvgjsPolyline1003" points="0,0"></polyline><path id="SvgjsPath1004" d="M0 0 "></path></svg><defs id="SvgjsDefs1119"></defs><rect id="SvgjsRect1120" width="25" height="19" x="0.5" y="0.5" rx="4" ry="4" fill="#ffffff" stroke-opacity="1" stroke="#444c56" stroke-width="1"></rect><path id="SvgjsPath1121" d="M9.97 12.99L9.97 10.57L12.34 10.57L12.34 9.93L9.97 9.93L9.97 8.03L12.55 8.03L12.55 7.39L9.25 7.39L9.25 12.99ZM14.47 10.41L15.04 10.41C15.82 10.41 16.28 10.82 16.28 11.43C16.29 12.04 15.84 12.49 15.04 12.49C14.29 12.49 13.93 12.06 13.86 11.54L13.19 11.54C13.22 12.40 13.81 13.11 15.02 13.11C16.18 13.11 17.03 12.39 17.01 11.43C16.99 10.52 16.26 10.11 15.79 10.07L15.79 10.06C16.22 9.99 16.82 9.49 16.80 8.70C16.78 7.89 16.09 7.27 15.04 7.27C13.91 7.27 13.34 8.05 13.33 8.79L14.01 8.79C14.05 8.37 14.34 7.88 15.04 7.88C15.67 7.88 16.07 8.27 16.08 8.81C16.08 9.38 15.64 9.79 15.00 9.79L14.47 9.79Z" fill="#000000"></path></svg>