<svg xmlns="http://www.w3.org/2000/svg" version="1.1" xmlns:xlink="http://www.w3.org/1999/xlink" xmlns:svgjs="http://svgjs.com/svgjs" width="26" height="20"><svg id="SvgjsSvg1002" style="overflow: hidden; top: -100%; left: -100%; position: absolute; opacity: 0;" width="2" height="0" focusable="false"><polyline id="SvgjsPolyline1003" points="0,0"></polyline><path id="SvgjsPath1004" d="M0 0 "></path></svg><defs id="SvgjsDefs1128"></defs><rect id="SvgjsRect1129" width="25" height="19" x="0.5" y="0.5" rx="4" ry="4" fill="#ffffff" stroke-opacity="1" stroke="#444c56" stroke-width="1"></rect><path id="SvgjsPath1130" d="M9.95 12.99L9.95 10.57L12.33 10.57L12.33 9.93L9.95 9.93L9.95 8.03L12.54 8.03L12.54 7.39L9.24 7.39L9.24 12.99ZM16.95 8.69C16.89 8.01 16.29 7.28 15.26 7.28C14.04 7.28 13.16 8.29 13.16 10.40C13.16 11.32 13.36 12.00 13.72 12.44C14.07 12.88 14.58 13.10 15.18 13.10C16.25 13.10 17.10 12.39 17.10 11.18C17.10 10.00 16.18 9.34 15.27 9.34C14.55 9.34 14.03 9.76 13.87 10.17L13.86 10.17C13.90 8.56 14.51 7.90 15.23 7.90C15.88 7.90 16.21 8.37 16.23 8.69ZM13.96 11.23C13.96 10.40 14.53 9.96 15.18 9.96C15.79 9.96 16.40 10.37 16.40 11.22C16.40 12.09 15.80 12.48 15.19 12.48C14.55 12.48 13.96 12.05 13.96 11.23Z" fill="#000000"></path></svg>