<svg xmlns="http://www.w3.org/2000/svg" version="1.1" xmlns:xlink="http://www.w3.org/1999/xlink" xmlns:svgjs="http://svgjs.com/svgjs" width="20" height="20"><svg id="SvgjsSvg1002" style="overflow: hidden; top: -100%; left: -100%; position: absolute; opacity: 0;" width="2" height="0" focusable="false"><polyline id="SvgjsPolyline1003" points="0,0"></polyline><path id="SvgjsPath1004" d="M0 0 "></path></svg><defs id="SvgjsDefs1176"></defs><rect id="SvgjsRect1177" width="19" height="19" x="0.5" y="0.5" rx="4" ry="4" fill="#ffffff" stroke-opacity="1" stroke="#444c56" stroke-width="1"></rect><path id="SvgjsPath1178" d="M7.62 14.49L8.21 14.49L8.21 11.39L8.92 11.39L8.92 10.90L8.21 10.90L8.21 10.58C8.21 10.15 8.40 10.02 8.79 10.02C8.88 10.02 8.92 10.03 8.97 10.03L8.97 9.55C8.91 9.54 8.83 9.53 8.71 9.53C7.97 9.53 7.62 9.85 7.62 10.54L7.62 10.90L7.14 10.90L7.14 11.39L7.62 11.39ZM9.72 14.49L10.30 14.49L10.30 12.30C10.30 11.81 10.57 11.37 11.19 11.37C11.71 11.37 12.07 11.68 12.07 12.28L12.07 14.49L12.66 14.49L12.66 12.18C12.66 11.31 12.11 10.84 11.37 10.84C10.78 10.84 10.45 11.14 10.32 11.37L10.30 11.37L10.30 10.90L9.72 10.90Z" fill="#000000"></path></svg>