<svg xmlns="http://www.w3.org/2000/svg" version="1.1" xmlns:xlink="http://www.w3.org/1999/xlink" xmlns:svgjs="http://svgjs.com/svgjs" width="20" height="20"><svg id="SvgjsSvg1002" style="overflow: hidden; top: -100%; left: -100%; position: absolute; opacity: 0;" width="2" height="0" focusable="false"><polyline id="SvgjsPolyline1003" points="0,0"></polyline><path id="SvgjsPath1004" d="M0 0 "></path></svg><defs id="SvgjsDefs1023"></defs><rect id="SvgjsRect1024" width="19" height="19" x="0.5" y="0.5" rx="4" ry="4" fill="#ffffff" stroke-opacity="1" stroke="#444c56" stroke-width="1"></rect><path id="SvgjsPath1025" d="M13.58 8.49C13.46 6.68 12.10 5.45 10.11 5.45C7.79 5.45 6.40 7.01 6.40 9.55L6.40 10.93C6.40 13.64 7.71 15.17 10.13 15.17C12.16 15.17 13.60 13.82 13.60 12.04L13.60 10.12L10.03 10.12L10.03 11.16L12.44 11.16L12.44 12.06C12.44 13.27 11.51 14.10 10.14 14.10C8.48 14.10 7.59 12.95 7.59 10.93L7.59 9.55C7.59 7.64 8.52 6.52 10.11 6.52C11.40 6.52 12.25 7.26 12.40 8.49Z" fill="#000000"></path></svg>