<svg xmlns="http://www.w3.org/2000/svg" version="1.1" xmlns:xlink="http://www.w3.org/1999/xlink" xmlns:svgjs="http://svgjs.com/svgjs" width="20" height="20"><svg id="SvgjsSvg1002" style="overflow: hidden; top: -100%; left: -100%; position: absolute; opacity: 0;" width="2" height="0" focusable="false"><polyline id="SvgjsPolyline1003" points="0,0"></polyline><path id="SvgjsPath1004" d="M0 0 "></path></svg><defs id="SvgjsDefs1263"></defs><rect id="SvgjsRect1264" width="19" height="19" x="0.5" y="0.5" rx="4" ry="4" fill="#ffffff" stroke-opacity="1" stroke="#444c56" stroke-width="1"></rect><path id="SvgjsPath1265" d="M10.00 16.77C13.54 16.77 16.46 13.84 16.46 10.31C16.46 6.77 13.54 3.85 10.00 3.85C6.46 3.85 3.54 6.77 3.54 10.31C3.54 13.84 6.47 16.77 10.00 16.77ZM10.38 5.12C10.95 5.34 11.48 6.04 11.86 7.00C11.40 7.08 10.91 7.14 10.38 7.15ZM8.14 7.00C8.52 6.04 9.05 5.34 9.62 5.12L9.62 7.15C9.09 7.14 8.60 7.08 8.14 7.00ZM11.77 5.32C12.45 5.56 13.07 5.94 13.58 6.41C13.30 6.57 12.98 6.71 12.61 6.81C12.39 6.23 12.10 5.72 11.77 5.32ZM6.42 6.41C6.93 5.94 7.55 5.56 8.23 5.32C7.90 5.72 7.61 6.23 7.39 6.81C7.02 6.71 6.70 6.57 6.42 6.41ZM13.22 9.92C13.19 9.05 13.06 8.24 12.85 7.52C13.33 7.37 13.75 7.18 14.10 6.97C14.77 7.79 15.19 8.81 15.27 9.92ZM4.73 9.92C4.81 8.81 5.23 7.79 5.90 6.97C6.25 7.18 6.67 7.37 7.15 7.52C6.94 8.24 6.81 9.05 6.78 9.92ZM7.56 9.92C7.59 9.14 7.71 8.38 7.90 7.71C8.44 7.82 9.02 7.89 9.62 7.91L9.62 9.92ZM10.38 9.92L10.38 7.91C10.98 7.89 11.56 7.82 12.10 7.71C12.29 8.38 12.41 9.14 12.44 9.92ZM4.73 10.68L6.78 10.68C6.81 11.57 6.94 12.40 7.15 13.13C6.68 13.27 6.26 13.46 5.91 13.66C5.24 12.84 4.81 11.82 4.73 10.68ZM7.56 10.68L9.62 10.68L9.62 12.74C9.01 12.76 8.44 12.83 7.90 12.94C7.71 12.26 7.58 11.49 7.56 10.68ZM10.38 12.74L10.38 10.68L12.44 10.68C12.41 11.49 12.29 12.26 12.10 12.94C11.56 12.83 10.98 12.76 10.38 12.74ZM12.85 13.13C13.06 12.40 13.19 11.57 13.22 10.68L15.27 10.68C15.20 11.82 14.77 12.85 14.10 13.67C13.74 13.46 13.33 13.27 12.85 13.13ZM8.14 13.65C8.60 13.57 9.09 13.51 9.62 13.50L9.62 15.52C9.05 15.30 8.52 14.61 8.14 13.65ZM10.38 13.50C10.91 13.51 11.40 13.57 11.86 13.65C11.48 14.61 10.95 15.30 10.38 15.52ZM6.44 14.22C6.72 14.07 7.04 13.94 7.39 13.83C7.60 14.40 7.88 14.89 8.19 15.28C7.54 15.04 6.95 14.68 6.44 14.22ZM12.61 13.83C12.97 13.94 13.28 14.07 13.56 14.22C13.06 14.69 12.46 15.05 11.80 15.29C12.12 14.89 12.40 14.40 12.61 13.83Z" fill="#000000"></path></svg>