<svg xmlns="http://www.w3.org/2000/svg" version="1.1" xmlns:xlink="http://www.w3.org/1999/xlink" xmlns:svgjs="http://svgjs.com/svgjs" width="20" height="20"><svg id="SvgjsSvg1002" style="overflow: hidden; top: -100%; left: -100%; position: absolute; opacity: 0;" width="2" height="0" focusable="false"><polyline id="SvgjsPolyline1003" points="0,0"></polyline><path id="SvgjsPath1004" d="M0 0 "></path></svg><defs id="SvgjsDefs1218"></defs><rect id="SvgjsRect1219" width="19" height="19" x="0.5" y="0.5" rx="4" ry="4" fill="#ffffff" stroke-opacity="1" stroke="#444c56" stroke-width="1"></rect><path id="SvgjsPath1220" d="M7.81 5.67L5.41 5.67C5.07 5.67 4.81 5.91 4.81 6.23C4.81 6.55 5.07 6.79 5.41 6.79L7.53 6.79C7.70 6.79 7.82 6.87 7.89 7.03L11.13 14.27C11.35 14.74 11.67 14.96 12.19 14.96L14.60 14.96C14.92 14.96 15.19 14.70 15.19 14.39C15.19 14.07 14.92 13.83 14.60 13.83L12.47 13.83C12.28 13.83 12.17 13.75 12.09 13.60L8.87 6.36C8.67 5.93 8.28 5.67 7.81 5.67ZM14.60 5.67L11.49 5.67C11.16 5.67 10.91 5.91 10.91 6.23C10.91 6.55 11.16 6.79 11.49 6.79L14.60 6.79C14.93 6.79 15.18 6.55 15.18 6.23C15.18 5.91 14.93 5.67 14.60 5.67Z" fill="#000000"></path></svg>