<svg xmlns="http://www.w3.org/2000/svg" version="1.1" xmlns:xlink="http://www.w3.org/1999/xlink" xmlns:svgjs="http://svgjs.com/svgjs" width="32" height="20"><svg id="SvgjsSvg1002" style="overflow: hidden; top: -100%; left: -100%; position: absolute; opacity: 0;" width="2" height="0" focusable="false"><polyline id="SvgjsPolyline1003" points="0,0"></polyline><path id="SvgjsPath1004" d="M0 0 "></path></svg><defs id="SvgjsDefs1185"></defs><rect id="SvgjsRect1186" width="31" height="19" x="0.5" y="0.5" rx="4" ry="4" fill="#ffffff" stroke-opacity="1" stroke="#444c56" stroke-width="1"></rect><path id="SvgjsPath1187" d="M8.10 10.84C7.10 10.84 6.56 11.57 6.56 12.53L6.56 12.85C6.56 13.82 7.09 14.55 8.10 14.55C9.11 14.55 9.64 13.82 9.64 12.85L9.64 12.53C9.64 11.57 9.11 10.84 8.10 10.84ZM8.10 11.34C8.72 11.34 9.05 11.81 9.05 12.55L9.05 12.83C9.05 13.56 8.72 14.04 8.10 14.04C7.48 14.04 7.14 13.56 7.14 12.83L7.14 12.55C7.14 11.81 7.48 11.34 8.10 11.34ZM12.17 14.55C13.02 14.55 13.60 13.91 13.60 12.86L13.60 12.53C13.60 11.46 13.01 10.84 12.20 10.84C11.71 10.84 11.34 11.07 11.14 11.41L11.12 11.41L11.12 10.90L10.56 10.90L10.56 15.68L11.14 15.68L11.14 14.01L11.16 14.01C11.36 14.33 11.71 14.55 12.17 14.55ZM12.11 14.03C11.50 14.03 11.13 13.55 11.13 12.81L11.13 12.54C11.13 11.83 11.50 11.35 12.10 11.35C12.68 11.35 13.01 11.79 13.01 12.55L13.01 12.81C13.01 13.60 12.65 14.03 12.11 14.03ZM14.73 10.90L14.25 10.90L14.25 11.39L14.73 11.39L14.73 13.48C14.73 14.19 14.90 14.52 15.75 14.52C15.88 14.52 16 14.51 16.05 14.50L16.05 14.02C16.00 14.03 15.96 14.03 15.90 14.03C15.46 14.03 15.32 13.92 15.32 13.49L15.32 11.39L16.03 11.39L16.03 10.90L15.32 10.90L15.32 10.00L14.73 10.00ZM16.82 10.03C16.82 10.24 16.98 10.40 17.19 10.40C17.40 10.40 17.57 10.24 17.57 10.03C17.57 9.82 17.40 9.66 17.19 9.66C16.98 9.66 16.82 9.82 16.82 10.03ZM16.90 14.49L17.49 14.49L17.49 10.90L16.90 10.90ZM19.97 10.84C18.97 10.84 18.43 11.57 18.43 12.53L18.43 12.85C18.43 13.82 18.96 14.55 19.97 14.55C20.98 14.55 21.51 13.82 21.51 12.85L21.51 12.53C21.51 11.57 20.98 10.84 19.97 10.84ZM19.97 11.34C20.59 11.34 20.92 11.81 20.92 12.55L20.92 12.83C20.92 13.56 20.59 14.04 19.97 14.04C19.35 14.04 19.01 13.56 19.01 12.83L19.01 12.55C19.01 11.81 19.35 11.34 19.97 11.34ZM22.42 14.49L23.00 14.49L23.00 12.30C23.00 11.81 23.27 11.37 23.89 11.37C24.41 11.37 24.77 11.68 24.77 12.28L24.77 14.49L25.35 14.49L25.35 12.18C25.35 11.31 24.80 10.84 24.07 10.84C23.48 10.84 23.15 11.14 23.02 11.37L23 11.37L23 10.90L22.42 10.90Z" fill="#000000"></path></svg>