<svg xmlns="http://www.w3.org/2000/svg" version="1.1" xmlns:xlink="http://www.w3.org/1999/xlink" xmlns:svgjs="http://svgjs.com/svgjs" width="20" height="20"><svg id="SvgjsSvg1002" style="overflow: hidden; top: -100%; left: -100%; position: absolute; opacity: 0;" width="2" height="0" focusable="false"><polyline id="SvgjsPolyline1003" points="0,0"></polyline><path id="SvgjsPath1004" d="M0 0 "></path></svg><defs id="SvgjsDefs1053"></defs><rect id="SvgjsRect1054" width="19" height="19" x="0.5" y="0.5" rx="4" ry="4" fill="#ffffff" stroke-opacity="1" stroke="#444c56" stroke-width="1"></rect><path id="SvgjsPath1055" d="M6.26 11.00C6.26 13.64 7.73 15.17 9.99 15.17C10.59 15.17 11.14 15.05 11.61 14.85L12.47 16.03L13.81 16.03L12.53 14.25C13.29 13.54 13.73 12.43 13.73 11.00L13.73 9.63C13.73 6.99 12.25 5.45 9.99 5.45C7.73 5.45 6.26 6.99 6.26 9.63ZM7.44 9.64C7.44 7.55 8.55 6.52 9.99 6.52C11.44 6.52 12.54 7.55 12.54 9.64L12.54 10.99C12.54 12.02 12.28 12.78 11.84 13.29L11.03 12.20L9.69 12.20L10.95 13.93C10.66 14.05 10.34 14.12 9.99 14.12C8.55 14.12 7.44 13.10 7.44 10.99Z" fill="#000000"></path></svg>