<svg xmlns="http://www.w3.org/2000/svg" version="1.1" xmlns:xlink="http://www.w3.org/1999/xlink" xmlns:svgjs="http://svgjs.com/svgjs" width="20" height="20"><svg id="SvgjsSvg1002" style="overflow: hidden; top: -100%; left: -100%; position: absolute; opacity: 0;" width="2" height="0" focusable="false"><polyline id="SvgjsPolyline1003" points="0,0"></polyline><path id="SvgjsPath1004" d="M0 0 "></path></svg><defs id="SvgjsDefs1056"></defs><rect id="SvgjsRect1057" width="19" height="19" x="0.5" y="0.5" rx="4" ry="4" fill="#ffffff" stroke-opacity="1" stroke="#444c56" stroke-width="1"></rect><path id="SvgjsPath1058" d="M10.35 5.65L6.98 5.65L6.98 14.98L8.16 14.98L8.16 11.26L10.43 11.26L12.15 14.98L13.51 14.98L11.61 11.03C12.43 10.73 13.35 9.96 13.35 8.43C13.35 6.96 12.42 5.65 10.35 5.65ZM8.16 10.22L8.16 6.70L10.19 6.70C11.36 6.70 12.12 7.31 12.12 8.50C12.12 9.60 11.45 10.22 10.14 10.22Z" fill="#000000"></path></svg>