<svg xmlns="http://www.w3.org/2000/svg" version="1.1" xmlns:xlink="http://www.w3.org/1999/xlink" xmlns:svgjs="http://svgjs.com/svgjs" width="32" height="20"><svg id="SvgjsSvg1002" style="overflow: hidden; top: -100%; left: -100%; position: absolute; opacity: 0;" width="2" height="0" focusable="false"><polyline id="SvgjsPolyline1003" points="0,0"></polyline><path id="SvgjsPath1004" d="M0 0 "></path></svg><defs id="SvgjsDefs1197"></defs><rect id="SvgjsRect1198" width="31" height="19" x="0.5" y="0.5" rx="4" ry="4" fill="#ffffff" stroke-opacity="1" stroke="#444c56" stroke-width="1"></rect><path id="SvgjsPath1199" d="M7.20 14.49L7.79 14.49L7.79 12.26C7.79 11.78 7.99 11.38 8.63 11.38C8.74 11.38 8.85 11.38 8.91 11.40L8.91 10.86C8.84 10.85 8.77 10.84 8.69 10.84C8.18 10.84 7.91 11.12 7.81 11.34L7.79 11.34L7.79 10.90L7.20 10.90ZM10.93 14.55C11.73 14.55 12.20 14.11 12.34 13.51L11.75 13.51C11.64 13.85 11.37 14.05 10.95 14.05C10.36 14.05 10.02 13.59 10.02 12.90L10.02 12.84L12.39 12.84L12.39 12.50C12.39 11.51 11.85 10.84 10.91 10.84C9.96 10.84 9.43 11.51 9.43 12.46L9.43 12.86C9.43 13.89 10.00 14.55 10.93 14.55ZM10.02 12.36L10.02 12.35C10.02 11.78 10.36 11.33 10.91 11.33C11.45 11.33 11.80 11.78 11.80 12.35L11.80 12.36ZM13.50 10.90L13.02 10.90L13.02 11.39L13.50 11.39L13.50 13.48C13.50 14.19 13.67 14.52 14.52 14.52C14.65 14.52 14.77 14.51 14.82 14.50L14.82 14.02C14.77 14.03 14.73 14.03 14.67 14.03C14.23 14.03 14.09 13.92 14.09 13.49L14.09 11.39L14.80 11.39L14.80 10.90L14.09 10.90L14.09 10.00L13.50 10.00ZM18.50 10.90L17.91 10.90L17.91 13.12C17.91 13.69 17.54 14.02 17.03 14.02C16.56 14.02 16.17 13.80 16.17 13.13L16.17 10.90L15.58 10.90L15.58 13.30C15.58 14.12 16.11 14.55 16.85 14.55C17.43 14.55 17.76 14.30 17.89 14.02L17.91 14.02L17.91 14.49L18.50 14.49ZM19.54 14.49L20.14 14.49L20.14 12.26C20.14 11.78 20.33 11.38 20.97 11.38C21.08 11.38 21.20 11.38 21.26 11.40L21.26 10.86C21.19 10.85 21.11 10.84 21.03 10.84C20.53 10.84 20.26 11.12 20.15 11.34L20.13 11.34L20.13 10.90L19.54 10.90ZM21.91 14.49L22.50 14.49L22.50 12.30C22.50 11.81 22.77 11.37 23.39 11.37C23.91 11.37 24.26 11.68 24.26 12.28L24.26 14.49L24.85 14.49L24.85 12.18C24.85 11.31 24.30 10.84 23.56 10.84C22.98 10.84 22.65 11.14 22.51 11.37L22.50 11.37L22.50 10.90L21.91 10.90Z" fill="#000000"></path></svg>