<svg xmlns="http://www.w3.org/2000/svg" version="1.1" xmlns:xlink="http://www.w3.org/1999/xlink" xmlns:svgjs="http://svgjs.com/svgjs" width="20" height="20"><svg id="SvgjsSvg1002" style="overflow: hidden; top: -100%; left: -100%; position: absolute; opacity: 0;" width="2" height="0" focusable="false"><polyline id="SvgjsPolyline1003" points="0,0"></polyline><path id="SvgjsPath1004" d="M0 0 "></path></svg><defs id="SvgjsDefs1239"></defs><rect id="SvgjsRect1240" width="19" height="19" x="0.5" y="0.5" rx="4" ry="4" fill="#ffffff" stroke-opacity="1" stroke="#444c56" stroke-width="1"></rect><path id="SvgjsPath1241" d="M8.05 14.85C8.39 14.85 8.61 14.61 8.61 14.29C8.61 14.13 8.55 14.01 8.45 13.91L7.14 12.64L6.25 11.90L7.44 11.96L13.64 11.96C14.94 11.96 15.46 11.38 15.46 10.14L15.46 7.16C15.46 5.87 14.94 5.34 13.64 5.34L10.96 5.34C10.62 5.34 10.39 5.60 10.39 5.91C10.39 6.22 10.62 6.47 10.96 6.47L13.63 6.47C14.14 6.47 14.34 6.67 14.34 7.18L14.34 10.12C14.34 10.64 14.14 10.83 13.63 10.83L7.44 10.83L6.25 10.89L7.14 10.15L8.45 8.88C8.55 8.78 8.61 8.66 8.61 8.50C8.61 8.17 8.39 7.94 8.05 7.94C7.92 7.94 7.75 8.01 7.65 8.12L4.72 10.97C4.60 11.09 4.54 11.24 4.54 11.39C4.54 11.54 4.60 11.70 4.72 11.81L7.65 14.67C7.75 14.78 7.92 14.85 8.05 14.85Z" fill="#000000"></path></svg>