<svg xmlns="http://www.w3.org/2000/svg" version="1.1" xmlns:xlink="http://www.w3.org/1999/xlink" xmlns:svgjs="http://svgjs.com/svgjs" width="20" height="20"><svg id="SvgjsSvg1002" style="overflow: hidden; top: -100%; left: -100%; position: absolute; opacity: 0;" width="2" height="0" focusable="false"><polyline id="SvgjsPolyline1003" points="0,0"></polyline><path id="SvgjsPath1004" d="M0 0 "></path></svg><defs id="SvgjsDefs1059"></defs><rect id="SvgjsRect1060" width="19" height="19" x="0.5" y="0.5" rx="4" ry="4" fill="#ffffff" stroke-opacity="1" stroke="#444c56" stroke-width="1"></rect><path id="SvgjsPath1061" d="M6.47 12.46C6.50 13.67 7.36 15.17 9.83 15.17C11.77 15.17 13.31 14.22 13.31 12.38C13.31 10.88 12.32 10.22 10.89 9.84L9.27 9.41C8.38 9.19 7.96 8.69 7.96 8.03C7.96 7.03 8.80 6.48 9.96 6.48C11.26 6.48 11.94 7.18 12.03 8.08L13.21 8.08C13.17 6.27 11.57 5.43 9.98 5.43C8.31 5.43 6.75 6.36 6.75 8.11C6.75 9.57 7.82 10.27 8.93 10.56L10.57 10.99C11.61 11.26 12.10 11.70 12.10 12.47C12.10 13.49 11.26 14.12 9.96 14.12C8.53 14.12 7.75 13.36 7.67 12.46Z" fill="#000000"></path></svg>