<svg xmlns="http://www.w3.org/2000/svg" version="1.1" xmlns:xlink="http://www.w3.org/1999/xlink" xmlns:svgjs="http://svgjs.com/svgjs" width="30" height="20"><svg id="SvgjsSvg1002" style="overflow: hidden; top: -100%; left: -100%; position: absolute; opacity: 0;" width="2" height="0" focusable="false"><polyline id="SvgjsPolyline1003" points="0,0"></polyline><path id="SvgjsPath1004" d="M0 0 "></path></svg><defs id="SvgjsDefs1203"></defs><rect id="SvgjsRect1204" width="29" height="19" x="0.5" y="0.5" rx="4" ry="4" fill="#ffffff" stroke-opacity="1" stroke="#444c56" stroke-width="1"></rect><path id="SvgjsPath1205" d="M8.52 11.92C8.52 12.57 9.07 12.78 9.74 12.92C10.24 13.02 10.64 13.09 10.64 13.50C10.64 13.80 10.39 14.06 9.84 14.06C9.36 14.06 9.08 13.85 9.03 13.52L8.46 13.52C8.46 14.17 9.01 14.55 9.80 14.55C10.64 14.55 11.22 14.14 11.22 13.43C11.22 12.73 10.65 12.55 9.98 12.43C9.57 12.35 9.09 12.27 9.09 11.86C9.09 11.51 9.40 11.32 9.83 11.32C10.39 11.32 10.56 11.64 10.58 11.91L11.13 11.91C11.13 11.32 10.69 10.84 9.85 10.84C9.16 10.84 8.52 11.17 8.52 11.92ZM12.07 14.49L12.66 14.49L12.66 12.30C12.66 11.81 12.92 11.37 13.54 11.37C14.07 11.37 14.42 11.68 14.42 12.28L14.42 14.49L15.01 14.49L15.01 12.18C15.01 11.31 14.46 10.84 13.72 10.84C13.14 10.84 12.81 11.14 12.67 11.37L12.66 11.37L12.66 9.58L12.07 9.58ZM15.95 10.03C15.95 10.24 16.12 10.40 16.33 10.40C16.53 10.40 16.71 10.24 16.71 10.03C16.71 9.82 16.53 9.66 16.33 9.66C16.12 9.66 15.95 9.82 15.95 10.03ZM16.03 14.49L16.62 14.49L16.62 10.90L16.03 10.90ZM17.93 14.49L18.52 14.49L18.52 11.39L19.22 11.39L19.22 10.90L18.51 10.90L18.51 10.58C18.51 10.15 18.70 10.02 19.09 10.02C19.18 10.02 19.22 10.03 19.28 10.03L19.28 9.55C19.21 9.54 19.13 9.53 19.01 9.53C18.27 9.53 17.93 9.85 17.93 10.54L17.93 10.90L17.44 10.90L17.44 11.39L17.93 11.39ZM20.25 10.90L19.76 10.90L19.76 11.39L20.24 11.39L20.24 13.48C20.24 14.19 20.42 14.52 21.27 14.52C21.39 14.52 21.51 14.51 21.57 14.50L21.57 14.02C21.52 14.03 21.47 14.03 21.42 14.03C20.97 14.03 20.83 13.92 20.83 13.49L20.83 11.39L21.54 11.39L21.54 10.90L20.83 10.90L20.83 10.00L20.25 10.00Z" fill="#000000"></path></svg>