<svg xmlns="http://www.w3.org/2000/svg" version="1.1" xmlns:xlink="http://www.w3.org/1999/xlink" xmlns:svgjs="http://svgjs.com/svgjs" width="20" height="20"><svg id="SvgjsSvg1002" style="overflow: hidden; top: -100%; left: -100%; position: absolute; opacity: 0;" width="2" height="0" focusable="false"><polyline id="SvgjsPolyline1003" points="0,0"></polyline><path id="SvgjsPath1004" d="M0 0 "></path></svg><defs id="SvgjsDefs1224"></defs><rect id="SvgjsRect1225" width="19" height="19" x="0.5" y="0.5" rx="4" ry="4" fill="#ffffff" stroke-opacity="1" stroke="#444c56" stroke-width="1"></rect><path id="SvgjsPath1226" d="M8.45 15.05L11.55 15.05C12.32 15.05 12.72 14.61 12.72 13.89L12.72 11.70L14.66 11.70C15.12 11.70 15.49 11.41 15.49 10.97C15.49 10.70 15.35 10.51 15.15 10.30L10.68 5.84C10.48 5.64 10.25 5.51 10 5.51C9.75 5.51 9.52 5.64 9.32 5.84L4.85 10.30C4.63 10.51 4.51 10.70 4.51 10.97C4.51 11.41 4.88 11.70 5.34 11.70L7.28 11.70L7.28 13.89C7.28 14.61 7.68 15.05 8.45 15.05ZM8.61 14.08C8.44 14.08 8.33 13.96 8.33 13.80L8.33 10.84C8.33 10.80 8.30 10.77 8.25 10.77L5.92 10.77C5.89 10.77 5.88 10.76 5.88 10.74C5.88 10.72 5.88 10.71 5.90 10.70L9.94 6.69C9.95 6.67 9.98 6.66 10 6.66C10.02 6.66 10.05 6.67 10.06 6.69L14.10 10.70C14.12 10.71 14.12 10.72 14.12 10.74C14.12 10.76 14.11 10.77 14.08 10.77L11.75 10.77C11.70 10.77 11.67 10.80 11.67 10.84L11.67 13.80C11.67 13.96 11.56 14.08 11.40 14.08Z" fill="#000000"></path></svg>