<svg xmlns="http://www.w3.org/2000/svg" version="1.1" xmlns:xlink="http://www.w3.org/1999/xlink" xmlns:svgjs="http://svgjs.com/svgjs" width="20" height="20"><svg id="SvgjsSvg1002" style="overflow: hidden; top: -100%; left: -100%; position: absolute; opacity: 0;" width="2" height="0" focusable="false"><polyline id="SvgjsPolyline1003" points="0,0"></polyline><path id="SvgjsPath1004" d="M0 0 "></path></svg><defs id="SvgjsDefs1230"></defs><rect id="SvgjsRect1231" width="19" height="19" x="0.5" y="0.5" rx="4" ry="4" fill="#ffffff" stroke-opacity="1" stroke="#444c56" stroke-width="1"></rect><path id="SvgjsPath1232" d="M10.55 15.13C10.72 15.13 10.87 15.07 11.00 14.94L15.29 10.66C15.41 10.54 15.48 10.40 15.50 10.25L15.50 14.53C15.50 14.88 15.76 15.13 16.12 15.13C16.48 15.13 16.74 14.88 16.74 14.53L16.74 5.86C16.74 5.50 16.48 5.25 16.12 5.25C15.76 5.25 15.50 5.50 15.50 5.86L15.50 10.13C15.48 9.98 15.41 9.84 15.29 9.73L11.00 5.44C10.87 5.31 10.72 5.25 10.55 5.25C10.21 5.25 9.95 5.50 9.95 5.85C9.95 6.02 10.01 6.18 10.12 6.29L11.57 7.76L13.61 9.62L12.22 9.56L3.88 9.56C3.51 9.56 3.25 9.82 3.25 10.19C3.25 10.55 3.51 10.81 3.88 10.81L12.22 10.81L13.62 10.77L11.57 12.61L10.12 14.09C10.01 14.20 9.95 14.36 9.95 14.53C9.95 14.87 10.21 15.13 10.55 15.13Z" fill="#000000"></path></svg>