<svg xmlns="http://www.w3.org/2000/svg" version="1.1" xmlns:xlink="http://www.w3.org/1999/xlink" xmlns:svgjs="http://svgjs.com/svgjs" width="40" height="40"><svg id="SvgjsSvg1002" style="overflow: hidden; top: -100%; left: -100%; position: absolute; opacity: 0;" width="2" height="0" focusable="false"><polyline id="SvgjsPolyline1003" points="0,0"></polyline><path id="SvgjsPath1004" d="M0 0 "></path></svg><defs id="SvgjsDefs1614"></defs><rect id="SvgjsRect1615" width="39" height="39" x="0.5" y="0.5" rx="8" ry="8" fill="#ffffff" stroke-opacity="1" stroke="#444c56" stroke-width="1"></rect><path id="SvgjsPath1616" d="M17.85 21.37L19.75 21.37C22.35 21.37 23.88 22.72 23.91 24.76C23.94 26.81 22.43 28.30 19.77 28.30C17.27 28.30 16.08 26.88 15.83 25.13L13.59 25.13C13.70 27.98 15.68 30.36 19.69 30.36C23.57 30.36 26.40 27.97 26.33 24.77C26.26 21.74 23.84 20.38 22.26 20.25L22.26 20.21C23.71 19.97 25.71 18.30 25.65 15.65C25.56 12.97 23.27 10.89 19.77 10.89C15.99 10.89 14.11 13.51 14.05 15.95L16.34 15.95C16.46 14.56 17.42 12.95 19.77 12.95C21.87 12.95 23.21 14.22 23.23 16.05C23.24 17.95 21.76 19.29 19.64 19.29L17.85 19.29Z" fill="#000000"></path></svg>