<svg xmlns="http://www.w3.org/2000/svg" version="1.1" xmlns:xlink="http://www.w3.org/1999/xlink" xmlns:svgjs="http://svgjs.com/svgjs" width="40" height="40"><svg id="SvgjsSvg1002" style="overflow: hidden; top: -100%; left: -100%; position: absolute; opacity: 0;" width="2" height="0" focusable="false"><polyline id="SvgjsPolyline1003" points="0,0"></polyline><path id="SvgjsPath1004" d="M0 0 "></path></svg><defs id="SvgjsDefs1620"></defs><rect id="SvgjsRect1621" width="39" height="39" x="0.5" y="0.5" rx="8" ry="8" fill="#ffffff" stroke-opacity="1" stroke="#444c56" stroke-width="1"></rect><path id="SvgjsPath1622" d="M13.76 25.26C13.95 27.97 16.06 30.35 19.91 30.35C23.71 30.35 26.62 27.71 26.62 23.87C26.62 20.12 23.81 17.61 20.46 17.61C18.46 17.61 16.90 18.56 16.44 19.21L16.40 19.21L17.01 13.36L25.23 13.36L25.23 11.26L15.00 11.26L13.98 22.12L16.00 22.12C16.55 20.90 17.79 19.63 20.10 19.63C22.36 19.63 24.22 21.27 24.22 23.94C24.22 26.78 21.98 28.29 20.06 28.29C17.92 28.29 16.36 27.23 16.06 25.26Z" fill="#000000"></path></svg>