<svg xmlns="http://www.w3.org/2000/svg" version="1.1" xmlns:xlink="http://www.w3.org/1999/xlink" xmlns:svgjs="http://svgjs.com/svgjs" width="40" height="40"><svg id="SvgjsSvg1002" style="overflow: hidden; top: -100%; left: -100%; position: absolute; opacity: 0;" width="2" height="0" focusable="false"><polyline id="SvgjsPolyline1003" points="0,0"></polyline><path id="SvgjsPath1004" d="M0 0 "></path></svg><defs id="SvgjsDefs1623"></defs><rect id="SvgjsRect1624" width="39" height="39" x="0.5" y="0.5" rx="8" ry="8" fill="#ffffff" stroke-opacity="1" stroke="#444c56" stroke-width="1"></rect><path id="SvgjsPath1625" d="M26.14 15.63C25.95 13.37 23.94 10.94 20.49 10.94C16.45 10.94 13.49 14.31 13.49 21.34C13.49 24.40 14.18 26.66 15.35 28.13C16.54 29.61 18.22 30.34 20.22 30.34C23.79 30.34 26.64 27.97 26.64 23.94C26.64 19.99 23.58 17.81 20.53 17.81C18.14 17.81 16.40 19.19 15.86 20.57L15.82 20.57C15.97 15.21 18.00 12.99 20.40 12.99C22.57 12.99 23.65 14.56 23.75 15.63ZM16.16 24.09C16.16 21.34 18.07 19.86 20.23 19.86C22.26 19.86 24.29 21.22 24.29 24.07C24.29 26.96 22.31 28.27 20.26 28.27C18.13 28.27 16.16 26.85 16.16 24.09Z" fill="#000000"></path></svg>