<svg xmlns="http://www.w3.org/2000/svg" version="1.1" xmlns:xlink="http://www.w3.org/1999/xlink" xmlns:svgjs="http://svgjs.com/svgjs" width="40" height="40"><svg id="SvgjsSvg1002" style="overflow: hidden; top: -100%; left: -100%; position: absolute; opacity: 0;" width="2" height="0" focusable="false"><polyline id="SvgjsPolyline1003" points="0,0"></polyline><path id="SvgjsPath1004" d="M0 0 "></path></svg><defs id="SvgjsDefs1629"></defs><rect id="SvgjsRect1630" width="39" height="39" x="0.5" y="0.5" rx="8" ry="8" fill="#ffffff" stroke-opacity="1" stroke="#444c56" stroke-width="1"></rect><path id="SvgjsPath1631" d="M19.95 30.35C23.78 30.35 26.58 28.09 26.58 24.85C26.58 21.96 24.40 20.51 22.82 20.12L22.82 20.10C24.04 19.70 25.87 18.39 25.87 15.88C25.87 12.99 23.40 10.89 20.01 10.89C16.63 10.89 14.16 12.99 14.16 15.88C14.16 18.33 15.89 19.67 17.19 20.10L17.19 20.12C15.63 20.51 13.42 21.93 13.42 24.87C13.42 28.12 16.12 30.35 19.95 30.35ZM20.01 19.23C17.97 19.23 16.47 17.92 16.47 16.05C16.47 14.18 17.97 12.92 20.01 12.92C22.07 12.92 23.55 14.18 23.55 16.05C23.55 17.92 22.07 19.23 20.01 19.23ZM20.01 28.35C17.59 28.35 15.75 26.89 15.75 24.79C15.75 22.65 17.59 21.19 20.01 21.19C22.44 21.19 24.26 22.65 24.26 24.79C24.26 26.89 22.44 28.35 20.01 28.35Z" fill="#000000"></path></svg>