<svg xmlns="http://www.w3.org/2000/svg" version="1.1" xmlns:xlink="http://www.w3.org/1999/xlink" xmlns:svgjs="http://svgjs.com/svgjs" width="40" height="40"><svg id="SvgjsSvg1002" style="overflow: hidden; top: -100%; left: -100%; position: absolute; opacity: 0;" width="2" height="0" focusable="false"><polyline id="SvgjsPolyline1003" points="0,0"></polyline><path id="SvgjsPath1004" d="M0 0 "></path></svg><defs id="SvgjsDefs1632"></defs><rect id="SvgjsRect1633" width="39" height="39" x="0.5" y="0.5" rx="8" ry="8" fill="#ffffff" stroke-opacity="1" stroke="#444c56" stroke-width="1"></rect><path id="SvgjsPath1634" d="M13.71 25.39C13.88 27.63 15.79 30.31 19.67 30.31C24.07 30.31 26.67 26.58 26.67 20.26C26.67 13.49 23.94 10.92 19.84 10.92C16.60 10.92 13.55 13.27 13.55 17.25C13.55 21.31 16.43 23.45 19.41 23.45C22.02 23.45 23.72 22.13 24.25 20.68L24.35 20.68C24.33 25.29 22.73 28.26 19.78 28.26C17.46 28.26 16.25 26.69 16.10 25.39ZM24.05 17.28C24.05 19.71 22.09 21.41 19.90 21.41C17.80 21.41 15.90 20.07 15.90 17.21C15.90 14.33 17.94 12.97 19.99 12.97C22.20 12.97 24.05 14.37 24.05 17.28Z" fill="#000000"></path></svg>