<svg xmlns="http://www.w3.org/2000/svg" version="1.1" xmlns:xlink="http://www.w3.org/1999/xlink" xmlns:svgjs="http://svgjs.com/svgjs" width="40" height="40"><svg id="SvgjsSvg1002" style="overflow: hidden; top: -100%; left: -100%; position: absolute; opacity: 0;" width="2" height="0" focusable="false"><polyline id="SvgjsPolyline1003" points="0,0"></polyline><path id="SvgjsPath1004" d="M0 0 "></path></svg><defs id="SvgjsDefs1695"></defs><rect id="SvgjsRect1696" width="39" height="39" x="0.5" y="0.5" rx="8" ry="8" fill="#ffffff" stroke-opacity="1" stroke="#444c56" stroke-width="1"></rect><path id="SvgjsPath1697" d="M17.42 28.08L17.45 28.08L17.45 28.98L18.58 28.98L18.58 24.02C18.58 22.51 17.47 21.68 15.94 21.68C14.20 21.68 13.35 22.59 13.27 23.85L14.38 23.85C14.45 23.13 14.97 22.66 15.90 22.66C16.87 22.66 17.41 23.18 17.41 24.12L17.41 24.85L15.52 24.85C13.87 24.86 13.00 25.65 13.00 26.91C13.00 28.23 13.95 29.09 15.34 29.09C16.40 29.09 17.06 28.66 17.42 28.08ZM15.66 28.12C14.90 28.12 14.20 27.72 14.20 26.87C14.20 26.22 14.62 25.76 15.61 25.76L17.41 25.76L17.41 26.59C17.41 27.49 16.66 28.12 15.66 28.12ZM20.66 28.98L21.83 28.98L21.83 19.15L20.66 19.15ZM24.42 21.79L23.45 21.79L23.45 22.78L24.41 22.78L24.41 26.97C24.41 28.38 24.76 29.04 26.46 29.04C26.71 29.04 26.96 29.01 27.06 28.99L27.06 28.05C26.96 28.06 26.87 28.06 26.76 28.06C25.88 28.06 25.59 27.84 25.59 26.98L25.59 22.78L27.01 22.78L27.01 21.79L25.59 21.79L25.59 20.00L24.42 20.00Z" fill="#000000"></path></svg>