<svg xmlns="http://www.w3.org/2000/svg" version="1.1" xmlns:xlink="http://www.w3.org/1999/xlink" xmlns:svgjs="http://svgjs.com/svgjs" width="40" height="40"><svg id="SvgjsSvg1002" style="overflow: hidden; top: -100%; left: -100%; position: absolute; opacity: 0;" width="2" height="0" focusable="false"><polyline id="SvgjsPolyline1003" points="0,0"></polyline><path id="SvgjsPath1004" d="M0 0 "></path></svg><defs id="SvgjsDefs1533"></defs><rect id="SvgjsRect1534" width="39" height="39" x="0.5" y="0.5" rx="8" ry="8" fill="#ffffff" stroke-opacity="1" stroke="#444c56" stroke-width="1"></rect><path id="SvgjsPath1535" d="M15.35 19.45C15.35 15.35 17.13 13.04 20.31 13.04C22.94 13.04 24.74 14.75 24.81 17.24L27.16 17.24L27.16 17.20C27.16 13.53 24.28 10.89 20.30 10.89C15.68 10.89 12.97 14.09 12.97 19.45L12.97 21.90C12.97 27.21 15.68 30.35 20.30 30.35C24.25 30.35 27.16 27.82 27.16 24.38L27.16 24.32L24.81 24.32C24.74 26.63 22.94 28.20 20.31 28.20C17.13 28.20 15.35 25.93 15.35 21.90Z" fill="#000000"></path></svg>