<svg xmlns="http://www.w3.org/2000/svg" version="1.1" xmlns:xlink="http://www.w3.org/1999/xlink" xmlns:svgjs="http://svgjs.com/svgjs" width="84" height="40"><svg id="SvgjsSvg1002" style="overflow: hidden; top: -100%; left: -100%; position: absolute; opacity: 0;" width="2" height="0" focusable="false"><polyline id="SvgjsPolyline1003" points="0,0"></polyline><path id="SvgjsPath1004" d="M0 0 "></path></svg><defs id="SvgjsDefs1734"></defs><rect id="SvgjsRect1735" width="83" height="39" x="0.5" y="0.5" rx="8" ry="8" fill="#ffffff" stroke-opacity="1" stroke="#444c56" stroke-width="1"></rect><path id="SvgjsPath1736" d="M14.43 25.71C14.43 27.62 15.51 29.09 17.41 29.09C19.06 29.09 19.96 28.23 20.20 27.00L19.05 27.00C18.92 27.58 18.39 28.05 17.50 28.05C16.35 28.05 15.61 27.12 15.61 25.72L15.61 25.05C15.61 23.60 16.30 22.71 17.49 22.71C18.27 22.71 18.84 23.27 18.99 23.88L20.15 23.88C20.09 22.78 19.08 21.68 17.41 21.68C15.54 21.68 14.43 23.06 14.43 25.00ZM25.86 28.08L25.89 28.08L25.89 28.98L27.02 28.98L27.02 24.02C27.02 22.51 25.90 21.68 24.37 21.68C22.64 21.68 21.78 22.59 21.71 23.85L22.81 23.85C22.88 23.13 23.41 22.66 24.33 22.66C25.30 22.66 25.85 23.18 25.85 24.12L25.85 24.85L23.96 24.85C22.31 24.86 21.43 25.65 21.43 26.91C21.43 28.23 22.39 29.09 23.78 29.09C24.84 29.09 25.49 28.66 25.86 28.08ZM24.09 28.12C23.34 28.12 22.64 27.72 22.64 26.87C22.64 26.22 23.06 25.76 24.05 25.76L25.85 25.76L25.85 26.59C25.85 27.49 25.10 28.12 24.09 28.12ZM32.30 29.09C33.99 29.09 35.17 27.81 35.17 25.72L35.17 25.05C35.17 22.93 33.97 21.68 32.35 21.68C31.39 21.68 30.65 22.15 30.23 22.82L30.20 22.82L30.20 21.79L29.07 21.79L29.07 31.36L30.25 31.36L30.25 28.02L30.28 28.02C30.68 28.66 31.39 29.09 32.30 29.09ZM32.19 28.07C30.96 28.07 30.23 27.10 30.23 25.63L30.23 25.09C30.23 23.66 30.96 22.69 32.15 22.69C33.31 22.69 33.98 23.58 33.98 25.09L33.98 25.63C33.98 27.21 33.26 28.07 32.19 28.07ZM36.68 23.85C36.68 25.15 37.78 25.56 39.12 25.83C40.12 26.03 40.92 26.19 40.92 27.00C40.92 27.61 40.42 28.13 39.32 28.13C38.37 28.13 37.81 27.70 37.70 27.04L36.56 27.04C36.56 28.33 37.66 29.09 39.23 29.09C40.92 29.09 42.08 28.29 42.08 26.86C42.08 25.46 40.94 25.09 39.60 24.85C38.78 24.70 37.83 24.53 37.83 23.73C37.83 23.02 38.44 22.64 39.30 22.64C40.42 22.64 40.76 23.28 40.80 23.83L41.89 23.83C41.89 22.64 41.03 21.68 39.34 21.68C37.96 21.68 36.68 22.33 36.68 23.85ZM46.60 28.98L47.77 28.98L47.77 19.15L46.60 19.15ZM52.72 21.68C50.71 21.68 49.63 23.13 49.63 25.05L49.63 25.70C49.63 27.64 50.70 29.09 52.72 29.09C54.73 29.09 55.79 27.64 55.79 25.70L55.79 25.05C55.79 23.13 54.73 21.68 52.72 21.68ZM52.72 22.68C53.95 22.68 54.62 23.62 54.62 25.09L54.62 25.65C54.62 27.12 53.95 28.07 52.72 28.07C51.48 28.07 50.80 27.12 50.80 25.65L50.80 25.09C50.80 23.62 51.48 22.68 52.72 22.68ZM57.32 25.71C57.32 27.62 58.39 29.09 60.30 29.09C61.94 29.09 62.85 28.23 63.09 27.00L61.93 27.00C61.80 27.58 61.27 28.05 60.38 28.05C59.23 28.05 58.49 27.12 58.49 25.72L58.49 25.05C58.49 23.60 59.18 22.71 60.37 22.71C61.15 22.71 61.72 23.27 61.88 23.88L63.03 23.88C62.97 22.78 61.96 21.68 60.30 21.68C58.42 21.68 57.32 23.06 57.32 25.00ZM65.92 26.39L66.59 25.66L69.03 28.98L70.47 28.98L67.45 24.92L70.29 21.79L68.83 21.79L65.97 24.97L65.92 24.97L65.92 19.15L64.75 19.15L64.75 28.98L65.92 28.98Z" fill="#000000"></path></svg>