<svg xmlns="http://www.w3.org/2000/svg" version="1.1" xmlns:xlink="http://www.w3.org/1999/xlink" xmlns:svgjs="http://svgjs.com/svgjs" width="88" height="40"><svg id="SvgjsSvg1002" style="overflow: hidden; top: -100%; left: -100%; position: absolute; opacity: 0;" width="2" height="0" focusable="false"><polyline id="SvgjsPolyline1003" points="0,0"></polyline><path id="SvgjsPath1004" d="M0 0 "></path></svg><defs id="SvgjsDefs1704"></defs><rect id="SvgjsRect1705" width="87" height="39" x="0.5" y="0.5" rx="8" ry="8" fill="#ffffff" stroke-opacity="1" stroke="#444c56" stroke-width="1"></rect><path id="SvgjsPath1706" d="M13.98 25.71C13.98 27.62 15.05 29.09 16.96 29.09C18.61 29.09 19.51 28.23 19.75 27.00L18.59 27.00C18.46 27.58 17.94 28.05 17.04 28.05C15.89 28.05 15.16 27.12 15.16 25.72L15.16 25.05C15.16 23.60 15.85 22.71 17.04 22.71C17.81 22.71 18.38 23.27 18.54 23.88L19.69 23.88C19.63 22.78 18.62 21.68 16.96 21.68C15.09 21.68 13.98 23.06 13.98 25.00ZM24.19 21.68C22.18 21.68 21.10 23.13 21.10 25.05L21.10 25.70C21.10 27.64 22.18 29.09 24.19 29.09C26.21 29.09 27.27 27.64 27.27 25.70L27.27 25.05C27.27 23.13 26.20 21.68 24.19 21.68ZM24.19 22.68C25.42 22.68 26.09 23.62 26.09 25.09L26.09 25.65C26.09 27.12 25.42 28.07 24.19 28.07C22.96 28.07 22.28 27.12 22.28 25.65L22.28 25.09C22.28 23.62 22.96 22.68 24.19 22.68ZM29.08 28.98L30.26 28.98L30.26 24.42C30.26 23.34 30.95 22.74 31.83 22.74C32.81 22.74 33.39 23.34 33.39 24.44L33.39 28.98L34.56 28.98L34.56 24.44C34.56 23.44 35.13 22.74 36.15 22.74C37.17 22.74 37.70 23.41 37.70 24.33L37.70 28.98L38.87 28.98L38.87 24.09C38.87 22.61 37.97 21.68 36.46 21.68C35.29 21.68 34.53 22.22 34.26 22.83L34.20 22.83C33.92 22.13 33.25 21.68 32.13 21.68C31.18 21.68 30.54 22.18 30.31 22.67L30.25 22.67L30.25 21.79L29.08 21.79ZM40.93 28.98L42.11 28.98L42.11 24.42C42.11 23.34 42.80 22.74 43.68 22.74C44.66 22.74 45.25 23.34 45.25 24.44L45.25 28.98L46.42 28.98L46.42 24.44C46.42 23.44 46.98 22.74 48.00 22.74C49.03 22.74 49.55 23.41 49.55 24.33L49.55 28.98L50.72 28.98L50.72 24.09C50.72 22.61 49.83 21.68 48.31 21.68C47.14 21.68 46.38 22.22 46.11 22.83L46.05 22.83C45.77 22.13 45.10 21.68 43.98 21.68C43.03 21.68 42.40 22.18 42.16 22.67L42.10 22.67L42.10 21.79L40.93 21.79ZM56.80 28.08L56.83 28.08L56.83 28.98L57.96 28.98L57.96 24.02C57.96 22.51 56.85 21.68 55.32 21.68C53.58 21.68 52.73 22.59 52.65 23.85L53.76 23.85C53.83 23.13 54.35 22.66 55.28 22.66C56.25 22.66 56.79 23.18 56.79 24.12L56.79 24.85L54.90 24.85C53.25 24.86 52.38 25.65 52.38 26.91C52.38 28.23 53.33 29.09 54.72 29.09C55.78 29.09 56.44 28.66 56.80 28.08ZM55.04 28.12C54.28 28.12 53.58 27.72 53.58 26.87C53.58 26.22 54.00 25.76 54.99 25.76L56.79 25.76L56.79 26.59C56.79 27.49 56.04 28.12 55.04 28.12ZM59.99 28.98L61.17 28.98L61.17 24.60C61.17 23.62 61.70 22.74 62.94 22.74C63.98 22.74 64.70 23.36 64.70 24.57L64.70 28.98L65.87 28.98L65.87 24.37C65.87 22.62 64.77 21.68 63.29 21.68C62.13 21.68 61.46 22.28 61.20 22.74L61.16 22.74L61.16 21.79L59.99 21.79ZM70.44 21.68C68.63 21.68 67.57 23.10 67.57 25.06L67.57 25.71C67.57 27.71 68.56 29.09 70.44 29.09C71.40 29.09 72.15 28.63 72.56 27.90L72.58 27.90L72.58 28.98L73.71 28.98L73.71 19.15L72.54 19.15L72.54 22.79L72.50 22.79C72.14 22.15 71.39 21.68 70.44 21.68ZM70.60 22.71C71.81 22.71 72.56 23.65 72.56 25.10L72.56 25.67C72.56 27.20 71.83 28.06 70.62 28.06C69.54 28.06 68.75 27.27 68.75 25.67L68.75 25.10C68.75 23.50 69.54 22.71 70.60 22.71Z" fill="#000000"></path></svg>