<svg xmlns="http://www.w3.org/2000/svg" version="1.1" xmlns:xlink="http://www.w3.org/1999/xlink" xmlns:svgjs="http://svgjs.com/svgjs" width="40" height="40"><svg id="SvgjsSvg1002" style="overflow: hidden; top: -100%; left: -100%; position: absolute; opacity: 0;" width="2" height="0" focusable="false"><polyline id="SvgjsPolyline1003" points="0,0"></polyline><path id="SvgjsPath1004" d="M0 0 "></path></svg><defs id="SvgjsDefs1737"></defs><rect id="SvgjsRect1738" width="39" height="39" x="0.5" y="0.5" rx="8" ry="8" fill="#ffffff" stroke-opacity="1" stroke="#444c56" stroke-width="1"></rect><path id="SvgjsPath1739" d="M15.98 18.48L15.98 22.76L14.13 22.78C12.06 22.78 10.38 24.39 10.38 26.48C10.38 28.56 12.06 30.24 14.13 30.24C16.20 30.24 17.88 28.56 17.88 26.48L17.88 24.65L22.12 24.65L22.12 26.48C22.12 28.56 23.80 30.24 25.87 30.24C27.94 30.24 29.63 28.56 29.63 26.48C29.63 24.39 27.94 22.78 25.87 22.78L24.02 22.76L24.02 18.48L25.87 18.48C27.94 18.47 29.63 16.86 29.63 14.76C29.63 12.69 27.94 11.00 25.87 11.00C23.80 11.00 22.12 12.69 22.12 14.76L22.12 16.60L17.88 16.60L17.88 14.76C17.88 12.69 16.20 11.00 14.13 11.00C12.06 11.00 10.38 12.69 10.38 14.76C10.38 16.86 12.06 18.47 14.13 18.48ZM14.15 16.62C13.12 16.62 12.29 15.79 12.29 14.76C12.29 13.75 13.12 12.92 14.13 12.92C15.13 12.92 15.97 13.75 15.97 14.78L15.97 16.62ZM25.85 16.62L24.03 16.62L24.03 14.78C24.03 13.75 24.87 12.92 25.87 12.92C26.88 12.92 27.71 13.75 27.71 14.76C27.71 15.79 26.86 16.62 25.85 16.62ZM17.88 22.79L17.88 18.46L22.11 18.46L22.11 22.79ZM14.15 24.61L15.97 24.61L15.97 26.45C15.97 27.48 15.13 28.31 14.13 28.31C13.12 28.31 12.29 27.48 12.29 26.47C12.29 25.46 13.12 24.61 14.15 24.61ZM25.85 24.61C26.86 24.61 27.71 25.46 27.71 26.47C27.71 27.48 26.88 28.31 25.87 28.31C24.87 28.31 24.03 27.48 24.03 26.45L24.03 24.61Z" fill="#000000"></path></svg>