<svg xmlns="http://www.w3.org/2000/svg" version="1.1" xmlns:xlink="http://www.w3.org/1999/xlink" xmlns:svgjs="http://svgjs.com/svgjs" width="76" height="40"><svg id="SvgjsSvg1002" style="overflow: hidden; top: -100%; left: -100%; position: absolute; opacity: 0;" width="2" height="0" focusable="false"><polyline id="SvgjsPolyline1003" points="0,0"></polyline><path id="SvgjsPath1004" d="M0 0 "></path></svg><defs id="SvgjsDefs1713"></defs><rect id="SvgjsRect1714" width="75" height="39" x="0.5" y="0.5" rx="8" ry="8" fill="#ffffff" stroke-opacity="1" stroke="#444c56" stroke-width="1"></rect><path id="SvgjsPath1715" d="M12.58 17.68C10.77 17.68 9.71 19.10 9.71 21.06L9.71 21.71C9.71 23.71 10.71 25.09 12.58 25.09C13.55 25.09 14.30 24.63 14.70 23.90L14.73 23.90L14.73 24.98L15.86 24.98L15.86 15.15L14.68 15.15L14.68 18.79L14.65 18.79C14.29 18.15 13.53 17.68 12.58 17.68ZM12.75 18.71C13.96 18.71 14.70 19.65 14.70 21.10L14.70 21.67C14.70 23.20 13.97 24.06 12.77 24.06C11.68 24.06 10.90 23.27 10.90 21.67L10.90 21.10C10.90 19.50 11.68 18.71 12.75 18.71ZM20.70 25.09C22.28 25.09 23.23 24.21 23.51 23.02L22.34 23.02C22.11 23.69 21.56 24.11 20.73 24.11C19.56 24.11 18.86 23.17 18.86 21.80L18.86 21.67L23.60 21.67L23.60 21.00C23.60 19.03 22.52 17.68 20.64 17.68C18.76 17.68 17.68 19.03 17.68 20.92L17.68 21.73C17.68 23.77 18.83 25.09 20.70 25.09ZM18.86 20.72L18.86 20.70C18.86 19.57 19.56 18.66 20.65 18.66C21.72 18.66 22.43 19.56 22.43 20.70L22.43 20.72ZM25.43 24.98L26.60 24.98L26.60 15.15L25.43 15.15ZM31.46 25.09C33.05 25.09 34.00 24.21 34.27 23.02L33.11 23.02C32.87 23.69 32.33 24.11 31.49 24.11C30.32 24.11 29.63 23.17 29.63 21.80L29.63 21.67L34.37 21.67L34.37 21.00C34.37 19.03 33.29 17.68 31.41 17.68C29.52 17.68 28.45 19.03 28.45 20.92L28.45 21.73C28.45 23.77 29.59 25.09 31.46 25.09ZM29.63 20.72L29.63 20.70C29.63 19.57 30.32 18.66 31.42 18.66C32.49 18.66 33.19 19.56 33.19 20.70L33.19 20.72ZM36.60 17.79L35.63 17.79L35.63 18.78L36.59 18.78L36.59 22.97C36.59 24.38 36.94 25.04 38.64 25.04C38.89 25.04 39.13 25.01 39.24 24.99L39.24 24.05C39.14 24.06 39.05 24.06 38.94 24.06C38.05 24.06 37.77 23.84 37.77 22.98L37.77 18.78L39.19 18.78L39.19 17.79L37.77 17.79L37.77 16.00L36.60 16.00ZM43.59 25.09C45.18 25.09 46.13 24.21 46.40 23.02L45.23 23.02C45 23.69 44.45 24.11 43.62 24.11C42.45 24.11 41.75 23.17 41.75 21.80L41.75 21.67L46.50 21.67L46.50 21.00C46.50 19.03 45.42 17.68 43.54 17.68C41.65 17.68 40.58 19.03 40.58 20.92L40.58 21.73C40.58 23.77 41.72 25.09 43.59 25.09ZM41.75 20.72L41.75 20.70C41.75 19.57 42.45 18.66 43.54 18.66C44.62 18.66 45.32 19.56 45.32 20.70L45.32 20.72ZM53.74 26.30L59.35 26.30C60.15 26.30 60.79 26.06 61.34 25.47L65.10 21.56C65.54 21.10 65.73 20.71 65.73 20.31C65.73 19.90 65.54 19.51 65.10 19.06L61.34 15.12C60.80 14.54 60.16 14.33 59.36 14.33L53.74 14.33C52.38 14.33 51.68 15.02 51.68 16.37L51.68 24.28C51.68 25.63 52.38 26.30 53.74 26.30ZM55.25 23.19C54.91 23.19 54.64 22.93 54.64 22.59C54.64 22.43 54.71 22.29 54.82 22.17L56.68 20.31L54.82 18.45C54.71 18.33 54.64 18.19 54.64 18.02C54.64 17.70 54.91 17.42 55.25 17.42C55.40 17.42 55.55 17.48 55.67 17.60L57.53 19.46L59.39 17.60C59.51 17.48 59.66 17.42 59.81 17.42C60.15 17.42 60.42 17.70 60.42 18.02C60.42 18.19 60.35 18.33 60.24 18.45L58.38 20.31L60.24 22.17C60.35 22.29 60.42 22.43 60.42 22.59C60.42 22.93 60.15 23.19 59.81 23.19C59.65 23.19 59.51 23.14 59.40 23.02L57.53 21.15L55.66 23.02C55.55 23.14 55.41 23.19 55.25 23.19Z" fill="#000000"></path></svg>