<svg xmlns="http://www.w3.org/2000/svg" version="1.1" xmlns:xlink="http://www.w3.org/1999/xlink" xmlns:svgjs="http://svgjs.com/svgjs" width="64" height="40"><svg id="SvgjsSvg1002" style="overflow: hidden; top: -100%; left: -100%; position: absolute; opacity: 0;" width="2" height="0" focusable="false"><polyline id="SvgjsPolyline1003" points="0,0"></polyline><path id="SvgjsPath1004" d="M0 0 "></path></svg><defs id="SvgjsDefs1710"></defs><rect id="SvgjsRect1711" width="63" height="39" x="0.5" y="0.5" rx="8" ry="8" fill="#ffffff" stroke-opacity="1" stroke="#444c56" stroke-width="1"></rect><path id="SvgjsPath1712" d="M16.49 21.68C14.68 21.68 13.62 23.10 13.62 25.06L13.62 25.71C13.62 27.71 14.62 29.09 16.49 29.09C17.46 29.09 18.21 28.63 18.61 27.90L18.64 27.90L18.64 28.98L19.77 28.98L19.77 19.15L18.59 19.15L18.59 22.79L18.56 22.79C18.19 22.15 17.44 21.68 16.49 21.68ZM16.66 22.71C17.87 22.71 18.61 23.65 18.61 25.10L18.61 25.67C18.61 27.20 17.88 28.06 16.68 28.06C15.59 28.06 14.80 27.27 14.80 25.67L14.80 25.10C14.80 23.50 15.59 22.71 16.66 22.71ZM24.61 29.09C26.19 29.09 27.14 28.21 27.42 27.02L26.25 27.02C26.02 27.69 25.47 28.11 24.63 28.11C23.47 28.11 22.77 27.17 22.77 25.80L22.77 25.67L27.51 25.67L27.51 25.00C27.51 23.03 26.43 21.68 24.55 21.68C22.67 21.68 21.59 23.03 21.59 24.92L21.59 25.73C21.59 27.77 22.73 29.09 24.61 29.09ZM22.77 24.72L22.77 24.70C22.77 23.57 23.47 22.66 24.56 22.66C25.63 22.66 26.34 23.56 26.34 24.70L26.34 24.72ZM29.34 28.98L30.51 28.98L30.51 19.15L29.34 19.15ZM35.37 29.09C36.96 29.09 37.91 28.21 38.18 27.02L37.01 27.02C36.78 27.69 36.23 28.11 35.40 28.11C34.23 28.11 33.53 27.17 33.53 25.80L33.53 25.67L38.28 25.67L38.28 25.00C38.28 23.03 37.20 21.68 35.32 21.68C33.43 21.68 32.36 23.03 32.36 24.92L32.36 25.73C32.36 27.77 33.50 29.09 35.37 29.09ZM33.53 24.72L33.53 24.70C33.53 23.57 34.23 22.66 35.33 22.66C36.40 22.66 37.10 23.56 37.10 24.70L37.10 24.72ZM40.51 21.79L39.54 21.79L39.54 22.78L40.50 22.78L40.50 26.97C40.50 28.38 40.85 29.04 42.55 29.04C42.80 29.04 43.04 29.01 43.15 28.99L43.15 28.05C43.05 28.06 42.96 28.06 42.85 28.06C41.96 28.06 41.68 27.84 41.68 26.98L41.68 22.78L43.10 22.78L43.10 21.79L41.68 21.79L41.68 20.00L40.51 20.00ZM47.50 29.09C49.09 29.09 50.04 28.21 50.31 27.02L49.14 27.02C48.91 27.69 48.36 28.11 47.53 28.11C46.36 28.11 45.66 27.17 45.66 25.80L45.66 25.67L50.41 25.67L50.41 25.00C50.41 23.03 49.33 21.68 47.45 21.68C45.56 21.68 44.49 23.03 44.49 24.92L44.49 25.73C44.49 27.77 45.63 29.09 47.50 29.09ZM45.66 24.72L45.66 24.70C45.66 23.57 46.36 22.66 47.45 22.66C48.53 22.66 49.23 23.56 49.23 24.70L49.23 24.72Z" fill="#000000"></path></svg>