<svg xmlns="http://www.w3.org/2000/svg" version="1.1" xmlns:xlink="http://www.w3.org/1999/xlink" xmlns:svgjs="http://svgjs.com/svgjs" width="52" height="40"><svg id="SvgjsSvg1002" style="overflow: hidden; top: -100%; left: -100%; position: absolute; opacity: 0;" width="2" height="0" focusable="false"><polyline id="SvgjsPolyline1003" points="0,0"></polyline><path id="SvgjsPath1004" d="M0 0 "></path></svg><defs id="SvgjsDefs1668"></defs><rect id="SvgjsRect1669" width="51" height="39" x="0.5" y="0.5" rx="8" ry="8" fill="#ffffff" stroke-opacity="1" stroke="#444c56" stroke-width="1"></rect><path id="SvgjsPath1670" d="M16.71 25.97L16.71 21.14L21.46 21.14L21.46 19.86L16.71 19.86L16.71 16.05L21.89 16.05L21.89 14.77L15.28 14.77L15.28 25.97ZM27.37 25.97L27.37 14.77L26.04 14.77C25.23 15.21 24.08 15.89 23.28 16.46L23.28 17.92C24.02 17.42 25.37 16.59 25.93 16.29L25.95 16.29L25.95 25.97ZM31.33 17.87L31.33 17.82C31.33 16.73 32.11 15.78 33.43 15.78C34.61 15.78 35.48 16.51 35.48 17.70C35.48 18.72 34.83 19.50 34.19 20.22L30.01 25.07L30.01 25.97L37.15 25.97L37.15 24.72L32.01 24.72L32.01 24.69L35.03 21.15C36.12 19.88 36.93 18.96 36.93 17.60C36.93 15.84 35.56 14.54 33.47 14.54C31.20 14.54 29.94 16.10 29.94 17.82L29.94 17.87Z" fill="#000000"></path></svg>