<svg xmlns="http://www.w3.org/2000/svg" version="1.1" xmlns:xlink="http://www.w3.org/1999/xlink" xmlns:svgjs="http://svgjs.com/svgjs" width="52" height="40"><svg id="SvgjsSvg1002" style="overflow: hidden; top: -100%; left: -100%; position: absolute; opacity: 0;" width="2" height="0" focusable="false"><polyline id="SvgjsPolyline1003" points="0,0"></polyline><path id="SvgjsPath1004" d="M0 0 "></path></svg><defs id="SvgjsDefs1674"></defs><rect id="SvgjsRect1675" width="51" height="39" x="0.5" y="0.5" rx="8" ry="8" fill="#ffffff" stroke-opacity="1" stroke="#444c56" stroke-width="1"></rect><path id="SvgjsPath1676" d="M16.48 25.97L16.48 21.14L21.23 21.14L21.23 19.86L16.48 19.86L16.48 16.05L21.66 16.05L21.66 14.77L15.04 14.77L15.04 25.97ZM27.14 25.97L27.14 14.77L25.81 14.77C25.00 15.21 23.85 15.89 23.05 16.46L23.05 17.92C23.79 17.42 25.13 16.59 25.69 16.29L25.72 16.29L25.72 25.97ZM34.25 14.77C32.57 17.25 30.91 19.89 29.51 22.42L29.51 23.65L34.95 23.65L34.95 25.97L36.32 25.97L36.32 23.65L37.78 23.65L37.78 22.39L36.32 22.39L36.32 14.77ZM30.94 22.39L30.94 22.37C32.12 20.30 33.57 18.00 34.92 16.02L34.95 16.02L34.95 22.39Z" fill="#000000"></path></svg>