<svg xmlns="http://www.w3.org/2000/svg" version="1.1" xmlns:xlink="http://www.w3.org/1999/xlink" xmlns:svgjs="http://svgjs.com/svgjs" width="52" height="40"><svg id="SvgjsSvg1002" style="overflow: hidden; top: -100%; left: -100%; position: absolute; opacity: 0;" width="2" height="0" focusable="false"><polyline id="SvgjsPolyline1003" points="0,0"></polyline><path id="SvgjsPath1004" d="M0 0 "></path></svg><defs id="SvgjsDefs1689"></defs><rect id="SvgjsRect1690" width="51" height="39" x="0.5" y="0.5" rx="8" ry="8" fill="#ffffff" stroke-opacity="1" stroke="#444c56" stroke-width="1"></rect><path id="SvgjsPath1691" d="M16.60 25.97L16.60 21.14L21.35 21.14L21.35 19.86L16.60 19.86L16.60 16.05L21.78 16.05L21.78 14.77L15.17 14.77L15.17 25.97ZM27.26 25.97L27.26 14.77L25.93 14.77C25.12 15.21 23.97 15.89 23.17 16.46L23.17 17.92C23.91 17.42 25.26 16.59 25.82 16.29L25.84 16.29L25.84 25.97ZM29.75 23.23C29.85 24.58 31.00 26.19 33.33 26.19C35.97 26.19 37.53 23.95 37.53 20.16C37.53 16.10 35.89 14.55 33.43 14.55C31.48 14.55 29.65 15.96 29.65 18.35C29.65 20.79 31.39 22.07 33.17 22.07C34.74 22.07 35.76 21.28 36.08 20.41L36.13 20.41C36.13 23.17 35.17 24.95 33.40 24.95C32.00 24.95 31.28 24.01 31.19 23.23ZM35.95 18.37C35.95 19.83 34.78 20.84 33.47 20.84C32.21 20.84 31.07 20.04 31.07 18.33C31.07 16.60 32.29 15.78 33.52 15.78C34.85 15.78 35.95 16.62 35.95 18.37Z" fill="#000000"></path></svg>