<svg xmlns="http://www.w3.org/2000/svg" version="1.1" xmlns:xlink="http://www.w3.org/1999/xlink" xmlns:svgjs="http://svgjs.com/svgjs" width="52" height="40"><svg id="SvgjsSvg1002" style="overflow: hidden; top: -100%; left: -100%; position: absolute; opacity: 0;" width="2" height="0" focusable="false"><polyline id="SvgjsPolyline1003" points="0,0"></polyline><path id="SvgjsPath1004" d="M0 0 "></path></svg><defs id="SvgjsDefs1644"></defs><rect id="SvgjsRect1645" width="51" height="39" x="0.5" y="0.5" rx="8" ry="8" fill="#ffffff" stroke-opacity="1" stroke="#444c56" stroke-width="1"></rect><path id="SvgjsPath1646" d="M19.79 25.97L19.79 21.14L24.54 21.14L24.54 19.86L19.79 19.86L19.79 16.05L24.96 16.05L24.96 14.77L18.35 14.77L18.35 25.97ZM30.94 14.77C29.27 17.25 27.60 19.89 26.20 22.42L26.20 23.65L31.64 23.65L31.64 25.97L33.01 25.97L33.01 23.65L34.47 23.65L34.47 22.39L33.01 22.39L33.01 14.77ZM27.64 22.39L27.64 22.37C28.82 20.30 30.26 18.00 31.62 16.02L31.64 16.02L31.64 22.39Z" fill="#000000"></path></svg>