<svg xmlns="http://www.w3.org/2000/svg" version="1.1" xmlns:xlink="http://www.w3.org/1999/xlink" xmlns:svgjs="http://svgjs.com/svgjs" width="52" height="40"><svg id="SvgjsSvg1002" style="overflow: hidden; top: -100%; left: -100%; position: absolute; opacity: 0;" width="2" height="0" focusable="false"><polyline id="SvgjsPolyline1003" points="0,0"></polyline><path id="SvgjsPath1004" d="M0 0 "></path></svg><defs id="SvgjsDefs1650"></defs><rect id="SvgjsRect1651" width="51" height="39" x="0.5" y="0.5" rx="8" ry="8" fill="#ffffff" stroke-opacity="1" stroke="#444c56" stroke-width="1"></rect><path id="SvgjsPath1652" d="M19.91 25.97L19.91 21.14L24.66 21.14L24.66 19.86L19.91 19.86L19.91 16.05L25.09 16.05L25.09 14.77L18.47 14.77L18.47 25.97ZM33.90 17.37C33.79 16.02 32.58 14.56 30.52 14.56C28.09 14.56 26.32 16.59 26.32 20.80C26.32 22.64 26.73 23.99 27.43 24.88C28.15 25.77 29.15 26.20 30.35 26.20C32.49 26.20 34.21 24.78 34.21 22.36C34.21 19.99 32.37 18.69 30.54 18.69C29.10 18.69 28.06 19.52 27.73 20.34L27.71 20.34C27.80 17.13 29.02 15.79 30.46 15.79C31.76 15.79 32.41 16.74 32.47 17.37ZM27.92 22.45C27.92 20.80 29.06 19.92 30.36 19.92C31.57 19.92 32.80 20.73 32.80 22.44C32.80 24.18 31.61 24.96 30.38 24.96C29.10 24.96 27.92 24.11 27.92 22.45Z" fill="#000000"></path></svg>