<svg xmlns="http://www.w3.org/2000/svg" version="1.1" xmlns:xlink="http://www.w3.org/1999/xlink" xmlns:svgjs="http://svgjs.com/svgjs" width="52" height="40"><svg id="SvgjsSvg1002" style="overflow: hidden; top: -100%; left: -100%; position: absolute; opacity: 0;" width="2" height="0" focusable="false"><polyline id="SvgjsPolyline1003" points="0,0"></polyline><path id="SvgjsPath1004" d="M0 0 "></path></svg><defs id="SvgjsDefs1659"></defs><rect id="SvgjsRect1660" width="51" height="39" x="0.5" y="0.5" rx="8" ry="8" fill="#ffffff" stroke-opacity="1" stroke="#444c56" stroke-width="1"></rect><path id="SvgjsPath1661" d="M19.91 25.97L19.91 21.14L24.66 21.14L24.66 19.86L19.91 19.86L19.91 16.05L25.09 16.05L25.09 14.77L18.47 14.77L18.47 25.97ZM26.45 23.23C26.55 24.58 27.69 26.19 30.02 26.19C32.67 26.19 34.22 23.95 34.22 20.16C34.22 16.10 32.58 14.55 30.12 14.55C28.18 14.55 26.35 15.96 26.35 18.35C26.35 20.79 28.08 22.07 29.87 22.07C31.43 22.07 32.45 21.28 32.77 20.41L32.83 20.41C32.82 23.17 31.86 24.95 30.09 24.95C28.69 24.95 27.97 24.01 27.88 23.23ZM32.65 18.37C32.65 19.83 31.48 20.84 30.16 20.84C28.90 20.84 27.76 20.04 27.76 18.33C27.76 16.60 28.98 15.78 30.21 15.78C31.54 15.78 32.65 16.62 32.65 18.37Z" fill="#000000"></path></svg>