<svg xmlns="http://www.w3.org/2000/svg" version="1.1" xmlns:xlink="http://www.w3.org/1999/xlink" xmlns:svgjs="http://svgjs.com/svgjs" width="40" height="40"><svg id="SvgjsSvg1002" style="overflow: hidden; top: -100%; left: -100%; position: absolute; opacity: 0;" width="2" height="0" focusable="false"><polyline id="SvgjsPolyline1003" points="0,0"></polyline><path id="SvgjsPath1004" d="M0 0 "></path></svg><defs id="SvgjsDefs1698"></defs><rect id="SvgjsRect1699" width="39" height="39" x="0.5" y="0.5" rx="8" ry="8" fill="#ffffff" stroke-opacity="1" stroke="#444c56" stroke-width="1"></rect><path id="SvgjsPath1700" d="M15.25 28.98L16.42 28.98L16.42 22.78L17.83 22.78L17.83 21.79L16.42 21.79L16.42 21.17C16.42 20.29 16.79 20.04 17.57 20.04C17.75 20.04 17.84 20.06 17.94 20.07L17.94 19.11C17.82 19.08 17.66 19.06 17.42 19.06C15.94 19.06 15.25 19.70 15.25 21.07L15.25 21.79L14.28 21.79L14.28 22.78L15.25 22.78ZM19.43 28.98L20.61 28.98L20.61 24.60C20.61 23.62 21.14 22.74 22.38 22.74C23.42 22.74 24.14 23.36 24.14 24.57L24.14 28.98L25.31 28.98L25.31 24.37C25.31 22.62 24.21 21.68 22.73 21.68C21.57 21.68 20.90 22.28 20.64 22.74L20.60 22.74L20.60 21.79L19.43 21.79Z" fill="#000000"></path></svg>