<svg xmlns="http://www.w3.org/2000/svg" version="1.1" xmlns:xlink="http://www.w3.org/1999/xlink" xmlns:svgjs="http://svgjs.com/svgjs" width="40" height="40"><svg id="SvgjsSvg1002" style="overflow: hidden; top: -100%; left: -100%; position: absolute; opacity: 0;" width="2" height="0" focusable="false"><polyline id="SvgjsPolyline1003" points="0,0"></polyline><path id="SvgjsPath1004" d="M0 0 "></path></svg><defs id="SvgjsDefs1545"></defs><rect id="SvgjsRect1546" width="39" height="39" x="0.5" y="0.5" rx="8" ry="8" fill="#ffffff" stroke-opacity="1" stroke="#444c56" stroke-width="1"></rect><path id="SvgjsPath1547" d="M27.16 16.98C26.91 13.36 24.19 10.89 20.21 10.89C15.58 10.89 12.80 14.01 12.80 19.10L12.80 21.86C12.80 27.27 15.41 30.35 20.27 30.35C24.31 30.35 27.20 27.64 27.20 24.07L27.20 20.23L20.06 20.23L20.06 22.31L24.87 22.31L24.87 24.12C24.87 26.54 23.01 28.20 20.28 28.20C16.96 28.20 15.18 25.91 15.18 21.86L15.18 19.10C15.18 15.28 17.04 13.04 20.21 13.04C22.80 13.04 24.49 14.52 24.79 16.98Z" fill="#000000"></path></svg>