<svg xmlns="http://www.w3.org/2000/svg" version="1.1" xmlns:xlink="http://www.w3.org/1999/xlink" xmlns:svgjs="http://svgjs.com/svgjs" width="40" height="40"><svg id="SvgjsSvg1002" style="overflow: hidden; top: -100%; left: -100%; position: absolute; opacity: 0;" width="2" height="0" focusable="false"><polyline id="SvgjsPolyline1003" points="0,0"></polyline><path id="SvgjsPath1004" d="M0 0 "></path></svg><defs id="SvgjsDefs1785"></defs><rect id="SvgjsRect1786" width="39" height="39" x="0.5" y="0.5" rx="8" ry="8" fill="#ffffff" stroke-opacity="1" stroke="#444c56" stroke-width="1"></rect><path id="SvgjsPath1787" d="M20.01 33.55C27.08 33.55 32.93 27.68 32.93 20.62C32.93 13.55 27.08 7.70 19.99 7.70C12.92 7.70 7.07 13.55 7.07 20.62C7.07 27.68 12.94 33.55 20.01 33.55ZM20.76 10.24C21.91 10.68 22.96 12.07 23.71 14.00C22.81 14.16 21.83 14.27 20.76 14.30ZM16.29 14.00C17.04 12.07 18.09 10.68 19.24 10.24L19.24 14.30C18.17 14.27 17.19 14.16 16.29 14.00ZM23.55 10.65C24.90 11.13 26.13 11.88 27.16 12.82C26.60 13.14 25.95 13.41 25.23 13.63C24.78 12.45 24.20 11.44 23.55 10.65ZM12.84 12.82C13.87 11.88 15.10 11.13 16.45 10.65C15.80 11.44 15.22 12.45 14.77 13.63C14.05 13.41 13.40 13.14 12.84 12.82ZM26.43 19.85C26.38 18.10 26.12 16.47 25.71 15.04C26.65 14.74 27.50 14.37 28.21 13.94C29.54 15.57 30.38 17.62 30.55 19.85ZM9.47 19.85C9.62 17.62 10.46 15.57 11.79 13.94C12.50 14.37 13.35 14.74 14.29 15.04C13.88 16.47 13.62 18.10 13.57 19.85ZM15.11 19.85C15.18 18.28 15.43 16.76 15.81 15.42C16.88 15.64 18.04 15.78 19.24 15.82L19.24 19.85ZM20.76 19.85L20.76 15.82C21.96 15.78 23.12 15.64 24.19 15.42C24.57 16.76 24.82 18.28 24.89 19.85ZM9.47 21.37L13.57 21.37C13.62 23.14 13.88 24.80 14.29 26.26C13.36 26.55 12.53 26.92 11.82 27.33C10.48 25.69 9.62 23.64 9.47 21.37ZM15.11 21.37L19.24 21.37L19.24 25.48C18.02 25.52 16.88 25.66 15.81 25.88C15.43 24.51 15.17 22.98 15.11 21.37ZM20.76 25.48L20.76 21.37L24.89 21.37C24.82 22.98 24.57 24.51 24.19 25.88C23.12 25.66 21.96 25.52 20.76 25.48ZM25.71 26.26C26.12 24.80 26.38 23.14 26.43 21.37L30.55 21.37C30.40 23.64 29.54 25.70 28.20 27.34C27.49 26.92 26.65 26.55 25.71 26.26ZM16.29 27.30C17.19 27.14 18.17 27.03 19.24 27L19.24 31.05C18.09 30.61 17.04 29.21 16.29 27.30ZM20.76 27C21.83 27.03 22.81 27.14 23.71 27.30C22.96 29.21 21.91 30.61 20.76 31.05ZM12.88 28.45C13.44 28.13 14.07 27.88 14.77 27.67C15.21 28.80 15.75 29.79 16.38 30.57C15.07 30.09 13.90 29.37 12.88 28.45ZM25.23 27.67C25.94 27.89 26.57 28.15 27.13 28.45C26.12 29.38 24.92 30.10 23.60 30.58C24.23 29.79 24.79 28.80 25.23 27.67Z" fill="#000000"></path></svg>