<svg xmlns="http://www.w3.org/2000/svg" version="1.1" xmlns:xlink="http://www.w3.org/1999/xlink" xmlns:svgjs="http://svgjs.com/svgjs" width="64" height="40"><svg id="SvgjsSvg1002" style="overflow: hidden; top: -100%; left: -100%; position: absolute; opacity: 0;" width="2" height="0" focusable="false"><polyline id="SvgjsPolyline1003" points="0,0"></polyline><path id="SvgjsPath1004" d="M0 0 "></path></svg><defs id="SvgjsDefs1707"></defs><rect id="SvgjsRect1708" width="63" height="39" x="0.5" y="0.5" rx="8" ry="8" fill="#ffffff" stroke-opacity="1" stroke="#444c56" stroke-width="1"></rect><path id="SvgjsPath1709" d="M16.20 21.68C14.19 21.68 13.11 23.13 13.11 25.05L13.11 25.70C13.11 27.64 14.19 29.09 16.20 29.09C18.22 29.09 19.28 27.64 19.28 25.70L19.28 25.05C19.28 23.13 18.21 21.68 16.20 21.68ZM16.20 22.68C17.43 22.68 18.10 23.62 18.10 25.09L18.10 25.65C18.10 27.12 17.43 28.07 16.20 28.07C14.96 28.07 14.29 27.12 14.29 25.65L14.29 25.09C14.29 23.62 14.96 22.68 16.20 22.68ZM24.34 29.09C26.03 29.09 27.21 27.81 27.21 25.72L27.21 25.05C27.21 22.93 26.01 21.68 24.39 21.68C23.43 21.68 22.69 22.15 22.27 22.82L22.24 22.82L22.24 21.79L21.11 21.79L21.11 31.36L22.29 31.36L22.29 28.02L22.32 28.02C22.72 28.66 23.43 29.09 24.34 29.09ZM24.23 28.07C23.00 28.07 22.27 27.10 22.27 25.63L22.27 25.09C22.27 23.66 23.00 22.69 24.19 22.69C25.36 22.69 26.03 23.58 26.03 25.09L26.03 25.63C26.03 27.21 25.30 28.07 24.23 28.07ZM29.46 21.79L28.49 21.79L28.49 22.78L29.46 22.78L29.46 26.97C29.46 28.38 29.81 29.04 31.51 29.04C31.75 29.04 32 29.01 32.10 28.99L32.10 28.05C32.01 28.06 31.92 28.06 31.80 28.06C30.92 28.06 30.63 27.84 30.63 26.98L30.63 22.78L32.05 22.78L32.05 21.79L30.63 21.79L30.63 20.00L29.46 20.00ZM33.63 20.06C33.63 20.48 33.97 20.81 34.39 20.81C34.80 20.81 35.14 20.48 35.14 20.06C35.14 19.64 34.80 19.31 34.39 19.31C33.97 19.31 33.63 19.64 33.63 20.06ZM33.80 28.98L34.97 28.98L34.97 21.79L33.80 21.79ZM39.94 21.68C37.93 21.68 36.85 23.13 36.85 25.05L36.85 25.70C36.85 27.64 37.93 29.09 39.94 29.09C41.96 29.09 43.02 27.64 43.02 25.70L43.02 25.05C43.02 23.13 41.95 21.68 39.94 21.68ZM39.94 22.68C41.17 22.68 41.84 23.62 41.84 25.09L41.84 25.65C41.84 27.12 41.17 28.07 39.94 28.07C38.71 28.07 38.03 27.12 38.03 25.65L38.03 25.09C38.03 23.62 38.71 22.68 39.94 22.68ZM44.83 28.98L46.01 28.98L46.01 24.60C46.01 23.62 46.54 22.74 47.78 22.74C48.82 22.74 49.53 23.36 49.53 24.57L49.53 28.98L50.71 28.98L50.71 24.37C50.71 22.62 49.61 21.68 48.13 21.68C46.96 21.68 46.30 22.28 46.03 22.74L46 22.74L46 21.79L44.83 21.79Z" fill="#000000"></path></svg>