<svg xmlns="http://www.w3.org/2000/svg" version="1.1" xmlns:xlink="http://www.w3.org/1999/xlink" xmlns:svgjs="http://svgjs.com/svgjs" width="40" height="40"><svg id="SvgjsSvg1002" style="overflow: hidden; top: -100%; left: -100%; position: absolute; opacity: 0;" width="2" height="0" focusable="false"><polyline id="SvgjsPolyline1003" points="0,0"></polyline><path id="SvgjsPath1004" d="M0 0 "></path></svg><defs id="SvgjsDefs1761"></defs><rect id="SvgjsRect1762" width="39" height="39" x="0.5" y="0.5" rx="8" ry="8" fill="#ffffff" stroke-opacity="1" stroke="#444c56" stroke-width="1"></rect><path id="SvgjsPath1763" d="M16.10 29.69C16.77 29.69 17.21 29.23 17.21 28.59C17.21 28.26 17.10 28.01 16.90 27.82L14.27 25.28L12.49 23.80L14.87 23.91L27.29 23.91C29.87 23.91 30.92 22.76 30.92 20.27L30.92 14.33C30.92 11.74 29.87 10.69 27.29 10.69L21.93 10.69C21.24 10.69 20.78 11.20 20.78 11.81C20.78 12.44 21.24 12.95 21.93 12.95L27.26 12.95C28.29 12.95 28.68 13.34 28.68 14.37L28.68 20.23C28.68 21.27 28.29 21.67 27.26 21.67L14.87 21.67L12.49 21.78L14.27 20.30L16.90 17.76C17.10 17.57 17.21 17.32 17.21 16.99C17.21 16.35 16.77 15.88 16.10 15.88C15.83 15.88 15.50 16.02 15.30 16.24L9.45 21.94C9.20 22.19 9.08 22.47 9.08 22.79C9.08 23.09 9.20 23.39 9.45 23.62L15.30 29.34C15.50 29.56 15.83 29.69 16.10 29.69Z" fill="#000000"></path></svg>