<svg xmlns="http://www.w3.org/2000/svg" version="1.1" xmlns:xlink="http://www.w3.org/1999/xlink" xmlns:svgjs="http://svgjs.com/svgjs" width="40" height="40"><svg id="SvgjsSvg1002" style="overflow: hidden; top: -100%; left: -100%; position: absolute; opacity: 0;" width="2" height="0" focusable="false"><polyline id="SvgjsPolyline1003" points="0,0"></polyline><path id="SvgjsPath1004" d="M0 0 "></path></svg><defs id="SvgjsDefs1581"></defs><rect id="SvgjsRect1582" width="39" height="39" x="0.5" y="0.5" rx="8" ry="8" fill="#ffffff" stroke-opacity="1" stroke="#444c56" stroke-width="1"></rect><path id="SvgjsPath1583" d="M12.94 24.92C13.01 27.34 14.72 30.35 19.67 30.35C23.55 30.35 26.62 28.44 26.62 24.76C26.62 21.76 24.64 20.44 21.77 19.69L18.54 18.82C16.75 18.37 15.92 17.39 15.92 16.06C15.92 14.07 17.60 12.96 19.91 12.96C22.52 12.96 23.89 14.37 24.05 16.16L26.42 16.16C26.34 12.54 23.14 10.85 19.97 10.85C16.62 10.85 13.50 12.73 13.50 16.23C13.50 19.14 15.65 20.55 17.86 21.12L21.14 21.98C23.22 22.52 24.19 23.39 24.19 24.94C24.19 26.97 22.52 28.23 19.92 28.23C17.05 28.23 15.51 26.73 15.33 24.92Z" fill="#000000"></path></svg>