<svg xmlns="http://www.w3.org/2000/svg" version="1.1" xmlns:xlink="http://www.w3.org/1999/xlink" xmlns:svgjs="http://svgjs.com/svgjs" width="40" height="40"><svg id="SvgjsSvg1002" style="overflow: hidden; top: -100%; left: -100%; position: absolute; opacity: 0;" width="2" height="0" focusable="false"><polyline id="SvgjsPolyline1003" points="0,0"></polyline><path id="SvgjsPath1004" d="M0 0 "></path></svg><defs id="SvgjsDefs1752"></defs><rect id="SvgjsRect1753" width="39" height="39" x="0.5" y="0.5" rx="8" ry="8" fill="#ffffff" stroke-opacity="1" stroke="#444c56" stroke-width="1"></rect><path id="SvgjsPath1754" d="M21.11 30.25C21.44 30.25 21.74 30.14 22.01 29.87L30.58 21.31C30.83 21.08 30.96 20.81 30.99 20.51L30.99 29.05C30.99 29.76 31.53 30.25 32.24 30.25C32.96 30.25 33.48 29.76 33.48 29.05L33.48 11.73C33.48 11.00 32.96 10.50 32.24 10.50C31.53 10.50 30.99 11.00 30.99 11.73L30.99 20.26C30.96 19.96 30.83 19.67 30.58 19.45L22.01 10.88C21.74 10.62 21.44 10.50 21.11 10.50C20.41 10.50 19.89 11.00 19.89 11.70C19.89 12.04 20.01 12.36 20.23 12.59L23.14 15.53L27.22 19.23L24.44 19.13L7.76 19.13C7.03 19.13 6.51 19.64 6.51 20.38C6.51 21.11 7.03 21.63 7.76 21.63L24.44 21.63L27.23 21.53L23.14 25.22L20.23 28.18C20.01 28.39 19.89 28.72 19.89 29.06C19.89 29.75 20.41 30.25 21.11 30.25Z" fill="#000000"></path></svg>