<svg xmlns="http://www.w3.org/2000/svg" version="1.1" xmlns:xlink="http://www.w3.org/1999/xlink" xmlns:svgjs="http://svgjs.com/svgjs" width="40" height="40"><svg id="SvgjsSvg1002" style="overflow: hidden; top: -100%; left: -100%; position: absolute; opacity: 0;" width="2" height="0" focusable="false"><polyline id="SvgjsPolyline1003" points="0,0"></polyline><path id="SvgjsPath1004" d="M0 0 "></path></svg><defs id="SvgjsDefs1701"></defs><rect id="SvgjsRect1702" width="39" height="39" x="0.5" y="0.5" rx="8" ry="8" fill="#ffffff" stroke-opacity="1" stroke="#444c56" stroke-width="1"></rect><path id="SvgjsPath1703" d="M11.54 21.79L10.57 21.79L10.57 22.78L11.53 22.78L11.53 26.97C11.53 28.38 11.88 29.04 13.58 29.04C13.83 29.04 14.07 29.01 14.18 28.99L14.18 28.05C14.08 28.06 13.99 28.06 13.88 28.06C12.99 28.06 12.71 27.84 12.71 26.98L12.71 22.78L14.13 22.78L14.13 21.79L12.71 21.79L12.71 20.00L11.54 20.00ZM19.82 28.08L19.85 28.08L19.85 28.98L20.98 28.98L20.98 24.02C20.98 22.51 19.86 21.68 18.33 21.68C16.60 21.68 15.74 22.59 15.67 23.85L16.77 23.85C16.84 23.13 17.37 22.66 18.29 22.66C19.26 22.66 19.81 23.18 19.81 24.12L19.81 24.85L17.92 24.85C16.27 24.86 15.39 25.65 15.39 26.91C15.39 28.23 16.35 29.09 17.74 29.09C18.80 29.09 19.45 28.66 19.82 28.08ZM18.05 28.12C17.30 28.12 16.60 27.72 16.60 26.87C16.60 26.22 17.02 25.76 18.00 25.76L19.81 25.76L19.81 26.59C19.81 27.49 19.06 28.12 18.05 28.12ZM26.34 29.09C28.07 29.09 29.20 27.81 29.20 25.73L29.20 25.03C29.20 22.87 28.03 21.68 26.35 21.68C25.44 21.68 24.61 22.15 24.24 22.78L24.20 22.78L24.20 19.15L23.03 19.15L23.03 28.98L24.16 28.98L24.16 27.90L24.19 27.90C24.61 28.63 25.31 29.09 26.34 29.09ZM26.19 28.07C24.94 28.07 24.19 27.21 24.19 25.65L24.19 25.10C24.19 23.54 24.94 22.71 26.19 22.71C27.27 22.71 28.02 23.55 28.02 25.10L28.02 25.67C28.02 27.21 27.27 28.07 26.19 28.07Z" fill="#000000"></path></svg>