<svg xmlns="http://www.w3.org/2000/svg" version="1.1" xmlns:xlink="http://www.w3.org/1999/xlink" xmlns:svgjs="http://svgjs.com/svgjs" width="20" height="20"><svg id="SvgjsSvg1002" style="overflow: hidden; top: -100%; left: -100%; position: absolute; opacity: 0;" width="2" height="0" focusable="false"><polyline id="SvgjsPolyline1003" points="0,0"></polyline><path id="SvgjsPath1004" d="M0 0 "></path></svg><defs id="SvgjsDefs1872"></defs><rect id="SvgjsRect1873" width="19" height="19" x="0.5" y="0.5" rx="4" ry="4" fill="#2d333b" stroke-opacity="1" stroke="#444c56" stroke-width="1"></rect><path id="SvgjsPath1874" d="M8.17 8.22L8.17 8.18C8.17 7.27 8.82 6.48 9.92 6.48C10.90 6.48 11.63 7.09 11.63 8.09C11.63 8.93 11.08 9.58 10.56 10.18L7.07 14.22L7.07 14.98L13.02 14.98L13.02 13.93L8.74 13.93L8.74 13.91L11.25 10.96C12.16 9.90 12.84 9.13 12.84 8.00C12.84 6.53 11.70 5.45 9.96 5.45C8.06 5.45 7.01 6.75 7.01 8.18L7.01 8.22Z" fill="#ffffff"></path></svg>