<svg xmlns="http://www.w3.org/2000/svg" version="1.1" xmlns:xlink="http://www.w3.org/1999/xlink" xmlns:svgjs="http://svgjs.com/svgjs" width="20" height="20"><svg id="SvgjsSvg1002" style="overflow: hidden; top: -100%; left: -100%; position: absolute; opacity: 0;" width="2" height="0" focusable="false"><polyline id="SvgjsPolyline1003" points="0,0"></polyline><path id="SvgjsPath1004" d="M0 0 "></path></svg><defs id="SvgjsDefs1890"></defs><rect id="SvgjsRect1891" width="19" height="19" x="0.5" y="0.5" rx="4" ry="4" fill="#2d333b" stroke-opacity="1" stroke="#444c56" stroke-width="1"></rect><path id="SvgjsPath1892" d="M9.98 15.17C11.89 15.17 13.29 14.05 13.29 12.43C13.29 10.98 12.20 10.25 11.41 10.06L11.41 10.05C12.02 9.85 12.94 9.19 12.94 7.94C12.94 6.49 11.70 5.45 10.00 5.45C8.31 5.45 7.08 6.49 7.08 7.94C7.08 9.17 7.95 9.84 8.60 10.05L8.60 10.06C7.82 10.25 6.71 10.96 6.71 12.43C6.71 14.06 8.06 15.17 9.98 15.17ZM10.00 9.62C8.98 9.62 8.23 8.96 8.23 8.02C8.23 7.09 8.98 6.46 10.00 6.46C11.04 6.46 11.77 7.09 11.77 8.02C11.77 8.96 11.04 9.62 10.00 9.62ZM10.00 14.18C8.79 14.18 7.88 13.45 7.88 12.39C7.88 11.33 8.79 10.59 10.00 10.59C11.22 10.59 12.13 11.33 12.13 12.39C12.13 13.45 11.22 14.18 10.00 14.18Z" fill="#ffffff"></path></svg>