<svg xmlns="http://www.w3.org/2000/svg" version="1.1" xmlns:xlink="http://www.w3.org/1999/xlink" xmlns:svgjs="http://svgjs.com/svgjs" width="20" height="20"><svg id="SvgjsSvg1002" style="overflow: hidden; top: -100%; left: -100%; position: absolute; opacity: 0;" width="2" height="0" focusable="false"><polyline id="SvgjsPolyline1003" points="0,0"></polyline><path id="SvgjsPath1004" d="M0 0 "></path></svg><defs id="SvgjsDefs1956"></defs><rect id="SvgjsRect1957" width="19" height="19" x="0.5" y="0.5" rx="4" ry="4" fill="#2d333b" stroke-opacity="1" stroke="#444c56" stroke-width="1"></rect><path id="SvgjsPath1958" d="M8.71 14.04L8.73 14.04L8.73 14.49L9.29 14.49L9.29 12.01C9.29 11.25 8.73 10.84 7.97 10.84C7.10 10.84 6.67 11.30 6.64 11.92L7.19 11.92C7.22 11.57 7.49 11.33 7.95 11.33C8.43 11.33 8.71 11.59 8.71 12.06L8.71 12.43L7.76 12.43C6.94 12.43 6.50 12.83 6.50 13.46C6.50 14.12 6.98 14.55 7.67 14.55C8.20 14.55 8.53 14.33 8.71 14.04ZM7.83 14.06C7.45 14.06 7.10 13.86 7.10 13.44C7.10 13.11 7.31 12.88 7.80 12.88L8.71 12.88L8.71 13.30C8.71 13.74 8.33 14.06 7.83 14.06ZM10.33 14.49L10.91 14.49L10.91 9.58L10.33 9.58ZM12.21 10.90L11.72 10.90L11.72 11.39L12.21 11.39L12.21 13.48C12.21 14.19 12.38 14.52 13.23 14.52C13.35 14.52 13.48 14.51 13.53 14.50L13.53 14.02C13.48 14.03 13.44 14.03 13.38 14.03C12.94 14.03 12.79 13.92 12.79 13.49L12.79 11.39L13.51 11.39L13.51 10.90L12.79 10.90L12.79 10.00L12.21 10.00Z" fill="#ffffff"></path></svg>