<svg xmlns="http://www.w3.org/2000/svg" version="1.1" xmlns:xlink="http://www.w3.org/1999/xlink" xmlns:svgjs="http://svgjs.com/svgjs" width="20" height="20"><svg id="SvgjsSvg1002" style="overflow: hidden; top: -100%; left: -100%; position: absolute; opacity: 0;" width="2" height="0" focusable="false"><polyline id="SvgjsPolyline1003" points="0,0"></polyline><path id="SvgjsPath1004" d="M0 0 "></path></svg><defs id="SvgjsDefs2043"></defs><rect id="SvgjsRect2044" width="19" height="19" x="0.5" y="0.5" rx="4" ry="4" fill="#2d333b" stroke-opacity="1" stroke="#444c56" stroke-width="1"></rect><path id="SvgjsPath2045" d="M11.57 6.13C11.89 5.73 12.13 5.19 12.13 4.64C12.13 4.57 12.12 4.49 12.11 4.43C11.57 4.45 10.93 4.78 10.55 5.24C10.24 5.58 9.96 6.13 9.96 6.68C9.96 6.76 9.97 6.84 9.98 6.87C10.01 6.88 10.07 6.88 10.12 6.88C10.61 6.88 11.21 6.56 11.57 6.13ZM11.94 7.00C11.14 7.00 10.49 7.48 10.07 7.48C9.62 7.48 9.04 7.03 8.35 7.03C7.02 7.03 5.68 8.13 5.68 10.18C5.68 11.48 6.17 12.83 6.79 13.71C7.31 14.45 7.78 15.06 8.44 15.06C9.10 15.06 9.38 14.62 10.20 14.62C11.03 14.62 11.22 15.04 11.94 15.04C12.66 15.04 13.14 14.39 13.60 13.74C14.10 12.99 14.31 12.26 14.32 12.23C14.28 12.21 12.90 11.65 12.90 10.08C12.90 8.71 13.99 8.11 14.05 8.06C13.34 7.03 12.24 7.00 11.94 7.00Z" fill="#ffffff"></path></svg>