<svg xmlns="http://www.w3.org/2000/svg" version="1.1" xmlns:xlink="http://www.w3.org/1999/xlink" xmlns:svgjs="http://svgjs.com/svgjs" width="20" height="20"><svg id="SvgjsSvg1002" style="overflow: hidden; top: -100%; left: -100%; position: absolute; opacity: 0;" width="2" height="0" focusable="false"><polyline id="SvgjsPolyline1003" points="0,0"></polyline><path id="SvgjsPath1004" d="M0 0 "></path></svg><defs id="SvgjsDefs1791"></defs><rect id="SvgjsRect1792" width="19" height="19" x="0.5" y="0.5" rx="4" ry="4" fill="#2d333b" stroke-opacity="1" stroke="#444c56" stroke-width="1"></rect><path id="SvgjsPath1793" d="M6.94 14.98L10.31 14.98C12.32 14.98 13.57 13.99 13.57 12.37C13.57 11.06 12.80 10.23 11.54 10.05L11.54 10.01C12.50 9.71 13.04 9.00 13.04 7.94C13.04 6.53 12.03 5.65 10.44 5.65L6.94 5.65ZM8.13 6.69L10.25 6.69C11.25 6.69 11.83 7.22 11.83 8.15C11.83 9.19 11.13 9.67 9.56 9.67L8.13 9.67ZM8.13 10.69L10.38 10.69C11.63 10.69 12.34 11.31 12.34 12.37C12.34 13.47 11.60 13.93 9.75 13.93L8.13 13.93Z" fill="#ffffff"></path></svg>