<svg xmlns="http://www.w3.org/2000/svg" version="1.1" xmlns:xlink="http://www.w3.org/1999/xlink" xmlns:svgjs="http://svgjs.com/svgjs" width="20" height="20"><svg id="SvgjsSvg1002" style="overflow: hidden; top: -100%; left: -100%; position: absolute; opacity: 0;" width="2" height="0" focusable="false"><polyline id="SvgjsPolyline1003" points="0,0"></polyline><path id="SvgjsPath1004" d="M0 0 "></path></svg><defs id="SvgjsDefs2019"></defs><rect id="SvgjsRect2020" width="19" height="19" x="0.5" y="0.5" rx="4" ry="4" fill="#2d333b" stroke-opacity="1" stroke="#444c56" stroke-width="1"></rect><path id="SvgjsPath2021" d="M13.77 15.05C14.88 15.05 15.44 14.52 15.44 13.42L15.44 7.23C15.44 6.13 14.88 5.58 13.77 5.58L9.33 5.58C8.69 5.58 8.16 5.75 7.71 6.23L4.81 9.29C4.45 9.67 4.30 9.99 4.30 10.31C4.30 10.63 4.45 10.94 4.81 11.33L7.72 14.39C8.16 14.87 8.70 15.04 9.34 15.04ZM13.74 14.05L9.31 14.05C8.95 14.05 8.73 13.97 8.48 13.71L5.59 10.68C5.44 10.52 5.40 10.41 5.40 10.31C5.40 10.21 5.45 10.10 5.59 9.94L8.47 6.91C8.72 6.65 8.95 6.58 9.31 6.58L13.74 6.58C14.19 6.58 14.44 6.82 14.44 7.30L14.44 13.33C14.44 13.81 14.19 14.05 13.74 14.05ZM12.46 12.43C12.72 12.43 12.93 12.22 12.93 11.97C12.93 11.84 12.88 11.73 12.79 11.64L11.46 10.31L12.79 8.98C12.88 8.89 12.93 8.78 12.93 8.65C12.93 8.39 12.72 8.17 12.46 8.17C12.33 8.17 12.23 8.22 12.13 8.32L10.80 9.65L9.47 8.32C9.37 8.22 9.27 8.17 9.14 8.17C8.88 8.17 8.67 8.39 8.67 8.65C8.67 8.78 8.72 8.89 8.81 8.98L10.14 10.31L8.81 11.64C8.72 11.73 8.67 11.84 8.67 11.97C8.67 12.22 8.88 12.43 9.14 12.43C9.27 12.43 9.37 12.39 9.46 12.30L10.80 10.96L12.14 12.30C12.23 12.39 12.33 12.43 12.46 12.43Z" fill="#ffffff"></path></svg>