<svg xmlns="http://www.w3.org/2000/svg" version="1.1" xmlns:xlink="http://www.w3.org/1999/xlink" xmlns:svgjs="http://svgjs.com/svgjs" width="42" height="20"><svg id="SvgjsSvg1002" style="overflow: hidden; top: -100%; left: -100%; position: absolute; opacity: 0;" width="2" height="0" focusable="false"><polyline id="SvgjsPolyline1003" points="0,0"></polyline><path id="SvgjsPath1004" d="M0 0 "></path></svg><defs id="SvgjsDefs1995"></defs><rect id="SvgjsRect1996" width="41" height="19" x="0.5" y="0.5" rx="4" ry="4" fill="#2d333b" stroke-opacity="1" stroke="#444c56" stroke-width="1"></rect><path id="SvgjsPath1997" d="M7.22 12.85C7.22 13.81 7.75 14.55 8.71 14.55C9.53 14.55 9.98 14.12 10.10 13.50L9.52 13.50C9.46 13.79 9.20 14.03 8.75 14.03C8.17 14.03 7.80 13.56 7.80 12.86L7.80 12.52C7.80 11.80 8.15 11.36 8.74 11.36C9.13 11.36 9.42 11.63 9.50 11.94L10.07 11.94C10.04 11.39 9.54 10.84 8.71 10.84C7.77 10.84 7.22 11.53 7.22 12.50ZM12.93 14.04L12.95 14.04L12.95 14.49L13.51 14.49L13.51 12.01C13.51 11.25 12.95 10.84 12.19 10.84C11.32 10.84 10.89 11.30 10.85 11.92L11.41 11.92C11.44 11.57 11.70 11.33 12.17 11.33C12.65 11.33 12.93 11.59 12.93 12.06L12.93 12.43L11.98 12.43C11.15 12.43 10.72 12.83 10.72 13.46C10.72 14.12 11.20 14.55 11.89 14.55C12.42 14.55 12.75 14.33 12.93 14.04ZM12.05 14.06C11.67 14.06 11.32 13.86 11.32 13.44C11.32 13.11 11.53 12.88 12.02 12.88L12.93 12.88L12.93 13.30C12.93 13.74 12.55 14.06 12.05 14.06ZM16.15 14.55C17.00 14.55 17.58 13.91 17.58 12.86L17.58 12.53C17.58 11.46 16.99 10.84 16.18 10.84C15.69 10.84 15.32 11.07 15.12 11.41L15.10 11.41L15.10 10.90L14.53 10.90L14.53 15.68L15.12 15.68L15.12 14.01L15.14 14.01C15.34 14.33 15.69 14.55 16.15 14.55ZM16.09 14.03C15.48 14.03 15.11 13.55 15.11 12.81L15.11 12.54C15.11 11.83 15.48 11.35 16.08 11.35C16.66 11.35 16.99 11.79 16.99 12.55L16.99 12.81C16.99 13.60 16.63 14.03 16.09 14.03ZM18.34 11.92C18.34 12.57 18.89 12.78 19.56 12.92C20.06 13.02 20.46 13.09 20.46 13.50C20.46 13.80 20.21 14.06 19.66 14.06C19.18 14.06 18.90 13.85 18.85 13.52L18.28 13.52C18.28 14.17 18.83 14.55 19.62 14.55C20.46 14.55 21.04 14.14 21.04 13.43C21.04 12.73 20.47 12.55 19.80 12.43C19.39 12.35 18.91 12.27 18.91 11.86C18.91 11.51 19.22 11.32 19.65 11.32C20.21 11.32 20.38 11.64 20.40 11.91L20.95 11.91C20.95 11.32 20.51 10.84 19.67 10.84C18.98 10.84 18.34 11.17 18.34 11.92ZM23.30 14.49L23.89 14.49L23.89 9.58L23.30 9.58ZM26.36 10.84C25.35 10.84 24.81 11.57 24.81 12.53L24.81 12.85C24.81 13.82 25.35 14.55 26.36 14.55C27.37 14.55 27.90 13.82 27.90 12.85L27.90 12.53C27.90 11.57 27.36 10.84 26.36 10.84ZM26.36 11.34C26.97 11.34 27.31 11.81 27.31 12.55L27.31 12.83C27.31 13.56 26.97 14.04 26.36 14.04C25.74 14.04 25.40 13.56 25.40 12.83L25.40 12.55C25.40 11.81 25.74 11.34 26.36 11.34ZM28.66 12.85C28.66 13.81 29.19 14.55 30.15 14.55C30.97 14.55 31.42 14.12 31.54 13.50L30.97 13.50C30.90 13.79 30.64 14.03 30.19 14.03C29.61 14.03 29.25 13.56 29.25 12.86L29.25 12.52C29.25 11.80 29.59 11.36 30.19 11.36C30.58 11.36 30.86 11.63 30.94 11.94L31.52 11.94C31.48 11.39 30.98 10.84 30.15 10.84C29.21 10.84 28.66 11.53 28.66 12.50ZM32.96 13.19L33.29 12.83L34.51 14.49L35.23 14.49L33.73 12.46L35.15 10.90L34.42 10.90L32.99 12.49L32.96 12.49L32.96 9.58L32.37 9.58L32.37 14.49L32.96 14.49Z" fill="#ffffff"></path></svg>