<svg xmlns="http://www.w3.org/2000/svg" version="1.1" xmlns:xlink="http://www.w3.org/1999/xlink" xmlns:svgjs="http://svgjs.com/svgjs" width="44" height="20"><svg id="SvgjsSvg1002" style="overflow: hidden; top: -100%; left: -100%; position: absolute; opacity: 0;" width="2" height="0" focusable="false"><polyline id="SvgjsPolyline1003" points="0,0"></polyline><path id="SvgjsPath1004" d="M0 0 "></path></svg><defs id="SvgjsDefs1965"></defs><rect id="SvgjsRect1966" width="43" height="19" x="0.5" y="0.5" rx="4" ry="4" fill="#2d333b" stroke-opacity="1" stroke="#444c56" stroke-width="1"></rect><path id="SvgjsPath1967" d="M6.99 12.85C6.99 13.81 7.53 14.55 8.48 14.55C9.30 14.55 9.76 14.12 9.87 13.50L9.30 13.50C9.23 13.79 8.97 14.03 8.52 14.03C7.95 14.03 7.58 13.56 7.58 12.86L7.58 12.52C7.58 11.80 7.92 11.36 8.52 11.36C8.91 11.36 9.19 11.63 9.27 11.94L9.85 11.94C9.82 11.39 9.31 10.84 8.48 10.84C7.54 10.84 6.99 11.53 6.99 12.50ZM12.10 10.84C11.09 10.84 10.55 11.57 10.55 12.53L10.55 12.85C10.55 13.82 11.09 14.55 12.10 14.55C13.10 14.55 13.63 13.82 13.63 12.85L13.63 12.53C13.63 11.57 13.10 10.84 12.10 10.84ZM12.10 11.34C12.71 11.34 13.05 11.81 13.05 12.55L13.05 12.83C13.05 13.56 12.71 14.04 12.10 14.04C11.48 14.04 11.14 13.56 11.14 12.83L11.14 12.55C11.14 11.81 11.48 11.34 12.10 11.34ZM14.54 14.49L15.13 14.49L15.13 12.21C15.13 11.67 15.47 11.37 15.91 11.37C16.40 11.37 16.70 11.67 16.70 12.22L16.70 14.49L17.28 14.49L17.28 12.22C17.28 11.72 17.57 11.37 18.07 11.37C18.59 11.37 18.85 11.71 18.85 12.16L18.85 14.49L19.43 14.49L19.43 12.04C19.43 11.31 18.99 10.84 18.23 10.84C17.64 10.84 17.26 11.11 17.13 11.42L17.10 11.42C16.96 11.06 16.63 10.84 16.06 10.84C15.59 10.84 15.27 11.09 15.16 11.34L15.12 11.34L15.12 10.90L14.54 10.90ZM20.47 14.49L21.05 14.49L21.05 12.21C21.05 11.67 21.40 11.37 21.84 11.37C22.33 11.37 22.62 11.67 22.62 12.22L22.62 14.49L23.21 14.49L23.21 12.22C23.21 11.72 23.49 11.37 24.00 11.37C24.51 11.37 24.78 11.71 24.78 12.16L24.78 14.49L25.36 14.49L25.36 12.04C25.36 11.31 24.91 10.84 24.16 10.84C23.57 10.84 23.19 11.11 23.05 11.42L23.03 11.42C22.89 11.06 22.55 10.84 21.99 10.84C21.52 10.84 21.20 11.09 21.08 11.34L21.05 11.34L21.05 10.90L20.47 10.90ZM28.40 14.04L28.42 14.04L28.42 14.49L28.98 14.49L28.98 12.01C28.98 11.25 28.42 10.84 27.66 10.84C26.79 10.84 26.36 11.30 26.33 11.92L26.88 11.92C26.91 11.57 27.18 11.33 27.64 11.33C28.12 11.33 28.40 11.59 28.40 12.06L28.40 12.43L27.45 12.43C26.63 12.43 26.19 12.83 26.19 13.46C26.19 14.12 26.67 14.55 27.36 14.55C27.89 14.55 28.22 14.33 28.40 14.04ZM27.52 14.06C27.14 14.06 26.79 13.86 26.79 13.44C26.79 13.11 27.00 12.88 27.49 12.88L28.40 12.88L28.40 13.30C28.40 13.74 28.02 14.06 27.52 14.06ZM30.00 14.49L30.58 14.49L30.58 12.30C30.58 11.81 30.85 11.37 31.47 11.37C31.99 11.37 32.35 11.68 32.35 12.28L32.35 14.49L32.94 14.49L32.94 12.18C32.94 11.31 32.39 10.84 31.65 10.84C31.06 10.84 30.73 11.14 30.60 11.37L30.58 11.37L30.58 10.90L30.00 10.90ZM35.22 10.84C34.31 10.84 33.78 11.55 33.78 12.53L33.78 12.85C33.78 13.86 34.28 14.54 35.22 14.54C35.70 14.54 36.08 14.32 36.28 13.95L36.29 13.95L36.29 14.49L36.86 14.49L36.86 9.58L36.27 9.58L36.27 11.40L36.25 11.40C36.07 11.08 35.69 10.84 35.22 10.84ZM35.30 11.35C35.91 11.35 36.28 11.83 36.28 12.55L36.28 12.84C36.28 13.60 35.91 14.03 35.31 14.03C34.77 14.03 34.37 13.63 34.37 12.83L34.37 12.55C34.37 11.75 34.77 11.35 35.30 11.35Z" fill="#ffffff"></path></svg>