<svg xmlns="http://www.w3.org/2000/svg" version="1.1" xmlns:xlink="http://www.w3.org/1999/xlink" xmlns:svgjs="http://svgjs.com/svgjs" width="20" height="20"><svg id="SvgjsSvg1002" style="overflow: hidden; top: -100%; left: -100%; position: absolute; opacity: 0;" width="2" height="0" focusable="false"><polyline id="SvgjsPolyline1003" points="0,0"></polyline><path id="SvgjsPath1004" d="M0 0 "></path></svg><defs id="SvgjsDefs1998"></defs><rect id="SvgjsRect1999" width="19" height="19" x="0.5" y="0.5" rx="4" ry="4" fill="#2d333b" stroke-opacity="1" stroke="#444c56" stroke-width="1"></rect><path id="SvgjsPath2000" d="M7.99 9.24L7.99 11.38L7.07 11.39C6.03 11.39 5.19 12.19 5.19 13.24C5.19 14.28 6.03 15.12 7.07 15.12C8.10 15.12 8.94 14.28 8.94 13.24L8.94 12.32L11.06 12.32L11.06 13.24C11.06 14.28 11.90 15.12 12.93 15.12C13.97 15.12 14.81 14.28 14.81 13.24C14.81 12.19 13.97 11.39 12.93 11.39L12.01 11.38L12.01 9.24L12.93 9.24C13.97 9.23 14.81 8.43 14.81 7.38C14.81 6.34 13.97 5.50 12.93 5.50C11.90 5.50 11.06 6.34 11.06 7.38L11.06 8.30L8.94 8.30L8.94 7.38C8.94 6.34 8.10 5.50 7.07 5.50C6.03 5.50 5.19 6.34 5.19 7.38C5.19 8.43 6.03 9.23 7.07 9.24ZM7.07 8.31C6.56 8.31 6.14 7.89 6.14 7.38C6.14 6.88 6.56 6.46 7.07 6.46C7.57 6.46 7.98 6.88 7.98 7.39L7.98 8.31ZM12.93 8.31L12.02 8.31L12.02 7.39C12.02 6.88 12.43 6.46 12.93 6.46C13.44 6.46 13.86 6.88 13.86 7.38C13.86 7.89 13.43 8.31 12.93 8.31ZM8.94 11.39L8.94 9.23L11.05 9.23L11.05 11.39ZM7.07 12.30L7.98 12.30L7.98 13.23C7.98 13.74 7.57 14.16 7.07 14.16C6.56 14.16 6.14 13.74 6.14 13.23C6.14 12.73 6.56 12.30 7.07 12.30ZM12.93 12.30C13.43 12.30 13.86 12.73 13.86 13.23C13.86 13.74 13.44 14.16 12.93 14.16C12.43 14.16 12.02 13.74 12.02 13.23L12.02 12.30Z" fill="#ffffff"></path></svg>