<svg xmlns="http://www.w3.org/2000/svg" version="1.1" xmlns:xlink="http://www.w3.org/1999/xlink" xmlns:svgjs="http://svgjs.com/svgjs" width="20" height="20"><svg id="SvgjsSvg1002" style="overflow: hidden; top: -100%; left: -100%; position: absolute; opacity: 0;" width="2" height="0" focusable="false"><polyline id="SvgjsPolyline1003" points="0,0"></polyline><path id="SvgjsPath1004" d="M0 0 "></path></svg><defs id="SvgjsDefs2010"></defs><rect id="SvgjsRect2011" width="19" height="19" x="0.5" y="0.5" rx="4" ry="4" fill="#2d333b" stroke-opacity="1" stroke="#444c56" stroke-width="1"></rect><path id="SvgjsPath2012" d="M5.63 9.67C5.52 9.78 5.46 9.92 5.46 10.08C5.46 10.41 5.71 10.67 6.05 10.67C6.21 10.67 6.35 10.60 6.46 10.49L10.00 6.93L13.54 10.49C13.65 10.60 13.80 10.67 13.95 10.67C14.29 10.67 14.54 10.41 14.54 10.08C14.54 9.92 14.48 9.78 14.37 9.67L10.43 5.70C10.32 5.58 10.16 5.52 10.00 5.52C9.84 5.52 9.69 5.58 9.57 5.70Z" fill="#ffffff"></path></svg>