<svg xmlns="http://www.w3.org/2000/svg" version="1.1" xmlns:xlink="http://www.w3.org/1999/xlink" xmlns:svgjs="http://svgjs.com/svgjs" width="34" height="20"><svg id="SvgjsSvg1002" style="overflow: hidden; top: -100%; left: -100%; position: absolute; opacity: 0;" width="2" height="0" focusable="false"><polyline id="SvgjsPolyline1003" points="0,0"></polyline><path id="SvgjsPath1004" d="M0 0 "></path></svg><defs id="SvgjsDefs1983"></defs><rect id="SvgjsRect1984" width="33" height="19" x="0.5" y="0.5" rx="4" ry="4" fill="#2d333b" stroke-opacity="1" stroke="#444c56" stroke-width="1"></rect><path id="SvgjsPath1985" d="M6.59 12.85C6.59 13.81 7.12 14.55 8.08 14.55C8.90 14.55 9.35 14.12 9.47 13.50L8.89 13.50C8.83 13.79 8.56 14.03 8.12 14.03C7.54 14.03 7.17 13.56 7.17 12.86L7.17 12.52C7.17 11.80 7.52 11.36 8.11 11.36C8.50 11.36 8.79 11.63 8.87 11.94L9.44 11.94C9.41 11.39 8.91 10.84 8.08 10.84C7.14 10.84 6.59 11.53 6.59 12.50ZM11.69 10.84C10.69 10.84 10.15 11.57 10.15 12.53L10.15 12.85C10.15 13.82 10.68 14.55 11.69 14.55C12.70 14.55 13.23 13.82 13.23 12.85L13.23 12.53C13.23 11.57 12.70 10.84 11.69 10.84ZM11.69 11.34C12.31 11.34 12.64 11.81 12.64 12.55L12.64 12.83C12.64 13.56 12.31 14.04 11.69 14.04C11.07 14.04 10.73 13.56 10.73 12.83L10.73 12.55C10.73 11.81 11.07 11.34 11.69 11.34ZM14.14 14.49L14.72 14.49L14.72 12.30C14.72 11.81 14.99 11.37 15.61 11.37C16.13 11.37 16.49 11.68 16.49 12.28L16.49 14.49L17.08 14.49L17.08 12.18C17.08 11.31 16.52 10.84 15.79 10.84C15.20 10.84 14.87 11.14 14.74 11.37L14.72 11.37L14.72 10.90L14.14 10.90ZM18.29 10.90L17.81 10.90L17.81 11.39L18.29 11.39L18.29 13.48C18.29 14.19 18.46 14.52 19.31 14.52C19.44 14.52 19.56 14.51 19.61 14.50L19.61 14.02C19.56 14.03 19.52 14.03 19.46 14.03C19.02 14.03 18.88 13.92 18.88 13.49L18.88 11.39L19.59 11.39L19.59 10.90L18.88 10.90L18.88 10.00L18.29 10.00ZM20.42 14.49L21.02 14.49L21.02 12.26C21.02 11.78 21.21 11.38 21.85 11.38C21.96 11.38 22.08 11.38 22.14 11.40L22.14 10.86C22.07 10.85 21.99 10.84 21.92 10.84C21.41 10.84 21.14 11.12 21.03 11.34L21.01 11.34L21.01 10.90L20.42 10.90ZM24.19 10.84C23.19 10.84 22.65 11.57 22.65 12.53L22.65 12.85C22.65 13.82 23.19 14.55 24.19 14.55C25.20 14.55 25.73 13.82 25.73 12.85L25.73 12.53C25.73 11.57 25.20 10.84 24.19 10.84ZM24.19 11.34C24.81 11.34 25.15 11.81 25.15 12.55L25.15 12.83C25.15 13.56 24.81 14.04 24.19 14.04C23.58 14.04 23.24 13.56 23.24 12.83L23.24 12.55C23.24 11.81 23.58 11.34 24.19 11.34ZM26.66 14.49L27.25 14.49L27.25 9.58L26.66 9.58Z" fill="#ffffff"></path></svg>