<svg xmlns="http://www.w3.org/2000/svg" version="1.1" xmlns:xlink="http://www.w3.org/1999/xlink" xmlns:svgjs="http://svgjs.com/svgjs" width="26" height="20"><svg id="SvgjsSvg1002" style="overflow: hidden; top: -100%; left: -100%; position: absolute; opacity: 0;" width="2" height="0" focusable="false"><polyline id="SvgjsPolyline1003" points="0,0"></polyline><path id="SvgjsPath1004" d="M0 0 "></path></svg><defs id="SvgjsDefs1926"></defs><rect id="SvgjsRect1927" width="25" height="19" x="0.5" y="0.5" rx="4" ry="4" fill="#2d333b" stroke-opacity="1" stroke="#444c56" stroke-width="1"></rect><path id="SvgjsPath1928" d="M8.97 12.99L8.97 10.57L11.35 10.57L11.35 9.93L8.97 9.93L8.97 8.03L11.56 8.03L11.56 7.39L8.26 7.39L8.26 12.99ZM14.30 12.99L14.30 7.39L13.64 7.39C13.23 7.60 12.66 7.95 12.26 8.23L12.26 8.96C12.63 8.71 13.30 8.29 13.58 8.15L13.59 8.15L13.59 12.99ZM17.61 12.99L17.61 7.39L16.94 7.39C16.54 7.60 15.96 7.95 15.57 8.23L15.57 8.96C15.93 8.71 16.61 8.29 16.89 8.15L16.90 8.15L16.90 12.99Z" fill="#ffffff"></path></svg>