<svg xmlns="http://www.w3.org/2000/svg" version="1.1" xmlns:xlink="http://www.w3.org/1999/xlink" xmlns:svgjs="http://svgjs.com/svgjs" width="26" height="20"><svg id="SvgjsSvg1002" style="overflow: hidden; top: -100%; left: -100%; position: absolute; opacity: 0;" width="2" height="0" focusable="false"><polyline id="SvgjsPolyline1003" points="0,0"></polyline><path id="SvgjsPath1004" d="M0 0 "></path></svg><defs id="SvgjsDefs1938"></defs><rect id="SvgjsRect1939" width="25" height="19" x="0.5" y="0.5" rx="4" ry="4" fill="#2d333b" stroke-opacity="1" stroke="#444c56" stroke-width="1"></rect><path id="SvgjsPath1940" d="M8.19 12.99L8.19 10.57L10.57 10.57L10.57 9.93L8.19 9.93L8.19 8.03L10.78 8.03L10.78 7.39L7.48 7.39L7.48 12.99ZM13.52 12.99L13.52 7.39L12.86 7.39C12.45 7.60 11.88 7.95 11.48 8.23L11.48 8.96C11.85 8.71 12.52 8.29 12.80 8.15L12.81 8.15L12.81 12.99ZM14.89 11.58C14.95 12.39 15.58 13.10 16.74 13.10C17.88 13.10 18.75 12.31 18.75 11.16C18.75 10.04 17.91 9.28 16.90 9.28C16.30 9.28 15.83 9.57 15.69 9.76L15.68 9.76L15.87 8.01L18.33 8.01L18.33 7.38L15.26 7.38L14.96 10.64L15.56 10.64C15.73 10.27 16.10 9.89 16.79 9.89C17.47 9.89 18.03 10.38 18.03 11.18C18.03 12.03 17.36 12.49 16.78 12.49C16.14 12.49 15.67 12.17 15.58 11.58Z" fill="#ffffff"></path></svg>