<svg xmlns="http://www.w3.org/2000/svg" version="1.1" xmlns:xlink="http://www.w3.org/1999/xlink" xmlns:svgjs="http://svgjs.com/svgjs" width="26" height="20"><svg id="SvgjsSvg1002" style="overflow: hidden; top: -100%; left: -100%; position: absolute; opacity: 0;" width="2" height="0" focusable="false"><polyline id="SvgjsPolyline1003" points="0,0"></polyline><path id="SvgjsPath1004" d="M0 0 "></path></svg><defs id="SvgjsDefs1941"></defs><rect id="SvgjsRect1942" width="25" height="19" x="0.5" y="0.5" rx="4" ry="4" fill="#2d333b" stroke-opacity="1" stroke="#444c56" stroke-width="1"></rect><path id="SvgjsPath1943" d="M8.30 12.99L8.30 10.57L10.68 10.57L10.68 9.93L8.30 9.93L8.30 8.03L10.89 8.03L10.89 7.39L7.58 7.39L7.58 12.99ZM13.63 12.99L13.63 7.39L12.97 7.39C12.56 7.60 11.98 7.95 11.59 8.23L11.59 8.96C11.96 8.71 12.63 8.29 12.91 8.15L12.92 8.15L12.92 12.99ZM18.60 8.69C18.55 8.01 17.94 7.28 16.91 7.28C15.70 7.28 14.81 8.29 14.81 10.40C14.81 11.32 15.02 12.00 15.37 12.44C15.73 12.88 16.23 13.10 16.83 13.10C17.90 13.10 18.76 12.39 18.76 11.18C18.76 10.00 17.84 9.34 16.92 9.34C16.21 9.34 15.68 9.76 15.52 10.17L15.51 10.17C15.55 8.56 16.16 7.90 16.88 7.90C17.53 7.90 17.86 8.37 17.89 8.69ZM15.61 11.23C15.61 10.40 16.18 9.96 16.83 9.96C17.44 9.96 18.05 10.37 18.05 11.22C18.05 12.09 17.46 12.48 16.84 12.48C16.20 12.48 15.61 12.05 15.61 11.23Z" fill="#ffffff"></path></svg>