<svg xmlns="http://www.w3.org/2000/svg" version="1.1" xmlns:xlink="http://www.w3.org/1999/xlink" xmlns:svgjs="http://svgjs.com/svgjs" width="26" height="20"><svg id="SvgjsSvg1002" style="overflow: hidden; top: -100%; left: -100%; position: absolute; opacity: 0;" width="2" height="0" focusable="false"><polyline id="SvgjsPolyline1003" points="0,0"></polyline><path id="SvgjsPath1004" d="M0 0 "></path></svg><defs id="SvgjsDefs1944"></defs><rect id="SvgjsRect1945" width="25" height="19" x="0.5" y="0.5" rx="4" ry="4" fill="#2d333b" stroke-opacity="1" stroke="#444c56" stroke-width="1"></rect><path id="SvgjsPath1946" d="M8.42 12.99L8.42 10.57L10.79 10.57L10.79 9.93L8.42 9.93L8.42 8.03L11.00 8.03L11.00 7.39L7.70 7.39L7.70 12.99ZM13.74 12.99L13.74 7.39L13.08 7.39C12.67 7.60 12.10 7.95 11.70 8.23L11.70 8.96C12.07 8.71 12.74 8.29 13.02 8.15L13.03 8.15L13.03 12.99ZM14.95 7.39L14.95 8.01L17.81 8.01L17.81 8.03L15.45 12.99L16.21 12.99L18.50 8.04L18.50 7.39Z" fill="#ffffff"></path></svg>