<svg xmlns="http://www.w3.org/2000/svg" version="1.1" xmlns:xlink="http://www.w3.org/1999/xlink" xmlns:svgjs="http://svgjs.com/svgjs" width="26" height="20"><svg id="SvgjsSvg1002" style="overflow: hidden; top: -100%; left: -100%; position: absolute; opacity: 0;" width="2" height="0" focusable="false"><polyline id="SvgjsPolyline1003" points="0,0"></polyline><path id="SvgjsPath1004" d="M0 0 "></path></svg><defs id="SvgjsDefs1950"></defs><rect id="SvgjsRect1951" width="25" height="19" x="0.5" y="0.5" rx="4" ry="4" fill="#2d333b" stroke-opacity="1" stroke="#444c56" stroke-width="1"></rect><path id="SvgjsPath1952" d="M8.30 12.99L8.30 10.57L10.68 10.57L10.68 9.93L8.30 9.93L8.30 8.03L10.89 8.03L10.89 7.39L7.58 7.39L7.58 12.99ZM13.63 12.99L13.63 7.39L12.97 7.39C12.56 7.60 11.98 7.95 11.59 8.23L11.59 8.96C11.96 8.71 12.63 8.29 12.91 8.15L12.92 8.15L12.92 12.99ZM14.88 11.62C14.93 12.29 15.50 13.09 16.66 13.09C17.99 13.09 18.76 11.97 18.76 10.08C18.76 8.05 17.94 7.28 16.71 7.28C15.74 7.28 14.83 7.98 14.83 9.18C14.83 10.39 15.69 11.03 16.59 11.03C17.37 11.03 17.88 10.64 18.04 10.21L18.07 10.21C18.06 11.59 17.58 12.48 16.70 12.48C16.00 12.48 15.64 12.01 15.59 11.62ZM17.98 9.18C17.98 9.91 17.39 10.42 16.73 10.42C16.10 10.42 15.53 10.02 15.53 9.16C15.53 8.30 16.14 7.89 16.76 7.89C17.42 7.89 17.98 8.31 17.98 9.18Z" fill="#ffffff"></path></svg>