<svg xmlns="http://www.w3.org/2000/svg" version="1.1" xmlns:xlink="http://www.w3.org/1999/xlink" xmlns:svgjs="http://svgjs.com/svgjs" width="26" height="20"><svg id="SvgjsSvg1002" style="overflow: hidden; top: -100%; left: -100%; position: absolute; opacity: 0;" width="2" height="0" focusable="false"><polyline id="SvgjsPolyline1003" points="0,0"></polyline><path id="SvgjsPath1004" d="M0 0 "></path></svg><defs id="SvgjsDefs1899"></defs><rect id="SvgjsRect1900" width="25" height="19" x="0.5" y="0.5" rx="4" ry="4" fill="#2d333b" stroke-opacity="1" stroke="#444c56" stroke-width="1"></rect><path id="SvgjsPath1901" d="M10.01 12.99L10.01 10.57L12.38 10.57L12.38 9.93L10.01 9.93L10.01 8.03L12.60 8.03L12.60 7.39L9.29 7.39L9.29 12.99ZM14.01 8.93L14.01 8.91C14.01 8.36 14.40 7.89 15.06 7.89C15.65 7.89 16.09 8.26 16.09 8.85C16.09 9.36 15.76 9.75 15.44 10.11L13.35 12.53L13.35 12.99L16.92 12.99L16.92 12.36L14.35 12.36L14.35 12.35L15.86 10.57C16.41 9.94 16.81 9.48 16.81 8.80C16.81 7.92 16.13 7.27 15.08 7.27C13.95 7.27 13.32 8.05 13.32 8.91L13.32 8.93Z" fill="#ffffff"></path></svg>