<svg xmlns="http://www.w3.org/2000/svg" version="1.1" xmlns:xlink="http://www.w3.org/1999/xlink" xmlns:svgjs="http://svgjs.com/svgjs" width="26" height="20"><svg id="SvgjsSvg1002" style="overflow: hidden; top: -100%; left: -100%; position: absolute; opacity: 0;" width="2" height="0" focusable="false"><polyline id="SvgjsPolyline1003" points="0,0"></polyline><path id="SvgjsPath1004" d="M0 0 "></path></svg><defs id="SvgjsDefs1905"></defs><rect id="SvgjsRect1906" width="25" height="19" x="0.5" y="0.5" rx="4" ry="4" fill="#2d333b" stroke-opacity="1" stroke="#444c56" stroke-width="1"></rect><path id="SvgjsPath1907" d="M9.89 12.99L9.89 10.57L12.27 10.57L12.27 9.93L9.89 9.93L9.89 8.03L12.48 8.03L12.48 7.39L9.18 7.39L9.18 12.99ZM15.47 7.39C14.63 8.63 13.80 9.94 13.10 11.21L13.10 11.83L15.82 11.83L15.82 12.99L16.50 12.99L16.50 11.83L17.23 11.83L17.23 11.19L16.50 11.19L16.50 7.39ZM13.82 11.19L13.82 11.19C14.41 10.15 15.13 9.00 15.81 8.01L15.82 8.01L15.82 11.19Z" fill="#ffffff"></path></svg>