<svg xmlns="http://www.w3.org/2000/svg" version="1.1" xmlns:xlink="http://www.w3.org/1999/xlink" xmlns:svgjs="http://svgjs.com/svgjs" width="26" height="20"><svg id="SvgjsSvg1002" style="overflow: hidden; top: -100%; left: -100%; position: absolute; opacity: 0;" width="2" height="0" focusable="false"><polyline id="SvgjsPolyline1003" points="0,0"></polyline><path id="SvgjsPath1004" d="M0 0 "></path></svg><defs id="SvgjsDefs1908"></defs><rect id="SvgjsRect1909" width="25" height="19" x="0.5" y="0.5" rx="4" ry="4" fill="#2d333b" stroke-opacity="1" stroke="#444c56" stroke-width="1"></rect><path id="SvgjsPath1910" d="M9.85 12.99L9.85 10.57L12.22 10.57L12.22 9.93L9.85 9.93L9.85 8.03L12.43 8.03L12.43 7.39L9.13 7.39L9.13 12.99ZM13.24 11.58C13.30 12.39 13.93 13.10 15.08 13.10C16.22 13.10 17.10 12.31 17.10 11.16C17.10 10.04 16.25 9.28 15.25 9.28C14.65 9.28 14.18 9.57 14.04 9.76L14.03 9.76L14.21 8.01L16.68 8.01L16.68 7.38L13.61 7.38L13.30 10.64L13.91 10.64C14.07 10.27 14.45 9.89 15.14 9.89C15.82 9.89 16.38 10.38 16.38 11.18C16.38 12.03 15.70 12.49 15.13 12.49C14.48 12.49 14.02 12.17 13.93 11.58Z" fill="#ffffff"></path></svg>