<svg xmlns="http://www.w3.org/2000/svg" version="1.1" xmlns:xlink="http://www.w3.org/1999/xlink" xmlns:svgjs="http://svgjs.com/svgjs" width="26" height="20"><svg id="SvgjsSvg1002" style="overflow: hidden; top: -100%; left: -100%; position: absolute; opacity: 0;" width="2" height="0" focusable="false"><polyline id="SvgjsPolyline1003" points="0,0"></polyline><path id="SvgjsPath1004" d="M0 0 "></path></svg><defs id="SvgjsDefs1917"></defs><rect id="SvgjsRect1918" width="25" height="19" x="0.5" y="0.5" rx="4" ry="4" fill="#2d333b" stroke-opacity="1" stroke="#444c56" stroke-width="1"></rect><path id="SvgjsPath1919" d="M9.87 12.99L9.87 10.57L12.25 10.57L12.25 9.93L9.87 9.93L9.87 8.03L12.46 8.03L12.46 7.39L9.15 7.39L9.15 12.99ZM15.10 13.10C16.24 13.10 17.09 12.43 17.09 11.46C17.09 10.59 16.43 10.15 15.96 10.04L15.96 10.03C16.32 9.91 16.87 9.52 16.87 8.77C16.87 7.90 16.13 7.27 15.11 7.27C14.10 7.27 13.36 7.90 13.36 8.77C13.36 9.50 13.88 9.90 14.27 10.03L14.27 10.04C13.80 10.15 13.14 10.58 13.14 11.46C13.14 12.44 13.95 13.10 15.10 13.10ZM15.11 9.77C14.50 9.77 14.05 9.38 14.05 8.81C14.05 8.25 14.50 7.88 15.11 7.88C15.73 7.88 16.17 8.25 16.17 8.81C16.17 9.38 15.73 9.77 15.11 9.77ZM15.11 12.51C14.39 12.51 13.84 12.07 13.84 11.44C13.84 10.80 14.39 10.36 15.11 10.36C15.84 10.36 16.39 10.80 16.39 11.44C16.39 12.07 15.84 12.51 15.11 12.51Z" fill="#ffffff"></path></svg>