<svg xmlns="http://www.w3.org/2000/svg" version="1.1" xmlns:xlink="http://www.w3.org/1999/xlink" xmlns:svgjs="http://svgjs.com/svgjs" width="26" height="20"><svg id="SvgjsSvg1002" style="overflow: hidden; top: -100%; left: -100%; position: absolute; opacity: 0;" width="2" height="0" focusable="false"><polyline id="SvgjsPolyline1003" points="0,0"></polyline><path id="SvgjsPath1004" d="M0 0 "></path></svg><defs id="SvgjsDefs1920"></defs><rect id="SvgjsRect1921" width="25" height="19" x="0.5" y="0.5" rx="4" ry="4" fill="#2d333b" stroke-opacity="1" stroke="#444c56" stroke-width="1"></rect><path id="SvgjsPath1922" d="M9.95 12.99L9.95 10.57L12.33 10.57L12.33 9.93L9.95 9.93L9.95 8.03L12.54 8.03L12.54 7.39L9.24 7.39L9.24 12.99ZM13.22 11.62C13.27 12.29 13.85 13.09 15.01 13.09C16.33 13.09 17.11 11.97 17.11 10.08C17.11 8.05 16.29 7.28 15.06 7.28C14.09 7.28 13.17 7.98 13.17 9.18C13.17 10.39 14.04 11.03 14.93 11.03C15.72 11.03 16.23 10.64 16.39 10.21L16.41 10.21C16.41 11.59 15.93 12.48 15.04 12.48C14.35 12.48 13.99 12.01 13.94 11.62ZM16.32 9.18C16.32 9.91 15.74 10.42 15.08 10.42C14.45 10.42 13.88 10.02 13.88 9.16C13.88 8.30 14.49 7.89 15.11 7.89C15.77 7.89 16.32 8.31 16.32 9.18Z" fill="#ffffff"></path></svg>