<svg xmlns="http://www.w3.org/2000/svg" version="1.1" xmlns:xlink="http://www.w3.org/1999/xlink" xmlns:svgjs="http://svgjs.com/svgjs" width="20" height="20"><svg id="SvgjsSvg1002" style="overflow: hidden; top: -100%; left: -100%; position: absolute; opacity: 0;" width="2" height="0" focusable="false"><polyline id="SvgjsPolyline1003" points="0,0"></polyline><path id="SvgjsPath1004" d="M0 0 "></path></svg><defs id="SvgjsDefs1830"></defs><rect id="SvgjsRect1831" width="19" height="19" x="0.5" y="0.5" rx="4" ry="4" fill="#2d333b" stroke-opacity="1" stroke="#444c56" stroke-width="1"></rect><path id="SvgjsPath1832" d="M6.26 11.05C6.26 13.68 7.72 15.17 9.99 15.17C12.26 15.17 13.74 13.68 13.74 11.05L13.74 9.67C13.74 7.02 12.28 5.45 10.01 5.45C7.75 5.45 6.26 7.02 6.26 9.67ZM7.46 9.67C7.46 7.58 8.56 6.52 10 6.52C11.44 6.52 12.54 7.58 12.54 9.67L12.54 11.05C12.54 13.14 11.44 14.10 10 14.10C8.56 14.10 7.46 13.14 7.46 11.05Z" fill="#ffffff"></path></svg>