<svg xmlns="http://www.w3.org/2000/svg" version="1.1" xmlns:xlink="http://www.w3.org/1999/xlink" xmlns:svgjs="http://svgjs.com/svgjs" width="20" height="20"><svg id="SvgjsSvg1002" style="overflow: hidden; top: -100%; left: -100%; position: absolute; opacity: 0;" width="2" height="0" focusable="false"><polyline id="SvgjsPolyline1003" points="0,0"></polyline><path id="SvgjsPath1004" d="M0 0 "></path></svg><defs id="SvgjsDefs1962"></defs><rect id="SvgjsRect1963" width="19" height="19" x="0.5" y="0.5" rx="4" ry="4" fill="#2d333b" stroke-opacity="1" stroke="#444c56" stroke-width="1"></rect><path id="SvgjsPath1964" d="M5.77 10.90L5.28 10.90L5.28 11.39L5.77 11.39L5.77 13.48C5.77 14.19 5.94 14.52 6.79 14.52C6.91 14.52 7.04 14.51 7.09 14.50L7.09 14.02C7.04 14.03 7.00 14.03 6.94 14.03C6.50 14.03 6.35 13.92 6.35 13.49L6.35 11.39L7.06 11.39L7.06 10.90L6.35 10.90L6.35 10.00L5.77 10.00ZM9.91 14.04L9.92 14.04L9.92 14.49L10.49 14.49L10.49 12.01C10.49 11.25 9.93 10.84 9.17 10.84C8.30 10.84 7.87 11.30 7.83 11.92L8.39 11.92C8.42 11.57 8.68 11.33 9.15 11.33C9.63 11.33 9.90 11.59 9.90 12.06L9.90 12.43L8.96 12.43C8.13 12.43 7.70 12.83 7.70 13.46C7.70 14.12 8.17 14.55 8.87 14.55C9.40 14.55 9.73 14.33 9.91 14.04ZM9.03 14.06C8.65 14.06 8.30 13.86 8.30 13.44C8.30 13.11 8.51 12.88 9.00 12.88L9.90 12.88L9.90 13.30C9.90 13.74 9.53 14.06 9.03 14.06ZM13.17 14.55C14.03 14.55 14.60 13.90 14.60 12.86L14.60 12.52C14.60 11.44 14.01 10.84 13.18 10.84C12.72 10.84 12.30 11.08 12.12 11.39L12.10 11.39L12.10 9.58L11.51 9.58L11.51 14.49L12.08 14.49L12.08 13.95L12.10 13.95C12.31 14.32 12.66 14.55 13.17 14.55ZM13.10 14.03C12.47 14.03 12.10 13.61 12.10 12.83L12.10 12.55C12.10 11.77 12.47 11.35 13.10 11.35C13.63 11.35 14.01 11.77 14.01 12.55L14.01 12.83C14.01 13.60 13.64 14.03 13.10 14.03Z" fill="#ffffff"></path></svg>