<svg xmlns="http://www.w3.org/2000/svg" version="1.1" xmlns:xlink="http://www.w3.org/1999/xlink" xmlns:svgjs="http://svgjs.com/svgjs" width="30" height="30"><svg id="SvgjsSvg1002" style="overflow: hidden; top: -100%; left: -100%; position: absolute; opacity: 0;" width="2" height="0" focusable="false"><polyline id="SvgjsPolyline1003" points="0,0"></polyline><path id="SvgjsPath1004" d="M0 0 "></path></svg><defs id="SvgjsDefs2133"></defs><rect id="SvgjsRect2134" width="29" height="29" x="0.5" y="0.5" rx="6" ry="6" fill="#2d333b" stroke-opacity="1" stroke="#444c56" stroke-width="1"></rect><path id="SvgjsPath2135" d="M12.26 12.33L12.26 12.27C12.26 10.91 13.23 9.72 14.88 9.72C16.35 9.72 17.45 10.64 17.45 12.13C17.45 13.40 16.63 14.37 15.84 15.28L10.61 21.34L10.61 22.46L19.53 22.46L19.53 20.90L13.11 20.90L13.11 20.87L16.88 16.44C18.25 14.85 19.26 13.70 19.26 12.01C19.26 9.80 17.55 8.17 14.93 8.17C12.09 8.17 10.51 10.12 10.51 12.27L10.51 12.33Z" fill="#ffffff"></path></svg>