<svg xmlns="http://www.w3.org/2000/svg" version="1.1" xmlns:xlink="http://www.w3.org/1999/xlink" xmlns:svgjs="http://svgjs.com/svgjs" width="30" height="30"><svg id="SvgjsSvg1002" style="overflow: hidden; top: -100%; left: -100%; position: absolute; opacity: 0;" width="2" height="0" focusable="false"><polyline id="SvgjsPolyline1003" points="0,0"></polyline><path id="SvgjsPath1004" d="M0 0 "></path></svg><defs id="SvgjsDefs2136"></defs><rect id="SvgjsRect2137" width="29" height="29" x="0.5" y="0.5" rx="6" ry="6" fill="#2d333b" stroke-opacity="1" stroke="#444c56" stroke-width="1"></rect><path id="SvgjsPath2138" d="M13.39 16.03L14.82 16.03C16.76 16.03 17.91 17.04 17.93 18.57C17.95 20.11 16.83 21.22 14.83 21.22C12.95 21.22 12.06 20.16 11.87 18.85L10.19 18.85C10.27 20.99 11.76 22.77 14.76 22.77C17.68 22.77 19.80 20.98 19.75 18.58C19.70 16.30 17.88 15.29 16.69 15.18L16.69 15.15C17.78 14.98 19.29 13.73 19.23 11.74C19.17 9.73 17.45 8.17 14.83 8.17C12.00 8.17 10.58 10.13 10.54 11.96L12.25 11.96C12.34 10.92 13.06 9.71 14.83 9.71C16.40 9.71 17.41 10.66 17.42 12.04C17.43 13.46 16.32 14.47 14.73 14.47L13.39 14.47Z" fill="#ffffff"></path></svg>