<svg xmlns="http://www.w3.org/2000/svg" version="1.1" xmlns:xlink="http://www.w3.org/1999/xlink" xmlns:svgjs="http://svgjs.com/svgjs" width="30" height="30"><svg id="SvgjsSvg1002" style="overflow: hidden; top: -100%; left: -100%; position: absolute; opacity: 0;" width="2" height="0" focusable="false"><polyline id="SvgjsPolyline1003" points="0,0"></polyline><path id="SvgjsPath1004" d="M0 0 "></path></svg><defs id="SvgjsDefs2145"></defs><rect id="SvgjsRect2146" width="29" height="29" x="0.5" y="0.5" rx="6" ry="6" fill="#2d333b" stroke-opacity="1" stroke="#444c56" stroke-width="1"></rect><path id="SvgjsPath2147" d="M19.60 11.72C19.46 10.03 17.95 8.20 15.37 8.20C12.33 8.20 10.12 10.73 10.12 16.00C10.12 18.30 10.63 19.99 11.51 21.10C12.41 22.21 13.67 22.75 15.16 22.75C17.84 22.75 19.98 20.98 19.98 17.95C19.98 14.99 17.69 13.36 15.40 13.36C13.61 13.36 12.30 14.40 11.89 15.43L11.86 15.43C11.98 11.41 13.50 9.74 15.30 9.74C16.93 9.74 17.74 10.92 17.81 11.72ZM12.12 18.07C12.12 16.00 13.55 14.90 15.17 14.90C16.69 14.90 18.22 15.91 18.22 18.06C18.22 20.22 16.73 21.20 15.19 21.20C13.60 21.20 12.12 20.14 12.12 18.07Z" fill="#ffffff"></path></svg>