<svg xmlns="http://www.w3.org/2000/svg" version="1.1" xmlns:xlink="http://www.w3.org/1999/xlink" xmlns:svgjs="http://svgjs.com/svgjs" width="30" height="30"><svg id="SvgjsSvg1002" style="overflow: hidden; top: -100%; left: -100%; position: absolute; opacity: 0;" width="2" height="0" focusable="false"><polyline id="SvgjsPolyline1003" points="0,0"></polyline><path id="SvgjsPath1004" d="M0 0 "></path></svg><defs id="SvgjsDefs2151"></defs><rect id="SvgjsRect2152" width="29" height="29" x="0.5" y="0.5" rx="6" ry="6" fill="#2d333b" stroke-opacity="1" stroke="#444c56" stroke-width="1"></rect><path id="SvgjsPath2153" d="M14.96 22.76C17.84 22.76 19.94 21.07 19.94 18.64C19.94 16.47 18.30 15.38 17.12 15.09L17.12 15.07C18.03 14.77 19.40 13.79 19.40 11.91C19.40 9.74 17.55 8.17 15.01 8.17C12.47 8.17 10.62 9.74 10.62 11.91C10.62 13.75 11.92 14.75 12.89 15.07L12.89 15.09C11.72 15.38 10.06 16.45 10.06 18.65C10.06 21.09 12.09 22.76 14.96 22.76ZM15.01 14.43C13.48 14.43 12.35 13.44 12.35 12.04C12.35 10.63 13.48 9.69 15.01 9.69C16.55 9.69 17.66 10.63 17.66 12.04C17.66 13.44 16.55 14.43 15.01 14.43ZM15.01 21.27C13.19 21.27 11.82 20.17 11.82 18.59C11.82 16.99 13.19 15.89 15.01 15.89C16.83 15.89 18.19 16.99 18.19 18.59C18.19 20.17 16.83 21.27 15.01 21.27Z" fill="#ffffff"></path></svg>