<svg xmlns="http://www.w3.org/2000/svg" version="1.1" xmlns:xlink="http://www.w3.org/1999/xlink" xmlns:svgjs="http://svgjs.com/svgjs" width="30" height="30"><svg id="SvgjsSvg1002" style="overflow: hidden; top: -100%; left: -100%; position: absolute; opacity: 0;" width="2" height="0" focusable="false"><polyline id="SvgjsPolyline1003" points="0,0"></polyline><path id="SvgjsPath1004" d="M0 0 "></path></svg><defs id="SvgjsDefs2154"></defs><rect id="SvgjsRect2155" width="29" height="29" x="0.5" y="0.5" rx="6" ry="6" fill="#2d333b" stroke-opacity="1" stroke="#444c56" stroke-width="1"></rect><path id="SvgjsPath2156" d="M10.28 19.04C10.41 20.72 11.84 22.73 14.75 22.73C18.06 22.73 20.00 19.93 20.00 15.19C20.00 10.12 17.95 8.19 14.88 8.19C12.45 8.19 10.16 9.96 10.16 12.94C10.16 15.98 12.32 17.58 14.56 17.58C16.52 17.58 17.79 16.60 18.19 15.51L18.26 15.51C18.25 18.97 17.05 21.19 14.84 21.19C13.09 21.19 12.19 20.01 12.08 19.04ZM18.04 12.96C18.04 14.78 16.57 16.06 14.93 16.06C13.35 16.06 11.92 15.05 11.92 12.91C11.92 10.74 13.45 9.73 14.99 9.73C16.65 9.73 18.04 10.78 18.04 12.96Z" fill="#ffffff"></path></svg>