<svg xmlns="http://www.w3.org/2000/svg" version="1.1" xmlns:xlink="http://www.w3.org/1999/xlink" xmlns:svgjs="http://svgjs.com/svgjs" width="30" height="30"><svg id="SvgjsSvg1002" style="overflow: hidden; top: -100%; left: -100%; position: absolute; opacity: 0;" width="2" height="0" focusable="false"><polyline id="SvgjsPolyline1003" points="0,0"></polyline><path id="SvgjsPath1004" d="M0 0 "></path></svg><defs id="SvgjsDefs2304"></defs><rect id="SvgjsRect2305" width="29" height="29" x="0.5" y="0.5" rx="6" ry="6" fill="#2d333b" stroke-opacity="1" stroke="#444c56" stroke-width="1"></rect><path id="SvgjsPath2306" d="M17.35 9.20C17.84 8.60 18.19 7.78 18.19 6.96C18.19 6.85 18.18 6.74 18.16 6.64C17.36 6.67 16.39 7.18 15.82 7.85C15.36 8.38 14.94 9.20 14.94 10.02C14.94 10.14 14.96 10.26 14.97 10.30C15.02 10.31 15.10 10.32 15.18 10.32C15.91 10.32 16.81 9.84 17.35 9.20ZM17.91 10.50C16.71 10.50 15.73 11.23 15.10 11.23C14.44 11.23 13.56 10.54 12.52 10.54C10.53 10.54 8.52 12.19 8.52 15.28C8.52 17.21 9.26 19.25 10.18 20.57C10.97 21.68 11.67 22.59 12.66 22.59C13.65 22.59 14.08 21.93 15.30 21.93C16.55 21.93 16.83 22.57 17.91 22.57C18.99 22.57 19.72 21.58 20.39 20.61C21.15 19.48 21.47 18.39 21.48 18.34C21.42 18.32 19.35 17.48 19.35 15.11C19.35 13.07 20.98 12.16 21.07 12.09C20.00 10.54 18.36 10.50 17.91 10.50Z" fill="#ffffff"></path></svg>