<svg xmlns="http://www.w3.org/2000/svg" version="1.1" xmlns:xlink="http://www.w3.org/1999/xlink" xmlns:svgjs="http://svgjs.com/svgjs" width="30" height="30"><svg id="SvgjsSvg1002" style="overflow: hidden; top: -100%; left: -100%; position: absolute; opacity: 0;" width="2" height="0" focusable="false"><polyline id="SvgjsPolyline1003" points="0,0"></polyline><path id="SvgjsPath1004" d="M0 0 "></path></svg><defs id="SvgjsDefs2052"></defs><rect id="SvgjsRect2053" width="29" height="29" x="0.5" y="0.5" rx="6" ry="6" fill="#2d333b" stroke-opacity="1" stroke="#444c56" stroke-width="1"></rect><path id="SvgjsPath2054" d="M10.42 22.46L15.46 22.46C18.48 22.46 20.35 20.99 20.35 18.55C20.35 16.59 19.19 15.34 17.32 15.08L17.32 15.01C18.74 14.56 19.55 13.49 19.55 11.91C19.55 9.80 18.05 8.47 15.67 8.47L10.42 8.47ZM12.20 10.04L15.38 10.04C16.88 10.04 17.75 10.84 17.75 12.22C17.75 13.78 16.69 14.50 14.34 14.50L12.20 14.50ZM12.20 16.04L15.57 16.04C17.44 16.04 18.52 16.96 18.52 18.56C18.52 20.21 17.40 20.90 14.63 20.90L12.20 20.90Z" fill="#ffffff"></path></svg>