<svg xmlns="http://www.w3.org/2000/svg" version="1.1" xmlns:xlink="http://www.w3.org/1999/xlink" xmlns:svgjs="http://svgjs.com/svgjs" width="30" height="30"><svg id="SvgjsSvg1002" style="overflow: hidden; top: -100%; left: -100%; position: absolute; opacity: 0;" width="2" height="0" focusable="false"><polyline id="SvgjsPolyline1003" points="0,0"></polyline><path id="SvgjsPath1004" d="M0 0 "></path></svg><defs id="SvgjsDefs2280"></defs><rect id="SvgjsRect2281" width="29" height="29" x="0.5" y="0.5" rx="6" ry="6" fill="#2d333b" stroke-opacity="1" stroke="#444c56" stroke-width="1"></rect><path id="SvgjsPath2282" d="M20.66 22.58C22.32 22.58 23.17 21.78 23.17 20.13L23.17 10.85C23.17 9.20 22.32 8.37 20.66 8.37L14.00 8.37C13.04 8.37 12.24 8.63 11.57 9.35L7.22 13.93C6.68 14.51 6.44 14.98 6.44 15.46C6.44 15.94 6.68 16.42 7.22 16.99L11.58 21.58C12.25 22.30 13.05 22.57 14.01 22.57ZM20.60 21.07L13.96 21.07C13.43 21.07 13.10 20.96 12.72 20.57L8.39 16.02C8.17 15.78 8.09 15.62 8.09 15.46C8.09 15.31 8.18 15.15 8.39 14.91L12.71 10.37C13.08 9.98 13.43 9.87 13.96 9.87L20.60 9.87C21.28 9.87 21.66 10.23 21.66 10.95L21.66 19.99C21.66 20.71 21.28 21.07 20.60 21.07ZM18.69 18.65C19.08 18.65 19.39 18.33 19.39 17.95C19.39 17.76 19.32 17.59 19.18 17.46L17.19 15.46L19.18 13.47C19.32 13.33 19.39 13.16 19.39 12.97C19.39 12.58 19.08 12.26 18.69 12.26C18.50 12.26 18.34 12.33 18.19 12.48L16.19 14.48L14.21 12.48C14.06 12.33 13.90 12.26 13.71 12.26C13.32 12.26 13.01 12.58 13.01 12.97C13.01 13.16 13.08 13.33 13.22 13.47L15.21 15.46L13.22 17.46C13.08 17.59 13.01 17.76 13.01 17.95C13.01 18.33 13.31 18.65 13.71 18.65C13.91 18.65 14.06 18.58 14.20 18.46L16.19 16.44L18.20 18.46C18.34 18.59 18.49 18.65 18.69 18.65Z" fill="#ffffff"></path></svg>