<svg xmlns="http://www.w3.org/2000/svg" version="1.1" xmlns:xlink="http://www.w3.org/1999/xlink" xmlns:svgjs="http://svgjs.com/svgjs" width="30" height="30"><svg id="SvgjsSvg1002" style="overflow: hidden; top: -100%; left: -100%; position: absolute; opacity: 0;" width="2" height="0" focusable="false"><polyline id="SvgjsPolyline1003" points="0,0"></polyline><path id="SvgjsPath1004" d="M0 0 "></path></svg><defs id="SvgjsDefs2055"></defs><rect id="SvgjsRect2056" width="29" height="29" x="0.5" y="0.5" rx="6" ry="6" fill="#2d333b" stroke-opacity="1" stroke="#444c56" stroke-width="1"></rect><path id="SvgjsPath2057" d="M11.51 14.59C11.51 11.51 12.85 9.78 15.24 9.78C17.20 9.78 18.56 11.06 18.61 12.93L20.37 12.93L20.37 12.90C20.37 10.15 18.21 8.17 15.23 8.17C11.76 8.17 9.73 10.57 9.73 14.59L9.73 16.43C9.73 20.40 11.76 22.76 15.23 22.76C18.19 22.76 20.37 20.87 20.37 18.28L20.37 18.24L18.61 18.24C18.56 19.97 17.20 21.15 15.24 21.15C12.85 21.15 11.51 19.45 11.51 16.43Z" fill="#ffffff"></path></svg>