<svg xmlns="http://www.w3.org/2000/svg" version="1.1" xmlns:xlink="http://www.w3.org/1999/xlink" xmlns:svgjs="http://svgjs.com/svgjs" width="63" height="30"><svg id="SvgjsSvg1002" style="overflow: hidden; top: -100%; left: -100%; position: absolute; opacity: 0;" width="2" height="0" focusable="false"><polyline id="SvgjsPolyline1003" points="0,0"></polyline><path id="SvgjsPath1004" d="M0 0 "></path></svg><defs id="SvgjsDefs2256"></defs><rect id="SvgjsRect2257" width="62" height="29" x="0.5" y="0.5" rx="6" ry="6" fill="#2d333b" stroke-opacity="1" stroke="#444c56" stroke-width="1"></rect><path id="SvgjsPath2258" d="M10.83 19.28C10.83 20.72 11.63 21.82 13.06 21.82C14.30 21.82 14.97 21.17 15.15 20.25L14.29 20.25C14.19 20.68 13.79 21.04 13.12 21.04C12.26 21.04 11.71 20.34 11.71 19.29L11.71 18.78C11.71 17.70 12.23 17.04 13.12 17.04C13.70 17.04 14.13 17.45 14.25 17.91L15.11 17.91C15.07 17.08 14.31 16.26 13.06 16.26C11.66 16.26 10.83 17.30 10.83 18.75ZM19.39 21.06L19.42 21.06L19.42 21.73L20.26 21.73L20.26 18.02C20.26 16.88 19.43 16.26 18.28 16.26C16.98 16.26 16.34 16.94 16.28 17.89L17.11 17.89C17.16 17.35 17.56 17.00 18.25 17.00C18.98 17.00 19.39 17.38 19.39 18.09L19.39 18.64L17.97 18.64C16.73 18.65 16.08 19.24 16.08 20.18C16.08 21.17 16.79 21.82 17.83 21.82C18.63 21.82 19.12 21.50 19.39 21.06ZM18.07 21.09C17.51 21.09 16.98 20.79 16.98 20.15C16.98 19.67 17.30 19.32 18.03 19.32L19.39 19.32L19.39 19.94C19.39 20.61 18.82 21.09 18.07 21.09ZM24.23 21.82C25.49 21.82 26.38 20.86 26.38 19.29L26.38 18.79C26.38 17.20 25.48 16.26 24.26 16.26C23.54 16.26 22.99 16.61 22.67 17.12L22.65 17.12L22.65 16.34L21.80 16.34L21.80 23.52L22.68 23.52L22.68 21.01L22.71 21.01C23.01 21.49 23.54 21.82 24.23 21.82ZM24.14 21.05C23.22 21.05 22.67 20.32 22.67 19.22L22.67 18.82C22.67 17.74 23.22 17.02 24.11 17.02C24.99 17.02 25.49 17.69 25.49 18.82L25.49 19.22C25.49 20.40 24.95 21.05 24.14 21.05ZM27.51 17.89C27.51 18.86 28.33 19.17 29.34 19.37C30.09 19.52 30.69 19.64 30.69 20.25C30.69 20.71 30.32 21.10 29.49 21.10C28.78 21.10 28.35 20.77 28.28 20.28L27.42 20.28C27.42 21.25 28.24 21.82 29.43 21.82C30.69 21.82 31.56 21.21 31.56 20.14C31.56 19.09 30.71 18.82 29.70 18.64C29.08 18.53 28.37 18.40 28.37 17.79C28.37 17.26 28.83 16.98 29.47 16.98C30.31 16.98 30.57 17.46 30.60 17.87L31.42 17.87C31.42 16.98 30.77 16.26 29.50 16.26C28.47 16.26 27.51 16.75 27.51 17.89ZM34.95 21.73L35.83 21.73L35.83 14.36L34.95 14.36ZM39.54 16.26C38.03 16.26 37.22 17.35 37.22 18.79L37.22 19.27C37.22 20.73 38.02 21.82 39.54 21.82C41.05 21.82 41.84 20.73 41.84 19.27L41.84 18.79C41.84 17.35 41.04 16.26 39.54 16.26ZM39.54 17.01C40.46 17.01 40.96 17.72 40.96 18.82L40.96 19.24C40.96 20.34 40.46 21.06 39.54 21.06C38.61 21.06 38.10 20.34 38.10 19.24L38.10 18.82C38.10 17.72 38.61 17.01 39.54 17.01ZM42.99 19.28C42.99 20.72 43.79 21.82 45.22 21.82C46.46 21.82 47.13 21.17 47.31 20.25L46.45 20.25C46.35 20.68 45.96 21.04 45.28 21.04C44.42 21.04 43.87 20.34 43.87 19.29L43.87 18.78C43.87 17.70 44.39 17.04 45.28 17.04C45.86 17.04 46.29 17.45 46.41 17.91L47.27 17.91C47.23 17.08 46.47 16.26 45.22 16.26C43.82 16.26 42.99 17.30 42.99 18.75ZM49.44 19.79L49.94 19.25L51.77 21.73L52.85 21.73L50.59 18.69L52.72 16.34L51.63 16.34L49.48 18.73L49.44 18.73L49.44 14.36L48.56 14.36L48.56 21.73L49.44 21.73Z" fill="#ffffff"></path></svg>