<svg xmlns="http://www.w3.org/2000/svg" version="1.1" xmlns:xlink="http://www.w3.org/1999/xlink" xmlns:svgjs="http://svgjs.com/svgjs" width="66" height="30"><svg id="SvgjsSvg1002" style="overflow: hidden; top: -100%; left: -100%; position: absolute; opacity: 0;" width="2" height="0" focusable="false"><polyline id="SvgjsPolyline1003" points="0,0"></polyline><path id="SvgjsPath1004" d="M0 0 "></path></svg><defs id="SvgjsDefs2226"></defs><rect id="SvgjsRect2227" width="65" height="29" x="0.5" y="0.5" rx="6" ry="6" fill="#2d333b" stroke-opacity="1" stroke="#444c56" stroke-width="1"></rect><path id="SvgjsPath2228" d="M10.48 19.28C10.48 20.72 11.29 21.82 12.72 21.82C13.96 21.82 14.63 21.17 14.81 20.25L13.95 20.25C13.85 20.68 13.45 21.04 12.78 21.04C11.92 21.04 11.37 20.34 11.37 19.29L11.37 18.78C11.37 17.70 11.88 17.04 12.78 17.04C13.36 17.04 13.79 17.45 13.90 17.91L14.77 17.91C14.72 17.08 13.97 16.26 12.72 16.26C11.32 16.26 10.48 17.30 10.48 18.75ZM18.14 16.26C16.64 16.26 15.83 17.35 15.83 18.79L15.83 19.27C15.83 20.73 16.63 21.82 18.14 21.82C19.66 21.82 20.45 20.73 20.45 19.27L20.45 18.79C20.45 17.35 19.65 16.26 18.14 16.26ZM18.14 17.01C19.07 17.01 19.57 17.72 19.57 18.82L19.57 19.24C19.57 20.34 19.07 21.06 18.14 21.06C17.22 21.06 16.71 20.34 16.71 19.24L16.71 18.82C16.71 17.72 17.22 17.01 18.14 17.01ZM21.81 21.73L22.69 21.73L22.69 18.32C22.69 17.50 23.21 17.05 23.87 17.05C24.60 17.05 25.05 17.50 25.05 18.33L25.05 21.73L25.92 21.73L25.92 18.33C25.92 17.58 26.35 17.05 27.11 17.05C27.88 17.05 28.28 17.56 28.28 18.25L28.28 21.73L29.15 21.73L29.15 18.07C29.15 16.96 28.48 16.26 27.34 16.26C26.47 16.26 25.90 16.66 25.69 17.12L25.65 17.12C25.44 16.60 24.94 16.26 24.10 16.26C23.38 16.26 22.91 16.64 22.73 17.01L22.69 17.01L22.69 16.34L21.81 16.34ZM30.70 21.73L31.58 21.73L31.58 18.32C31.58 17.50 32.10 17.05 32.76 17.05C33.49 17.05 33.94 17.50 33.94 18.33L33.94 21.73L34.81 21.73L34.81 18.33C34.81 17.58 35.24 17.05 36.00 17.05C36.77 17.05 37.17 17.56 37.17 18.25L37.17 21.73L38.04 21.73L38.04 18.07C38.04 16.96 37.37 16.26 36.23 16.26C35.36 16.26 34.79 16.66 34.58 17.12L34.54 17.12C34.33 16.60 33.83 16.26 32.99 16.26C32.27 16.26 31.80 16.64 31.62 17.01L31.58 17.01L31.58 16.34L30.70 16.34ZM42.60 21.06L42.63 21.06L42.63 21.73L43.47 21.73L43.47 18.02C43.47 16.88 42.64 16.26 41.49 16.26C40.19 16.26 39.54 16.94 39.49 17.89L40.32 17.89C40.37 17.35 40.76 17.00 41.46 17.00C42.18 17.00 42.60 17.38 42.60 18.09L42.60 18.64L41.17 18.64C39.94 18.65 39.28 19.24 39.28 20.18C39.28 21.17 40.00 21.82 41.04 21.82C41.84 21.82 42.33 21.50 42.60 21.06ZM41.28 21.09C40.71 21.09 40.19 20.79 40.19 20.15C40.19 19.67 40.50 19.32 41.24 19.32L42.60 19.32L42.60 19.94C42.60 20.61 42.03 21.09 41.28 21.09ZM44.99 21.73L45.88 21.73L45.88 18.45C45.88 17.71 46.28 17.06 47.20 17.06C47.99 17.06 48.52 17.52 48.52 18.43L48.52 21.73L49.40 21.73L49.40 18.28C49.40 16.96 48.58 16.26 47.47 16.26C46.59 16.26 46.10 16.71 45.90 17.06L45.87 17.06L45.87 16.34L44.99 16.34ZM52.83 16.26C51.47 16.26 50.68 17.33 50.68 18.79L50.68 19.28C50.68 20.78 51.42 21.81 52.83 21.81C53.55 21.81 54.12 21.48 54.42 20.92L54.44 20.92L54.44 21.73L55.28 21.73L55.28 14.36L54.40 14.36L54.40 17.09L54.38 17.09C54.11 16.62 53.54 16.26 52.83 16.26ZM52.95 17.03C53.86 17.03 54.42 17.74 54.42 18.83L54.42 19.26C54.42 20.40 53.87 21.05 52.97 21.05C52.15 21.05 51.56 20.45 51.56 19.25L51.56 18.83C51.56 17.63 52.15 17.03 52.95 17.03Z" fill="#ffffff"></path></svg>