<svg xmlns="http://www.w3.org/2000/svg" version="1.1" xmlns:xlink="http://www.w3.org/1999/xlink" xmlns:svgjs="http://svgjs.com/svgjs" width="30" height="30"><svg id="SvgjsSvg1002" style="overflow: hidden; top: -100%; left: -100%; position: absolute; opacity: 0;" width="2" height="0" focusable="false"><polyline id="SvgjsPolyline1003" points="0,0"></polyline><path id="SvgjsPath1004" d="M0 0 "></path></svg><defs id="SvgjsDefs2259"></defs><rect id="SvgjsRect2260" width="29" height="29" x="0.5" y="0.5" rx="6" ry="6" fill="#2d333b" stroke-opacity="1" stroke="#444c56" stroke-width="1"></rect><path id="SvgjsPath2261" d="M11.99 13.86L11.99 17.07L10.60 17.08C9.04 17.08 7.78 18.29 7.78 19.86C7.78 21.42 9.04 22.68 10.60 22.68C12.15 22.68 13.41 21.42 13.41 19.86L13.41 18.49L16.59 18.49L16.59 19.86C16.59 21.42 17.85 22.68 19.40 22.68C20.96 22.68 22.22 21.42 22.22 19.86C22.22 18.29 20.96 17.08 19.40 17.08L18.01 17.07L18.01 13.86L19.40 13.86C20.96 13.85 22.22 12.64 22.22 11.07C22.22 9.51 20.96 8.25 19.40 8.25C17.85 8.25 16.59 9.51 16.59 11.07L16.59 12.45L13.41 12.45L13.41 11.07C13.41 9.51 12.15 8.25 10.60 8.25C9.04 8.25 7.78 9.51 7.78 11.07C7.78 12.64 9.04 13.85 10.60 13.86ZM10.61 12.47C9.84 12.47 9.22 11.84 9.22 11.07C9.22 10.31 9.84 9.69 10.60 9.69C11.35 9.69 11.98 10.31 11.98 11.08L11.98 12.47ZM19.39 12.47L18.02 12.47L18.02 11.08C18.02 10.31 18.65 9.69 19.40 9.69C20.16 9.69 20.78 10.31 20.78 11.07C20.78 11.84 20.15 12.47 19.39 12.47ZM13.41 17.09L13.41 13.84L16.58 13.84L16.58 17.09ZM10.61 18.46L11.98 18.46L11.98 19.84C11.98 20.61 11.35 21.23 10.60 21.23C9.84 21.23 9.22 20.61 9.22 19.85C9.22 19.09 9.84 18.46 10.61 18.46ZM19.39 18.46C20.15 18.46 20.78 19.09 20.78 19.85C20.78 20.61 20.16 21.23 19.40 21.23C18.65 21.23 18.02 20.61 18.02 19.84L18.02 18.46Z" fill="#ffffff"></path></svg>