<svg xmlns="http://www.w3.org/2000/svg" version="1.1" xmlns:xlink="http://www.w3.org/1999/xlink" xmlns:svgjs="http://svgjs.com/svgjs" width="57" height="30"><svg id="SvgjsSvg1002" style="overflow: hidden; top: -100%; left: -100%; position: absolute; opacity: 0;" width="2" height="0" focusable="false"><polyline id="SvgjsPolyline1003" points="0,0"></polyline><path id="SvgjsPath1004" d="M0 0 "></path></svg><defs id="SvgjsDefs2235"></defs><rect id="SvgjsRect2236" width="56" height="29" x="0.5" y="0.5" rx="6" ry="6" fill="#2d333b" stroke-opacity="1" stroke="#444c56" stroke-width="1"></rect><path id="SvgjsPath2237" d="M9.44 13.26C8.08 13.26 7.28 14.33 7.28 15.79L7.28 16.28C7.28 17.78 8.03 18.81 9.44 18.81C10.16 18.81 10.72 18.48 11.03 17.92L11.05 17.92L11.05 18.73L11.89 18.73L11.89 11.36L11.01 11.36L11.01 14.09L10.99 14.09C10.71 13.62 10.15 13.26 9.44 13.26ZM9.56 14.03C10.47 14.03 11.03 14.74 11.03 15.83L11.03 16.26C11.03 17.40 10.48 18.05 9.58 18.05C8.76 18.05 8.17 17.45 8.17 16.25L8.17 15.83C8.17 14.63 8.76 14.03 9.56 14.03ZM15.52 18.82C16.71 18.82 17.43 18.16 17.63 17.27L16.75 17.27C16.58 17.77 16.17 18.08 15.54 18.08C14.67 18.08 14.14 17.38 14.14 16.35L14.14 16.26L17.70 16.26L17.70 15.75C17.70 14.27 16.89 13.26 15.48 13.26C14.07 13.26 13.26 14.27 13.26 15.69L13.26 16.30C13.26 17.83 14.12 18.82 15.52 18.82ZM14.14 15.54L14.14 15.53C14.14 14.68 14.67 14.00 15.49 14.00C16.29 14.00 16.82 14.67 16.82 15.53L16.82 15.54ZM19.07 18.73L19.95 18.73L19.95 11.36L19.07 11.36ZM23.60 18.82C24.79 18.82 25.50 18.16 25.71 17.27L24.83 17.27C24.65 17.77 24.24 18.08 23.62 18.08C22.74 18.08 22.22 17.38 22.22 16.35L22.22 16.26L25.78 16.26L25.78 15.75C25.78 14.27 24.97 13.26 23.56 13.26C22.14 13.26 21.34 14.27 21.34 15.69L21.34 16.30C21.34 17.83 22.19 18.82 23.60 18.82ZM22.22 15.54L22.22 15.53C22.22 14.68 22.74 14.00 23.56 14.00C24.37 14.00 24.90 14.67 24.90 15.53L24.90 15.54ZM27.45 13.34L26.72 13.34L26.72 14.08L27.44 14.08L27.44 17.23C27.44 18.29 27.71 18.78 28.98 18.78C29.17 18.78 29.35 18.76 29.43 18.74L29.43 18.04C29.36 18.05 29.29 18.05 29.20 18.05C28.54 18.05 28.33 17.88 28.33 17.24L28.33 14.08L29.39 14.08L29.39 13.34L28.33 13.34L28.33 12.00L27.45 12.00ZM32.69 18.82C33.88 18.82 34.60 18.16 34.80 17.27L33.92 17.27C33.75 17.77 33.34 18.08 32.71 18.08C31.84 18.08 31.31 17.38 31.31 16.35L31.31 16.26L34.87 16.26L34.87 15.75C34.87 14.27 34.06 13.26 32.65 13.26C31.24 13.26 30.43 14.27 30.43 15.69L30.43 16.30C30.43 17.83 31.29 18.82 32.69 18.82ZM31.31 15.54L31.31 15.53C31.31 14.68 31.84 14.00 32.66 14.00C33.46 14.00 33.99 14.67 33.99 15.53L33.99 15.54ZM40.31 19.73L44.51 19.72C45.11 19.72 45.59 19.54 46.00 19.10L48.83 16.17C49.16 15.83 49.29 15.53 49.29 15.23C49.29 14.92 49.16 14.64 48.83 14.29L46.01 11.34C45.60 10.90 45.12 10.75 44.52 10.75L40.31 10.75C39.29 10.75 38.76 11.26 38.76 12.28L38.76 18.21C38.76 19.22 39.29 19.73 40.31 19.73ZM41.44 17.39C41.18 17.39 40.98 17.19 40.98 16.94C40.98 16.83 41.03 16.72 41.12 16.63L42.51 15.23L41.12 13.84C41.03 13.75 40.98 13.64 40.98 13.52C40.98 13.27 41.18 13.06 41.44 13.06C41.55 13.06 41.67 13.11 41.75 13.20L43.15 14.59L44.54 13.20C44.63 13.11 44.74 13.06 44.86 13.06C45.11 13.06 45.32 13.27 45.32 13.52C45.32 13.64 45.27 13.75 45.18 13.84L43.79 15.23L45.18 16.63C45.27 16.72 45.32 16.83 45.32 16.94C45.32 17.19 45.11 17.39 44.86 17.39C44.74 17.39 44.63 17.35 44.55 17.27L43.15 15.86L41.75 17.27C41.67 17.35 41.56 17.39 41.44 17.39Z" fill="#ffffff"></path></svg>