<svg xmlns="http://www.w3.org/2000/svg" version="1.1" xmlns:xlink="http://www.w3.org/1999/xlink" xmlns:svgjs="http://svgjs.com/svgjs" width="48" height="30"><svg id="SvgjsSvg1002" style="overflow: hidden; top: -100%; left: -100%; position: absolute; opacity: 0;" width="2" height="0" focusable="false"><polyline id="SvgjsPolyline1003" points="0,0"></polyline><path id="SvgjsPath1004" d="M0 0 "></path></svg><defs id="SvgjsDefs2232"></defs><rect id="SvgjsRect2233" width="47" height="29" x="0.5" y="0.5" rx="6" ry="6" fill="#2d333b" stroke-opacity="1" stroke="#444c56" stroke-width="1"></rect><path id="SvgjsPath2234" d="M12.37 16.26C11.01 16.26 10.22 17.33 10.22 18.79L10.22 19.28C10.22 20.78 10.96 21.81 12.37 21.81C13.09 21.81 13.66 21.48 13.96 20.92L13.98 20.92L13.98 21.73L14.83 21.73L14.83 14.36L13.94 14.36L13.94 17.09L13.92 17.09C13.65 16.62 13.08 16.26 12.37 16.26ZM12.49 17.03C13.40 17.03 13.96 17.74 13.96 18.83L13.96 19.26C13.96 20.40 13.41 21.05 12.51 21.05C11.69 21.05 11.10 20.45 11.10 19.25L11.10 18.83C11.10 17.63 11.69 17.03 12.49 17.03ZM18.46 21.82C19.64 21.82 20.36 21.16 20.56 20.27L19.69 20.27C19.51 20.77 19.10 21.08 18.48 21.08C17.60 21.08 17.08 20.38 17.08 19.35L17.08 19.26L20.63 19.26L20.63 18.75C20.63 17.27 19.82 16.26 18.41 16.26C17.00 16.26 16.19 17.27 16.19 18.69L16.19 19.30C16.19 20.83 17.05 21.82 18.46 21.82ZM17.08 18.54L17.08 18.53C17.08 17.68 17.60 17.00 18.42 17.00C19.22 17.00 19.75 17.67 19.75 18.53L19.75 18.54ZM22.00 21.73L22.88 21.73L22.88 14.36L22.00 14.36ZM26.53 21.82C27.72 21.82 28.43 21.16 28.64 20.27L27.76 20.27C27.59 20.77 27.18 21.08 26.55 21.08C25.67 21.08 25.15 20.38 25.15 19.35L25.15 19.26L28.71 19.26L28.71 18.75C28.71 17.27 27.90 16.26 26.49 16.26C25.07 16.26 24.27 17.27 24.27 18.69L24.27 19.30C24.27 20.83 25.13 21.82 26.53 21.82ZM25.15 18.54L25.15 18.53C25.15 17.68 25.67 17.00 26.49 17.00C27.30 17.00 27.83 17.67 27.83 18.53L27.83 18.54ZM30.38 16.34L29.65 16.34L29.65 17.08L30.38 17.08L30.38 20.23C30.38 21.29 30.64 21.78 31.91 21.78C32.10 21.78 32.28 21.76 32.36 21.74L32.36 21.04C32.29 21.05 32.22 21.05 32.13 21.05C31.47 21.05 31.26 20.88 31.26 20.24L31.26 17.08L32.32 17.08L32.32 16.34L31.26 16.34L31.26 15.00L30.38 15.00ZM35.63 21.82C36.81 21.82 37.53 21.16 37.73 20.27L36.86 20.27C36.68 20.77 36.27 21.08 35.65 21.08C34.77 21.08 34.25 20.38 34.25 19.35L34.25 19.26L37.80 19.26L37.80 18.75C37.80 17.27 36.99 16.26 35.58 16.26C34.17 16.26 33.36 17.27 33.36 18.69L33.36 19.30C33.36 20.83 34.22 21.82 35.63 21.82ZM34.25 18.54L34.25 18.53C34.25 17.68 34.77 17.00 35.59 17.00C36.39 17.00 36.92 17.67 36.92 18.53L36.92 18.54Z" fill="#ffffff"></path></svg>