<svg xmlns="http://www.w3.org/2000/svg" version="1.1" xmlns:xlink="http://www.w3.org/1999/xlink" xmlns:svgjs="http://svgjs.com/svgjs" width="30" height="30"><svg id="SvgjsSvg1002" style="overflow: hidden; top: -100%; left: -100%; position: absolute; opacity: 0;" width="2" height="0" focusable="false"><polyline id="SvgjsPolyline1003" points="0,0"></polyline><path id="SvgjsPath1004" d="M0 0 "></path></svg><defs id="SvgjsDefs2289"></defs><rect id="SvgjsRect2290" width="29" height="29" x="0.5" y="0.5" rx="6" ry="6" fill="#2d333b" stroke-opacity="1" stroke="#444c56" stroke-width="1"></rect><path id="SvgjsPath2291" d="M9.07 16.91L20.95 16.91C21.73 16.91 22.15 16.50 22.17 15.81C22.17 15.48 22.00 15.14 21.74 14.87L16.23 9.00C15.86 8.62 15.48 8.38 15.01 8.38C14.52 8.38 14.16 8.61 13.78 9.00L8.28 14.87C8.02 15.14 7.85 15.48 7.85 15.81C7.85 16.50 8.28 16.91 9.07 16.91ZM10.12 15.51C10.01 15.51 9.94 15.45 9.94 15.36C9.94 15.31 9.97 15.28 9.99 15.25L14.78 10.22C14.86 10.15 14.91 10.09 15.01 10.09C15.10 10.09 15.15 10.15 15.23 10.22L20.01 15.25C20.04 15.28 20.07 15.31 20.07 15.36C20.07 15.45 20.00 15.51 19.89 15.51ZM9.44 22.63L20.55 22.63C21.69 22.63 22.32 22.05 22.32 20.95L22.32 19.96C22.32 18.86 21.69 18.27 20.55 18.27L9.44 18.27C8.31 18.27 7.68 18.85 7.68 19.96L7.68 20.95C7.68 22.06 8.31 22.63 9.44 22.63ZM9.66 21.27C9.35 21.27 9.20 21.09 9.20 20.79L9.20 20.11C9.20 19.81 9.35 19.63 9.66 19.63L20.34 19.63C20.65 19.63 20.80 19.81 20.80 20.11L20.80 20.79C20.80 21.09 20.65 21.27 20.34 21.27Z" fill="#ffffff"></path></svg>