<svg xmlns="http://www.w3.org/2000/svg" version="1.1" xmlns:xlink="http://www.w3.org/1999/xlink" xmlns:svgjs="http://svgjs.com/svgjs" width="45" height="30"><svg id="SvgjsSvg1002" style="overflow: hidden; top: -100%; left: -100%; position: absolute; opacity: 0;" width="2" height="0" focusable="false"><polyline id="SvgjsPolyline1003" points="0,0"></polyline><path id="SvgjsPath1004" d="M0 0 "></path></svg><defs id="SvgjsDefs2250"></defs><rect id="SvgjsRect2251" width="44" height="29" x="0.5" y="0.5" rx="6" ry="6" fill="#2d333b" stroke-opacity="1" stroke="#444c56" stroke-width="1"></rect><path id="SvgjsPath2252" d="M13.28 21.82C14.47 21.82 15.18 21.16 15.39 20.27L14.51 20.27C14.34 20.77 13.93 21.08 13.30 21.08C12.42 21.08 11.90 20.38 11.90 19.35L11.90 19.26L15.46 19.26L15.46 18.75C15.46 17.27 14.65 16.26 13.24 16.26C11.82 16.26 11.02 17.27 11.02 18.69L11.02 19.30C11.02 20.83 11.87 21.82 13.28 21.82ZM11.90 18.54L11.90 18.53C11.90 17.68 12.42 17.00 13.24 17.00C14.05 17.00 14.58 17.67 14.58 18.53L14.58 18.54ZM16.79 21.73L17.67 21.73L17.67 18.45C17.67 17.71 18.07 17.06 19.00 17.06C19.79 17.06 20.32 17.52 20.32 18.43L20.32 21.73L21.20 21.73L21.20 18.28C21.20 16.96 20.37 16.26 19.27 16.26C18.39 16.26 17.89 16.71 17.69 17.06L17.67 17.06L17.67 16.34L16.79 16.34ZM23.03 16.34L22.30 16.34L22.30 17.08L23.02 17.08L23.02 20.23C23.02 21.29 23.28 21.78 24.56 21.78C24.74 21.78 24.93 21.76 25.00 21.74L25.00 21.04C24.93 21.05 24.87 21.05 24.78 21.05C24.12 21.05 23.90 20.88 23.90 20.24L23.90 17.08L24.97 17.08L24.97 16.34L23.90 16.34L23.90 15.00L23.03 15.00ZM28.27 21.82C29.46 21.82 30.17 21.16 30.38 20.27L29.50 20.27C29.33 20.77 28.92 21.08 28.29 21.08C27.41 21.08 26.89 20.38 26.89 19.35L26.89 19.26L30.45 19.26L30.45 18.75C30.45 17.27 29.64 16.26 28.23 16.26C26.81 16.26 26.01 17.27 26.01 18.69L26.01 19.30C26.01 20.83 26.87 21.82 28.27 21.82ZM26.89 18.54L26.89 18.53C26.89 17.68 27.41 17.00 28.23 17.00C29.04 17.00 29.57 17.67 29.57 18.53L29.57 18.54ZM31.78 21.73L32.67 21.73L32.67 18.39C32.67 17.67 32.97 17.07 33.92 17.07C34.08 17.07 34.26 17.08 34.35 17.09L34.35 16.29C34.24 16.27 34.13 16.26 34.02 16.26C33.25 16.26 32.85 16.68 32.69 17.01L32.66 17.01L32.66 16.34L31.78 16.34Z" fill="#ffffff"></path></svg>