<svg xmlns="http://www.w3.org/2000/svg" version="1.1" xmlns:xlink="http://www.w3.org/1999/xlink" xmlns:svgjs="http://svgjs.com/svgjs" width="30" height="30"><svg id="SvgjsSvg1002" style="overflow: hidden; top: -100%; left: -100%; position: absolute; opacity: 0;" width="2" height="0" focusable="false"><polyline id="SvgjsPolyline1003" points="0,0"></polyline><path id="SvgjsPath1004" d="M0 0 "></path></svg><defs id="SvgjsDefs2286"></defs><rect id="SvgjsRect2287" width="29" height="29" x="0.5" y="0.5" rx="6" ry="6" fill="#2d333b" stroke-opacity="1" stroke="#444c56" stroke-width="1"></rect><path id="SvgjsPath2288" d="M9.36 22.58L15.99 22.57C16.96 22.57 17.75 22.30 18.42 21.58L22.79 16.99C23.32 16.42 23.56 15.94 23.56 15.46C23.56 14.98 23.32 14.51 22.79 13.93L18.43 9.35C17.76 8.63 16.96 8.37 16.00 8.37L9.36 8.37C7.68 8.37 6.83 9.20 6.83 10.85L6.83 20.13C6.83 21.78 7.68 22.58 9.36 22.58ZM9.41 21.07C8.72 21.07 8.34 20.71 8.34 19.99L8.34 10.95C8.34 10.23 8.72 9.87 9.41 9.87L16.05 9.87C16.57 9.87 16.92 9.98 17.29 10.37L21.61 14.91C21.83 15.15 21.91 15.31 21.91 15.46C21.91 15.62 21.84 15.78 21.61 16.02L17.28 20.57C16.91 20.96 16.57 21.07 16.04 21.07ZM11.31 18.65C11.51 18.65 11.67 18.59 11.80 18.46L13.81 16.44L15.82 18.46C15.94 18.58 16.10 18.65 16.30 18.65C16.69 18.65 17.00 18.33 17.00 17.95C17.00 17.76 16.92 17.59 16.79 17.46L14.80 15.46L16.79 13.47C16.92 13.33 17.00 13.16 17.00 12.97C17.00 12.58 16.68 12.26 16.30 12.26C16.10 12.26 15.94 12.33 15.80 12.48L13.81 14.48L11.81 12.48C11.67 12.33 11.51 12.26 11.31 12.26C10.93 12.26 10.61 12.58 10.61 12.97C10.61 13.16 10.69 13.33 10.82 13.47L12.81 15.46L10.82 17.46C10.69 17.59 10.61 17.76 10.61 17.95C10.61 18.33 10.92 18.65 11.31 18.65Z" fill="#ffffff"></path></svg>