<svg xmlns="http://www.w3.org/2000/svg" version="1.1" xmlns:xlink="http://www.w3.org/1999/xlink" xmlns:svgjs="http://svgjs.com/svgjs" width="39" height="30"><svg id="SvgjsSvg1002" style="overflow: hidden; top: -100%; left: -100%; position: absolute; opacity: 0;" width="2" height="0" focusable="false"><polyline id="SvgjsPolyline1003" points="0,0"></polyline><path id="SvgjsPath1004" d="M0 0 "></path></svg><defs id="SvgjsDefs2196"></defs><rect id="SvgjsRect2197" width="38" height="29" x="0.5" y="0.5" rx="6" ry="6" fill="#2d333b" stroke-opacity="1" stroke="#444c56" stroke-width="1"></rect><path id="SvgjsPath2198" d="M12.36 19.48L12.36 15.86L15.92 15.86L15.92 14.90L12.36 14.90L12.36 12.04L16.24 12.04L16.24 11.08L11.28 11.08L11.28 19.48ZM20.35 19.48L20.35 11.08L19.36 11.08C18.75 11.41 17.89 11.92 17.29 12.35L17.29 13.44C17.84 13.06 18.85 12.44 19.27 12.22L19.29 12.22L19.29 19.48ZM25.69 11.08C24.43 12.94 23.18 14.91 22.13 16.81L22.13 17.74L26.21 17.74L26.21 19.48L27.24 19.48L27.24 17.74L28.33 17.74L28.33 16.79L27.24 16.79L27.24 11.08ZM23.21 16.79L23.21 16.78C24.09 15.23 25.18 13.50 26.19 12.02L26.21 12.02L26.21 16.79Z" fill="#ffffff"></path></svg>