<svg xmlns="http://www.w3.org/2000/svg" version="1.1" xmlns:xlink="http://www.w3.org/1999/xlink" xmlns:svgjs="http://svgjs.com/svgjs" width="39" height="30"><svg id="SvgjsSvg1002" style="overflow: hidden; top: -100%; left: -100%; position: absolute; opacity: 0;" width="2" height="0" focusable="false"><polyline id="SvgjsPolyline1003" points="0,0"></polyline><path id="SvgjsPath1004" d="M0 0 "></path></svg><defs id="SvgjsDefs2199"></defs><rect id="SvgjsRect2200" width="38" height="29" x="0.5" y="0.5" rx="6" ry="6" fill="#2d333b" stroke-opacity="1" stroke="#444c56" stroke-width="1"></rect><path id="SvgjsPath2201" d="M12.29 19.48L12.29 15.86L15.85 15.86L15.85 14.90L12.29 14.90L12.29 12.04L16.17 12.04L16.17 11.08L11.21 11.08L11.21 19.48ZM20.28 19.48L20.28 11.08L19.28 11.08C18.68 11.41 17.81 11.92 17.22 12.35L17.22 13.44C17.77 13.06 18.78 12.44 19.20 12.22L19.22 12.22L19.22 19.48ZM22.34 17.37C22.42 18.59 23.37 19.66 25.10 19.66C26.82 19.66 28.13 18.47 28.13 16.74C28.13 15.06 26.86 13.92 25.35 13.92C24.45 13.92 23.75 14.35 23.54 14.64L23.52 14.64L23.80 12.01L27.50 12.01L27.50 11.07L22.90 11.07L22.43 15.95L23.35 15.95C23.59 15.41 24.15 14.83 25.19 14.83C26.21 14.83 27.04 15.57 27.04 16.77C27.04 18.05 26.03 18.73 25.17 18.73C24.21 18.73 23.51 18.25 23.37 17.37Z" fill="#ffffff"></path></svg>