<svg xmlns="http://www.w3.org/2000/svg" version="1.1" xmlns:xlink="http://www.w3.org/1999/xlink" xmlns:svgjs="http://svgjs.com/svgjs" width="39" height="30"><svg id="SvgjsSvg1002" style="overflow: hidden; top: -100%; left: -100%; position: absolute; opacity: 0;" width="2" height="0" focusable="false"><polyline id="SvgjsPolyline1003" points="0,0"></polyline><path id="SvgjsPath1004" d="M0 0 "></path></svg><defs id="SvgjsDefs2205"></defs><rect id="SvgjsRect2206" width="38" height="29" x="0.5" y="0.5" rx="6" ry="6" fill="#2d333b" stroke-opacity="1" stroke="#444c56" stroke-width="1"></rect><path id="SvgjsPath2207" d="M12.62 19.48L12.62 15.86L16.19 15.86L16.19 14.90L12.62 14.90L12.62 12.04L16.51 12.04L16.51 11.08L11.55 11.08L11.55 19.48ZM20.62 19.48L20.62 11.08L19.62 11.08C19.01 11.41 18.15 11.92 17.55 12.35L17.55 13.44C18.11 13.06 19.12 12.44 19.53 12.22L19.55 12.22L19.55 19.48ZM22.42 11.08L22.42 12.02L26.72 12.02L26.72 12.04L23.18 19.48L24.31 19.48L27.75 12.07L27.75 11.08Z" fill="#ffffff"></path></svg>