<svg xmlns="http://www.w3.org/2000/svg" version="1.1" xmlns:xlink="http://www.w3.org/1999/xlink" xmlns:svgjs="http://svgjs.com/svgjs" width="39" height="30"><svg id="SvgjsSvg1002" style="overflow: hidden; top: -100%; left: -100%; position: absolute; opacity: 0;" width="2" height="0" focusable="false"><polyline id="SvgjsPolyline1003" points="0,0"></polyline><path id="SvgjsPath1004" d="M0 0 "></path></svg><defs id="SvgjsDefs2163"></defs><rect id="SvgjsRect2164" width="38" height="29" x="0.5" y="0.5" rx="6" ry="6" fill="#2d333b" stroke-opacity="1" stroke="#444c56" stroke-width="1"></rect><path id="SvgjsPath2165" d="M14.95 19.48L14.95 15.86L18.51 15.86L18.51 14.90L14.95 14.90L14.95 12.04L18.83 12.04L18.83 11.08L13.87 11.08L13.87 19.48ZM21.70 15.62L22.55 15.62C23.72 15.62 24.41 16.22 24.42 17.14C24.44 18.06 23.76 18.73 22.56 18.73C21.43 18.73 20.90 18.09 20.79 17.31L19.78 17.31C19.83 18.59 20.72 19.66 22.52 19.66C24.27 19.66 25.54 18.59 25.51 17.15C25.48 15.78 24.39 15.17 23.68 15.11L23.68 15.09C24.33 14.99 25.24 14.24 25.21 13.04C25.17 11.84 24.14 10.90 22.56 10.90C20.86 10.90 20.01 12.08 19.99 13.18L21.02 13.18C21.07 12.55 21.50 11.83 22.56 11.83C23.51 11.83 24.11 12.40 24.12 13.22C24.12 14.08 23.46 14.68 22.51 14.68L21.70 14.68Z" fill="#ffffff"></path></svg>