<svg xmlns="http://www.w3.org/2000/svg" version="1.1" xmlns:xlink="http://www.w3.org/1999/xlink" xmlns:svgjs="http://svgjs.com/svgjs" width="39" height="30"><svg id="SvgjsSvg1002" style="overflow: hidden; top: -100%; left: -100%; position: absolute; opacity: 0;" width="2" height="0" focusable="false"><polyline id="SvgjsPolyline1003" points="0,0"></polyline><path id="SvgjsPath1004" d="M0 0 "></path></svg><defs id="SvgjsDefs2172"></defs><rect id="SvgjsRect2173" width="38" height="29" x="0.5" y="0.5" rx="6" ry="6" fill="#2d333b" stroke-opacity="1" stroke="#444c56" stroke-width="1"></rect><path id="SvgjsPath2174" d="M14.93 19.48L14.93 15.86L18.49 15.86L18.49 14.90L14.93 14.90L14.93 12.04L18.81 12.04L18.81 11.08L13.86 11.08L13.86 19.48ZM25.43 13.03C25.34 12.02 24.44 10.92 22.89 10.92C21.07 10.92 19.74 12.44 19.74 15.60C19.74 16.98 20.04 18.00 20.57 18.66C21.11 19.33 21.87 19.65 22.76 19.65C24.37 19.65 25.66 18.59 25.66 16.77C25.66 14.99 24.28 14.02 22.91 14.02C21.83 14.02 21.05 14.64 20.80 15.26L20.78 15.26C20.85 12.85 21.77 11.84 22.84 11.84C23.82 11.84 24.31 12.55 24.35 13.03ZM20.94 16.84C20.94 15.60 21.80 14.94 22.77 14.94C23.68 14.94 24.60 15.55 24.60 16.83C24.60 18.13 23.71 18.72 22.78 18.72C21.82 18.72 20.94 18.08 20.94 16.84Z" fill="#ffffff"></path></svg>