<svg xmlns="http://www.w3.org/2000/svg" version="1.1" xmlns:xlink="http://www.w3.org/1999/xlink" xmlns:svgjs="http://svgjs.com/svgjs" width="39" height="30"><svg id="SvgjsSvg1002" style="overflow: hidden; top: -100%; left: -100%; position: absolute; opacity: 0;" width="2" height="0" focusable="false"><polyline id="SvgjsPolyline1003" points="0,0"></polyline><path id="SvgjsPath1004" d="M0 0 "></path></svg><defs id="SvgjsDefs2178"></defs><rect id="SvgjsRect2179" width="38" height="29" x="0.5" y="0.5" rx="6" ry="6" fill="#2d333b" stroke-opacity="1" stroke="#444c56" stroke-width="1"></rect><path id="SvgjsPath2180" d="M14.81 19.48L14.81 15.86L18.37 15.86L18.37 14.90L14.81 14.90L14.81 12.04L18.69 12.04L18.69 11.08L13.73 11.08L13.73 19.48ZM22.64 19.66C24.37 19.66 25.63 18.64 25.63 17.18C25.63 15.88 24.64 15.23 23.94 15.06L23.94 15.04C24.48 14.86 25.31 14.27 25.31 13.15C25.31 11.84 24.19 10.90 22.67 10.90C21.15 10.90 20.04 11.84 20.04 13.15C20.04 14.25 20.82 14.85 21.40 15.04L21.40 15.06C20.70 15.23 19.70 15.87 19.70 17.19C19.70 18.65 20.92 19.66 22.64 19.66ZM22.67 14.66C21.75 14.66 21.07 14.06 21.07 13.22C21.07 12.38 21.75 11.81 22.67 11.81C23.60 11.81 24.26 12.38 24.26 13.22C24.26 14.06 23.60 14.66 22.67 14.66ZM22.67 18.76C21.58 18.76 20.76 18.10 20.76 17.15C20.76 16.19 21.58 15.54 22.67 15.54C23.76 15.54 24.58 16.19 24.58 17.15C24.58 18.10 23.76 18.76 22.67 18.76Z" fill="#ffffff"></path></svg>