<svg xmlns="http://www.w3.org/2000/svg" version="1.1" xmlns:xlink="http://www.w3.org/1999/xlink" xmlns:svgjs="http://svgjs.com/svgjs" width="39" height="30"><svg id="SvgjsSvg1002" style="overflow: hidden; top: -100%; left: -100%; position: absolute; opacity: 0;" width="2" height="0" focusable="false"><polyline id="SvgjsPolyline1003" points="0,0"></polyline><path id="SvgjsPath1004" d="M0 0 "></path></svg><defs id="SvgjsDefs2181"></defs><rect id="SvgjsRect2182" width="38" height="29" x="0.5" y="0.5" rx="6" ry="6" fill="#2d333b" stroke-opacity="1" stroke="#444c56" stroke-width="1"></rect><path id="SvgjsPath2183" d="M14.93 19.48L14.93 15.86L18.49 15.86L18.49 14.90L14.93 14.90L14.93 12.04L18.81 12.04L18.81 11.08L13.86 11.08L13.86 19.48ZM19.84 17.42C19.91 18.43 20.77 19.64 22.52 19.64C24.50 19.64 25.67 17.96 25.67 15.12C25.67 12.07 24.44 10.91 22.59 10.91C21.13 10.91 19.76 11.97 19.76 13.76C19.76 15.59 21.06 16.55 22.40 16.55C23.58 16.55 24.34 15.96 24.58 15.31L24.62 15.31C24.62 17.38 23.90 18.72 22.57 18.72C21.52 18.72 20.98 18.01 20.91 17.42ZM24.49 13.78C24.49 14.87 23.61 15.63 22.62 15.63C21.67 15.63 20.82 15.03 20.82 13.74C20.82 12.45 21.74 11.84 22.66 11.84C23.66 11.84 24.49 12.47 24.49 13.78Z" fill="#ffffff"></path></svg>