<svg xmlns="http://www.w3.org/2000/svg" version="1.1" xmlns:xlink="http://www.w3.org/1999/xlink" xmlns:svgjs="http://svgjs.com/svgjs" width="30" height="30"><svg id="SvgjsSvg1002" style="overflow: hidden; top: -100%; left: -100%; position: absolute; opacity: 0;" width="2" height="0" focusable="false"><polyline id="SvgjsPolyline1003" points="0,0"></polyline><path id="SvgjsPath1004" d="M0 0 "></path></svg><defs id="SvgjsDefs2220"></defs><rect id="SvgjsRect2221" width="29" height="29" x="0.5" y="0.5" rx="6" ry="6" fill="#2d333b" stroke-opacity="1" stroke="#444c56" stroke-width="1"></rect><path id="SvgjsPath2222" d="M11.44 21.73L12.32 21.73L12.32 17.08L13.37 17.08L13.37 16.34L12.31 16.34L12.31 15.88C12.31 15.22 12.60 15.03 13.18 15.03C13.31 15.03 13.38 15.04 13.46 15.05L13.46 14.33C13.36 14.31 13.24 14.30 13.06 14.30C11.95 14.30 11.44 14.78 11.44 15.81L11.44 16.34L10.71 16.34L10.71 17.08L11.44 17.08ZM14.57 21.73L15.46 21.73L15.46 18.45C15.46 17.71 15.86 17.06 16.78 17.06C17.57 17.06 18.10 17.52 18.10 18.43L18.10 21.73L18.98 21.73L18.98 18.28C18.98 16.96 18.16 16.26 17.05 16.26C16.17 16.26 15.68 16.71 15.48 17.06L15.45 17.06L15.45 16.34L14.57 16.34Z" fill="#ffffff"></path></svg>