<svg xmlns="http://www.w3.org/2000/svg" version="1.1" xmlns:xlink="http://www.w3.org/1999/xlink" xmlns:svgjs="http://svgjs.com/svgjs" width="30" height="30"><svg id="SvgjsSvg1002" style="overflow: hidden; top: -100%; left: -100%; position: absolute; opacity: 0;" width="2" height="0" focusable="false"><polyline id="SvgjsPolyline1003" points="0,0"></polyline><path id="SvgjsPath1004" d="M0 0 "></path></svg><defs id="SvgjsDefs2262"></defs><rect id="SvgjsRect2263" width="29" height="29" x="0.5" y="0.5" rx="6" ry="6" fill="#2d333b" stroke-opacity="1" stroke="#444c56" stroke-width="1"></rect><path id="SvgjsPath2264" d="M11.71 8.50L8.11 8.50C7.61 8.50 7.22 8.87 7.22 9.35C7.22 9.83 7.61 10.19 8.11 10.19L11.30 10.19C11.55 10.19 11.73 10.30 11.84 10.54L16.70 21.40C17.02 22.12 17.51 22.43 18.28 22.43L21.90 22.43C22.38 22.43 22.78 22.05 22.78 21.58C22.78 21.11 22.38 20.74 21.90 20.74L18.71 20.74C18.42 20.74 18.25 20.63 18.14 20.39L13.30 9.53C13.00 8.89 12.43 8.50 11.71 8.50ZM21.90 8.50L17.24 8.50C16.74 8.50 16.36 8.86 16.36 9.34C16.36 9.82 16.74 10.18 17.24 10.18L21.90 10.18C22.39 10.18 22.77 9.82 22.77 9.34C22.77 8.86 22.39 8.50 21.90 8.50Z" fill="#ffffff"></path></svg>