<svg xmlns="http://www.w3.org/2000/svg" version="1.1" xmlns:xlink="http://www.w3.org/1999/xlink" xmlns:svgjs="http://svgjs.com/svgjs" width="30" height="30"><svg id="SvgjsSvg1002" style="overflow: hidden; top: -100%; left: -100%; position: absolute; opacity: 0;" width="2" height="0" focusable="false"><polyline id="SvgjsPolyline1003" points="0,0"></polyline><path id="SvgjsPath1004" d="M0 0 "></path></svg><defs id="SvgjsDefs2097"></defs><rect id="SvgjsRect2098" width="29" height="29" x="0.5" y="0.5" rx="6" ry="6" fill="#2d333b" stroke-opacity="1" stroke="#444c56" stroke-width="1"></rect><path id="SvgjsPath2099" d="M9.39 16.50C9.39 20.47 11.60 22.76 14.98 22.76C15.88 22.76 16.71 22.58 17.42 22.27L18.71 24.04L20.72 24.04L18.79 21.37C19.93 20.31 20.60 18.65 20.60 16.50L20.60 14.45C20.60 10.48 18.37 8.17 14.98 8.17C11.60 8.17 9.39 10.48 9.39 14.45ZM11.17 14.46C11.17 11.32 12.83 9.78 14.98 9.78C17.15 9.78 18.81 11.32 18.81 14.46L18.81 16.49C18.81 18.02 18.41 19.16 17.76 19.93L16.54 18.30L14.53 18.30L16.43 20.90C15.98 21.08 15.51 21.18 14.98 21.18C12.83 21.17 11.17 19.65 11.17 16.49Z" fill="#ffffff"></path></svg>