<svg xmlns="http://www.w3.org/2000/svg" version="1.1" xmlns:xlink="http://www.w3.org/1999/xlink" xmlns:svgjs="http://svgjs.com/svgjs" width="48" height="30"><svg id="SvgjsSvg1002" style="overflow: hidden; top: -100%; left: -100%; position: absolute; opacity: 0;" width="2" height="0" focusable="false"><polyline id="SvgjsPolyline1003" points="0,0"></polyline><path id="SvgjsPath1004" d="M0 0 "></path></svg><defs id="SvgjsDefs2241"></defs><rect id="SvgjsRect2242" width="47" height="29" x="0.5" y="0.5" rx="6" ry="6" fill="#2d333b" stroke-opacity="1" stroke="#444c56" stroke-width="1"></rect><path id="SvgjsPath2243" d="M10.80 21.73L11.69 21.73L11.69 18.39C11.69 17.67 11.99 17.07 12.94 17.07C13.11 17.07 13.28 17.08 13.37 17.09L13.37 16.29C13.26 16.27 13.15 16.26 13.04 16.26C12.27 16.26 11.87 16.68 11.71 17.01L11.69 17.01L11.69 16.34L10.80 16.34ZM16.40 21.82C17.59 21.82 18.30 21.16 18.51 20.27L17.63 20.27C17.46 20.77 17.05 21.08 16.42 21.08C15.55 21.08 15.02 20.38 15.02 19.35L15.02 19.26L18.58 19.26L18.58 18.75C18.58 17.27 17.77 16.26 16.36 16.26C14.95 16.26 14.14 17.27 14.14 18.69L14.14 19.30C14.14 20.83 15.00 21.82 16.40 21.82ZM15.02 18.54L15.02 18.53C15.02 17.68 15.55 17.00 16.37 17.00C17.17 17.00 17.70 17.67 17.70 18.53L17.70 18.54ZM20.25 16.34L19.52 16.34L19.52 17.08L20.25 17.08L20.25 20.23C20.25 21.29 20.51 21.78 21.79 21.78C21.97 21.78 22.15 21.76 22.23 21.74L22.23 21.04C22.16 21.05 22.09 21.05 22.01 21.05C21.34 21.05 21.13 20.88 21.13 20.24L21.13 17.08L22.20 17.08L22.20 16.34L21.13 16.34L21.13 15.00L20.25 15.00ZM27.75 16.34L26.86 16.34L26.86 19.68C26.86 20.54 26.32 21.02 25.54 21.02C24.84 21.02 24.26 20.70 24.26 19.70L24.26 16.34L23.37 16.34L23.37 19.95C23.37 21.18 24.16 21.82 25.28 21.82C26.14 21.82 26.65 21.45 26.84 21.02L26.87 21.02L26.87 21.73L27.75 21.73ZM29.32 21.73L30.20 21.73L30.20 18.39C30.20 17.67 30.50 17.07 31.45 17.07C31.62 17.07 31.79 17.08 31.89 17.09L31.89 16.29C31.78 16.27 31.66 16.26 31.55 16.26C30.79 16.26 30.38 16.68 30.22 17.01L30.20 17.01L30.20 16.34L29.32 16.34ZM32.87 21.73L33.75 21.73L33.75 18.45C33.75 17.71 34.15 17.06 35.08 17.06C35.86 17.06 36.40 17.52 36.40 18.43L36.40 21.73L37.28 21.73L37.28 18.28C37.28 16.96 36.45 16.26 35.35 16.26C34.47 16.26 33.97 16.71 33.77 17.06L33.75 17.06L33.75 16.34L32.87 16.34Z" fill="#ffffff"></path></svg>