<svg xmlns="http://www.w3.org/2000/svg" version="1.1" xmlns:xlink="http://www.w3.org/1999/xlink" xmlns:svgjs="http://svgjs.com/svgjs" width="30" height="30"><svg id="SvgjsSvg1002" style="overflow: hidden; top: -100%; left: -100%; position: absolute; opacity: 0;" width="2" height="0" focusable="false"><polyline id="SvgjsPolyline1003" points="0,0"></polyline><path id="SvgjsPath1004" d="M0 0 "></path></svg><defs id="SvgjsDefs2268"></defs><rect id="SvgjsRect2269" width="29" height="29" x="0.5" y="0.5" rx="6" ry="6" fill="#2d333b" stroke-opacity="1" stroke="#444c56" stroke-width="1"></rect><path id="SvgjsPath2270" d="M12.67 22.58L17.33 22.58C18.48 22.58 19.08 21.92 19.08 20.83L19.08 17.54L21.98 17.54C22.68 17.54 23.23 17.11 23.23 16.46C23.23 16.06 23.03 15.76 22.72 15.45L16.03 8.77C15.72 8.46 15.38 8.26 15 8.26C14.62 8.26 14.28 8.46 13.97 8.77L7.28 15.45C6.95 15.77 6.77 16.06 6.77 16.46C6.77 17.11 7.32 17.54 8.02 17.54L10.92 17.54L10.92 20.83C10.92 21.92 11.52 22.58 12.67 22.58ZM12.91 21.12C12.66 21.12 12.49 20.95 12.49 20.70L12.49 16.26C12.49 16.20 12.45 16.16 12.38 16.16L8.88 16.16C8.84 16.16 8.82 16.14 8.82 16.11C8.82 16.09 8.83 16.07 8.85 16.05L14.91 10.04C14.93 10.01 14.97 10.00 15 10.00C15.03 10.00 15.07 10.01 15.09 10.04L21.15 16.05C21.17 16.07 21.18 16.09 21.18 16.11C21.18 16.14 21.16 16.16 21.12 16.16L17.63 16.16C17.55 16.16 17.51 16.20 17.51 16.26L17.51 20.70C17.51 20.95 17.34 21.12 17.10 21.12Z" fill="#ffffff"></path></svg>