<svg xmlns="http://www.w3.org/2000/svg" version="1.1" xmlns:xlink="http://www.w3.org/1999/xlink" xmlns:svgjs="http://svgjs.com/svgjs" width="45" height="30"><svg id="SvgjsSvg1002" style="overflow: hidden; top: -100%; left: -100%; position: absolute; opacity: 0;" width="2" height="0" focusable="false"><polyline id="SvgjsPolyline1003" points="0,0"></polyline><path id="SvgjsPath1004" d="M0 0 "></path></svg><defs id="SvgjsDefs2247"></defs><rect id="SvgjsRect2248" width="44" height="29" x="0.5" y="0.5" rx="6" ry="6" fill="#2d333b" stroke-opacity="1" stroke="#444c56" stroke-width="1"></rect><path id="SvgjsPath2249" d="M12.78 17.89C12.78 18.86 13.60 19.17 14.61 19.37C15.36 19.52 15.96 19.64 15.96 20.25C15.96 20.71 15.59 21.10 14.76 21.10C14.05 21.10 13.63 20.77 13.55 20.28L12.69 20.28C12.69 21.25 13.51 21.82 14.70 21.82C15.96 21.82 16.83 21.21 16.83 20.14C16.83 19.09 15.98 18.82 14.97 18.64C14.35 18.53 13.64 18.40 13.64 17.79C13.64 17.26 14.10 16.98 14.74 16.98C15.58 16.98 15.84 17.46 15.87 17.87L16.69 17.87C16.69 16.98 16.04 16.26 14.77 16.26C13.74 16.26 12.78 16.75 12.78 17.89ZM18.10 21.73L18.98 21.73L18.98 18.45C18.98 17.71 19.38 17.06 20.31 17.06C21.10 17.06 21.63 17.52 21.63 18.43L21.63 21.73L22.51 21.73L22.51 18.28C22.51 16.96 21.69 16.26 20.58 16.26C19.71 16.26 19.21 16.71 19.01 17.06L18.98 17.06L18.98 14.36L18.10 14.36ZM23.93 15.05C23.93 15.36 24.18 15.61 24.49 15.61C24.80 15.61 25.06 15.36 25.06 15.05C25.06 14.73 24.80 14.48 24.49 14.48C24.18 14.48 23.93 14.73 23.93 15.05ZM24.05 21.73L24.93 21.73L24.93 16.34L24.05 16.34ZM26.89 21.73L27.78 21.73L27.78 17.08L28.83 17.08L28.83 16.34L27.77 16.34L27.77 15.88C27.77 15.22 28.05 15.03 28.64 15.03C28.77 15.03 28.84 15.04 28.91 15.05L28.91 14.33C28.82 14.31 28.70 14.30 28.52 14.30C27.41 14.30 26.89 14.78 26.89 15.81L26.89 16.34L26.17 16.34L26.17 17.08L26.89 17.08ZM30.37 16.34L29.64 16.34L29.64 17.08L30.36 17.08L30.36 20.23C30.36 21.29 30.63 21.78 31.90 21.78C32.09 21.78 32.27 21.76 32.35 21.74L32.35 21.04C32.28 21.05 32.21 21.05 32.12 21.05C31.46 21.05 31.25 20.88 31.25 20.24L31.25 17.08L32.31 17.08L32.31 16.34L31.25 16.34L31.25 15.00L30.37 15.00Z" fill="#ffffff"></path></svg>