<svg xmlns="http://www.w3.org/2000/svg" version="1.1" xmlns:xlink="http://www.w3.org/1999/xlink" xmlns:svgjs="http://svgjs.com/svgjs" width="30" height="30"><svg id="SvgjsSvg1002" style="overflow: hidden; top: -100%; left: -100%; position: absolute; opacity: 0;" width="2" height="0" focusable="false"><polyline id="SvgjsPolyline1003" points="0,0"></polyline><path id="SvgjsPath1004" d="M0 0 "></path></svg><defs id="SvgjsDefs2274"></defs><rect id="SvgjsRect2275" width="29" height="29" x="0.5" y="0.5" rx="6" ry="6" fill="#2d333b" stroke-opacity="1" stroke="#444c56" stroke-width="1"></rect><path id="SvgjsPath2276" d="M15.83 22.69C16.08 22.69 16.30 22.61 16.51 22.40L22.94 15.98C23.12 15.81 23.22 15.60 23.24 15.38L23.24 21.79C23.24 22.32 23.64 22.69 24.18 22.69C24.72 22.69 25.11 22.32 25.11 21.79L25.11 8.80C25.11 8.25 24.72 7.87 24.18 7.87C23.64 7.87 23.24 8.25 23.24 8.80L23.24 15.19C23.22 14.97 23.12 14.75 22.94 14.59L16.51 8.16C16.30 7.97 16.08 7.87 15.83 7.87C15.31 7.87 14.92 8.25 14.92 8.78C14.92 9.03 15.01 9.27 15.17 9.44L17.36 11.65L20.41 14.43L18.33 14.34L5.82 14.34C5.27 14.34 4.88 14.73 4.88 15.29C4.88 15.83 5.27 16.22 5.82 16.22L18.33 16.22L20.42 16.15L17.36 18.92L15.17 21.13C15.01 21.30 14.92 21.54 14.92 21.80C14.92 22.31 15.31 22.69 15.83 22.69Z" fill="#ffffff"></path></svg>