<svg xmlns="http://www.w3.org/2000/svg" version="1.1" xmlns:xlink="http://www.w3.org/1999/xlink" xmlns:svgjs="http://svgjs.com/svgjs" width="30" height="30"><svg id="SvgjsSvg1002" style="overflow: hidden; top: -100%; left: -100%; position: absolute; opacity: 0;" width="2" height="0" focusable="false"><polyline id="SvgjsPolyline1003" points="0,0"></polyline><path id="SvgjsPath1004" d="M0 0 "></path></svg><defs id="SvgjsDefs1344"></defs><rect id="SvgjsRect1345" width="29" height="29" x="0.5" y="0.5" rx="6" ry="6" fill="#ffffff" stroke-opacity="1" stroke="#444c56" stroke-width="1"></rect><path id="SvgjsPath1346" d="M10.07 16.03C10.07 20.14 11.82 22.76 15.01 22.76C18.21 22.76 19.93 20.12 19.93 16.03L19.93 14.94C19.93 10.81 18.20 8.17 15.02 8.17C11.83 8.17 10.07 10.82 10.07 14.94ZM11.85 14.95C11.85 11.64 13.05 9.74 15.01 9.74C16.95 9.74 18.15 11.64 18.15 14.95L18.15 16.00C18.15 19.32 16.95 21.19 15.01 21.19C13.05 21.19 11.85 19.32 11.85 16.00Z" fill="#000000"></path></svg>