<svg xmlns="http://www.w3.org/2000/svg" version="1.1" xmlns:xlink="http://www.w3.org/1999/xlink" xmlns:svgjs="http://svgjs.com/svgjs" width="30" height="30"><svg id="SvgjsSvg1002" style="overflow: hidden; top: -100%; left: -100%; position: absolute; opacity: 0;" width="2" height="0" focusable="false"><polyline id="SvgjsPolyline1003" points="0,0"></polyline><path id="SvgjsPath1004" d="M0 0 "></path></svg><defs id="SvgjsDefs1359"></defs><rect id="SvgjsRect1360" width="29" height="29" x="0.5" y="0.5" rx="6" ry="6" fill="#ffffff" stroke-opacity="1" stroke="#444c56" stroke-width="1"></rect><path id="SvgjsPath1361" d="M10.32 18.95C10.46 20.98 12.04 22.76 14.93 22.76C17.78 22.76 19.97 20.78 19.97 17.90C19.97 15.09 17.86 13.21 15.34 13.21C13.85 13.21 12.68 13.92 12.33 14.41L12.30 14.41L12.76 10.02L18.92 10.02L18.92 8.45L11.25 8.45L10.48 16.59L12.00 16.59C12.41 15.68 13.34 14.72 15.08 14.72C16.77 14.72 18.16 15.95 18.16 17.95C18.16 20.09 16.48 21.21 15.05 21.21C13.44 21.21 12.27 20.42 12.04 18.95Z" fill="#000000"></path></svg>