<svg xmlns="http://www.w3.org/2000/svg" version="1.1" xmlns:xlink="http://www.w3.org/1999/xlink" xmlns:svgjs="http://svgjs.com/svgjs" width="30" height="30"><svg id="SvgjsSvg1002" style="overflow: hidden; top: -100%; left: -100%; position: absolute; opacity: 0;" width="2" height="0" focusable="false"><polyline id="SvgjsPolyline1003" points="0,0"></polyline><path id="SvgjsPath1004" d="M0 0 "></path></svg><defs id="SvgjsDefs1434"></defs><rect id="SvgjsRect1435" width="29" height="29" x="0.5" y="0.5" rx="6" ry="6" fill="#ffffff" stroke-opacity="1" stroke="#444c56" stroke-width="1"></rect><path id="SvgjsPath1436" d="M13.06 21.06L13.09 21.06L13.09 21.73L13.94 21.73L13.94 18.02C13.94 16.88 13.10 16.26 11.95 16.26C10.65 16.26 10.01 16.94 9.95 17.89L10.78 17.89C10.83 17.35 11.23 17.00 11.92 17.00C12.65 17.00 13.06 17.38 13.06 18.09L13.06 18.64L11.64 18.64C10.40 18.65 9.75 19.24 9.75 20.18C9.75 21.17 10.47 21.82 11.51 21.82C12.30 21.82 12.79 21.50 13.06 21.06ZM11.74 21.09C11.18 21.09 10.65 20.79 10.65 20.15C10.65 19.67 10.97 19.32 11.71 19.32L13.06 19.32L13.06 19.94C13.06 20.61 12.50 21.09 11.74 21.09ZM15.49 21.73L16.37 21.73L16.37 14.36L15.49 14.36ZM18.31 16.34L17.59 16.34L17.59 17.08L18.31 17.08L18.31 20.23C18.31 21.29 18.57 21.78 19.85 21.78C20.03 21.78 20.22 21.76 20.29 21.74L20.29 21.04C20.22 21.05 20.16 21.05 20.07 21.05C19.41 21.05 19.19 20.88 19.19 20.24L19.19 17.08L20.26 17.08L20.26 16.34L19.19 16.34L19.19 15.00L18.31 15.00Z" fill="#000000"></path></svg>