<svg xmlns="http://www.w3.org/2000/svg" version="1.1" xmlns:xlink="http://www.w3.org/1999/xlink" xmlns:svgjs="http://svgjs.com/svgjs" width="67.5" height="30"><svg id="SvgjsSvg1002" style="overflow: hidden; top: -100%; left: -100%; position: absolute; opacity: 0;" width="2" height="0" focusable="false"><polyline id="SvgjsPolyline1003" points="0,0"></polyline><path id="SvgjsPath1004" d="M0 0 "></path></svg><defs id="SvgjsDefs1470"></defs><rect id="SvgjsRect1471" width="66.5" height="29" x="0.5" y="0.5" rx="6" ry="6" fill="#ffffff" stroke-opacity="1" stroke="#444c56" stroke-width="1"></rect><path id="SvgjsPath1472" d="M12.50 21.82C13.80 21.82 14.65 20.86 14.65 19.30L14.65 18.77C14.65 17.15 13.77 16.26 12.51 16.26C11.83 16.26 11.20 16.62 10.93 17.08L10.90 17.08L10.90 14.36L10.02 14.36L10.02 21.73L10.87 21.73L10.87 20.92L10.89 20.92C11.21 21.48 11.73 21.82 12.50 21.82ZM12.39 21.05C11.45 21.05 10.89 20.41 10.89 19.24L10.89 18.83C10.89 17.66 11.46 17.03 12.39 17.03C13.20 17.03 13.76 17.66 13.76 18.83L13.76 19.25C13.76 20.40 13.20 21.05 12.39 21.05ZM19.01 21.06L19.04 21.06L19.04 21.73L19.88 21.73L19.88 18.02C19.88 16.88 19.05 16.26 17.90 16.26C16.60 16.26 15.96 16.94 15.90 17.89L16.73 17.89C16.78 17.35 17.18 17.00 17.87 17.00C18.60 17.00 19.01 17.38 19.01 18.09L19.01 18.64L17.59 18.64C16.35 18.65 15.70 19.24 15.70 20.18C15.70 21.17 16.41 21.82 17.45 21.82C18.25 21.82 18.74 21.50 19.01 21.06ZM17.69 21.09C17.13 21.09 16.60 20.79 16.60 20.15C16.60 19.67 16.92 19.32 17.65 19.32L19.01 19.32L19.01 19.94C19.01 20.61 18.44 21.09 17.69 21.09ZM21.19 19.28C21.19 20.72 22.00 21.82 23.43 21.82C24.66 21.82 25.34 21.17 25.52 20.25L24.65 20.25C24.55 20.68 24.16 21.04 23.49 21.04C22.63 21.04 22.07 20.34 22.07 19.29L22.07 18.78C22.07 17.70 22.59 17.04 23.48 17.04C24.07 17.04 24.49 17.45 24.61 17.91L25.48 17.91C25.43 17.08 24.67 16.26 23.43 16.26C22.02 16.26 21.19 17.30 21.19 18.75ZM27.65 19.79L28.14 19.25L29.97 21.73L31.06 21.73L28.79 18.69L30.92 16.34L29.83 16.34L27.68 18.73L27.65 18.73L27.65 14.36L26.76 14.36L26.76 21.73L27.65 21.73ZM31.51 17.89C31.51 18.86 32.34 19.17 33.34 19.37C34.10 19.52 34.70 19.64 34.70 20.25C34.70 20.71 34.32 21.10 33.50 21.10C32.78 21.10 32.36 20.77 32.28 20.28L31.42 20.28C31.42 21.25 32.25 21.82 33.43 21.82C34.70 21.82 35.56 21.21 35.56 20.14C35.56 19.09 34.71 18.82 33.70 18.64C33.09 18.53 32.37 18.40 32.37 17.79C32.37 17.26 32.83 16.98 33.48 16.98C34.32 16.98 34.57 17.46 34.60 17.87L35.42 17.87C35.42 16.98 34.77 16.26 33.51 16.26C32.47 16.26 31.51 16.75 31.51 17.89ZM39.26 21.82C40.53 21.82 41.41 20.86 41.41 19.29L41.41 18.79C41.41 17.20 40.51 16.26 39.29 16.26C38.57 16.26 38.02 16.61 37.71 17.12L37.68 17.12L37.68 16.34L36.83 16.34L36.83 23.52L37.72 23.52L37.72 21.01L37.74 21.01C38.04 21.49 38.57 21.82 39.26 21.82ZM39.17 21.05C38.25 21.05 37.70 20.32 37.70 19.22L37.70 18.82C37.70 17.74 38.25 17.02 39.15 17.02C40.02 17.02 40.52 17.69 40.52 18.82L40.52 19.22C40.52 20.40 39.98 21.05 39.17 21.05ZM45.77 21.06L45.80 21.06L45.80 21.73L46.64 21.73L46.64 18.02C46.64 16.88 45.81 16.26 44.66 16.26C43.36 16.26 42.71 16.94 42.66 17.89L43.49 17.89C43.54 17.35 43.93 17.00 44.63 17.00C45.35 17.00 45.77 17.38 45.77 18.09L45.77 18.64L44.34 18.64C43.11 18.65 42.45 19.24 42.45 20.18C42.45 21.17 43.17 21.82 44.21 21.82C45.01 21.82 45.50 21.50 45.77 21.06ZM44.45 21.09C43.88 21.09 43.36 20.79 43.36 20.15C43.36 19.67 43.67 19.32 44.41 19.32L45.77 19.32L45.77 19.94C45.77 20.61 45.20 21.09 44.45 21.09ZM47.95 19.28C47.95 20.72 48.75 21.82 50.18 21.82C51.42 21.82 52.10 21.17 52.28 20.25L51.41 20.25C51.31 20.68 50.92 21.04 50.25 21.04C49.38 21.04 48.83 20.34 48.83 19.29L48.83 18.78C48.83 17.70 49.35 17.04 50.24 17.04C50.83 17.04 51.25 17.45 51.37 17.91L52.24 17.91C52.19 17.08 51.43 16.26 50.18 16.26C48.78 16.26 47.95 17.30 47.95 18.75ZM55.55 21.82C56.74 21.82 57.45 21.16 57.66 20.27L56.78 20.27C56.61 20.77 56.20 21.08 55.57 21.08C54.70 21.08 54.17 20.38 54.17 19.35L54.17 19.26L57.73 19.26L57.73 18.75C57.73 17.27 56.92 16.26 55.51 16.26C54.10 16.26 53.29 17.27 53.29 18.69L53.29 19.30C53.29 20.83 54.15 21.82 55.55 21.82ZM54.17 18.54L54.17 18.53C54.17 17.68 54.70 17.00 55.52 17.00C56.32 17.00 56.85 17.67 56.85 18.53L56.85 18.54Z" fill="#000000"></path></svg>