<svg xmlns="http://www.w3.org/2000/svg" version="1.1" xmlns:xlink="http://www.w3.org/1999/xlink" xmlns:svgjs="http://svgjs.com/svgjs" width="30" height="30"><svg id="SvgjsSvg1002" style="overflow: hidden; top: -100%; left: -100%; position: absolute; opacity: 0;" width="2" height="0" focusable="false"><polyline id="SvgjsPolyline1003" points="0,0"></polyline><path id="SvgjsPath1004" d="M0 0 "></path></svg><defs id="SvgjsDefs1482"></defs><rect id="SvgjsRect1483" width="29" height="29" x="0.5" y="0.5" rx="6" ry="6" fill="#ffffff" stroke-opacity="1" stroke="#444c56" stroke-width="1"></rect><path id="SvgjsPath1484" d="M12.62 18.68L17.38 18.68C18.51 18.68 19.11 18.07 19.11 17.00L19.11 15.74L21.79 15.74C22.47 15.74 23.02 15.34 23.02 14.69C23.02 14.30 22.85 14.00 22.50 13.69L16.01 7.95C15.69 7.68 15.37 7.47 15.01 7.47C14.63 7.47 14.31 7.68 14.00 7.95L7.50 13.69C7.15 14.00 6.98 14.30 6.98 14.69C6.98 15.34 7.53 15.74 8.22 15.74L10.90 15.74L10.90 17.00C10.90 18.07 11.49 18.68 12.62 18.68ZM12.83 17.33C12.60 17.33 12.42 17.15 12.42 16.91L12.42 14.40L9.12 14.40C9.09 14.40 9.06 14.36 9.06 14.34C9.06 14.31 9.08 14.29 9.10 14.27L14.91 9.12C14.93 9.09 14.96 9.08 15.01 9.08C15.04 9.08 15.07 9.09 15.10 9.12L20.90 14.27C20.93 14.29 20.94 14.31 20.94 14.34C20.94 14.36 20.92 14.40 20.88 14.40L17.58 14.40L17.58 16.91C17.58 17.14 17.40 17.33 17.18 17.33ZM12.62 23.80L17.38 23.80C18.51 23.80 19.16 23.23 19.16 22.12L19.16 21.30C19.16 20.19 18.51 19.61 17.38 19.61L12.62 19.61C11.49 19.61 10.85 20.20 10.85 21.30L10.85 22.12C10.85 23.22 11.49 23.80 12.62 23.80ZM12.73 22.50C12.42 22.50 12.27 22.32 12.27 22.02L12.27 21.39C12.27 21.09 12.42 20.92 12.73 20.92L17.27 20.92C17.58 20.92 17.73 21.09 17.73 21.39L17.73 22.02C17.73 22.32 17.58 22.50 17.27 22.50Z" fill="#000000"></path></svg>