<svg xmlns="http://www.w3.org/2000/svg" version="1.1" xmlns:xlink="http://www.w3.org/1999/xlink" xmlns:svgjs="http://svgjs.com/svgjs" width="33" height="30"><svg id="SvgjsSvg1002" style="overflow: hidden; top: -100%; left: -100%; position: absolute; opacity: 0;" width="2" height="0" focusable="false"><polyline id="SvgjsPolyline1003" points="0,0"></polyline><path id="SvgjsPath1004" d="M0 0 "></path></svg><defs id="SvgjsDefs1431"></defs><rect id="SvgjsRect1432" width="32" height="29" x="0.5" y="0.5" rx="6" ry="6" fill="#ffffff" stroke-opacity="1" stroke="#444c56" stroke-width="1"></rect><path id="SvgjsPath1433" d="M6.96 19.28C6.96 20.72 7.77 21.82 9.20 21.82C10.43 21.82 11.11 21.17 11.29 20.25L10.42 20.25C10.33 20.68 9.93 21.04 9.26 21.04C8.40 21.04 7.85 20.34 7.85 19.29L7.85 18.78C7.85 17.70 8.36 17.04 9.26 17.04C9.84 17.04 10.27 17.45 10.38 17.91L11.25 17.91C11.20 17.08 10.45 16.26 9.20 16.26C7.79 16.26 6.96 17.30 6.96 18.75ZM12.52 21.73L13.40 21.73L13.40 18.32C13.40 17.50 13.92 17.05 14.58 17.05C15.32 17.05 15.76 17.50 15.76 18.33L15.76 21.73L16.63 21.73L16.63 18.33C16.63 17.58 17.06 17.05 17.82 17.05C18.59 17.05 18.99 17.56 18.99 18.25L18.99 21.73L19.86 21.73L19.86 18.07C19.86 16.96 19.19 16.26 18.05 16.26C17.18 16.26 16.61 16.66 16.40 17.12L16.36 17.12C16.15 16.60 15.65 16.26 14.81 16.26C14.10 16.26 13.62 16.64 13.44 17.01L13.40 17.01L13.40 16.34L12.52 16.34ZM23.35 16.26C21.99 16.26 21.20 17.33 21.20 18.79L21.20 19.28C21.20 20.78 21.94 21.81 23.35 21.81C24.07 21.81 24.64 21.48 24.94 20.92L24.96 20.92L24.96 21.73L25.81 21.73L25.81 14.36L24.92 14.36L24.92 17.09L24.90 17.09C24.63 16.62 24.06 16.26 23.35 16.26ZM23.47 17.03C24.38 17.03 24.94 17.74 24.94 18.83L24.94 19.26C24.94 20.40 24.39 21.05 23.49 21.05C22.67 21.05 22.08 20.45 22.08 19.25L22.08 18.83C22.08 17.63 22.67 17.03 23.47 17.03Z" fill="#000000"></path></svg>