<svg xmlns="http://www.w3.org/2000/svg" version="1.1" xmlns:xlink="http://www.w3.org/1999/xlink" xmlns:svgjs="http://svgjs.com/svgjs" width="30" height="30"><svg id="SvgjsSvg1002" style="overflow: hidden; top: -100%; left: -100%; position: absolute; opacity: 0;" width="2" height="0" focusable="false"><polyline id="SvgjsPolyline1003" points="0,0"></polyline><path id="SvgjsPath1004" d="M0 0 "></path></svg><defs id="SvgjsDefs1488"></defs><rect id="SvgjsRect1489" width="29" height="29" x="0.5" y="0.5" rx="6" ry="6" fill="#ffffff" stroke-opacity="1" stroke="#444c56" stroke-width="1"></rect><path id="SvgjsPath1490" d="M8.44 14.51C8.28 14.67 8.19 14.88 8.19 15.12C8.19 15.62 8.57 16.00 9.07 16.00C9.31 16.00 9.53 15.90 9.69 15.74L15.01 10.40L20.31 15.74C20.47 15.90 20.70 16.00 20.93 16.00C21.43 16.00 21.81 15.62 21.81 15.12C21.81 14.88 21.72 14.67 21.56 14.51L15.65 8.55C15.48 8.37 15.24 8.27 14.99 8.27C14.76 8.27 14.53 8.37 14.35 8.55Z" fill="#000000"></path></svg>