<svg xmlns="http://www.w3.org/2000/svg" version="1.1" xmlns:xlink="http://www.w3.org/1999/xlink" xmlns:svgjs="http://svgjs.com/svgjs" width="51" height="30"><svg id="SvgjsSvg1002" style="overflow: hidden; top: -100%; left: -100%; position: absolute; opacity: 0;" width="2" height="0" focusable="false"><polyline id="SvgjsPolyline1003" points="0,0"></polyline><path id="SvgjsPath1004" d="M0 0 "></path></svg><defs id="SvgjsDefs1461"></defs><rect id="SvgjsRect1462" width="50" height="29" x="0.5" y="0.5" rx="6" ry="6" fill="#ffffff" stroke-opacity="1" stroke="#444c56" stroke-width="1"></rect><path id="SvgjsPath1463" d="M9.88 19.28C9.88 20.72 10.68 21.82 12.11 21.82C13.35 21.82 14.03 21.17 14.21 20.25L13.34 20.25C13.24 20.68 12.85 21.04 12.18 21.04C11.31 21.04 10.76 20.34 10.76 19.29L10.76 18.78C10.76 17.70 11.28 17.04 12.17 17.04C12.75 17.04 13.18 17.45 13.30 17.91L14.16 17.91C14.12 17.08 13.36 16.26 12.11 16.26C10.71 16.26 9.88 17.30 9.88 18.75ZM17.54 16.26C16.03 16.26 15.22 17.35 15.22 18.79L15.22 19.27C15.22 20.73 16.03 21.82 17.54 21.82C19.05 21.82 19.84 20.73 19.84 19.27L19.84 18.79C19.84 17.35 19.05 16.26 17.54 16.26ZM17.54 17.01C18.46 17.01 18.96 17.72 18.96 18.82L18.96 19.24C18.96 20.34 18.46 21.06 17.54 21.06C16.61 21.06 16.10 20.34 16.10 19.24L16.10 18.82C16.10 17.72 16.61 17.01 17.54 17.01ZM21.20 21.73L22.09 21.73L22.09 18.45C22.09 17.71 22.49 17.06 23.41 17.06C24.20 17.06 24.73 17.52 24.73 18.43L24.73 21.73L25.61 21.73L25.61 18.28C25.61 16.96 24.79 16.26 23.68 16.26C22.80 16.26 22.31 16.71 22.11 17.06L22.08 17.06L22.08 16.34L21.20 16.34ZM27.44 16.34L26.71 16.34L26.71 17.08L27.43 17.08L27.43 20.23C27.43 21.29 27.69 21.78 28.97 21.78C29.16 21.78 29.34 21.76 29.42 21.74L29.42 21.04C29.35 21.05 29.28 21.05 29.19 21.05C28.53 21.05 28.31 20.88 28.31 20.24L28.31 17.08L29.38 17.08L29.38 16.34L28.31 16.34L28.31 15.00L27.44 15.00ZM30.64 21.73L31.52 21.73L31.52 18.39C31.52 17.67 31.82 17.07 32.78 17.07C32.94 17.07 33.11 17.08 33.21 17.09L33.21 16.29C33.10 16.27 32.99 16.26 32.87 16.26C32.11 16.26 31.70 16.68 31.54 17.01L31.52 17.01L31.52 16.34L30.64 16.34ZM36.29 16.26C34.78 16.26 33.97 17.35 33.97 18.79L33.97 19.27C33.97 20.73 34.78 21.82 36.29 21.82C37.80 21.82 38.60 20.73 38.60 19.27L38.60 18.79C38.60 17.35 37.80 16.26 36.29 16.26ZM36.29 17.01C37.22 17.01 37.72 17.72 37.72 18.82L37.72 19.24C37.72 20.34 37.22 21.06 36.29 21.06C35.36 21.06 34.86 20.34 34.86 19.24L34.86 18.82C34.86 17.72 35.36 17.01 36.29 17.01ZM39.99 21.73L40.87 21.73L40.87 14.36L39.99 14.36Z" fill="#000000"></path></svg>