<svg xmlns="http://www.w3.org/2000/svg" version="1.1" xmlns:xlink="http://www.w3.org/1999/xlink" xmlns:svgjs="http://svgjs.com/svgjs" width="30" height="30"><svg id="SvgjsSvg1002" style="overflow: hidden; top: -100%; left: -100%; position: absolute; opacity: 0;" width="2" height="0" focusable="false"><polyline id="SvgjsPolyline1003" points="0,0"></polyline><path id="SvgjsPath1004" d="M0 0 "></path></svg><defs id="SvgjsDefs1494"></defs><rect id="SvgjsRect1495" width="29" height="29" x="0.5" y="0.5" rx="6" ry="6" fill="#ffffff" stroke-opacity="1" stroke="#444c56" stroke-width="1"></rect><path id="SvgjsPath1496" d="M15 23.14C19.22 23.14 22.66 19.70 22.66 15.47C22.66 11.45 19.48 8.16 15.65 7.82C15.10 7.77 14.70 8.10 14.70 8.58C14.70 9.00 15 9.34 15.52 9.38C18.70 9.66 21.09 12.33 21.09 15.47C21.09 18.90 18.41 21.56 15 21.56C11.85 21.56 9.19 19.17 8.91 15.99C8.86 15.47 8.53 15.17 8.11 15.17C7.63 15.17 7.29 15.58 7.34 16.13C7.68 19.95 10.98 23.14 15 23.14ZM14.37 15.84C14.85 15.85 15.18 15.50 15.18 15.04C15.18 14.83 15.09 14.61 14.92 14.45L11.21 10.72L9.70 9.41C10.47 9.53 11.43 9.52 11.69 9.52C12.09 9.52 12.42 9.20 12.42 8.79C12.42 8.38 12.10 8.05 11.69 8.05L8.33 8.05C7.73 8.05 7.40 8.38 7.40 8.98L7.40 12.32C7.40 12.72 7.73 13.06 8.14 13.06C8.53 13.06 8.87 12.72 8.87 12.32C8.87 12.09 8.87 11.04 8.78 10.33L10.08 11.85L13.79 15.58C13.96 15.76 14.17 15.84 14.37 15.84Z" fill="#000000"></path></svg>