<svg xmlns="http://www.w3.org/2000/svg" version="1.1" xmlns:xlink="http://www.w3.org/1999/xlink" xmlns:svgjs="http://svgjs.com/svgjs" width="48" height="30"><svg id="SvgjsSvg1002" style="overflow: hidden; top: -100%; left: -100%; position: absolute; opacity: 0;" width="2" height="0" focusable="false"><polyline id="SvgjsPolyline1003" points="0,0"></polyline><path id="SvgjsPath1004" d="M0 0 "></path></svg><defs id="SvgjsDefs1455"></defs><rect id="SvgjsRect1456" width="47" height="29" x="0.5" y="0.5" rx="6" ry="6" fill="#ffffff" stroke-opacity="1" stroke="#444c56" stroke-width="1"></rect><path id="SvgjsPath1457" d="M10.39 21.82C11.57 21.82 12.29 21.16 12.49 20.27L11.62 20.27C11.44 20.77 11.03 21.08 10.41 21.08C9.53 21.08 9.01 20.38 9.01 19.35L9.01 19.26L12.56 19.26L12.56 18.75C12.56 17.27 11.75 16.26 10.34 16.26C8.93 16.26 8.12 17.27 8.12 18.69L8.12 19.30C8.12 20.83 8.98 21.82 10.39 21.82ZM9.01 18.54L9.01 18.53C9.01 17.68 9.53 17.00 10.35 17.00C11.15 17.00 11.68 17.67 11.68 18.53L11.68 18.54ZM13.68 17.89C13.68 18.86 14.50 19.17 15.51 19.37C16.26 19.52 16.86 19.64 16.86 20.25C16.86 20.71 16.49 21.10 15.66 21.10C14.94 21.10 14.52 20.77 14.45 20.28L13.58 20.28C13.58 21.25 14.41 21.82 15.59 21.82C16.86 21.82 17.73 21.21 17.73 20.14C17.73 19.09 16.88 18.82 15.87 18.64C15.25 18.53 14.54 18.40 14.54 17.79C14.54 17.26 15.00 16.98 15.64 16.98C16.48 16.98 16.74 17.46 16.77 17.87L17.59 17.87C17.59 16.98 16.94 16.26 15.67 16.26C14.64 16.26 13.68 16.75 13.68 17.89ZM18.77 19.28C18.77 20.72 19.57 21.82 21.00 21.82C22.24 21.82 22.92 21.17 23.10 20.25L22.23 20.25C22.13 20.68 21.74 21.04 21.06 21.04C20.20 21.04 19.65 20.34 19.65 19.29L19.65 18.78C19.65 17.70 20.17 17.04 21.06 17.04C21.64 17.04 22.07 17.45 22.19 17.91L23.05 17.91C23.01 17.08 22.25 16.26 21.00 16.26C19.60 16.26 18.77 17.30 18.77 18.75ZM27.34 21.06L27.36 21.06L27.36 21.73L28.21 21.73L28.21 18.02C28.21 16.88 27.37 16.26 26.22 16.26C24.92 16.26 24.28 16.94 24.22 17.89L25.05 17.89C25.10 17.35 25.50 17.00 26.19 17.00C26.92 17.00 27.33 17.38 27.33 18.09L27.33 18.64L25.91 18.64C24.67 18.65 24.02 19.24 24.02 20.18C24.02 21.17 24.74 21.82 25.78 21.82C26.57 21.82 27.06 21.50 27.34 21.06ZM26.01 21.09C25.45 21.09 24.92 20.79 24.92 20.15C24.92 19.67 25.24 19.32 25.98 19.32L27.33 19.32L27.33 19.94C27.33 20.61 26.77 21.09 26.01 21.09ZM32.17 21.82C33.44 21.82 34.32 20.86 34.32 19.29L34.32 18.79C34.32 17.20 33.42 16.26 32.21 16.26C31.48 16.26 30.93 16.61 30.62 17.12L30.59 17.12L30.59 16.34L29.74 16.34L29.74 23.52L30.63 23.52L30.63 21.01L30.65 21.01C30.95 21.49 31.48 21.82 32.17 21.82ZM32.08 21.05C31.16 21.05 30.61 20.32 30.61 19.22L30.61 18.82C30.61 17.74 31.16 17.02 32.06 17.02C32.93 17.02 33.43 17.69 33.43 18.82L33.43 19.22C33.43 20.40 32.89 21.05 32.08 21.05ZM37.72 21.82C38.91 21.82 39.62 21.16 39.82 20.27L38.95 20.27C38.77 20.77 38.36 21.08 37.74 21.08C36.86 21.08 36.34 20.38 36.34 19.35L36.34 19.26L39.90 19.26L39.90 18.75C39.90 17.27 39.09 16.26 37.68 16.26C36.26 16.26 35.46 17.27 35.46 18.69L35.46 19.30C35.46 20.83 36.31 21.82 37.72 21.82ZM36.34 18.54L36.34 18.53C36.34 17.68 36.86 17.00 37.68 17.00C38.49 17.00 39.01 17.67 39.01 18.53L39.01 18.54Z" fill="#000000"></path></svg>