<svg xmlns="http://www.w3.org/2000/svg" version="1.1" xmlns:xlink="http://www.w3.org/1999/xlink" xmlns:svgjs="http://svgjs.com/svgjs" width="39" height="30"><svg id="SvgjsSvg1002" style="overflow: hidden; top: -100%; left: -100%; position: absolute; opacity: 0;" width="2" height="0" focusable="false"><polyline id="SvgjsPolyline1003" points="0,0"></polyline><path id="SvgjsPath1004" d="M0 0 "></path></svg><defs id="SvgjsDefs1401"></defs><rect id="SvgjsRect1402" width="38" height="29" x="0.5" y="0.5" rx="6" ry="6" fill="#ffffff" stroke-opacity="1" stroke="#444c56" stroke-width="1"></rect><path id="SvgjsPath1403" d="M12.39 19.48L12.39 15.86L15.95 15.86L15.95 14.90L12.39 14.90L12.39 12.04L16.27 12.04L16.27 11.08L11.31 11.08L11.31 19.48ZM20.38 19.48L20.38 11.08L19.38 11.08C18.77 11.41 17.91 11.92 17.32 12.35L17.32 13.44C17.87 13.06 18.88 12.44 19.30 12.22L19.32 12.22L19.32 19.48ZM22.19 15.62C22.19 18.08 23.23 19.66 25.15 19.66C27.07 19.66 28.10 18.07 28.10 15.62L28.10 14.96C28.10 12.48 27.07 10.90 25.15 10.90C23.24 10.90 22.19 12.49 22.19 14.96ZM23.25 14.97C23.25 12.98 23.97 11.84 25.15 11.84C26.32 11.84 27.04 12.98 27.04 14.97L27.04 15.60C27.04 17.59 26.32 18.72 25.15 18.72C23.97 18.72 23.25 17.59 23.25 15.60Z" fill="#000000"></path></svg>