<svg xmlns="http://www.w3.org/2000/svg" version="1.1" xmlns:xlink="http://www.w3.org/1999/xlink" xmlns:svgjs="http://svgjs.com/svgjs" width="39" height="30"><svg id="SvgjsSvg1002" style="overflow: hidden; top: -100%; left: -100%; position: absolute; opacity: 0;" width="2" height="0" focusable="false"><polyline id="SvgjsPolyline1003" points="0,0"></polyline><path id="SvgjsPath1004" d="M0 0 "></path></svg><defs id="SvgjsDefs1404"></defs><rect id="SvgjsRect1405" width="38" height="29" x="0.5" y="0.5" rx="6" ry="6" fill="#ffffff" stroke-opacity="1" stroke="#444c56" stroke-width="1"></rect><path id="SvgjsPath1406" d="M13.46 19.48L13.46 15.86L17.02 15.86L17.02 14.90L13.46 14.90L13.46 12.04L17.34 12.04L17.34 11.08L12.38 11.08L12.38 19.48ZM21.45 19.48L21.45 11.08L20.46 11.08C19.85 11.41 18.99 11.92 18.39 12.35L18.39 13.44C18.94 13.06 19.95 12.44 20.37 12.22L20.39 12.22L20.39 19.48ZM26.41 19.48L26.41 11.08L25.42 11.08C24.81 11.41 23.95 11.92 23.35 12.35L23.35 13.44C23.90 13.06 24.91 12.44 25.33 12.22L25.35 12.22L25.35 19.48Z" fill="#000000"></path></svg>