<svg xmlns="http://www.w3.org/2000/svg" version="1.1" xmlns:xlink="http://www.w3.org/1999/xlink" xmlns:svgjs="http://svgjs.com/svgjs" width="39" height="30"><svg id="SvgjsSvg1002" style="overflow: hidden; top: -100%; left: -100%; position: absolute; opacity: 0;" width="2" height="0" focusable="false"><polyline id="SvgjsPolyline1003" points="0,0"></polyline><path id="SvgjsPath1004" d="M0 0 "></path></svg><defs id="SvgjsDefs1407"></defs><rect id="SvgjsRect1408" width="38" height="29" x="0.5" y="0.5" rx="6" ry="6" fill="#ffffff" stroke-opacity="1" stroke="#444c56" stroke-width="1"></rect><path id="SvgjsPath1409" d="M12.54 19.48L12.54 15.86L16.10 15.86L16.10 14.90L12.54 14.90L12.54 12.04L16.42 12.04L16.42 11.08L11.46 11.08L11.46 19.48ZM20.53 19.48L20.53 11.08L19.53 11.08C18.92 11.41 18.06 11.92 17.46 12.35L17.46 13.44C18.02 13.06 19.03 12.44 19.44 12.22L19.46 12.22L19.46 19.48ZM23.50 13.40L23.50 13.36C23.50 12.55 24.08 11.83 25.07 11.83C25.95 11.83 26.61 12.39 26.61 13.28C26.61 14.04 26.12 14.62 25.65 15.17L22.51 18.80L22.51 19.48L27.86 19.48L27.86 18.54L24.01 18.54L24.01 18.52L26.27 15.86C27.09 14.91 27.70 14.22 27.70 13.20C27.70 11.88 26.67 10.90 25.10 10.90C23.40 10.90 22.45 12.07 22.45 13.36L22.45 13.40Z" fill="#000000"></path></svg>