<svg xmlns="http://www.w3.org/2000/svg" version="1.1" xmlns:xlink="http://www.w3.org/1999/xlink" xmlns:svgjs="http://svgjs.com/svgjs" width="39" height="30"><svg id="SvgjsSvg1002" style="overflow: hidden; top: -100%; left: -100%; position: absolute; opacity: 0;" width="2" height="0" focusable="false"><polyline id="SvgjsPolyline1003" points="0,0"></polyline><path id="SvgjsPath1004" d="M0 0 "></path></svg><defs id="SvgjsDefs1410"></defs><rect id="SvgjsRect1411" width="38" height="29" x="0.5" y="0.5" rx="6" ry="6" fill="#ffffff" stroke-opacity="1" stroke="#444c56" stroke-width="1"></rect><path id="SvgjsPath1412" d="M12.47 19.48L12.47 15.86L16.03 15.86L16.03 14.90L12.47 14.90L12.47 12.04L16.35 12.04L16.35 11.08L11.39 11.08L11.39 19.48ZM20.46 19.48L20.46 11.08L19.47 11.08C18.86 11.41 18.00 11.92 17.40 12.35L17.40 13.44C17.95 13.06 18.96 12.44 19.38 12.22L19.40 12.22L19.40 19.48ZM24.18 15.62L25.03 15.62C26.20 15.62 26.89 16.22 26.90 17.14C26.92 18.06 26.24 18.73 25.04 18.73C23.91 18.73 23.38 18.09 23.27 17.31L22.26 17.31C22.31 18.59 23.20 19.66 25.00 19.66C26.75 19.66 28.02 18.59 27.99 17.15C27.96 15.78 26.87 15.17 26.16 15.11L26.16 15.09C26.81 14.99 27.72 14.24 27.69 13.04C27.65 11.84 26.62 10.90 25.04 10.90C23.34 10.90 22.49 12.08 22.47 13.18L23.50 13.18C23.55 12.55 23.98 11.83 25.04 11.83C25.99 11.83 26.59 12.40 26.60 13.22C26.60 14.08 25.94 14.68 24.98 14.68L24.18 14.68Z" fill="#000000"></path></svg>