<svg xmlns="http://www.w3.org/2000/svg" version="1.1" xmlns:xlink="http://www.w3.org/1999/xlink" xmlns:svgjs="http://svgjs.com/svgjs" width="39" height="30"><svg id="SvgjsSvg1002" style="overflow: hidden; top: -100%; left: -100%; position: absolute; opacity: 0;" width="2" height="0" focusable="false"><polyline id="SvgjsPolyline1003" points="0,0"></polyline><path id="SvgjsPath1004" d="M0 0 "></path></svg><defs id="SvgjsDefs1419"></defs><rect id="SvgjsRect1420" width="38" height="29" x="0.5" y="0.5" rx="6" ry="6" fill="#ffffff" stroke-opacity="1" stroke="#444c56" stroke-width="1"></rect><path id="SvgjsPath1421" d="M12.45 19.48L12.45 15.86L16.01 15.86L16.01 14.90L12.45 14.90L12.45 12.04L16.33 12.04L16.33 11.08L11.38 11.08L11.38 19.48ZM20.44 19.48L20.44 11.08L19.45 11.08C18.84 11.41 17.98 11.92 17.38 12.35L17.38 13.44C17.93 13.06 18.94 12.44 19.36 12.22L19.38 12.22L19.38 19.48ZM27.91 13.03C27.82 12.02 26.92 10.92 25.37 10.92C23.55 10.92 22.22 12.44 22.22 15.60C22.22 16.98 22.52 18.00 23.05 18.66C23.59 19.33 24.34 19.65 25.24 19.65C26.85 19.65 28.13 18.59 28.13 16.77C28.13 14.99 26.76 14.02 25.38 14.02C24.31 14.02 23.53 14.64 23.28 15.26L23.26 15.26C23.33 12.85 24.25 11.84 25.32 11.84C26.30 11.84 26.79 12.55 26.83 13.03ZM23.42 16.84C23.42 15.60 24.28 14.94 25.25 14.94C26.16 14.94 27.08 15.55 27.08 16.83C27.08 18.13 26.18 18.72 25.26 18.72C24.30 18.72 23.42 18.08 23.42 16.84Z" fill="#000000"></path></svg>