<svg xmlns="http://www.w3.org/2000/svg" version="1.1" xmlns:xlink="http://www.w3.org/1999/xlink" xmlns:svgjs="http://svgjs.com/svgjs" width="39" height="30"><svg id="SvgjsSvg1002" style="overflow: hidden; top: -100%; left: -100%; position: absolute; opacity: 0;" width="2" height="0" focusable="false"><polyline id="SvgjsPolyline1003" points="0,0"></polyline><path id="SvgjsPath1004" d="M0 0 "></path></svg><defs id="SvgjsDefs1425"></defs><rect id="SvgjsRect1426" width="38" height="29" x="0.5" y="0.5" rx="6" ry="6" fill="#ffffff" stroke-opacity="1" stroke="#444c56" stroke-width="1"></rect><path id="SvgjsPath1427" d="M12.33 19.48L12.33 15.86L15.89 15.86L15.89 14.90L12.33 14.90L12.33 12.04L16.21 12.04L16.21 11.08L11.25 11.08L11.25 19.48ZM20.32 19.48L20.32 11.08L19.32 11.08C18.71 11.41 17.85 11.92 17.25 12.35L17.25 13.44C17.81 13.06 18.82 12.44 19.24 12.22L19.25 12.22L19.25 19.48ZM25.12 19.66C26.85 19.66 28.11 18.64 28.11 17.18C28.11 15.88 27.12 15.23 26.42 15.06L26.42 15.04C26.96 14.86 27.79 14.27 27.79 13.15C27.79 11.84 26.67 10.90 25.15 10.90C23.63 10.90 22.51 11.84 22.51 13.15C22.51 14.25 23.30 14.85 23.88 15.04L23.88 15.06C23.18 15.23 22.18 15.87 22.18 17.19C22.18 18.65 23.40 19.66 25.12 19.66ZM25.15 14.66C24.23 14.66 23.55 14.06 23.55 13.22C23.55 12.38 24.23 11.81 25.15 11.81C26.08 11.81 26.74 12.38 26.74 13.22C26.74 14.06 26.08 14.66 25.15 14.66ZM25.15 18.76C24.06 18.76 23.23 18.10 23.23 17.15C23.23 16.19 24.06 15.54 25.15 15.54C26.24 15.54 27.06 16.19 27.06 17.15C27.06 18.10 26.24 18.76 25.15 18.76Z" fill="#000000"></path></svg>