<svg xmlns="http://www.w3.org/2000/svg" version="1.1" xmlns:xlink="http://www.w3.org/1999/xlink" xmlns:svgjs="http://svgjs.com/svgjs" width="39" height="30"><svg id="SvgjsSvg1002" style="overflow: hidden; top: -100%; left: -100%; position: absolute; opacity: 0;" width="2" height="0" focusable="false"><polyline id="SvgjsPolyline1003" points="0,0"></polyline><path id="SvgjsPath1004" d="M0 0 "></path></svg><defs id="SvgjsDefs1428"></defs><rect id="SvgjsRect1429" width="38" height="29" x="0.5" y="0.5" rx="6" ry="6" fill="#ffffff" stroke-opacity="1" stroke="#444c56" stroke-width="1"></rect><path id="SvgjsPath1430" d="M12.45 19.48L12.45 15.86L16.01 15.86L16.01 14.90L12.45 14.90L12.45 12.04L16.33 12.04L16.33 11.08L11.38 11.08L11.38 19.48ZM20.44 19.48L20.44 11.08L19.45 11.08C18.84 11.41 17.98 11.92 17.38 12.35L17.38 13.44C17.93 13.06 18.94 12.44 19.36 12.22L19.38 12.22L19.38 19.48ZM22.31 17.42C22.39 18.43 23.25 19.64 25.00 19.64C26.98 19.64 28.15 17.96 28.15 15.12C28.15 12.07 26.92 10.91 25.07 10.91C23.61 10.91 22.24 11.97 22.24 13.76C22.24 15.59 23.54 16.55 24.88 16.55C26.06 16.55 26.82 15.96 27.06 15.31L27.10 15.31C27.10 17.38 26.38 18.72 25.05 18.72C24.00 18.72 23.46 18.01 23.39 17.42ZM26.97 13.78C26.97 14.87 26.09 15.63 25.10 15.63C24.15 15.63 23.30 15.03 23.30 13.74C23.30 12.45 24.22 11.84 25.14 11.84C26.14 11.84 26.97 12.47 26.97 13.78Z" fill="#000000"></path></svg>