<svg xmlns="http://www.w3.org/2000/svg" version="1.1" xmlns:xlink="http://www.w3.org/1999/xlink" xmlns:svgjs="http://svgjs.com/svgjs" width="39" height="30"><svg id="SvgjsSvg1002" style="overflow: hidden; top: -100%; left: -100%; position: absolute; opacity: 0;" width="2" height="0" focusable="false"><polyline id="SvgjsPolyline1003" points="0,0"></polyline><path id="SvgjsPath1004" d="M0 0 "></path></svg><defs id="SvgjsDefs1377"></defs><rect id="SvgjsRect1378" width="38" height="29" x="0.5" y="0.5" rx="6" ry="6" fill="#ffffff" stroke-opacity="1" stroke="#444c56" stroke-width="1"></rect><path id="SvgjsPath1379" d="M15.01 19.48L15.01 15.86L18.58 15.86L18.58 14.90L15.01 14.90L15.01 12.04L18.90 12.04L18.90 11.08L13.94 11.08L13.94 19.48ZM21.02 13.40L21.02 13.36C21.02 12.55 21.60 11.83 22.59 11.83C23.47 11.83 24.13 12.39 24.13 13.28C24.13 14.04 23.64 14.62 23.17 15.17L20.03 18.80L20.03 19.48L25.38 19.48L25.38 18.54L21.53 18.54L21.53 18.52L23.79 15.86C24.61 14.91 25.22 14.22 25.22 13.20C25.22 11.88 24.19 10.90 22.63 10.90C20.92 10.90 19.97 12.07 19.97 13.36L19.97 13.40Z" fill="#000000"></path></svg>