<svg xmlns="http://www.w3.org/2000/svg" version="1.1" xmlns:xlink="http://www.w3.org/1999/xlink" xmlns:svgjs="http://svgjs.com/svgjs" width="39" height="30"><svg id="SvgjsSvg1002" style="overflow: hidden; top: -100%; left: -100%; position: absolute; opacity: 0;" width="2" height="0" focusable="false"><polyline id="SvgjsPolyline1003" points="0,0"></polyline><path id="SvgjsPath1004" d="M0 0 "></path></svg><defs id="SvgjsDefs1383"></defs><rect id="SvgjsRect1384" width="38" height="29" x="0.5" y="0.5" rx="6" ry="6" fill="#ffffff" stroke-opacity="1" stroke="#444c56" stroke-width="1"></rect><path id="SvgjsPath1385" d="M14.84 19.48L14.84 15.86L18.40 15.86L18.40 14.90L14.84 14.90L14.84 12.04L18.72 12.04L18.72 11.08L13.76 11.08L13.76 19.48ZM23.21 11.08C21.95 12.94 20.70 14.91 19.65 16.81L19.65 17.74L23.73 17.74L23.73 19.48L24.76 19.48L24.76 17.74L25.85 17.74L25.85 16.79L24.76 16.79L24.76 11.08ZM20.73 16.79L20.73 16.78C21.61 15.23 22.70 13.50 23.71 12.02L23.73 12.02L23.73 16.79Z" fill="#000000"></path></svg>