<svg xmlns="http://www.w3.org/2000/svg" version="1.1" xmlns:xlink="http://www.w3.org/1999/xlink" xmlns:svgjs="http://svgjs.com/svgjs" width="39" height="30"><svg id="SvgjsSvg1002" style="overflow: hidden; top: -100%; left: -100%; position: absolute; opacity: 0;" width="2" height="0" focusable="false"><polyline id="SvgjsPolyline1003" points="0,0"></polyline><path id="SvgjsPath1004" d="M0 0 "></path></svg><defs id="SvgjsDefs1386"></defs><rect id="SvgjsRect1387" width="38" height="29" x="0.5" y="0.5" rx="6" ry="6" fill="#ffffff" stroke-opacity="1" stroke="#444c56" stroke-width="1"></rect><path id="SvgjsPath1388" d="M14.77 19.48L14.77 15.86L18.33 15.86L18.33 14.90L14.77 14.90L14.77 12.04L18.65 12.04L18.65 11.08L13.69 11.08L13.69 19.48ZM19.86 17.37C19.94 18.59 20.89 19.66 22.63 19.66C24.34 19.66 25.65 18.47 25.65 16.74C25.65 15.06 24.38 13.92 22.87 13.92C21.97 13.92 21.27 14.35 21.06 14.64L21.04 14.64L21.32 12.01L25.02 12.01L25.02 11.07L20.42 11.07L19.96 15.95L20.87 15.95C21.11 15.41 21.67 14.83 22.71 14.83C23.73 14.83 24.56 15.57 24.56 16.77C24.56 18.05 23.55 18.73 22.69 18.73C21.73 18.73 21.03 18.25 20.89 17.37Z" fill="#000000"></path></svg>