<svg xmlns="http://www.w3.org/2000/svg" version="1.1" xmlns:xlink="http://www.w3.org/1999/xlink" xmlns:svgjs="http://svgjs.com/svgjs" width="30" height="30"><svg id="SvgjsSvg1002" style="overflow: hidden; top: -100%; left: -100%; position: absolute; opacity: 0;" width="2" height="0" focusable="false"><polyline id="SvgjsPolyline1003" points="0,0"></polyline><path id="SvgjsPath1004" d="M0 0 "></path></svg><defs id="SvgjsDefs1284"></defs><rect id="SvgjsRect1285" width="29" height="29" x="0.5" y="0.5" rx="6" ry="6" fill="#ffffff" stroke-opacity="1" stroke="#444c56" stroke-width="1"></rect><path id="SvgjsPath1286" d="M20.37 12.73C20.18 10.02 18.14 8.17 15.16 8.17C11.68 8.17 9.60 10.51 9.60 14.32L9.60 16.39C9.60 20.46 11.56 22.76 15.20 22.76C18.24 22.76 20.40 20.73 20.40 18.06L20.40 15.17L15.05 15.17L15.05 16.73L18.66 16.73L18.66 18.09C18.66 19.90 17.26 21.15 15.21 21.15C12.72 21.15 11.39 19.43 11.39 16.39L11.39 14.32C11.39 11.46 12.78 9.78 15.16 9.78C17.10 9.78 18.37 10.89 18.59 12.73Z" fill="#000000"></path></svg>