<svg xmlns="http://www.w3.org/2000/svg" version="1.1" xmlns:xlink="http://www.w3.org/1999/xlink" xmlns:svgjs="http://svgjs.com/svgjs" width="30" height="30"><svg id="SvgjsSvg1002" style="overflow: hidden; top: -100%; left: -100%; position: absolute; opacity: 0;" width="2" height="0" focusable="false"><polyline id="SvgjsPolyline1003" points="0,0"></polyline><path id="SvgjsPath1004" d="M0 0 "></path></svg><defs id="SvgjsDefs1524"></defs><rect id="SvgjsRect1525" width="29" height="29" x="0.5" y="0.5" rx="6" ry="6" fill="#ffffff" stroke-opacity="1" stroke="#444c56" stroke-width="1"></rect><path id="SvgjsPath1526" d="M15.01 25.16C20.31 25.16 24.70 20.76 24.70 15.46C24.70 10.16 20.31 5.77 14.99 5.77C9.69 5.77 5.30 10.16 5.30 15.46C5.30 20.76 9.70 25.16 15.01 25.16ZM15.57 7.68C16.43 8.01 17.22 9.05 17.78 10.50C17.11 10.62 16.37 10.70 15.57 10.72ZM12.22 10.50C12.78 9.05 13.57 8.01 14.43 7.68L14.43 10.72C13.63 10.70 12.89 10.62 12.22 10.50ZM17.66 7.99C18.68 8.35 19.60 8.91 20.37 9.62C19.95 9.85 19.47 10.06 18.92 10.22C18.58 9.34 18.15 8.58 17.66 7.99ZM9.63 9.62C10.40 8.91 11.32 8.35 12.34 7.99C11.85 8.58 11.42 9.34 11.08 10.22C10.53 10.06 10.05 9.85 9.63 9.62ZM19.82 14.89C19.78 13.57 19.59 12.35 19.28 11.28C19.99 11.05 20.62 10.78 21.16 10.46C22.15 11.68 22.79 13.22 22.91 14.89ZM7.10 14.89C7.21 13.22 7.85 11.68 8.84 10.46C9.38 10.78 10.01 11.05 10.72 11.28C10.41 12.35 10.22 13.57 10.18 14.89ZM11.33 14.89C11.39 13.71 11.57 12.57 11.86 11.56C12.66 11.73 13.53 11.83 14.43 11.86L14.43 14.89ZM15.57 14.89L15.57 11.86C16.47 11.83 17.34 11.73 18.14 11.56C18.43 12.57 18.61 13.71 18.67 14.89ZM7.10 16.03L10.18 16.03C10.22 17.36 10.41 18.60 10.72 19.70C10.02 19.91 9.40 20.19 8.86 20.50C7.86 19.27 7.21 17.73 7.10 16.03ZM11.33 16.03L14.43 16.03L14.43 19.11C13.52 19.14 12.66 19.25 11.86 19.41C11.57 18.38 11.38 17.24 11.33 16.03ZM15.57 19.11L15.57 16.03L18.67 16.03C18.61 17.24 18.43 18.38 18.14 19.41C17.34 19.25 16.47 19.14 15.57 19.11ZM19.28 19.70C19.59 18.60 19.78 17.36 19.82 16.03L22.91 16.03C22.80 17.73 22.15 19.28 21.15 20.51C20.61 20.19 19.99 19.91 19.28 19.70ZM12.22 20.48C12.89 20.35 13.63 20.27 14.43 20.25L14.43 23.29C13.57 22.96 12.78 21.91 12.22 20.48ZM15.57 20.25C16.37 20.27 17.11 20.35 17.78 20.48C17.22 21.91 16.43 22.96 15.57 23.29ZM9.66 21.34C10.08 21.10 10.55 20.91 11.08 20.75C11.41 21.60 11.82 22.34 12.29 22.93C11.30 22.57 10.42 22.02 9.66 21.34ZM18.92 20.75C19.46 20.92 19.93 21.11 20.35 21.34C19.59 22.03 18.69 22.58 17.70 22.94C18.17 22.34 18.59 21.60 18.92 20.75Z" fill="#000000"></path></svg>