<svg xmlns="http://www.w3.org/2000/svg" version="1.1" xmlns:xlink="http://www.w3.org/1999/xlink" xmlns:svgjs="http://svgjs.com/svgjs" width="30" height="30"><svg id="SvgjsSvg1002" style="overflow: hidden; top: -100%; left: -100%; position: absolute; opacity: 0;" width="2" height="0" focusable="false"><polyline id="SvgjsPolyline1003" points="0,0"></polyline><path id="SvgjsPath1004" d="M0 0 "></path></svg><defs id="SvgjsDefs1308"></defs><rect id="SvgjsRect1309" width="29" height="29" x="0.5" y="0.5" rx="6" ry="6" fill="#ffffff" stroke-opacity="1" stroke="#444c56" stroke-width="1"></rect><path id="SvgjsPath1310" d="M9.39 16.57C9.39 20.53 11.59 22.76 14.98 22.76C18.38 22.76 20.61 20.53 20.61 16.57L20.61 14.51C20.61 10.53 18.41 8.17 15.02 8.17C11.63 8.17 9.39 10.53 9.39 14.51ZM11.19 14.50C11.19 11.37 12.85 9.78 15 9.78C17.16 9.78 18.81 11.37 18.81 14.50L18.81 16.57C18.81 19.71 17.16 21.15 15 21.15C12.85 21.15 11.19 19.71 11.19 16.57Z" fill="#000000"></path></svg>