<svg xmlns="http://www.w3.org/2000/svg" version="1.1" xmlns:xlink="http://www.w3.org/1999/xlink" xmlns:svgjs="http://svgjs.com/svgjs" width="48" height="30"><svg id="SvgjsSvg1002" style="overflow: hidden; top: -100%; left: -100%; position: absolute; opacity: 0;" width="2" height="0" focusable="false"><polyline id="SvgjsPolyline1003" points="0,0"></polyline><path id="SvgjsPath1004" d="M0 0 "></path></svg><defs id="SvgjsDefs1446"></defs><rect id="SvgjsRect1447" width="47" height="29" x="0.5" y="0.5" rx="6" ry="6" fill="#ffffff" stroke-opacity="1" stroke="#444c56" stroke-width="1"></rect><path id="SvgjsPath1448" d="M12.15 16.26C10.64 16.26 9.83 17.35 9.83 18.79L9.83 19.27C9.83 20.73 10.64 21.82 12.15 21.82C13.66 21.82 14.46 20.73 14.46 19.27L14.46 18.79C14.46 17.35 13.66 16.26 12.15 16.26ZM12.15 17.01C13.07 17.01 13.58 17.72 13.58 18.82L13.58 19.24C13.58 20.34 13.07 21.06 12.15 21.06C11.22 21.06 10.72 20.34 10.72 19.24L10.72 18.82C10.72 17.72 11.22 17.01 12.15 17.01ZM18.26 21.82C19.52 21.82 20.41 20.86 20.41 19.29L20.41 18.79C20.41 17.20 19.51 16.26 18.29 16.26C17.57 16.26 17.02 16.61 16.70 17.12L16.68 17.12L16.68 16.34L15.83 16.34L15.83 23.52L16.71 23.52L16.71 21.01L16.74 21.01C17.04 21.49 17.57 21.82 18.26 21.82ZM18.17 21.05C17.25 21.05 16.70 20.32 16.70 19.22L16.70 18.82C16.70 17.74 17.25 17.02 18.15 17.02C19.02 17.02 19.52 17.69 19.52 18.82L19.52 19.22C19.52 20.40 18.98 21.05 18.17 21.05ZM22.10 16.34L21.37 16.34L21.37 17.08L22.09 17.08L22.09 20.23C22.09 21.29 22.35 21.78 23.63 21.78C23.82 21.78 24 21.76 24.08 21.74L24.08 21.04C24.01 21.05 23.94 21.05 23.85 21.05C23.19 21.05 22.97 20.88 22.97 20.24L22.97 17.08L24.04 17.08L24.04 16.34L22.97 16.34L22.97 15.00L22.10 15.00ZM25.23 15.05C25.23 15.36 25.48 15.61 25.79 15.61C26.10 15.61 26.36 15.36 26.36 15.05C26.36 14.73 26.10 14.48 25.79 14.48C25.48 14.48 25.23 14.73 25.23 15.05ZM25.35 21.73L26.23 21.73L26.23 16.34L25.35 16.34ZM29.96 16.26C28.45 16.26 27.64 17.35 27.64 18.79L27.64 19.27C27.64 20.73 28.45 21.82 29.96 21.82C31.47 21.82 32.26 20.73 32.26 19.27L32.26 18.79C32.26 17.35 31.46 16.26 29.96 16.26ZM29.96 17.01C30.88 17.01 31.38 17.72 31.38 18.82L31.38 19.24C31.38 20.34 30.88 21.06 29.96 21.06C29.03 21.06 28.52 20.34 28.52 19.24L28.52 18.82C28.52 17.72 29.03 17.01 29.96 17.01ZM33.62 21.73L34.51 21.73L34.51 18.45C34.51 17.71 34.91 17.06 35.83 17.06C36.62 17.06 37.15 17.52 37.15 18.43L37.15 21.73L38.03 21.73L38.03 18.28C38.03 16.96 37.21 16.26 36.10 16.26C35.22 16.26 34.73 16.71 34.53 17.06L34.50 17.06L34.50 16.34L33.62 16.34Z" fill="#000000"></path></svg>