<svg xmlns="http://www.w3.org/2000/svg" version="1.1" xmlns:xlink="http://www.w3.org/1999/xlink" xmlns:svgjs="http://svgjs.com/svgjs" width="30" height="30"><svg id="SvgjsSvg1002" style="overflow: hidden; top: -100%; left: -100%; position: absolute; opacity: 0;" width="2" height="0" focusable="false"><polyline id="SvgjsPolyline1003" points="0,0"></polyline><path id="SvgjsPath1004" d="M0 0 "></path></svg><defs id="SvgjsDefs1317"></defs><rect id="SvgjsRect1318" width="29" height="29" x="0.5" y="0.5" rx="6" ry="6" fill="#ffffff" stroke-opacity="1" stroke="#444c56" stroke-width="1"></rect><path id="SvgjsPath1319" d="M15.52 8.47L10.46 8.47L10.46 22.46L12.25 22.46L12.25 16.90L15.64 16.90L18.22 22.46L20.27 22.46L17.41 16.54C18.65 16.10 20.02 14.94 20.02 12.64C20.02 10.45 18.64 8.47 15.52 8.47ZM12.25 15.33L12.25 10.05L15.29 10.05C17.04 10.05 18.17 10.96 18.17 12.74C18.17 14.40 17.17 15.33 15.21 15.33Z" fill="#000000"></path></svg>