<svg xmlns="http://www.w3.org/2000/svg" version="1.1" xmlns:xlink="http://www.w3.org/1999/xlink" xmlns:svgjs="http://svgjs.com/svgjs" width="30" height="30"><svg id="SvgjsSvg1002" style="overflow: hidden; top: -100%; left: -100%; position: absolute; opacity: 0;" width="2" height="0" focusable="false"><polyline id="SvgjsPolyline1003" points="0,0"></polyline><path id="SvgjsPath1004" d="M0 0 "></path></svg><defs id="SvgjsDefs1500"></defs><rect id="SvgjsRect1501" width="29" height="29" x="0.5" y="0.5" rx="6" ry="6" fill="#ffffff" stroke-opacity="1" stroke="#444c56" stroke-width="1"></rect><path id="SvgjsPath1502" d="M12.08 22.27C12.58 22.27 12.91 21.92 12.91 21.44C12.91 21.19 12.83 21.01 12.67 20.87L10.70 18.96L9.37 17.85L11.15 17.93L20.47 17.93C22.40 17.93 23.19 17.07 23.19 15.21L23.19 10.74C23.19 8.81 22.40 8.02 20.47 8.02L16.45 8.02C15.93 8.02 15.58 8.40 15.58 8.86C15.58 9.33 15.93 9.71 16.45 9.71L20.44 9.71C21.21 9.71 21.51 10.01 21.51 10.78L21.51 15.17C21.51 15.95 21.21 16.25 20.44 16.25L11.15 16.25L9.37 16.33L10.70 15.23L12.67 13.32C12.83 13.17 12.91 12.99 12.91 12.74C12.91 12.26 12.58 11.91 12.08 11.91C11.87 11.91 11.63 12.02 11.47 12.18L7.08 16.46C6.90 16.64 6.81 16.86 6.81 17.09C6.81 17.32 6.90 17.54 7.08 17.72L11.47 22.00C11.63 22.17 11.87 22.27 12.08 22.27Z" fill="#000000"></path></svg>