<svg xmlns="http://www.w3.org/2000/svg" version="1.1" xmlns:xlink="http://www.w3.org/1999/xlink" xmlns:svgjs="http://svgjs.com/svgjs" width="30" height="30"><svg id="SvgjsSvg1002" style="overflow: hidden; top: -100%; left: -100%; position: absolute; opacity: 0;" width="2" height="0" focusable="false"><polyline id="SvgjsPolyline1003" points="0,0"></polyline><path id="SvgjsPath1004" d="M0 0 "></path></svg><defs id="SvgjsDefs1320"></defs><rect id="SvgjsRect1321" width="29" height="29" x="0.5" y="0.5" rx="6" ry="6" fill="#ffffff" stroke-opacity="1" stroke="#444c56" stroke-width="1"></rect><path id="SvgjsPath1322" d="M9.70 18.69C9.76 20.51 11.04 22.76 14.75 22.76C17.66 22.76 19.97 21.33 19.97 18.57C19.97 16.32 18.48 15.33 16.33 14.76L13.91 14.12C12.56 13.78 11.94 13.04 11.94 12.05C11.94 10.55 13.20 9.72 14.93 9.72C16.89 9.72 17.92 10.78 18.04 12.12L19.81 12.12C19.75 9.40 17.35 8.14 14.97 8.14C12.46 8.14 10.12 9.54 10.12 12.17C10.12 14.35 11.73 15.41 13.40 15.84L15.86 16.49C17.41 16.89 18.14 17.54 18.14 18.70C18.14 20.23 16.89 21.17 14.94 21.17C12.79 21.17 11.63 20.04 11.50 18.69Z" fill="#000000"></path></svg>