<svg xmlns="http://www.w3.org/2000/svg" version="1.1" xmlns:xlink="http://www.w3.org/1999/xlink" xmlns:svgjs="http://svgjs.com/svgjs" width="30" height="30"><svg id="SvgjsSvg1002" style="overflow: hidden; top: -100%; left: -100%; position: absolute; opacity: 0;" width="2" height="0" focusable="false"><polyline id="SvgjsPolyline1003" points="0,0"></polyline><path id="SvgjsPath1004" d="M0 0 "></path></svg><defs id="SvgjsDefs1440"></defs><rect id="SvgjsRect1441" width="29" height="29" x="0.5" y="0.5" rx="6" ry="6" fill="#ffffff" stroke-opacity="1" stroke="#444c56" stroke-width="1"></rect><path id="SvgjsPath1442" d="M8.65 16.34L7.92 16.34L7.92 17.08L8.65 17.08L8.65 20.23C8.65 21.29 8.91 21.78 10.19 21.78C10.37 21.78 10.55 21.76 10.63 21.74L10.63 21.04C10.56 21.05 10.49 21.05 10.41 21.05C9.74 21.05 9.53 20.88 9.53 20.24L9.53 17.08L10.60 17.08L10.60 16.34L9.53 16.34L9.53 15.00L8.65 15.00ZM14.86 21.06L14.89 21.06L14.89 21.73L15.73 21.73L15.73 18.02C15.73 16.88 14.90 16.26 13.75 16.26C12.45 16.26 11.81 16.94 11.75 17.89L12.58 17.89C12.63 17.35 13.03 17.00 13.72 17.00C14.45 17.00 14.86 17.38 14.86 18.09L14.86 18.64L13.44 18.64C12.20 18.65 11.54 19.24 11.54 20.18C11.54 21.17 12.26 21.82 13.30 21.82C14.10 21.82 14.59 21.50 14.86 21.06ZM13.54 21.09C12.97 21.09 12.45 20.79 12.45 20.15C12.45 19.67 12.76 19.32 13.50 19.32L14.86 19.32L14.86 19.94C14.86 20.61 14.29 21.09 13.54 21.09ZM19.75 21.82C21.05 21.82 21.90 20.86 21.90 19.30L21.90 18.77C21.90 17.15 21.02 16.26 19.76 16.26C19.08 16.26 18.46 16.62 18.18 17.08L18.15 17.08L18.15 14.36L17.27 14.36L17.27 21.73L18.12 21.73L18.12 20.92L18.14 20.92C18.46 21.48 18.98 21.82 19.75 21.82ZM19.65 21.05C18.70 21.05 18.14 20.41 18.14 19.24L18.14 18.83C18.14 17.66 18.71 17.03 19.65 17.03C20.45 17.03 21.01 17.66 21.01 18.83L21.01 19.25C21.01 20.40 20.46 21.05 19.65 21.05Z" fill="#000000"></path></svg>